<svg width="265" height="207" viewBox="0 0 265 207" fill="none" xmlns="http://www.w3.org/2000/svg">
<g clip-path="url(#clip0_322_122)">
<path d="M14.189 31.0696L125.888 47.8557L120.703 131.177C120.703 131.177 5.7217 106.792 14.189 111.615C22.6562 116.433 14.189 31.0696 14.189 31.0696Z" fill="#006FDC"/>
<path d="M174.15 29.3208C167.849 67.8984 167.849 131.171 167.849 131.171L257.289 78.0962C257.289 78.0962 180.451 -9.25669 174.15 29.3208Z" fill="#526492"/>
<path d="M31.2522 184.979C32.2871 200.123 95.0167 215.053 102.803 202.005C107.49 194.15 95.0542 171.455 73.5349 166.332C52.0101 161.209 30.6301 175.861 31.2575 184.979H31.2522Z" fill="#576B80"/>
<path d="M215.816 178.492C242.226 184.299 268.582 152.123 264.598 144.438C259.53 134.663 197.755 149.909 197.112 164.711C196.833 171.166 208.196 176.818 215.811 178.497L215.816 178.492Z" fill="#576B80"/>
<path d="M39.6015 42.5025C35.955 47.7057 33.81 54.2833 34.3302 60.6629C34.8128 66.5506 37.4565 72.2565 42.036 76.0961C44.2721 77.9731 46.83 79.433 49.6667 80.187C52.5034 80.941 55.308 80.925 58.0911 80.3207C63.6519 79.1175 68.4727 75.2619 70.5158 69.9464C72.8324 63.9196 70.6606 56.2886 65.5824 52.3207C64.9979 51.8662 64.4616 51.54 63.6841 51.54C63.0245 51.54 62.2416 51.8287 61.7858 52.3207C60.901 53.2833 60.6061 55.1817 61.7858 56.1015C62.2362 56.4544 62.6652 56.8287 63.062 57.2351C63.2819 57.4597 63.4964 57.695 63.7002 57.9357C63.7699 58.0212 63.8557 58.1656 63.9415 58.2298C63.5339 57.9143 63.8181 58.0747 63.9737 58.2993C64.3008 58.7645 64.5957 59.2512 64.8584 59.7592C64.9925 60.0105 65.1051 60.2726 65.2285 60.5293C65.4001 60.8929 65.0032 59.9143 65.2124 60.5025C65.2767 60.679 65.3464 60.8555 65.4108 61.0373C65.5931 61.5774 65.7486 62.1282 65.8666 62.6843C65.9095 62.8769 66.0596 63.2458 66.0006 63.433C66.124 63.0319 65.9524 63.0266 65.9899 63.3795C66.0114 63.5667 66.0275 63.7592 66.0382 63.9464C66.0757 64.5132 66.0704 65.0801 66.0382 65.6469C66.0275 65.802 66.0114 65.9624 66.0006 66.1175C65.9846 66.3367 65.8559 66.4704 66.0275 65.9678C65.9309 66.2565 65.9202 66.5988 65.8505 66.8982C65.7218 67.4544 65.5395 67.9838 65.3572 68.5239C65.1587 69.0961 65.5556 68.1175 65.384 68.4704C65.3196 68.6041 65.2606 68.7432 65.1909 68.8769C65.0569 69.1442 64.9174 69.4116 64.7619 69.6683C64.6279 69.8982 64.4831 70.1282 64.3329 70.3528C64.2471 70.4758 64.1613 70.5988 64.0755 70.7218C63.9683 70.8769 63.7699 70.9891 64.1667 70.6095C63.7377 71.0159 63.3891 71.5186 62.9602 71.9357C62.7886 72.1014 62.6116 72.2619 62.4293 72.4223C62.3167 72.5186 62.1987 72.6148 62.0861 72.7111C61.8501 72.9036 61.8984 73.064 62.129 72.6843C62.0271 72.8555 61.7053 72.9891 61.5391 73.1014C61.2656 73.2886 60.9814 73.4651 60.6919 73.6309C60.22 73.9036 59.732 74.1549 59.2386 74.3795C58.9437 74.5132 58.9759 74.6736 59.2923 74.3635C59.2386 74.417 59.0027 74.4758 58.9544 74.4972C58.6702 74.6041 58.3806 74.7057 58.0911 74.7966C57.5656 74.9624 57.0347 75.1014 56.4984 75.2084C56.3751 75.2351 55.6994 75.433 55.5976 75.3635C55.6083 75.3688 56.2893 75.2886 55.7638 75.3367C55.5815 75.3528 55.3991 75.3742 55.2168 75.3849C54.6699 75.4223 54.1229 75.433 53.5759 75.417C53.3024 75.4063 53.029 75.3902 52.7555 75.3635C52.6697 75.3581 52.3533 75.3688 52.2997 75.3153L52.6536 75.3581C52.5356 75.3421 52.4123 75.3207 52.2943 75.2993C51.7366 75.1977 51.1843 75.064 50.6427 74.9036C50.3692 74.8234 50.0957 74.7325 49.8276 74.6362C49.6774 74.5827 49.5327 74.5239 49.3825 74.4704C48.8677 74.2779 49.8544 74.7004 49.3182 74.4437C48.251 73.9303 47.2322 73.3688 46.2777 72.6683C46.1383 72.5667 45.7575 72.3688 46.2884 72.6843C46.1865 72.6255 46.0793 72.5186 45.9881 72.4437C45.7682 72.2619 45.5484 72.0747 45.3339 71.8822C44.8834 71.4758 44.4491 71.048 44.0415 70.5988C43.827 70.3635 43.6125 70.1175 43.4088 69.8715C43.3659 69.8234 43.1996 69.5774 43.1675 69.572C43.3015 69.5934 43.4517 69.9571 43.2318 69.6576C42.8511 69.1335 42.4864 68.6095 42.1486 68.0587C41.8483 67.5613 41.5695 67.0533 41.3121 66.5346C41.1834 66.2726 41.0654 66.0105 40.9421 65.7485C40.7705 65.3795 41.178 66.3635 40.9528 65.7646C40.8831 65.5827 40.8134 65.4063 40.7437 65.2244C40.3147 64.0533 40.0036 62.8501 39.8052 61.6202C39.7784 61.4651 39.6712 60.9731 39.7891 61.5613C39.7462 61.3474 39.7355 61.1175 39.7194 60.8982C39.6873 60.5293 39.6604 60.1603 39.6444 59.7913C39.6122 59.0159 39.6229 58.2405 39.6712 57.4651C39.698 57.0587 39.7409 56.6523 39.7784 56.2458C39.7891 56.1175 39.8052 55.7218 39.7677 56.294C39.7784 56.0801 39.8374 55.8448 39.8696 55.6362C39.9983 54.8662 40.1699 54.1014 40.3683 53.3474C40.5667 52.5934 40.808 51.8448 41.0761 51.1068C41.2048 50.7539 41.3389 50.4063 41.4837 50.064C41.2745 50.5827 41.4676 50.1121 41.5212 49.9838C41.6124 49.7806 41.7089 49.5774 41.8054 49.3742C42.4972 47.9196 43.3123 46.5346 44.24 45.2191C45.0443 44.0694 44.4866 42.1977 43.2801 41.5613C41.9073 40.8394 40.4702 41.294 39.6122 42.5186L39.6015 42.5025Z" fill="#2A3236"/>
<path d="M37.2956 50.4277C46.6155 51.7219 55.9729 52.7432 65.3518 53.4598C74.5805 54.1604 83.8361 54.5775 93.0916 54.7005C98.2931 54.77 103.495 54.7486 108.696 54.6363C110.096 54.6042 111.442 53.4277 111.377 51.9625C111.313 50.4973 110.198 49.2566 108.696 49.2887C99.5265 49.4866 90.3568 49.401 81.1924 49.032C72.028 48.663 62.8797 48.0106 53.7582 47.0748C51.1736 46.8074 48.5835 46.5187 46.0042 46.2085C44.7333 46.0534 43.4678 45.8983 42.1969 45.7326C41.5856 45.6523 40.9742 45.5721 40.3629 45.4919C40.4809 45.508 40.8348 45.5561 40.2878 45.4812C40.1109 45.4598 39.9393 45.4331 39.7623 45.4117C39.4138 45.3636 39.0652 45.3154 38.7167 45.2673C37.9713 45.1657 37.3278 45.139 36.6521 45.5347C36.0944 45.8609 35.5636 46.4973 35.4188 47.1336C35.1292 48.3903 35.8049 50.2192 37.2903 50.4224L37.2956 50.4277Z" fill="#2A3236"/>
<path d="M80.0234 53.3314C78.0178 57.6255 78.42 62.3528 80.5489 66.5293C82.6778 70.7058 86.6031 73.7325 91.011 75.4758C95.376 77.2031 100.283 77.6255 104.943 77.4544C107.608 77.3528 110.418 76.925 112.616 75.31C114.659 73.8074 116.037 71.8288 116.96 69.4919C119.126 63.9892 117.276 58.0534 115.394 52.7646C114.927 51.4491 113.544 50.4277 112.096 50.8983C110.793 51.3207 109.72 52.7753 110.225 54.187C111.013 56.4009 111.801 58.6255 112.262 60.9304C112.321 61.2138 112.375 61.5026 112.418 61.7913C112.428 61.8662 112.504 62.3849 112.461 62.0534C112.423 61.7539 112.471 62.1603 112.471 62.1924C112.53 62.8127 112.573 63.4384 112.573 64.0587C112.573 64.5079 112.541 64.9464 112.509 65.3956C112.487 65.6309 112.359 65.7058 112.536 65.2619C112.504 65.3421 112.504 65.4598 112.487 65.5507C112.445 65.8074 112.391 66.0587 112.332 66.31C112.235 66.7218 112.123 67.1229 111.983 67.5239C111.957 67.6042 111.715 68.294 111.844 67.925C111.962 67.5935 111.86 67.8929 111.828 67.9624C111.758 68.1068 111.694 68.2512 111.619 68.3956C111.431 68.7646 111.222 69.1229 110.991 69.4651C110.938 69.5453 110.503 70.0801 110.755 69.8074C111.007 69.5346 110.729 69.8288 110.664 69.8983C110.584 69.9945 110.498 70.0854 110.412 70.1763C110.262 70.3368 110.107 70.4865 109.94 70.6362C109.871 70.7004 109.796 70.7539 109.726 70.8181C109.463 71.0694 110.128 70.5453 109.822 70.7485C109.452 70.9945 109.088 71.2352 108.685 71.433C108.605 71.4705 108.187 71.6362 108.482 71.5293C108.777 71.4223 108.385 71.556 108.358 71.5614C108.09 71.6416 107.828 71.7271 107.559 71.7967C107.291 71.8662 107.012 71.9143 106.739 71.9678C106.701 71.9731 106.305 72.0373 106.621 71.9892C106.975 71.9357 106.251 72.0266 106.262 72.0266C104.17 72.2191 102.025 72.1763 99.9287 72.0106C99.4514 71.9731 98.9742 71.925 98.4969 71.8715C98.4111 71.8608 97.9392 71.7967 98.3039 71.8501C98.6471 71.8983 98.277 71.8501 98.2234 71.8341C97.9338 71.786 97.6443 71.7432 97.3547 71.6897C96.3519 71.5132 95.3545 71.278 94.3732 70.9892C93.8852 70.8448 93.408 70.6844 92.9307 70.5132C92.7269 70.4384 92.5232 70.3582 92.3248 70.278C91.8582 70.0961 92.2819 70.2566 92.3677 70.294C92.239 70.2352 92.1049 70.1763 91.9708 70.1175C91.0539 69.6951 90.1691 69.1977 89.3325 68.6362C89.1234 68.4919 88.9196 68.3421 88.7105 68.1977C88.378 67.9678 89.0751 68.5026 88.7856 68.2566C88.7105 68.1924 88.6354 68.1389 88.5657 68.0747C88.1957 67.7699 87.8418 67.4437 87.5039 67.1015C87.209 66.802 86.9302 66.4919 86.662 66.1763C86.6245 66.1336 86.4422 65.8769 86.4154 65.8769C86.4315 65.8769 86.7103 66.2833 86.5387 66.0373C86.3886 65.8288 86.2384 65.6202 86.0936 65.4063C85.8094 64.9785 85.5413 64.54 85.3 64.0854C85.1927 63.8876 85.0909 63.6897 84.9943 63.4865C84.9622 63.417 84.8442 63.2298 84.8335 63.1389C84.8495 63.2886 85.0104 63.5774 84.8817 63.2512C84.5117 62.3047 84.249 61.3421 84.072 60.3421C84.0559 60.2405 84.072 59.9785 84.072 60.3261C84.0613 60.7592 84.072 60.2245 84.0613 60.1229C84.0398 59.8769 84.0291 59.6255 84.0237 59.3796C84.013 58.9036 84.1524 58.3635 84.0935 57.8983C84.0935 57.8983 84.0023 58.4491 84.0613 58.1496C84.0827 58.0266 84.1042 57.9036 84.1256 57.786C84.1739 57.5453 84.2275 57.3047 84.2972 57.064C84.3669 56.8234 84.4366 56.5881 84.5224 56.3528C84.5546 56.2619 84.5868 56.1763 84.619 56.0908C84.8442 55.4812 84.3723 56.6255 84.6511 56.0373C85.241 54.7699 85.048 53.0961 83.6913 52.3796C82.5062 51.7539 80.6561 51.9838 80.0234 53.3368V53.3314Z" fill="#2A3236"/>
<path d="M36.6897 64.6256C38.7757 69.9625 43.5804 74.2139 49.3718 75.032C50.5247 75.1925 51.801 74.9358 52.4016 73.8021C52.9592 72.7486 52.852 71.4278 51.9833 70.5615C49.1734 67.7647 46.3581 64.9679 43.5482 62.1711L40.9421 66.6417C41.1619 66.7058 41.3764 66.7754 41.5909 66.8502C41.666 66.877 42.2934 67.1069 41.9073 66.9625C41.5212 66.8181 42.2237 67.1123 42.2934 67.1443C42.4704 67.2299 42.642 67.3208 42.8135 67.4117C43.1567 67.5989 43.4892 67.8021 43.811 68.016C43.9504 68.1123 44.181 68.2192 44.2882 68.3529C44.004 68.1283 43.9772 68.1069 44.2078 68.2887C44.2829 68.3475 44.3579 68.4117 44.433 68.4759C45.055 69 45.6127 69.5828 46.1329 70.2085C46.5512 70.7112 45.8219 69.7433 46.1865 70.2834C46.2938 70.4438 46.4064 70.5989 46.5136 70.7647C46.7603 71.1443 46.9802 71.5401 47.1893 71.9411L51.3988 68.7005C48.8248 66.3262 46.2509 63.9572 43.6769 61.5828C42.6473 60.631 40.8884 60.4919 39.8857 61.5828C38.8829 62.6738 38.9151 64.2192 39.8857 65.3636C41.3067 67.0427 42.7278 68.7165 44.1488 70.3957C44.8459 71.2192 45.543 72.0374 46.2401 72.8609C46.9373 73.6844 47.5486 74.5187 48.2993 75.2406C49.2431 76.155 50.4604 76.8877 51.8171 76.8823C53.1737 76.877 54.391 76.2566 55.056 75.0962C56.3697 72.8128 55.19 69.5935 52.2889 69.5775C50.884 69.5721 49.5434 70.8128 49.6077 72.2513C49.6721 73.6898 50.7875 74.9197 52.2889 74.9251C51.5328 74.9251 50.943 74.4599 50.5783 73.8342C50.337 73.3369 50.2512 73.1978 50.3209 73.4171C50.3531 73.5454 50.3478 73.4812 50.2995 73.2192C50.2727 72.9518 50.262 72.8877 50.262 73.0267C50.262 73.2459 50.278 73.1016 50.3263 72.5989C50.2351 72.9358 50.4657 72.3208 50.4818 72.2941C50.3049 72.5935 50.6802 72.0588 50.7017 72.0374C50.9698 71.7754 51.3398 71.6042 51.7044 71.5615C51.7956 71.5508 52.364 71.6256 52.1495 71.5668C51.8814 71.4973 52.5571 71.8449 52.1763 71.5561C52.3426 71.6844 52.4605 71.8181 52.2353 71.5989C52.112 71.4759 51.9833 71.3582 51.8653 71.2353C51.6294 70.9839 51.4149 70.7219 51.1896 70.4598C50.6909 69.8663 50.1869 69.278 49.6882 68.6845C47.6826 66.3155 45.6771 63.9518 43.6715 61.5828L39.8803 65.3636C42.4543 67.7379 45.0282 70.1069 47.6022 72.4812C48.5889 73.3903 50.0475 73.5187 51.1253 72.6898C52.2031 71.8609 52.4284 70.4438 51.8171 69.2406C49.9027 65.4973 46.3903 62.6844 42.3738 61.4812C39.7838 60.7005 37.8962 64.0909 39.7677 65.9518C42.5776 68.7486 45.3929 71.5454 48.2028 74.3422L50.8089 69.8716C50.2459 69.7914 49.6828 69.6845 49.1358 69.5294C48.8624 69.4545 48.5889 69.3689 48.3208 69.278C48.2028 69.2353 48.0794 69.1925 47.9615 69.1497C47.5807 69.0053 47.7899 69 47.9883 69.1711C47.806 69.0107 47.4306 68.9144 47.2161 68.8074C46.9641 68.6791 46.712 68.5401 46.4654 68.3957C46.2187 68.2513 45.9774 68.0962 45.7414 67.9358C45.6342 67.8663 45.5323 67.7914 45.4304 67.7165C45.3768 67.6791 45.3285 67.6417 45.2749 67.6042C45.1194 67.4866 45.173 67.5294 45.4411 67.7326C45.3553 67.5615 45.0068 67.3743 44.8566 67.2459C44.6421 67.0588 44.433 66.8609 44.2346 66.6631C44.0362 66.4652 43.8378 66.2566 43.6501 66.0427C43.5428 65.9251 43.441 65.8021 43.3391 65.6844C43.2908 65.6256 43.0334 65.2834 43.2533 65.5828C43.4946 65.909 43.1728 65.4652 43.1246 65.3957C43.0495 65.2941 42.9798 65.1871 42.9101 65.0802C42.7546 64.8449 42.6044 64.5989 42.4596 64.3529C42.3148 64.1069 42.1861 63.8556 42.0575 63.5989C42.0038 63.4866 41.9502 63.3689 41.8966 63.2566C41.6177 62.6631 42.1111 63.8021 41.8751 63.1925C41.3657 61.893 40.0519 60.8502 38.5772 61.3262C37.3117 61.7326 36.1588 63.2192 36.7058 64.6149L36.6897 64.6256Z" fill="#2A3236"/>
<path d="M44.1005 52.4811C49.8222 58.6201 55.5493 64.7592 61.271 70.8982C62.1826 71.8768 63.7753 71.8875 64.7941 71.1068C65.813 70.326 66.2152 68.7859 65.4859 67.6576C61.818 62.0052 57.469 56.7913 52.5249 52.1977C51.5436 51.2832 50.0796 51.1603 49.0018 51.9891C48.0097 52.7538 47.5593 54.3314 48.31 55.4383C50.4228 58.5399 52.5303 61.6469 54.6431 64.7485L58.8525 61.5078C57.9677 60.8234 57.1473 60.064 56.4019 59.2298C56.2142 59.0212 56.0373 58.8073 55.8603 58.5934C55.6726 58.3635 55.7692 58.4651 55.8925 58.6415C55.8121 58.5292 55.7263 58.4169 55.6458 58.3046C55.2973 57.8234 54.9755 57.326 54.6806 56.8127C54.4017 56.3314 54.139 55.8341 53.903 55.3314C53.844 55.203 53.7904 55.0747 53.7314 54.9517C53.5706 54.5988 53.8869 55.3742 53.7583 55.0105C53.6671 54.7485 53.5598 54.4918 53.4687 54.2244C53.0933 53.1335 52.8306 52.0159 52.6643 50.8715L48.7283 53.8929C49.7364 54.3635 50.7231 54.8822 51.6723 55.4544C52.1817 55.7592 52.6804 56.08 53.1684 56.4169C53.4151 56.5827 53.6564 56.7538 53.8977 56.9303C53.9567 56.9731 54.6002 57.4544 54.3374 57.2565C54.0746 57.0587 54.702 57.5506 54.761 57.5988C54.9916 57.7859 55.2168 57.9784 55.442 58.1709C55.8603 58.5346 56.2732 58.9089 56.67 59.2939C57.4959 60.0907 58.2734 60.9357 59.0081 61.8234L62.7993 58.0426C60.9439 56.2351 59.0831 54.433 57.2277 52.6255L53.4365 56.4062C55.6297 58.5346 57.8283 60.6683 60.0216 62.7966C60.9814 63.7271 62.4829 63.818 63.5447 63.0052C64.6064 62.1923 64.8799 60.7431 64.2364 59.556C63.0889 57.4383 61.9413 55.3207 60.7937 53.203C60.161 52.0319 58.6273 51.6095 57.4476 52.1068C56.3483 52.572 55.3777 54.0319 55.8979 55.2619C57.1956 58.3474 58.8847 61.1175 61.1101 63.6308C61.8609 64.4811 63.4106 64.6576 64.3598 64.048C65.3089 63.4383 66.0328 62.1496 65.5931 61.0266C64.4134 58.0212 63.2336 55.0105 62.0539 52.0052L57.1527 54.064C58.9544 58.1603 60.7508 62.2565 62.5526 66.3528L67.1804 63.6522C66.2259 61.5078 65.2767 59.3581 64.3222 57.2137C63.7538 55.9303 61.7751 55.5346 60.6543 56.2565C59.3244 57.1121 59.0831 58.5399 59.6944 59.9143C60.649 62.0587 61.5981 64.2084 62.5526 66.3528C63.121 67.6362 65.0998 68.0319 66.2205 67.31C67.5558 66.449 67.7863 65.0266 67.1804 63.6522C65.3786 59.556 63.5822 55.4597 61.7804 51.3635C61.2442 50.1496 59.5389 49.8073 58.4343 50.2672C57.3296 50.7271 56.3912 52.1763 56.8845 53.4223C58.0643 56.4276 59.244 59.4383 60.4237 62.4437L64.9067 59.8447C64.6761 59.5881 64.4509 59.326 64.2311 59.0587C64.1345 58.941 64.038 58.818 63.9415 58.7004C63.6841 58.3849 64.1721 59.0266 63.9415 58.695C63.5447 58.1282 63.1371 57.572 62.7671 56.9838C62.4186 56.433 62.0914 55.8661 61.7858 55.2886C61.641 55.0159 61.5016 54.7431 61.3729 54.4651C61.2871 54.2939 61.2067 54.1175 61.1316 53.941C61.0833 53.8394 60.8688 53.3367 61.078 53.8394L56.1767 55.8982C57.3243 58.0159 58.4718 60.1335 59.6194 62.2512C61.0243 61.171 62.4293 60.0907 63.8289 59.0105C61.6356 56.8822 59.4371 54.7485 57.2438 52.6201C56.2357 51.6415 54.4393 51.5453 53.4526 52.6201C52.4659 53.695 52.3801 55.3581 53.4526 56.4009C55.308 58.2084 57.1687 60.0105 59.0241 61.818C60.0269 62.7966 61.8287 62.8929 62.8154 61.818C63.8718 60.6683 63.7752 59.1923 62.8154 58.0373C59.7427 54.3421 55.8067 51.3046 51.447 49.2726C50.4443 48.802 49.3825 48.7752 48.4709 49.4811C47.5593 50.187 47.3502 51.187 47.511 52.2939C48.2296 57.3314 51.0502 62.1709 55.0774 65.2939C56.1445 66.1228 57.453 66.3849 58.6005 65.5025C59.5926 64.7378 60.043 63.1603 59.2923 62.0533C57.1795 58.9517 55.072 55.8447 52.9593 52.7431L48.7498 55.9838C51.1092 58.1763 53.3346 60.5025 55.4099 62.9624C55.9193 63.572 56.4234 64.187 56.9167 64.8073C57.0401 64.9624 57.1634 65.1175 57.2867 65.2779C57.0508 64.9784 57.2599 65.2405 57.3779 65.3955C57.6192 65.7111 57.8551 66.0266 58.0911 66.3474C59.0617 67.6576 59.984 68.9945 60.8688 70.3635L65.0783 67.1228C59.3566 60.9838 53.6296 54.8447 47.9078 48.7057C46.948 47.679 45.0711 47.6683 44.1166 48.7057C43.1031 49.8073 43.0978 51.3902 44.1166 52.4865L44.1005 52.4811Z" fill="#2A3236"/>
<path d="M80.7741 59.2727C82.2917 64.6149 85.5252 69.1444 89.9117 72.5187C90.8072 73.2085 92.432 72.893 93.1613 72.1016C94.0139 71.1764 94.1265 69.9732 93.5796 68.8609C92.5553 66.7647 91.5258 64.6631 90.5015 62.5668L85.8738 65.2674C88.4424 68.8182 91.3649 72.0802 94.7003 74.9305C95.5797 75.6791 96.9043 76.0214 97.9499 75.3476C98.8669 74.7593 99.6391 73.4385 99.1833 72.3262C96.8614 66.6791 94.5394 61.0267 92.2175 55.3797L87.7345 57.9786C88.2493 58.5668 88.7534 59.1658 89.2467 59.7754C89.3432 59.8984 89.4451 60.0214 89.5417 60.1444C89.5363 60.1337 89.9653 60.6845 89.7669 60.4278C89.5685 60.1711 89.9492 60.6684 89.9867 60.7166C90.1047 60.8716 90.2227 61.0267 90.3407 61.1871C91.2523 62.4117 92.1103 63.6738 92.9253 64.9625C94.5555 67.5454 95.9819 70.246 97.2099 73.0374L101.419 69.7968C99.7142 68.2941 98.1108 66.6898 96.6254 64.9732C96.2661 64.5615 95.9176 64.139 95.569 63.7166C95.3706 63.4759 95.1776 63.2299 94.9845 62.9839C95.2687 63.3529 94.9255 62.9037 94.8344 62.7807C94.1319 61.8396 93.4616 60.877 92.8288 59.893C92.0674 58.7166 90.4157 58.1283 89.1609 58.9358C87.9061 59.7433 87.4771 61.2781 88.2011 62.5936C89.6864 65.3048 91.1665 68.0107 92.6519 70.7219L96.3198 67.0641C96.8453 67.4599 96.1053 66.8877 96.0141 66.8128C95.8211 66.6524 95.628 66.492 95.4403 66.3208C95.0328 65.9625 94.6413 65.5936 94.2606 65.2139C93.5474 64.5026 92.8771 63.7486 92.255 62.9518C92.6465 63.4545 92.1639 62.8182 92.0888 62.7166C91.9387 62.5133 91.7992 62.3048 91.6545 62.0962C91.3702 61.6791 91.1021 61.2567 90.8447 60.8235C90.5873 60.3903 90.346 59.9518 90.1154 59.5026C89.9814 59.246 89.858 58.9893 89.7347 58.7272C89.6811 58.6203 89.3057 57.754 89.5685 58.3797L85.0855 60.9786C87.4342 63.0214 89.783 65.0641 92.1317 67.1069C93.1881 68.0267 94.8987 68.2192 95.9229 67.1069C96.8506 66.1016 97.049 64.3048 95.9229 63.3262C93.5742 61.2834 91.2255 59.2406 88.8767 57.1978C88.008 56.4385 86.6674 56.1123 85.6271 56.7807C84.7155 57.3636 83.9272 58.6952 84.3937 59.8021C86.4046 64.5722 89.4827 68.5401 93.6117 71.6738C94.5126 72.3583 96.1321 72.0481 96.8614 71.2567C97.6872 70.3583 97.8695 69.0962 97.2796 68.016C95.7942 65.3048 94.3142 62.5989 92.8288 59.8877L88.2011 62.5882C90.8286 66.6524 93.9925 70.3797 97.6282 73.5829C98.6363 74.4706 100.052 74.6363 101.151 73.7914C102.251 72.9465 102.39 71.5829 101.843 70.3422C99.2637 64.4652 95.7513 59.0481 91.5365 54.2085C90.7911 53.3529 89.2306 53.1818 88.2869 53.7914C87.3431 54.401 86.5977 55.7005 87.0535 56.8128C89.3754 62.4599 91.6974 68.1123 94.0193 73.7593C95.5154 72.893 97.0061 72.0267 98.5023 71.1604C96.9579 69.8396 95.4832 68.4331 94.1051 66.9412C93.4294 66.2085 92.7698 65.4599 92.1371 64.6898C91.9869 64.5027 91.8368 64.3208 91.6866 64.1337C91.6008 64.0267 91.2308 63.5561 91.515 63.9198C91.1718 63.4759 90.8447 63.0267 90.5176 62.5775C89.6972 61.4438 88.1474 60.7861 86.8497 61.6203C85.552 62.4545 85.2303 63.9305 85.8899 65.2781C86.9141 67.3743 87.9437 69.4759 88.9679 71.5722L92.6358 67.9144C93.1613 68.3208 92.432 67.7379 92.3462 67.6631C92.1263 67.4813 91.9118 67.2887 91.7027 67.1016C91.2791 66.7166 90.8769 66.3155 90.4854 65.8984C90.094 65.4813 89.7293 65.0481 89.3647 64.6096C89.177 64.3743 89.1877 64.385 89.3915 64.647C89.3057 64.5347 89.2199 64.4171 89.1341 64.3048C88.9679 64.0748 88.8016 63.8396 88.6461 63.6043C88.008 62.6577 87.445 61.6631 86.9623 60.631C86.9087 60.5187 86.5494 59.6577 86.8015 60.2941C86.6942 60.0321 86.5923 59.7647 86.4904 59.4973C86.292 58.9625 86.1204 58.4171 85.9649 57.8716C85.5842 56.5294 84.0505 55.5561 82.667 56.0053C81.2835 56.4545 80.3826 57.8502 80.7956 59.2941L80.7741 59.2727Z" fill="#2A3236"/>
<path d="M96.9579 54.6362C100.433 61.6844 103.902 68.7325 107.377 75.7806C107.999 77.0373 109.887 77.4812 111.045 76.7378C112.364 75.8876 112.632 74.4437 112.005 73.0801C109.42 67.4651 106.835 61.8501 104.251 56.2352L100.041 59.4758C100.771 60.1229 101.462 60.8074 102.117 61.5293C102.417 61.8608 102.706 62.2031 102.991 62.5507C103.114 62.7004 103.404 63.0908 103.125 62.7164C103.28 62.925 103.436 63.1389 103.586 63.3528C104.127 64.1175 104.626 64.909 105.082 65.7271C105.302 66.1175 105.511 66.5186 105.704 66.9197C105.801 67.1229 105.897 67.3261 105.994 67.5293C106.058 67.663 106.117 67.802 106.176 67.941C106.053 67.6469 106.053 67.6416 106.165 67.925L111.066 65.8662C109.897 64.0373 108.857 62.1229 107.967 60.1389C107.87 59.9197 107.774 59.6951 107.677 59.4758C107.897 59.9945 107.575 59.2138 107.533 59.1122C107.34 58.6255 107.157 58.1389 106.98 57.6469C106.605 56.5881 106.272 55.5079 105.972 54.4223L101.489 57.0213C103.688 59.3795 105.886 61.7432 108.085 64.1015C108.997 65.0801 110.589 65.0908 111.608 64.31C112.627 63.5293 113.002 62.0106 112.3 60.8608C111.495 59.54 110.686 58.2245 109.881 56.9036L105.254 59.6041C106.535 61.6202 108.391 63.048 110.648 63.8074C111.978 64.2566 113.635 63.294 113.946 61.941C114.284 60.4598 113.496 59.1336 112.075 58.6523C111.978 58.6202 111.881 58.5881 111.785 58.5507C111.603 58.4812 111.656 58.5025 111.951 58.6255C111.903 58.6469 111.635 58.4705 111.581 58.4437C111.399 58.3475 111.222 58.2405 111.05 58.1282C110.981 58.0854 110.536 57.7271 110.825 57.9785C111.115 58.2298 110.637 57.7967 110.627 57.7913C110.503 57.6737 110.38 57.5507 110.267 57.4277C110.069 57.2084 109.994 57.1656 110.23 57.417C110.096 57.2726 109.989 57.0747 109.887 56.909C109.136 55.7271 107.463 55.1496 106.219 55.9517C104.975 56.7539 104.476 58.3314 105.259 59.6095C106.042 60.8876 106.873 62.2459 107.677 63.5667C109.082 62.4865 110.487 61.4063 111.887 60.3261C109.688 57.9678 107.49 55.6041 105.291 53.2459C103.436 51.2566 100.127 53.3368 100.808 55.8448C102.031 60.3314 103.934 64.6523 106.439 68.5667C107.163 69.6951 108.535 70.187 109.785 69.663C110.895 69.1977 111.844 67.7432 111.335 66.5079C109.645 62.3902 107.168 58.6844 103.827 55.7058C102.824 54.8127 101.398 54.6576 100.304 55.4972C99.2101 56.3368 99.0492 57.7164 99.6123 58.9464C102.197 64.5614 104.782 70.1763 107.366 75.7913L111.994 73.0908C108.519 66.0426 105.05 58.9945 101.575 51.9464C100.953 50.6897 99.0653 50.2459 97.907 50.9892C96.6147 51.8181 96.2822 53.2993 96.9472 54.6469L96.9579 54.6362Z" fill="#2A3236"/>
<path d="M27.4717 28.6094C24.4955 37.4864 22.4524 46.6255 21.2298 55.9035C20.034 64.9731 19.7069 74.1602 20.2699 83.2939C20.597 88.6148 21.2245 93.9196 22.1253 99.1709C22.3613 100.556 24.1416 101.454 25.4232 101.037C26.9193 100.556 27.5467 99.2297 27.2947 97.7485C27.107 96.6469 26.9301 95.5399 26.7692 94.4383C26.7263 94.1495 26.6834 93.8661 26.6459 93.5773C26.6244 93.4169 26.544 92.8394 26.6083 93.3046C26.5279 92.6896 26.4474 92.0747 26.3724 91.4543C26.1043 89.2351 25.8951 87.0105 25.7342 84.7805C25.4125 80.2779 25.3053 75.7645 25.4071 71.2511C25.509 66.7378 25.8361 62.1495 26.3777 57.6255C26.4421 57.0907 26.5064 56.5559 26.5761 56.0212C26.5922 55.8982 26.6083 55.7752 26.6244 55.6522C26.619 55.7003 26.5654 56.064 26.6137 55.7485C26.6619 55.433 26.7048 55.0907 26.7531 54.7645C26.914 53.6576 27.0856 52.5559 27.2733 51.449C27.654 49.203 28.0883 46.9677 28.5763 44.7431C29.6649 39.7699 31.027 34.8554 32.6464 30.0212C33.0915 28.695 32.1316 27.0426 30.7749 26.7324C29.2949 26.3955 27.9543 27.1763 27.477 28.5987L27.4717 28.6094Z" fill="#2A3236"/>
<path d="M36.3304 27.0266C48.3422 32.0908 60.8795 35.7646 73.7601 37.8662C86.6299 39.9625 99.7195 40.6149 112.723 39.6576C120.081 39.1175 127.406 38.0908 134.624 36.5774C135.996 36.2887 136.924 34.6042 136.495 33.2887C136.023 31.8395 134.672 31.1122 133.197 31.4223C130.06 32.0801 126.902 32.6469 123.727 33.1175C123.368 33.171 123.014 33.2191 122.655 33.2726C122.456 33.2994 122.258 33.3261 122.059 33.3528C121.528 33.4277 121.952 33.3689 122.059 33.3528C121.223 33.4651 120.392 33.5667 119.555 33.663C118 33.8448 116.445 33.9999 114.89 34.1389C108.578 34.6844 102.235 34.8609 95.9015 34.6737C92.6948 34.5774 89.488 34.3849 86.2974 34.1015C84.7369 33.9625 83.1818 33.802 81.6321 33.6202C80.876 33.5293 80.1199 33.433 79.3638 33.3368C79.4657 33.3528 79.8893 33.4063 79.3638 33.3368C79.1278 33.3047 78.8865 33.2726 78.6506 33.2352C78.2538 33.1817 77.857 33.1229 77.4601 33.0641C71.1915 32.1336 64.9818 30.8395 58.8633 29.1871C55.4581 28.2673 52.0852 27.2352 48.7444 26.0908C47.0391 25.5079 45.3393 24.8929 43.6555 24.2512C42.8296 23.9357 42.0092 23.6149 41.1887 23.2887C40.7812 23.1229 40.3683 22.9571 39.9607 22.7913C39.8106 22.7325 39.6658 22.6683 39.5157 22.6095C39.4245 22.5721 38.5075 22.1871 39.0491 22.417C38.3574 22.1229 37.7461 21.9411 36.9846 22.1496C36.3626 22.3207 35.6869 22.802 35.3812 23.3796C34.7753 24.524 34.963 26.4544 36.3411 27.0373L36.3304 27.0266Z" fill="#2A3236"/>
<path d="M132.881 33.9357C130.13 43.9197 127.958 54.0587 126.387 64.294C124.794 74.6791 123.77 85.155 123.384 95.6523C123.169 101.465 123.153 107.289 123.32 113.102C123.357 114.497 124.526 115.839 126.001 115.775C127.475 115.711 128.725 114.599 128.682 113.102C128.387 102.839 128.682 92.5561 129.572 82.3261C129.797 79.77 130.055 77.2138 130.35 74.663C130.5 73.3903 130.655 72.1122 130.822 70.8395C130.843 70.6684 130.864 70.5026 130.891 70.3315C130.902 70.2459 130.961 69.8074 130.897 70.278C130.94 69.9839 130.977 69.6844 131.02 69.3903C131.111 68.7539 131.197 68.1176 131.293 67.4865C132.039 62.4063 132.929 57.3475 133.969 52.3208C135.144 46.6202 136.511 40.9625 138.055 35.3529C138.425 34.0053 137.594 32.3849 136.184 32.0641C134.774 31.7432 133.283 32.4865 132.886 33.9304L132.881 33.9357Z" fill="#2A3236"/>
<path d="M111.93 108.871C111.243 108.978 110.562 109.085 109.876 109.187C109.511 109.24 109.152 109.294 108.787 109.342C108.627 109.363 108.466 109.385 108.305 109.412C107.71 109.492 108.702 109.363 108.047 109.444C106.675 109.62 105.296 109.786 103.918 109.93C101.039 110.23 98.1537 110.454 95.2634 110.604C89.5631 110.898 83.8521 110.893 78.1519 110.604C75.3045 110.454 72.457 110.235 69.6203 109.946C68.1992 109.802 66.7836 109.636 65.3679 109.454C65.207 109.433 65.0461 109.412 64.8853 109.39C65.4269 109.46 64.8853 109.39 64.7512 109.369C64.4295 109.326 64.1077 109.278 63.7806 109.235C63.0138 109.123 62.247 109.011 61.4855 108.888C55.8496 108 50.2566 106.823 44.744 105.363C38.5183 103.716 32.3944 101.695 26.4046 99.3314C25.0961 98.8126 23.4016 99.8982 23.1067 101.198C22.7527 102.738 23.5786 103.936 24.9781 104.486C35.7405 108.738 46.9533 111.85 58.3699 113.77C69.9474 115.711 81.7072 116.513 93.4401 116.037C100.116 115.77 106.771 115.08 113.367 114.032C114.756 113.813 115.651 112.011 115.238 110.743C114.75 109.24 113.431 108.642 111.94 108.877L111.93 108.871Z" fill="#2A3236"/>
<path d="M60.724 109.727C57.2009 126.053 55.9461 142.871 57.1098 159.529C57.4422 164.299 57.9838 169.053 58.6863 173.786C58.8901 175.176 60.724 176.059 61.9842 175.652C63.5071 175.16 64.0755 173.85 63.8557 172.363C63.7806 171.855 63.7055 171.347 63.6358 170.834C63.5983 170.577 63.5661 170.326 63.5286 170.069C63.609 170.647 63.4964 169.807 63.491 169.759C63.357 168.738 63.2336 167.716 63.121 166.695C62.8958 164.652 62.7028 162.599 62.5473 160.551C62.2416 156.535 62.0807 152.502 62.0539 148.476C62.0271 144.449 62.1397 140.417 62.3917 136.396C62.5204 134.342 62.6867 132.289 62.8851 130.246C62.9762 129.305 63.0781 128.369 63.1854 127.433C63.2444 126.92 63.3034 126.412 63.3677 125.898C63.3999 125.642 63.4321 125.39 63.4642 125.134C63.475 125.037 63.609 124.016 63.5339 124.572C64.1399 120.069 64.9335 115.593 65.8934 111.15C66.1883 109.786 65.4859 108.192 64.0219 107.861C62.6706 107.556 61.0404 108.267 60.724 109.727Z" fill="#2A3236"/>
<path d="M25.0157 64.2084C15.5242 66.5186 7.20709 73.3154 2.85817 82.0159C1.60336 84.5239 0.632764 87.1763 0.0643474 89.9196C-0.219861 91.2833 0.461166 92.8715 1.93583 93.2084C3.27644 93.5132 4.92806 92.8074 5.23372 91.3421C5.4643 90.2405 5.74851 89.1496 6.10243 88.0801C6.27403 87.5614 6.46171 87.048 6.66012 86.54C6.72983 86.3689 6.97651 85.6255 6.75665 86.2886C6.84781 86.0213 6.99259 85.7539 7.11057 85.4972C8.04899 83.4812 9.21263 81.5935 10.5372 79.8074C10.8428 79.3956 10.5157 79.8715 10.4728 79.8876C10.5264 79.8662 10.6605 79.6469 10.7141 79.5828C10.875 79.3795 11.0412 79.1817 11.2075 78.9838C11.5828 78.54 11.9689 78.1068 12.3657 77.6844C13.1379 76.8608 13.953 76.0801 14.8056 75.3421C14.9987 75.171 15.1971 75.0052 15.3955 74.8448C15.551 74.7164 15.98 74.4865 16.0765 74.2993C16.0497 74.3475 15.5885 74.663 15.9961 74.3635C16.098 74.2886 16.2052 74.2084 16.3071 74.1336C16.5645 73.941 16.8273 73.7592 17.0954 73.5774C17.9963 72.9571 18.9347 72.3849 19.8946 71.8662C20.4308 71.5774 20.9778 71.2993 21.5301 71.0427C21.6481 70.9892 21.7661 70.9357 21.8787 70.8822C21.9537 70.8501 22.5597 70.5721 22.179 70.7485C21.8304 70.909 22.2165 70.7325 22.3023 70.7004C22.4524 70.6416 22.6026 70.5828 22.7527 70.5239C23.9539 70.0587 25.1873 69.679 26.4421 69.3742C27.8041 69.0426 28.7533 67.433 28.3136 66.0854C27.8739 64.7378 26.4743 63.8608 25.0157 64.2191V64.2084Z" fill="#2A3236"/>
<path d="M82.3989 110.904C80.817 120.893 79.707 130.957 79.1278 141.053C78.5487 151.15 78.479 160.973 78.9026 170.925C79.1439 176.513 79.5408 182.091 80.0931 187.658C80.2325 189.048 81.2299 190.401 82.7743 190.332C84.1095 190.273 85.6056 189.15 85.4555 187.658C84.4795 177.829 83.9916 167.957 83.9969 158.086C83.9969 148.214 84.4956 138.337 85.4823 128.513C85.7612 125.733 86.0775 122.952 86.4368 120.182C86.4797 119.834 86.528 119.487 86.5709 119.144C86.5709 119.128 86.6299 118.695 86.5923 118.979C86.5548 119.262 86.6513 118.535 86.6513 118.556C86.7425 117.909 86.8336 117.257 86.9248 116.61C87.1286 115.182 87.3484 113.759 87.5737 112.332C87.7989 110.904 87.2197 109.39 85.7022 109.043C84.4152 108.749 82.6402 109.433 82.4043 110.909L82.3989 110.904Z" fill="#2A3236"/>
<path d="M128.13 74.7057L153.387 70.2298C154.77 69.9838 155.676 68.2244 155.258 66.941C154.775 65.4597 153.446 64.8127 151.96 65.0747C143.541 66.5667 135.122 68.0586 126.703 69.5506C125.32 69.7966 124.413 71.556 124.832 72.8394C125.314 74.3207 126.644 74.9677 128.13 74.7057Z" fill="#2A3236"/>
<path d="M150.212 66.6844C155.376 74.8716 162.095 81.9357 169.973 87.5721C171.115 88.3903 173.008 87.8074 173.64 86.6149C174.37 85.2352 173.898 83.8288 172.681 82.9571C172.187 82.6042 171.694 82.2459 171.211 81.8769C171.088 81.786 170.97 81.6951 170.847 81.5988C171.056 81.7646 171.088 81.786 170.938 81.6684C170.729 81.5026 170.52 81.3422 170.31 81.1764C169.42 80.4652 168.541 79.7379 167.688 78.9839C166.004 77.5079 164.39 75.9464 162.851 74.3208C161.312 72.6951 159.854 70.9892 158.476 69.2192C158.851 69.7005 158.266 68.9411 158.202 68.8555C158.063 68.6737 157.929 68.4919 157.795 68.3101C157.435 67.8234 157.081 67.3261 156.733 66.8288C156.079 65.893 155.451 64.9464 154.845 63.9839C154.1 62.8021 152.421 62.2245 151.177 63.0267C149.933 63.8288 149.418 65.417 150.217 66.6844H150.212Z" fill="#2A3236"/>
<path d="M175.978 7.97311C175.062 22.3314 174.273 36.695 173.614 51.064C172.954 65.433 172.423 79.8127 172.021 94.1924C171.796 102.273 171.608 110.347 171.463 118.428C171.437 119.829 172.713 121.166 174.145 121.101C175.576 121.037 176.799 119.925 176.826 118.428C177.083 104.043 177.469 89.6629 177.984 75.2833C178.499 60.9089 179.142 46.5346 179.915 32.171C180.349 24.1015 180.821 16.0319 181.336 7.96777C181.427 6.5667 180.038 5.2298 178.654 5.29397C177.126 5.36349 176.07 6.47044 175.973 7.96777L175.978 7.97311Z" fill="#2A3236"/>
<path d="M189.24 91.7806C189.015 88.941 188.966 86.0854 189.106 83.2405C189.175 81.8555 189.283 80.4758 189.438 79.0961C189.476 78.7539 189.519 78.4063 189.562 78.064C189.578 77.9196 189.653 77.3956 189.572 77.9731C189.594 77.818 189.615 77.6683 189.637 77.5132C189.744 76.7913 189.862 76.0694 189.99 75.3475C190.484 72.5827 191.154 69.8448 191.985 67.1603C192.398 65.8341 192.849 64.5239 193.337 63.2298C193.583 62.5827 193.841 61.9357 194.103 61.294C194.141 61.1977 194.297 60.818 194.103 61.294C194.179 61.1175 194.254 60.941 194.334 60.7646C194.49 60.4116 194.645 60.0587 194.806 59.7111C196.136 56.802 197.68 53.9945 199.412 51.3047C200.174 50.1282 199.691 48.2993 198.452 47.6469C197.123 46.9464 195.594 47.3475 194.784 48.6041C188.339 58.6041 184.601 70.2405 183.818 82.0854C183.604 85.3154 183.631 88.556 183.888 91.7806C184.001 93.171 185.041 94.5239 186.569 94.4544C187.926 94.3956 189.368 93.2726 189.25 91.7806H189.24Z" fill="#2A3236"/>
<path d="M196.94 67.3048C196.372 67.6257 195.873 68.1283 195.546 68.6952C195.176 69.3315 195.069 69.8984 194.999 70.615C194.988 70.7219 194.988 70.8235 194.999 70.9305C195.026 71.2727 195.058 71.631 195.154 71.9679C195.251 72.3048 195.39 72.5936 195.53 72.8877C195.669 73.1818 195.927 73.4706 196.12 73.7005C196.184 73.7754 196.248 73.8449 196.323 73.9091C196.559 74.1069 196.838 74.3583 197.139 74.492C197.439 74.6257 197.75 74.7914 198.077 74.8449C198.828 74.9626 199.069 74.9786 199.831 74.8396C200.142 74.7807 200.49 74.6043 200.753 74.4866C201.064 74.3422 201.343 74.0962 201.6 73.8877C201.697 73.8128 201.782 73.7273 201.863 73.6363C202.077 73.3797 202.324 73.0962 202.485 72.7914C202.833 72.139 203.037 71.4706 203.043 70.7219C203.048 70.0481 202.855 69.2032 202.447 68.6524C202.281 68.3422 202.051 68.0909 201.756 67.9037C201.498 67.6684 201.193 67.508 200.844 67.4278C200.49 67.3155 200.131 67.2995 199.777 67.3797C199.418 67.3957 199.085 67.5027 198.779 67.6952L198.238 68.1123C197.905 68.4438 197.675 68.8396 197.546 69.2941L197.45 70.0053C197.45 70.4866 197.573 70.9358 197.814 71.3529C197.868 71.4278 197.916 71.5027 197.954 71.5882L197.686 70.9519C197.728 71.0535 197.755 71.1551 197.771 71.262L197.675 70.5508C197.691 70.6684 197.686 70.7861 197.675 70.9037L197.771 70.1925C197.75 70.3315 197.712 70.4652 197.659 70.5989L197.927 69.9626C197.868 70.1016 197.787 70.2353 197.696 70.3583L198.115 69.8182C198.029 69.9305 197.927 70.0321 197.814 70.1176L198.356 69.7005C198.259 69.77 198.157 69.8342 198.05 69.8823L198.688 69.615C198.586 69.6577 198.485 69.6845 198.377 69.7005L199.091 69.6043C198.989 69.615 198.892 69.6203 198.796 69.6043L199.509 69.7005C199.407 69.6845 199.305 69.6577 199.208 69.6203L199.847 69.8877C199.755 69.8503 199.675 69.7968 199.595 69.738L200.136 70.1551C200.05 70.0909 199.981 70.016 199.911 69.9305L200.329 70.4706C200.249 70.3636 200.179 70.246 200.125 70.123L200.394 70.7593C200.335 70.615 200.297 70.4652 200.276 70.3101L200.372 71.0214C200.356 70.877 200.356 70.7273 200.372 70.5829L200.276 71.2941C200.292 71.1604 200.329 71.0321 200.378 70.9037L200.109 71.5401C200.152 71.4438 200.206 71.3529 200.27 71.2674L199.852 71.8075C199.911 71.7326 199.981 71.6631 200.061 71.5989L199.52 72.016C199.562 71.9839 199.611 71.9519 199.659 71.9251C199.97 71.7593 200.222 71.5294 200.41 71.2353C200.646 70.9786 200.806 70.6738 200.887 70.3262C201 69.9732 201.016 69.615 200.935 69.262C200.919 68.9037 200.812 68.5722 200.619 68.2674L200.201 67.7273C199.868 67.3957 199.471 67.1658 199.015 67.0374L198.302 66.9412C197.82 66.9412 197.369 67.0642 196.951 67.3048H196.94Z" fill="#2A3236"/>
<path d="M208.046 50.5399C209.295 51.3474 210.529 52.187 211.724 53.0694C212.009 53.2779 212.293 53.4918 212.577 53.7057C212.657 53.7645 213.226 54.2084 212.711 53.8073C212.85 53.9143 212.99 54.0266 213.129 54.1335C213.714 54.5934 214.293 55.064 214.861 55.5399C217.14 57.4544 219.307 59.5079 221.339 61.679C222.353 62.7645 223.339 63.8822 224.289 65.0319C224.535 65.3314 224.782 65.6362 225.029 65.941C225.141 66.0801 225.248 66.2191 225.361 66.3581C225.366 66.3635 225.795 66.9143 225.543 66.5881C225.291 66.2619 225.715 66.818 225.72 66.8234C225.828 66.9624 225.935 67.1068 226.042 67.2458C226.278 67.556 226.509 67.8715 226.739 68.187C228.509 70.6202 230.128 73.1656 231.587 75.7966C232.391 77.2512 233.147 78.7378 233.855 80.2405C234.037 80.6255 234.209 81.0105 234.386 81.4009C234.445 81.5293 234.499 81.6576 234.558 81.7913C234.606 81.9036 234.981 82.7592 234.708 82.1282C235.046 82.9089 235.351 83.7004 235.651 84.4972C236.15 85.802 237.48 86.8394 238.949 86.3635C240.226 85.9517 241.357 84.4758 240.821 83.0747C236.343 71.3207 229.013 60.6897 219.473 52.449C216.727 50.0747 213.81 47.8875 210.764 45.9196C209.585 45.1603 207.751 45.6416 207.097 46.8768C206.394 48.2084 206.796 49.7218 208.056 50.5346L208.046 50.5399Z" fill="#2A3236"/>
<path d="M217.537 66.0107C216.985 66.4919 216.695 67.1069 216.433 67.7647C216.384 67.8823 216.352 68 216.325 68.123C216.272 68.4117 216.234 68.7058 216.207 68.9946C216.202 69.0588 216.197 69.123 216.202 69.1925C216.202 69.5454 216.266 69.8984 216.336 70.246C216.406 70.5935 216.577 70.9304 216.711 71.2246C216.765 71.3422 216.829 71.4545 216.904 71.5615C217.097 71.8235 217.307 72.1443 217.569 72.3583C217.811 72.6203 218.1 72.8021 218.433 72.9091C218.754 73.0748 219.098 73.155 219.468 73.139C219.838 73.155 220.181 73.0748 220.503 72.9091C220.835 72.8021 221.125 72.6149 221.366 72.3583L221.784 71.8181C222.026 71.401 222.149 70.9518 222.149 70.4706L222.052 69.7593C221.924 69.3048 221.693 68.9144 221.361 68.5775C221.275 68.508 221.2 68.4331 221.13 68.3476L221.548 68.8877C221.463 68.7754 221.393 68.6524 221.334 68.524L221.602 69.1604C221.538 69.0107 221.5 68.8502 221.479 68.6898L221.575 69.401C221.554 69.2353 221.559 69.0748 221.575 68.9091L221.479 69.6203C221.5 69.4706 221.538 69.3208 221.597 69.1818L221.328 69.8181C221.382 69.6898 221.452 69.5668 221.538 69.4545L221.119 69.9946C221.178 69.9198 221.248 69.8449 221.323 69.7807C221.586 69.5401 221.768 69.2513 221.875 68.9198C222.042 68.5989 222.122 68.2566 222.106 67.8877C222.122 67.5187 222.042 67.1764 221.875 66.8556C221.768 66.524 221.58 66.2353 221.323 65.9946L220.781 65.5775C220.363 65.3369 219.913 65.2139 219.43 65.2139L218.717 65.3101C218.261 65.4385 217.87 65.6684 217.532 66L217.537 66.0107Z" fill="#2A3236"/>
<path d="M179.132 3.40105C180.73 9.08554 184.124 14 188.092 18.2994C192.13 22.6684 196.726 26.5347 201.225 30.4117C211.07 38.8877 221.248 46.9786 231.721 54.6684C237.555 58.9572 243.491 63.1123 249.508 67.139C250.677 67.9198 252.527 67.4011 253.176 66.1818C253.889 64.8342 253.46 63.3583 252.216 62.524C246.929 58.9839 241.706 55.3476 236.558 51.6096C233.984 49.7379 231.426 47.8449 228.889 45.9251C228.289 45.4706 227.688 45.016 227.088 44.5561C226.82 44.3529 226.557 44.1497 226.289 43.9465C226.122 43.8182 225.956 43.6898 225.79 43.5668C225.688 43.492 225.592 43.4117 225.49 43.3369C225.667 43.4759 225.683 43.4866 225.533 43.3743C224.272 42.4011 223.018 41.4224 221.768 40.4385C216.803 36.5294 211.912 32.524 207.102 28.4278C202.544 24.5454 197.927 20.6631 193.696 16.4171C192.613 15.3315 191.562 14.2139 190.559 13.0481C190.323 12.7754 190.087 12.4973 189.856 12.2139C189.744 12.0748 189.626 11.9358 189.513 11.7914C189.465 11.7326 189.036 11.1871 189.25 11.4652C189.497 11.7861 189.068 11.2246 189.068 11.2192C188.939 11.0481 188.811 10.8716 188.682 10.6952C188.473 10.4064 188.264 10.1123 188.06 9.81282C187.213 8.57218 186.446 7.2834 185.781 5.93581C185.609 5.58287 185.443 5.22993 185.282 4.87164C185.223 4.7326 185.046 4.27271 185.261 4.82351C185.18 4.62565 185.1 4.42779 185.025 4.22458C184.741 3.48661 184.499 2.7326 184.285 1.97324C183.91 0.62565 182.37 -0.342264 180.987 0.106934C179.603 0.556132 178.708 1.95185 179.115 3.3957L179.132 3.40105Z" fill="#2A3236"/>
<path d="M174.638 122.62C185.132 124.102 195.916 123.069 205.858 119.342C208.711 118.273 211.499 117.016 214.175 115.556C215.408 114.882 215.907 113.086 215.135 111.898C214.363 110.711 212.786 110.219 211.467 110.941C210.368 111.54 209.252 112.107 208.121 112.636C207.59 112.882 207.054 113.123 206.517 113.358C206.448 113.39 205.992 113.583 206.298 113.455C206.576 113.337 206.217 113.487 206.185 113.503C205.858 113.636 205.531 113.765 205.204 113.893C202.909 114.791 200.554 115.545 198.168 116.155C196.956 116.465 195.734 116.738 194.5 116.973C193.921 117.086 193.347 117.187 192.768 117.278C192.5 117.321 192.227 117.364 191.958 117.406C191.803 117.428 191.647 117.449 191.492 117.476C190.747 117.583 191.824 117.438 191.39 117.487C188.934 117.759 186.483 117.957 184.011 117.968C182.601 117.973 181.196 117.93 179.786 117.834C179.121 117.791 178.461 117.733 177.796 117.668C177.448 117.631 177.094 117.594 176.745 117.551C176.59 117.535 176.434 117.513 176.279 117.492C175.684 117.417 176.708 117.551 176.059 117.46C175.314 117.353 174.67 117.332 173.994 117.727C173.437 118.053 172.906 118.69 172.761 119.326C172.471 120.588 173.147 122.406 174.633 122.615L174.638 122.62Z" fill="#2A3236"/>
<path d="M248.902 63.8928C248.816 66.3474 248.623 68.7966 248.301 71.2351C248.382 70.6255 248.242 71.6362 248.226 71.7431C248.178 72.0693 248.13 72.3902 248.076 72.7164C247.985 73.2832 247.889 73.8447 247.781 74.4116C247.551 75.6575 247.283 76.9035 246.988 78.1335C246.414 80.5239 245.727 82.8821 244.923 85.2083C244.521 86.3688 244.092 87.5185 243.631 88.6575C243.523 88.9249 243.416 89.187 243.304 89.4543C243.18 89.7431 243.175 89.7592 243.288 89.4971C243.223 89.6469 243.159 89.7966 243.094 89.9463C242.832 90.5452 242.564 91.1442 242.285 91.7378C241.695 93.0051 241.883 94.6789 243.245 95.3955C244.43 96.0212 246.285 95.7912 246.913 94.4383C251.379 84.8447 253.9 74.4811 254.259 63.8982C254.307 62.4971 252.994 61.1602 251.578 61.2244C250.087 61.2886 248.945 62.4009 248.897 63.8982L248.902 63.8928Z" fill="#2A3236"/>
<path d="M212.491 111.224C215.414 125.711 218.331 140.192 221.253 154.679C222.079 158.781 222.905 162.882 223.736 166.984C224.015 168.358 225.726 169.273 227.034 168.85C228.498 168.38 229.206 167.032 228.906 165.561C225.983 151.075 223.066 136.593 220.143 122.107C219.318 118.005 218.492 113.904 217.661 109.802C217.382 108.428 215.671 107.513 214.363 107.936C212.899 108.406 212.191 109.754 212.491 111.224Z" fill="#2A3236"/>
<path d="M224.482 104.577C227.522 118.775 230.563 132.968 233.598 147.166C234.456 151.171 235.314 155.176 236.172 159.187C236.467 160.556 238.15 161.481 239.47 161.053C240.917 160.588 241.657 159.23 241.341 157.765C238.301 143.567 235.26 129.374 232.225 115.176C231.367 111.171 230.509 107.166 229.651 103.155C229.356 101.786 227.672 100.861 226.353 101.289C224.905 101.754 224.165 103.112 224.482 104.577Z" fill="#2A3236"/>
<path d="M223.956 35.0587C221.854 35.4277 220.567 37.5775 220.535 39.5775C220.503 41.5775 221.763 43.6844 223.843 44.1764C225.329 44.524 226.643 43.7165 227.141 42.3101C230.235 33.5561 233.33 24.7967 236.424 16.0427C237.298 13.5721 238.172 11.1015 239.046 8.62558C239.512 7.30473 238.515 5.64163 237.174 5.33681C235.673 4.99457 234.375 5.79136 233.877 7.20313C230.782 15.9571 227.688 24.7165 224.594 33.4705C223.72 35.9411 222.846 38.4117 221.972 40.8876L225.27 39.0213C225.189 38.9999 225.109 38.9785 225.029 38.9571C225.055 38.9678 225.656 39.2352 225.35 39.0641L225.71 39.3368C225.581 39.1978 225.597 39.2299 225.763 39.4331C226.047 39.8234 225.844 39.5507 225.806 39.4652C225.699 39.2192 225.951 40.0534 225.929 39.7807C225.924 39.7111 225.881 39.6149 225.86 39.5454C225.828 39.4491 225.779 39.1069 225.86 39.5989C225.94 40.0908 225.87 39.6898 225.892 39.5828C225.956 39.2406 225.704 40.2726 225.887 39.6791C225.908 39.6149 225.962 39.5133 225.962 39.4491C225.962 39.4812 225.677 40.0748 225.849 39.7646C226.021 39.4545 225.667 39.9946 225.64 40.0213C225.956 39.7058 225.179 40.3261 225.404 40.1764C225.495 40.1176 225.769 39.9892 225.345 40.1764C224.921 40.3636 225.248 40.2352 225.382 40.2138C226.766 39.9678 227.672 38.2085 227.254 36.9251C226.771 35.4384 225.441 34.7967 223.956 35.0587Z" fill="#2A3236"/>
</g>
<defs>
<clipPath id="clip0_322_122">
<rect width="265" height="207" fill="white"/>
</clipPath>
</defs>
</svg>
