<svg width="196" height="159" viewBox="0 0 196 159" fill="none" xmlns="http://www.w3.org/2000/svg">
<g clip-path="url(#clip0_424_108)">
<path d="M72.0665 158.945C98.0962 157.993 122.613 144.002 121.307 138.966C118.983 129.998 32.52 140.181 32.2587 149.48C32.1212 154.199 54.122 159.607 72.0665 158.945Z" fill="#5B6B7D"/>
<path d="M32.6025 29.3191C32.6025 29.3191 75.3116 39.1152 117.429 19.1367C116.068 68.5448 114.734 104.763 124.305 115.828C45.3492 131.088 19.127 134.317 19.127 134.317L32.6025 29.3191Z" fill="#426CB4"/>
<path d="M76.4392 69.1241C74.8854 62.253 74.6654 54.4161 78.433 48.1936C81.3481 43.3783 87.1921 39.5979 92.9398 40.7568C94.7549 41.1294 96.6525 40.2325 97.175 38.3423C97.6425 36.6452 96.5975 34.4653 94.7686 34.0927C86.1746 32.3543 77.8005 36.7832 73.0016 43.9026C67.7076 51.7533 67.7764 62.0461 69.7977 70.9591C70.774 75.2915 77.4155 73.4564 76.4254 69.1241H76.4392Z" fill="#231F20"/>
<path d="M86.2984 61.5497C86.2984 61.5497 86.4221 61.6186 86.4771 61.66L85.7758 61.1219C85.8446 61.1771 85.9134 61.2461 85.9684 61.3151L85.4321 60.6114C85.5008 60.6942 85.5421 60.7908 85.5971 60.8874L85.2533 60.0596C85.2946 60.1699 85.3221 60.2803 85.3496 60.3907L85.2258 59.4801C85.2396 59.6042 85.2396 59.7284 85.2258 59.8526L85.3496 58.942C85.3358 59.0524 85.3083 59.1489 85.2671 59.2455L85.6108 58.4177C85.5696 58.5005 85.5283 58.5832 85.4733 58.6522L86.0096 57.9486C86.0096 57.9486 85.8996 58.0727 85.8308 58.1279L86.5321 57.5898C86.4634 57.645 86.3809 57.6864 86.2984 57.7278L87.1234 57.3829C87.0271 57.4243 86.9446 57.4519 86.8346 57.4657L87.7422 57.3415C87.6184 57.3553 87.4947 57.3553 87.3709 57.3415L88.2784 57.4657C88.1684 57.4519 88.0584 57.4243 87.9484 57.3691L88.7735 57.714C88.6635 57.6726 88.5672 57.6174 88.4709 57.5484L89.1722 58.0865C89.0897 58.0314 89.021 57.9624 88.966 57.8796L89.5022 58.5832C89.5022 58.5832 89.406 58.4453 89.3785 58.3625L89.7222 59.1903C89.7222 59.1903 89.7222 59.1627 89.7085 59.1489C89.5985 58.6936 89.3922 58.3073 89.0897 57.9762C88.8422 57.6036 88.5259 57.3001 88.1272 57.0931C87.7284 56.8448 87.3022 56.7068 86.8484 56.6792C86.3946 56.5826 85.9409 56.5964 85.4733 56.7344L84.6483 57.0793C84.1258 57.3829 83.727 57.7968 83.4108 58.3211L83.067 59.1489C82.902 59.756 82.902 60.3769 83.067 60.984C83.1907 61.3151 83.3145 61.6876 83.507 61.9912C83.507 62.005 83.5345 62.0326 83.5483 62.0464C83.7133 62.2671 83.9333 62.5431 84.0983 62.7638C84.1258 62.8052 84.1533 62.8328 84.1808 62.8604C84.4283 63.1226 84.7446 63.3295 85.0333 63.5365C85.1021 63.5917 85.1708 63.6331 85.2533 63.6606C85.5833 63.8124 85.9134 63.978 86.2709 64.0746C86.3121 64.0746 86.3396 64.0884 86.3809 64.1022C86.4084 64.1022 86.4221 64.1022 86.4496 64.1022C86.7659 64.1574 87.0959 64.1987 87.4122 64.2263C87.4947 64.2263 87.5634 64.2263 87.6459 64.2263C88.0309 64.1987 88.4159 64.1574 88.7872 64.0608C88.8285 64.0608 88.856 64.0332 88.8972 64.0332C89.1997 63.9228 89.516 63.7848 89.8047 63.6469C90.1073 63.4951 90.5335 63.1226 90.6985 62.9846C90.7535 62.9294 90.8085 62.888 90.8635 62.819C91.0561 62.5983 91.3586 62.2533 91.5236 61.936C91.6886 61.6186 91.8398 61.2737 91.9361 60.915C92.0323 60.5563 92.0598 60.1423 92.1011 59.7698C92.1011 59.687 92.1011 59.618 92.1011 59.5353C92.0736 59.1489 92.0323 58.7626 91.9361 58.3901C91.8398 58.0176 91.6473 57.6588 91.5098 57.3553C91.4686 57.2725 91.4273 57.1897 91.3723 57.1207C91.2073 56.9 90.946 56.4723 90.671 56.2377C90.396 56.0031 90.0935 55.7272 89.7635 55.5616C89.3647 55.3133 88.9385 55.1753 88.4847 55.1477C88.0309 55.0511 87.5772 55.0649 87.1096 55.2029C86.6559 55.3133 86.2709 55.5202 85.9409 55.8238C85.5696 56.0721 85.2671 56.3895 85.0608 56.7896L84.7171 57.6174C84.552 58.2245 84.552 58.8454 84.7171 59.4525L85.0608 60.2803C85.3633 60.8046 85.7758 61.2047 86.2984 61.5221V61.5497Z" fill="#231F20"/>
<path d="M120.743 38.9218C120.757 38.8252 121.046 37.818 120.881 38.2457C120.716 38.6735 121.156 37.7766 121.211 37.6801C121.541 37.1144 120.812 37.9698 121.362 37.5145C121.445 37.4455 122.146 36.8384 121.513 37.3213C121.733 37.1558 121.981 36.9902 122.229 36.8522C122.394 36.7556 122.559 36.6729 122.737 36.5901C122.394 36.7142 122.352 36.7418 122.586 36.6453C123.177 36.4245 123.796 36.2451 124.429 36.1624C123.604 36.2727 124.58 36.1899 124.69 36.1899C124.992 36.1899 125.281 36.2037 125.57 36.2175C124.772 36.1899 125.749 36.2589 125.955 36.3141C126.312 36.3969 126.656 36.5073 127 36.6453C126.505 36.4383 127.467 36.9074 127.481 36.9212C127.797 37.1006 128.086 37.2937 128.402 37.4869C128.966 37.8456 128.389 37.4179 128.843 37.8318C129.159 38.1216 129.475 38.3975 129.764 38.7011C131.785 40.7568 133.325 43.6543 134.659 46.5931C136.089 49.7389 137.162 53.3124 137.89 56.7893C138.275 58.6105 140.407 59.6729 142.126 59.2038C144.009 58.6795 144.903 56.7893 144.532 54.9543C143.583 50.4426 142.071 46.0826 140.063 41.9296C138.289 38.2733 136.062 34.7274 132.816 32.2163C129.571 29.7052 125.707 28.6842 121.747 29.6914C118.158 30.602 114.872 33.3477 114.129 37.1006C113.772 38.9218 114.652 40.8258 116.536 41.3501C118.227 41.8192 120.4 40.7706 120.771 38.9356L120.743 38.9218Z" fill="#231F20"/>
<path d="M121.761 51.5192C121.954 51.8641 122.146 52.209 122.297 52.5816L121.954 51.7537C122.091 52.0711 122.201 52.416 122.242 52.7609L122.119 51.8503C122.146 52.0573 122.146 52.2642 122.119 52.4712L122.242 51.5606C122.215 51.7399 122.174 51.9055 122.119 52.0711L122.462 51.2432C122.421 51.3398 122.366 51.4226 122.311 51.5054L122.847 50.8017C122.779 50.8845 122.696 50.9673 122.614 51.0363L123.315 50.4982C123.191 50.5948 123.067 50.6637 122.93 50.7189L123.755 50.374C123.604 50.4292 123.452 50.4706 123.301 50.4982L124.209 50.374C124.085 50.3878 123.947 50.3878 123.824 50.374L124.731 50.4982C124.635 50.4844 124.539 50.4568 124.442 50.4154L125.267 50.7603C125.199 50.7327 125.13 50.6913 125.061 50.6499L125.762 51.188C125.762 51.188 125.666 51.1053 125.625 51.0501L126.161 51.7537C126.161 51.7537 126.079 51.6433 126.051 51.5744L126.395 52.4022C126.395 52.4022 126.354 52.278 126.34 52.2228C126.23 51.7675 126.024 51.3812 125.721 51.0501C125.474 50.6775 125.157 50.374 124.759 50.167C124.36 49.9187 123.934 49.7807 123.48 49.7531C123.026 49.6565 122.572 49.6703 122.105 49.8083L121.28 50.1532C120.757 50.4568 120.358 50.8707 120.042 51.395L119.698 52.2228C119.533 52.8299 119.533 53.4508 119.698 54.0579C119.767 54.4166 119.96 54.8029 120.111 55.0927C120.125 55.1341 120.152 55.1617 120.166 55.203C120.166 55.2168 120.193 55.2306 120.193 55.2444C120.345 55.4652 120.578 55.7825 120.757 55.9757C120.785 56.0033 120.812 56.0309 120.84 56.0585C121.06 56.2516 121.362 56.4862 121.61 56.6518C121.637 56.6656 121.665 56.6932 121.692 56.707C121.981 56.8587 122.311 56.9967 122.627 57.1071C122.71 57.1347 122.779 57.1485 122.861 57.1623C123.177 57.2175 123.535 57.2726 123.851 57.3002C123.892 57.3002 123.947 57.3002 123.989 57.3002C124.456 57.3002 124.951 57.245 125.405 57.0933C125.762 56.9829 126.106 56.8173 126.45 56.6518C126.532 56.6104 126.615 56.569 126.697 56.5C126.959 56.3068 127.234 56.0999 127.468 55.8929C127.495 55.8653 127.536 55.8377 127.564 55.8101C127.591 55.7825 127.619 55.7549 127.646 55.7273C127.853 55.479 128.073 55.203 128.251 54.9409C128.279 54.8995 128.306 54.8719 128.32 54.8305C128.471 54.5408 128.595 54.2234 128.705 53.9199C128.76 53.7819 128.801 53.644 128.829 53.4922C128.898 53.0645 128.98 52.623 128.98 52.1814C128.98 51.7399 128.898 51.2846 128.815 50.8431C128.705 50.236 128.416 49.6289 128.169 49.0771C128.018 48.7321 127.839 48.401 127.646 48.0698C127.426 47.6697 127.137 47.3386 126.766 47.104C126.436 46.8005 126.051 46.5935 125.597 46.4832C125.144 46.3452 124.69 46.3176 124.222 46.428C123.769 46.4556 123.342 46.5797 122.944 46.8419L122.242 47.38C121.816 47.8077 121.527 48.3182 121.362 48.8977L121.239 49.8083C121.239 50.4292 121.404 51.0087 121.706 51.5468L121.761 51.5192Z" fill="#231F20"/>
<path d="M86.7383 94.7733C88.0034 98.6917 91.3998 101.465 95.4149 102.224C100.118 103.093 104.724 101.493 109.083 99.8783C117.553 96.7325 125.652 92.6485 133.188 87.6263C136.859 85.1842 133.421 79.2099 129.722 81.6658C123.562 85.7774 117.003 89.3509 110.142 92.1104C106.787 93.4625 103.143 95.0906 99.5126 95.5183C97.3537 95.7667 94.1499 95.3666 93.3661 92.9382C92.0048 88.7301 85.3633 90.5375 86.7383 94.7733Z" fill="#231F20"/>
<path d="M44.978 27.5808C34.1426 46.014 28.6286 67.5377 29.2199 88.9235C29.3849 95.1047 30.0999 101.286 31.255 107.371C31.5988 109.206 33.7988 110.24 35.4902 109.785C37.4015 109.261 38.2403 107.384 37.8965 105.535C34.1426 85.7778 36.2464 65.0956 43.4792 46.3589C45.528 41.0607 48.0581 35.9557 50.932 31.0577C53.1871 27.2221 47.2469 23.7451 44.9918 27.5808H44.978Z" fill="#231F20"/>
<path d="M57.8622 24.1036C83.5345 29.5121 108.45 18.4467 131.235 7.76761C132.913 6.98116 133.339 4.55284 132.473 3.04894C131.469 1.32427 129.461 1.02073 127.77 1.80718C106.855 11.6171 83.3419 22.4341 59.7048 17.4533C57.8897 17.067 55.9922 17.9914 55.4696 19.8678C55.0021 21.5787 56.0472 23.7311 57.876 24.1174L57.8622 24.1036Z" fill="#231F20"/>
<path d="M168.829 48.5941C175.264 47.38 182.923 47.8629 187.103 53.2438C188.905 55.5756 189.469 58.3764 188.96 61.4394C188.313 65.3165 186.773 68.9727 186.21 72.8636C185.948 74.6986 186.663 76.5751 188.616 77.1131C190.225 77.5547 192.576 76.5613 192.851 74.6986C193.511 70.0903 195.395 65.7856 195.904 61.1497C196.413 56.5138 195.037 52.1538 192.122 48.5527C186.045 41.0746 175.828 40.2744 167.014 41.9438C165.185 42.2888 164.154 44.4963 164.608 46.1934C165.13 48.1112 167 48.9529 168.843 48.6079L168.829 48.5941Z" fill="#231F20"/>
<path d="M34.8576 59.6181C23.6785 60.6391 13.5993 66.4754 6.93032 75.5264C0.261315 84.5774 -1.52625 96.3741 1.2651 107.136C2.86016 113.303 5.99528 119.002 10.3267 123.665C13.3518 126.921 18.2058 122.037 15.1944 118.781C8.9104 112.034 6.03654 102.555 7.05407 93.4215C8.07161 84.2877 13.4343 76.3956 20.9146 71.5252C25.0948 68.8071 29.88 66.9721 34.8576 66.5168C36.7002 66.3512 38.2953 65.0543 38.2953 63.0675C38.2953 61.329 36.714 59.4526 34.8576 59.6181Z" fill="#231F20"/>
<path d="M129.145 2.51095C127.124 7.79531 126.106 13.4798 126.092 19.1367C126.092 20.9441 127.674 22.6688 129.53 22.586C131.386 22.5032 132.968 21.0683 132.968 19.1367C132.968 17.7708 133.036 16.4048 133.16 15.0527C133.188 14.7629 133.215 14.4732 133.256 14.1835C133.298 13.8937 133.339 13.3142 133.284 13.9351C133.339 13.259 133.49 12.583 133.614 11.9207C134.109 9.34061 134.838 6.80191 135.787 4.34599C136.433 2.66272 135.072 0.48275 133.38 0.0964254C131.414 -0.358885 129.846 0.703506 129.145 2.51095Z" fill="#231F20"/>
<path d="M122.132 97.919C122.888 102.61 125.68 106.556 129.516 109.233L130.341 102.927C109.372 107.812 88.4159 112.71 67.4464 117.594C63.1424 118.601 64.9575 125.251 69.2752 124.244C90.2447 119.36 111.201 114.462 132.17 109.578C135.264 108.86 135.278 104.859 132.995 103.272C130.561 101.575 129.227 98.9538 128.774 96.084C128.471 94.2489 126.189 93.2141 124.539 93.6694C122.586 94.2075 121.843 96.0702 122.132 97.919Z" fill="#231F20"/>
<path d="M76.2742 120.119C74.5554 129.598 75.078 139.339 78.0618 148.514C78.6393 150.28 80.4407 151.439 82.297 150.928C84.0295 150.445 85.2808 148.459 84.7033 146.679C82.1182 138.718 81.4169 130.205 82.9157 121.954C83.2458 120.119 82.4207 118.229 80.5094 117.705C78.8456 117.249 76.618 118.27 76.2742 120.119Z" fill="#231F20"/>
<path d="M88.0034 114.917C86.5596 124.451 87.3846 134.192 90.781 143.243C91.441 144.982 93.1048 146.182 95.0161 145.658C96.68 145.203 98.0688 143.161 97.4225 141.408C94.4799 133.571 93.3936 125.059 94.6449 116.753C94.9199 114.918 94.1774 113.041 92.2385 112.503C90.616 112.061 88.2921 113.055 88.0034 114.917Z" fill="#231F20"/>
</g>
<defs>
<clipPath id="clip0_424_108">
<rect width="196" height="159" fill="white"/>
</clipPath>
</defs>
</svg>
