<svg width="276" height="317" viewBox="0 0 276 317" fill="none" xmlns="http://www.w3.org/2000/svg">
<path d="M0 43.1194L112.519 17.6011L103.213 187.712L0 235.104V43.1194Z" fill="#89AFDD"/>
<path d="M8.7009 313.82C90.7188 319.28 113.224 314.025 114.208 306.503C115.926 293.38 55.0031 251.843 23.7694 283.09C19.3714 287.49 12.5002 296.396 8.69531 313.82H8.7009Z" fill="#576B80"/>
<path d="M13.3452 36.6077C27.1771 36.184 40.9139 33.4506 54.3989 29.679C67.8167 25.9286 81.0387 21.1541 94.2943 16.5985C98.0097 15.3271 101.719 13.9922 105.468 12.8975C106.436 12.615 107.41 12.3536 108.384 12.1347C108.87 12.0217 109.357 11.9228 109.85 11.831C109.978 11.8098 110.566 11.718 110.04 11.7957C110.308 11.7533 110.571 11.718 110.84 11.6827C112.798 11.4284 114.774 11.3931 116.732 11.6403C118.192 11.8239 119.591 9.88162 119.53 8.10882C119.457 6.03939 118.299 4.77512 116.732 4.57736C109.671 3.68037 102.643 6.43491 95.9002 8.73036C89.1577 11.0258 82.6446 13.3213 76.0084 15.5814C62.7752 20.0875 49.4525 24.3112 35.8948 26.9527C34.9324 27.1434 33.9643 27.32 33.0019 27.4895C32.8285 27.5177 32.6494 27.5531 32.476 27.5813C32.3025 27.6096 32.1234 27.6449 31.95 27.6731C32.213 27.6308 32.241 27.6237 32.0339 27.659C31.5527 27.7367 31.0659 27.8214 30.5847 27.8921C28.7382 28.1817 26.8861 28.443 25.034 28.6619C21.1452 29.1281 17.2452 29.4247 13.3396 29.5448C11.8792 29.5872 10.4747 31.134 10.5419 33.0763C10.609 35.0186 11.7729 36.6572 13.3396 36.6077H13.3452Z" fill="#263238"/>
<path d="M112.021 75.4113C107.388 81.0617 106.364 90.4624 109.48 97.5395C110.191 99.1569 112.06 99.8208 113.308 98.8037C114.555 97.7867 115.07 95.7031 114.309 93.9727C114.164 93.6478 114.041 93.3088 113.906 92.9768C113.744 92.5884 114.096 93.6407 113.923 93.0192C113.878 92.8638 113.834 92.7084 113.789 92.5531C113.599 91.8538 113.453 91.1263 113.347 90.3989C113.33 90.2717 113.324 89.6078 113.308 90.1305C113.291 90.6531 113.313 90.1163 113.308 89.9821C113.285 89.6078 113.268 89.2405 113.263 88.8662C113.263 88.4495 113.268 88.0398 113.291 87.6231C113.302 87.4607 113.313 87.2912 113.324 87.1287C113.369 86.4507 113.246 87.6514 113.313 87.2064C113.425 86.4719 113.537 85.7444 113.71 85.024C113.8 84.6638 113.901 84.3177 114.001 83.9716C114.136 83.5125 113.945 83.9645 113.945 84.127C113.945 83.9645 114.102 83.7103 114.158 83.569C114.421 82.9051 114.723 82.2624 115.065 81.6549C115.109 81.5702 115.395 81.1464 115.143 81.5137C114.863 81.9234 115.238 81.3795 115.3 81.2948C115.518 80.984 115.747 80.6873 115.982 80.3977C117.034 79.1123 117.084 76.6756 115.982 75.4043C114.88 74.1329 113.151 74.034 112.026 75.4043L112.021 75.4113Z" fill="#263238"/>
<path d="M116.62 79.7761C131.89 77.523 147.238 76.1952 162.609 75.8068C166.962 75.6937 171.31 75.6655 175.663 75.7008C177.129 75.7149 178.528 74.0693 178.461 72.1693C178.394 70.2694 177.23 68.652 175.663 68.6379C160.292 68.5037 144.916 69.2947 129.607 71.0181C125.271 71.5054 120.945 72.0705 116.62 72.7061C115.171 72.918 113.75 74.1752 113.822 76.2376C113.884 77.968 115.065 79.9951 116.62 79.7691V79.7761Z" fill="#263238"/>
<path d="M176.905 66.6108C170.515 75.3901 168.003 88.1386 170.51 99.6653C170.896 101.445 172.513 102.717 173.951 102.13C175.389 101.544 176.323 99.6936 175.904 97.7866C175.652 96.6283 175.299 95.2792 175.283 94.0644C175.299 95.0532 175.266 93.8596 175.249 93.6548C175.227 93.3864 175.21 93.1109 175.193 92.8425C175.154 92.2139 175.137 91.5783 175.132 90.9426C175.12 89.6783 175.171 88.407 175.277 87.1428C175.294 86.9591 175.311 86.7826 175.327 86.606C175.271 87.0933 175.271 87.1357 175.316 86.7402C175.35 86.4718 175.383 86.2034 175.422 85.935C175.518 85.264 175.624 84.6001 175.753 83.9362C175.988 82.7002 176.284 81.4854 176.631 80.2988C176.721 80.0021 176.81 79.7055 176.905 79.4089C177.112 78.7379 176.704 79.9739 177.006 79.1263C177.213 78.5472 177.431 77.9751 177.666 77.4171C178.131 76.2941 178.651 75.2064 179.222 74.1682C179.367 73.9068 179.513 73.6526 179.658 73.3983C179.983 72.8191 179.356 73.8574 179.815 73.144C180.151 72.6143 180.509 72.1058 180.872 71.6043C181.863 70.2412 182.019 67.9387 180.872 66.6108C179.793 65.3607 177.974 65.1559 176.916 66.6108H176.905Z" fill="#263238"/>
<path d="M178.332 71.8728L188.656 74.4296L186.983 69.2454C181.734 80.0305 180.218 93.4642 182.803 105.683C183.183 107.47 184.812 108.734 186.244 108.148C187.676 107.562 188.605 105.718 188.197 103.804C187.895 102.385 187.648 100.944 187.464 99.4889C187.425 99.171 187.358 98.6343 187.43 99.2629C187.386 98.8744 187.352 98.486 187.324 98.0904C187.268 97.4053 187.229 96.7202 187.195 96.0351C187.134 94.566 187.128 93.0899 187.184 91.6208C187.212 90.9357 187.251 90.2506 187.302 89.5655C187.324 89.2688 187.346 88.9793 187.374 88.6897C187.391 88.4919 187.413 88.3012 187.43 88.1034C187.38 88.5555 187.38 88.5767 187.43 88.167C187.794 85.3489 188.309 82.5873 189.07 79.8963C189.254 79.2465 189.45 78.6109 189.657 77.9752C189.405 78.7451 189.736 77.7563 189.792 77.6009C189.903 77.2901 190.015 76.9793 190.133 76.6686C190.636 75.3407 191.202 74.0553 191.812 72.7981C192.701 70.9688 191.907 68.0447 190.138 67.6139L179.815 65.0571C178.382 64.704 176.726 65.5656 176.374 67.5221C176.06 69.2737 176.793 71.4844 178.327 71.8658L178.332 71.8728Z" fill="#263238"/>
<path d="M175.669 104.059L183.782 103.861C185.242 103.826 186.647 102.265 186.58 100.329C186.513 98.3941 185.349 96.7626 183.782 96.7979L175.669 96.9957C174.208 97.031 172.804 98.5919 172.871 100.527C172.938 102.462 174.102 104.094 175.669 104.059Z" fill="#263238"/>
<path d="M113.095 103.204C129.719 102.384 146.349 101.558 162.973 100.739C167.617 100.506 172.261 100.28 176.905 100.047C178.366 99.976 179.77 98.4716 179.703 96.5151C179.636 94.6647 178.472 92.906 176.905 92.9837C160.281 93.803 143.652 94.6293 127.028 95.4486C122.383 95.6817 117.739 95.9077 113.095 96.1408C111.635 96.2114 110.23 97.7158 110.297 99.6723C110.364 101.523 111.528 103.281 113.095 103.204Z" fill="#263238"/>
<path d="M189.573 75.8702C202.202 74.5918 214.881 74.0056 227.55 74.1327C231.125 74.168 234.695 74.2599 238.27 74.4082C239.736 74.4717 241.135 72.7413 241.068 70.8767C241.001 68.9132 239.837 67.4088 238.27 67.3453C225.602 66.8226 212.923 66.9992 200.272 67.8891C196.702 68.1363 193.138 68.4471 189.573 68.8073C188.119 68.9556 186.703 70.3258 186.776 72.3387C186.837 74.1256 188.012 76.0256 189.573 75.8702Z" fill="#263238"/>
<path d="M188.404 102.611C200.126 103.105 211.843 103.599 223.566 104.094L233.609 104.518C235.075 104.581 236.474 102.851 236.407 100.986C236.34 99.0225 235.176 97.5181 233.609 97.4546C221.887 96.9602 210.17 96.4658 198.448 95.9714L188.404 95.5476C186.938 95.484 185.539 97.2144 185.606 99.0791C185.673 101.043 186.837 102.547 188.404 102.611Z" fill="#263238"/>
<path d="M245.382 56.5816C241.672 63.1078 238.931 70.5803 237.358 78.3637C236.609 82.0788 236.043 85.9563 235.92 89.7915C235.82 92.9769 236.066 96.3671 236.955 99.3759C237.532 101.318 238.265 103.027 239.345 104.595C240.425 106.163 241.823 107.209 243.34 107.979C244.699 108.671 246.473 107.223 246.781 105.514C247.15 103.465 246.283 101.911 244.828 101.17C245.595 101.558 244.8 101.127 244.621 101.007C244.526 100.944 244.05 100.471 243.972 100.485C244.011 100.478 244.498 101.05 244.14 100.647C244.056 100.555 243.972 100.464 243.888 100.365C243.681 100.125 243.485 99.8703 243.306 99.6019C243.261 99.5383 243.161 99.3335 243.094 99.277C243.441 99.5666 243.379 99.7785 243.228 99.4748C243.088 99.1993 242.948 98.938 242.819 98.6555C242.691 98.373 242.568 98.0763 242.456 97.7797C242.422 97.6949 242.355 97.4195 242.31 97.3771C242.467 97.8432 242.5 97.9562 242.422 97.702C242.389 97.596 242.361 97.4901 242.327 97.3842C242.154 96.7767 242.008 96.1552 241.885 95.5266C241.829 95.2229 241.779 94.9192 241.728 94.6155C241.7 94.4248 241.672 94.2341 241.65 94.0363L241.622 93.8032C241.6 93.5961 241.6 93.5961 241.622 93.8032L241.65 94.0363C241.633 93.8809 241.622 93.7256 241.611 93.5631C241.6 93.4077 241.588 93.2453 241.577 93.0899C241.555 92.7721 241.544 92.4613 241.532 92.1435C241.505 91.3948 241.505 90.6461 241.527 89.8974C241.544 89.2406 241.583 88.5837 241.633 87.934C241.667 87.5526 241.7 87.1782 241.74 86.7968C241.829 85.8151 241.678 87.2771 241.751 86.6768C241.784 86.4225 241.807 86.1753 241.84 85.921C242.064 84.1058 242.355 82.3119 242.708 80.532C243.06 78.7521 243.474 76.9935 243.95 75.256C244.174 74.4367 244.414 73.6245 244.666 72.8193C244.727 72.6286 244.783 72.4379 244.845 72.2542C244.873 72.1624 245.069 71.5621 244.935 71.9717C244.778 72.4591 245.086 71.5338 245.08 71.548C245.158 71.3149 245.242 71.0818 245.326 70.8487C246.675 67.0842 248.32 63.4962 250.228 60.1413C251.084 58.6369 250.474 56.1437 249.226 55.3103C247.783 54.3427 246.311 54.9713 245.399 56.5746L245.382 56.5816Z" fill="#263238"/>
<path d="M249.847 58.6014C253.428 59.1947 257.009 59.7879 260.591 60.3742L257.894 55.9033C254.005 68.666 254.01 83.3852 257.715 96.2115C258.789 99.9336 260.137 103.529 261.794 106.898C262.566 108.466 264.328 109.214 265.621 108.162C266.913 107.11 267.451 105.012 266.622 103.331C265.94 101.939 265.302 100.513 264.72 99.0508C264.446 98.3657 264.188 97.6664 263.937 96.9672C263.864 96.7624 263.534 95.7453 263.769 96.4869C263.64 96.0843 263.511 95.6888 263.388 95.2791C262.471 92.2703 261.766 89.1626 261.273 85.9985C261.156 85.2427 261.055 84.487 260.96 83.7242C260.938 83.5406 260.893 83.3287 260.893 83.1521C260.893 83.2651 260.965 83.9149 260.904 83.2298C260.865 82.799 260.82 82.3681 260.786 81.9373C260.658 80.3552 260.585 78.7731 260.563 77.1839C260.54 75.5948 260.574 74.0056 260.658 72.4235C260.697 71.6537 260.753 70.8909 260.82 70.121C260.837 69.9303 260.854 69.7396 260.87 69.5489C260.882 69.4288 260.949 68.8144 260.893 69.3017C260.837 69.789 260.91 69.1746 260.921 69.0545C260.949 68.8144 260.977 68.5813 261.01 68.3411C261.475 64.732 262.236 61.1935 263.276 57.775C263.59 56.7509 263.276 55.5149 262.778 54.6956C262.196 53.7421 261.497 53.4525 260.579 53.3042C256.998 52.7109 253.417 52.1176 249.836 51.5314C248.381 51.2912 246.977 53.3254 247.038 55.0628C247.111 57.1817 248.275 58.333 249.836 58.5943L249.847 58.6014Z" fill="#263238"/>
<path d="M239.166 112.004C243.86 115.077 249.26 116.447 254.525 115.557C255.969 115.317 257.396 114.109 257.323 112.025C257.261 110.323 256.081 108.233 254.525 108.494C253.395 108.685 252.259 108.784 251.123 108.762C250.552 108.755 249.987 108.72 249.416 108.656C249.092 108.621 248.767 108.579 248.448 108.529C249.114 108.635 248.241 108.48 248.107 108.452C246.988 108.204 245.88 107.858 244.8 107.406C244.532 107.293 244.263 107.173 243.995 107.053C243.843 106.983 243.692 106.905 243.541 106.834C243.278 106.7 243.239 106.679 243.424 106.778C243.608 106.877 243.569 106.855 243.312 106.714C243.161 106.629 243.015 106.545 242.87 106.46C242.573 106.283 242.288 106.1 241.997 105.909C240.699 105.061 238.897 105.429 238.17 107.173C237.493 108.798 237.784 111.1 239.171 112.004H239.166Z" fill="#263238"/>
<path d="M260.775 55.6278C261.816 56.8638 263.013 58.2482 263.786 59.7808C263.36 58.9333 263.948 60.0704 264.043 60.2399C264.25 60.6001 264.451 60.9674 264.647 61.3417C265.061 62.1187 265.447 62.9167 265.817 63.729C266.186 64.5412 266.499 65.297 266.807 66.1021C266.947 66.4694 267.081 66.8367 267.216 67.211C267.294 67.43 267.389 67.656 267.451 67.882C267.199 66.9567 267.434 67.8537 267.501 68.0586C268.038 69.7678 268.48 71.5194 268.838 73.2993C269.012 74.1751 269.168 75.0509 269.297 75.9337C269.359 76.3363 269.415 76.7389 269.465 77.1415C269.493 77.3534 269.571 77.6571 269.549 77.869C269.616 77.0991 269.515 77.5441 269.549 77.9043C269.728 79.776 269.806 81.6547 269.789 83.5405C269.784 84.3598 269.756 85.172 269.717 85.9913C269.689 86.4787 269.661 86.966 269.616 87.4534C269.605 87.6158 269.588 87.7783 269.577 87.9407C269.56 88.1031 269.549 88.2656 269.532 88.428C269.493 88.8236 269.499 88.7529 269.554 88.2162C269.605 88.5552 269.448 89.0778 269.403 89.4239C269.336 89.9042 269.263 90.3845 269.185 90.8648C269.04 91.7406 268.872 92.6093 268.682 93.4781C268.458 94.4951 268.2 95.5051 267.909 96.4939C267.786 96.9106 267.68 97.4757 267.49 97.8571C267.87 97.1084 267.551 97.6805 267.467 97.9136C267.383 98.1466 267.311 98.3585 267.227 98.5775C266.516 100.506 265.671 102.342 264.714 104.087C263.875 105.612 264.451 108.077 265.716 108.918C267.143 109.871 268.654 109.278 269.543 107.653C276.918 94.2408 277.114 75.7218 271.205 61.4406C269.549 57.4359 267.339 53.7279 264.731 50.6273C263.668 49.363 261.816 49.1935 260.775 50.6273C259.734 52.061 259.639 54.2717 260.775 55.6208V55.6278Z" fill="#263238"/>
<path d="M117.129 2.56426C113.839 22.7501 113.375 43.4657 115.663 63.8634C116.296 69.5137 117.157 75.1217 118.232 80.6661C118.578 82.4601 120.263 83.7102 121.673 83.1311C123.083 82.5519 124 80.7085 123.626 78.7874C122.691 73.9493 121.913 69.0617 121.315 64.1459C121.242 63.5385 121.169 62.9311 121.096 62.3166C121.063 62.0412 121.035 61.7657 121.001 61.4832C120.984 61.3137 120.906 60.5862 120.979 61.2572C120.839 59.9293 120.716 58.5945 120.598 57.2596C120.386 54.8158 120.218 52.3579 120.095 49.9C119.586 40.0755 119.737 30.1944 120.548 20.4052C120.66 19.0703 120.783 17.7354 120.917 16.4076C120.923 16.337 121.04 15.2352 120.957 16.0121C121.007 15.5671 121.052 15.1221 121.102 14.6842C121.18 14.0203 121.259 13.3564 121.337 12.6925C121.678 9.9309 122.076 7.17635 122.523 4.43594C122.82 2.63489 122.109 0.537197 120.57 0.0922326C119.172 -0.310354 117.443 0.621956 117.129 2.5572V2.56426Z" fill="#263238"/>
<path d="M18.6553 28.6124C16.5346 41.1209 14.7385 53.7141 13.2893 66.3709C11.8401 79.0276 10.6762 91.9951 9.88165 104.878C9.0871 117.761 8.64506 130.41 8.53874 143.201C8.42683 155.992 8.66184 168.783 9.22698 181.553C9.79772 194.323 10.7042 207.064 11.9576 219.756C12.1086 221.31 12.2709 222.864 12.4332 224.418C12.6234 226.24 13.5802 228.041 15.2309 227.949C16.5794 227.872 18.2356 226.381 18.0286 224.418C16.7025 211.804 15.7121 199.133 15.0574 186.426C14.4028 173.72 14.0894 161 14.1062 148.273C14.123 135.545 14.4811 122.818 15.1693 110.126C15.5107 103.811 15.9415 97.4972 16.4507 91.197C16.7081 88.0187 16.9878 84.8404 17.2844 81.6621C17.4299 80.1082 17.581 78.5473 17.7376 76.9935C17.8216 76.1883 17.8999 75.3761 17.9838 74.5709C18.0006 74.3873 18.023 74.1966 18.0398 74.0129C18.0398 74.02 18.1013 73.4055 18.0678 73.7375C18.0342 74.0694 18.0957 73.455 18.0957 73.462C18.1237 73.2148 18.1517 72.9676 18.1741 72.7134C19.5394 60.106 21.2404 47.5552 23.2771 35.0891C23.5289 33.5565 23.7807 32.0168 24.0437 30.4912C24.3514 28.6901 23.6184 26.5854 22.0909 26.1475C20.6808 25.7449 18.9798 26.6843 18.6497 28.6124H18.6553Z" fill="#263238"/>
<path d="M12.9815 149.685C17.3683 144.437 21.9621 139.472 26.7239 134.775C27.3561 134.147 27.4289 134.083 28.0668 133.461C28.6655 132.882 29.2698 132.31 29.8741 131.738C31.0827 130.594 32.3025 129.471 33.5335 128.362C35.9899 126.144 38.4855 123.983 41.0034 121.878C51.0416 113.509 61.5274 106.029 72.2203 99.0862C83.4503 91.7902 94.8874 85.0027 106.436 78.5613C118.148 72.0281 129.92 65.954 142.029 60.1977C154.137 54.4414 166.391 49.0877 178.746 44.1719C180.302 43.5504 181.863 42.943 183.424 42.3356C184.823 41.7917 185.852 39.8423 185.377 37.9919C184.901 36.1414 183.435 34.9407 181.936 35.5269C169.452 40.3791 157.075 45.6622 144.827 51.3761C132.45 57.1465 120.207 63.369 108.098 69.994C95.9897 76.619 84.7429 83.2158 73.317 90.4835C62.4843 97.3699 51.8306 104.744 41.6021 112.986C31.3737 121.228 21.4306 130.488 12.3548 140.814C11.2301 142.092 10.1222 143.392 9.02551 144.706C7.92881 146.019 7.9344 148.435 9.02551 149.699C10.1166 150.963 11.8456 151.055 12.9815 149.699V149.685Z" fill="#263238"/>
<path d="M140.725 101.255C137.424 110.684 133.367 119.675 128.633 128.072C128.035 129.132 127.43 130.184 126.809 131.223C126.513 131.724 126.211 132.218 125.908 132.72C126.239 132.176 125.836 132.84 125.713 133.031C125.55 133.299 125.383 133.56 125.215 133.822C123.933 135.856 122.613 137.855 121.253 139.804C118.556 143.674 115.708 147.368 112.72 150.879C111.041 152.842 109.324 154.749 107.561 156.593C106.683 157.511 105.787 158.422 104.886 159.305C104.797 159.397 104.707 159.481 104.618 159.573C104.808 159.382 104.87 159.333 104.64 159.552C104.4 159.785 104.153 160.018 103.913 160.251C103.426 160.717 102.934 161.176 102.441 161.628C101.266 162.716 100.561 164.743 101.44 166.459C102.189 167.929 104.002 168.896 105.267 167.724C112.11 161.395 118.461 154.255 124.146 146.309C129.797 138.413 134.844 129.782 139.131 120.614C141.514 115.515 143.657 110.239 145.554 104.821C146.142 103.133 145.991 100.951 144.552 99.9903C143.338 99.178 141.357 99.4535 140.725 101.255Z" fill="#263238"/>
<path d="M113.33 103.366C108.445 120.459 105.552 138.434 104.679 156.564C104.433 161.657 104.36 166.756 104.444 171.856C104.472 173.699 105.709 175.472 107.242 175.387C108.775 175.302 110.073 173.833 110.04 171.856C109.889 162.935 110.241 154.001 111.103 145.137C111.153 144.642 111.204 144.148 111.254 143.653C111.366 142.559 111.176 144.367 111.293 143.272C111.316 143.053 111.344 142.834 111.366 142.615C111.495 141.464 111.635 140.313 111.78 139.161C112.06 136.972 112.368 134.789 112.709 132.614C113.397 128.207 114.208 123.835 115.148 119.505C116.189 114.695 117.387 109.935 118.73 105.245C119.228 103.508 118.17 101.304 116.777 100.901C115.204 100.449 113.867 101.502 113.336 103.366H113.33Z" fill="#263238"/>
<path d="M32.3529 143.039C30.7973 136.378 29.3145 129.669 28.5088 122.789C28.4864 122.606 28.3801 121.589 28.4417 122.224C28.3969 121.779 28.3521 121.334 28.313 120.882C28.2346 119.992 28.1675 119.095 28.1171 118.198C28.022 116.517 27.9772 114.829 27.9884 113.141C27.9996 111.672 28.0556 110.21 28.1675 108.748C28.1899 108.43 28.2178 108.105 28.2458 107.788C28.2626 107.611 28.2738 107.413 28.2962 107.237C28.1731 108.028 28.2626 107.533 28.285 107.35C28.3745 106.622 28.464 105.888 28.5759 105.167C29.0012 102.391 29.6615 99.7358 30.4504 97.1013C30.5959 96.6211 30.2546 97.6523 30.4224 97.1861C30.4784 97.0166 30.5399 96.8541 30.5959 96.6846C30.6966 96.3951 30.8029 96.1055 30.9148 95.8159C31.1666 95.1591 31.4296 94.5093 31.7094 93.8736C32.2521 92.6446 32.8453 91.4581 33.5055 90.3209C33.6398 90.0879 33.9476 89.4734 33.6566 90.0596C33.8077 89.763 34.0203 89.4875 34.2049 89.2191C34.5519 88.7035 34.9156 88.195 35.2905 87.7077C35.6653 87.2203 36.057 86.74 36.4599 86.288C36.6837 86.0337 36.9075 85.7936 37.137 85.5535C37.288 85.3981 37.9259 84.7836 37.4559 85.2215C39.3248 83.477 41.3391 82.0503 43.4598 80.8707C43.5102 80.8425 43.8571 80.6589 43.5381 80.8284C43.1688 81.0191 43.7564 80.7153 43.8291 80.68C44.1424 80.5247 44.4614 80.3693 44.7803 80.2209C45.3846 79.9384 45.9889 79.67 46.5988 79.4228C47.8298 78.9214 49.0776 78.4764 50.331 78.0738C52.9161 77.2404 55.5347 76.5835 58.159 75.9408C59.597 75.5877 60.5538 73.3134 60.1118 71.5971C59.6138 69.6619 58.2149 68.7508 56.6706 69.1322C47.1024 71.4841 36.7509 74.4717 30.1706 84.3386C23.5904 94.2056 21.6096 107.844 22.6784 120.55C23.3778 128.863 25.0676 136.922 26.9421 144.917C27.3561 146.69 28.9285 147.976 30.3833 147.382C31.8381 146.789 32.7837 144.939 32.3361 143.039H32.3529Z" fill="#263238"/>
<path d="M45.4741 97.469C45.5357 97.5184 45.5916 97.5749 45.6476 97.6314L45.0824 97.0805C45.3454 97.3418 45.5748 97.6385 45.7819 97.9775L45.3454 97.2641C45.558 97.6314 45.7371 98.0199 45.877 98.4366L45.5972 97.5961C45.7427 98.0481 45.8378 98.5072 45.8938 98.9946L45.7931 98.0552C45.8378 98.5355 45.8434 99.0157 45.7931 99.496L45.8938 98.5567C45.8434 98.9734 45.7595 99.3759 45.6364 99.7715L45.9162 98.931C45.8602 99.1005 45.7987 99.2559 45.7259 99.4183L50.8401 100.259C50.8233 100.139 50.8122 100.019 50.7954 99.8986L50.8961 100.838C50.8122 99.9975 50.8178 99.157 50.9017 98.3165L50.801 99.2559C50.8961 98.4154 51.0751 97.6032 51.3325 96.8262H45.9385C45.9609 96.911 45.9777 96.9887 45.9889 97.0734L45.8882 96.1341C45.8994 96.2329 45.8994 96.3318 45.8882 96.4307L45.9889 95.4913C45.9777 95.6043 45.9553 95.7174 45.9217 95.8233L46.2015 94.9828C46.1624 95.0887 46.1176 95.1876 46.0616 95.2865L46.4981 94.5732C46.4197 94.7003 46.3302 94.8133 46.2295 94.9192L46.7946 94.3683C46.6604 94.4955 46.5149 94.6014 46.3582 94.6862L47.024 94.333C46.8674 94.4107 46.7051 94.4672 46.5372 94.4955L47.2814 94.3683C47.1527 94.3825 47.024 94.3895 46.8954 94.3683L47.6395 94.4955C47.5276 94.4743 47.4269 94.439 47.3262 94.3895L47.9921 94.7427C47.9193 94.7003 47.8578 94.6579 47.7962 94.6014L48.3614 95.1523C48.2886 95.0817 48.2215 94.9969 48.1655 94.9051L48.602 95.6185C48.5516 95.5267 48.5124 95.4419 48.4789 95.343C48.2159 94.5873 47.4045 93.9304 46.8058 93.7186C46.1344 93.4855 45.2447 93.5914 44.6516 94.0717C44.0585 94.552 43.5269 95.2795 43.3646 96.1835L43.2639 97.1229C43.2639 97.7585 43.3926 98.3518 43.6444 98.9027C43.8067 99.3689 44.0808 99.7927 44.383 100.125C44.8642 100.654 45.379 101.071 46.0113 101.269C46.403 101.389 46.8282 101.474 47.2311 101.438C47.634 101.403 48.0928 101.339 48.4901 101.156C49.4972 100.69 50.3254 99.9692 50.9185 98.8109C51.5116 97.6526 51.6459 96.1976 51.3269 94.9546C51.1367 94.213 50.8178 93.5985 50.3254 93.1182C49.833 92.6379 49.2454 92.3271 48.6299 92.3625C48.1319 92.3907 47.6563 92.5532 47.2199 92.8427C46.8954 93.0617 46.6324 93.3654 46.4365 93.7539C46.1903 94.0929 46.0225 94.4955 45.9385 94.9546C45.558 96.0988 45.4014 97.2712 45.2895 98.5072C45.1776 99.7432 45.2895 100.937 45.4461 102.145L45.7259 102.985L46.1624 103.698C46.5988 104.249 47.1639 104.567 47.7682 104.673C48.2774 104.758 48.7418 104.687 49.2175 104.433C49.7602 104.143 50.2638 103.656 50.5548 102.985C51.4165 101.022 51.6123 98.7685 51.2094 96.5932C51.0416 95.6962 50.745 94.7851 50.3421 94.0081C49.7826 92.9204 49.1447 92.1294 48.2998 91.3948C47.7291 90.8934 46.789 90.8157 46.1456 91.0417C45.5021 91.2677 44.7915 91.9034 44.4725 92.6662C44.1312 93.4855 43.9578 94.4813 44.1928 95.3854C44.4278 96.2895 44.853 96.9463 45.4797 97.4972L45.4741 97.469Z" fill="#263238"/>
<path d="M76.8869 125.417C76.0923 122.585 75.4209 119.696 74.9117 116.758C74.6543 115.289 74.4361 113.805 74.2626 112.315C74.2346 112.082 74.1451 111.171 74.2067 111.87C74.1731 111.51 74.1339 111.15 74.1059 110.79C74.0388 110.02 73.9828 109.243 73.9381 108.473C73.7646 105.492 73.7646 102.491 73.9605 99.5171C74.0052 98.8038 74.0668 98.0904 74.1339 97.3771C74.2011 96.6637 74.1451 97.2641 74.1339 97.3983C74.1507 97.2429 74.1675 97.0946 74.1843 96.9392C74.2402 96.4801 74.2962 96.0281 74.3633 95.576C74.5648 94.1634 74.811 92.765 75.1075 91.3806C75.4265 89.8974 75.8014 88.4283 76.2378 86.9946C76.3273 86.705 76.4169 86.4225 76.5064 86.1329C76.7078 85.5043 76.5511 85.9916 76.5064 86.1188C76.5623 85.9634 76.6183 85.8009 76.6687 85.6455C76.8757 85.0522 77.0995 84.466 77.3345 83.8869C77.7877 82.7639 78.2801 81.6691 78.8117 80.6026C79.0691 80.087 79.3377 79.5785 79.6119 79.0841C79.7294 78.8722 79.8469 78.6603 79.97 78.4484C80.0483 78.3072 80.1322 78.1659 80.2162 78.0246C80.2665 77.9399 80.6246 77.3466 80.3728 77.7563C80.1434 78.1377 80.6134 77.3819 80.6694 77.2972C80.8205 77.0641 80.9771 76.8239 81.1338 76.5979C81.4695 76.1035 81.8109 75.6162 82.1634 75.1359C82.846 74.2177 83.5566 73.3349 84.3064 72.5014C84.6645 72.0988 85.0338 71.7033 85.4031 71.3219C85.4815 71.2372 85.5654 71.1595 85.6437 71.0747C85.9683 70.7428 85.5654 71.0465 85.5654 71.1453C85.5654 71.0182 86.1417 70.6015 86.2256 70.5238C87.0258 69.7963 87.8539 69.1112 88.71 68.4826C89.6501 67.7905 90.6181 67.1689 91.6085 66.618C91.698 66.5686 92.112 66.3638 91.7427 66.5474C91.3343 66.7452 91.9442 66.4485 91.9722 66.4344C92.224 66.3072 92.4757 66.1872 92.7331 66.0742C93.2423 65.8482 93.7571 65.6363 94.2719 65.4456C95.3126 65.0642 96.3646 64.7887 97.4333 64.5627C97.9425 64.4568 97.3662 64.5627 97.2934 64.5839C97.4557 64.5415 97.6291 64.5344 97.797 64.5062C98.0656 64.4709 98.3398 64.4356 98.6083 64.4144C99.1847 64.3579 99.7666 64.3367 100.343 64.3296C101.803 64.3226 103.208 62.7122 103.141 60.7982C103.073 58.8841 101.91 57.2526 100.343 57.2667C91.435 57.3303 82.9747 63.0442 77.245 71.4985C70.7879 81.0264 67.951 93.4077 68.2419 105.838C68.4154 113.142 69.5681 120.416 71.4985 127.296C71.9853 129.033 73.4289 130.382 74.9397 129.761C76.2938 129.21 77.4184 127.282 76.8925 125.417H76.8869Z" fill="#263238"/>
<path d="M98.1552 92.1786C98.1552 92.1786 98.1943 92.2139 98.2167 92.2351L97.6516 91.6842C97.7467 91.783 97.8306 91.889 97.909 92.0091L97.4725 91.2957C97.5565 91.4369 97.6292 91.5924 97.6852 91.7548L97.4054 90.9143C97.4613 91.0979 97.5005 91.2816 97.5285 91.4793L97.4278 90.54C97.4557 90.8013 97.4557 91.0626 97.4278 91.3169L97.5285 90.3775C97.4949 90.6388 97.4446 90.8931 97.3606 91.1403L97.6404 90.2998C97.5621 90.5259 97.4669 90.7377 97.3494 90.9425L97.7859 90.2292C97.6852 90.3987 97.5677 90.547 97.4334 90.6742L97.9985 90.1233C97.8866 90.2292 97.7635 90.321 97.6348 90.3916L98.3007 90.0385C98.1776 90.1021 98.0489 90.1445 97.9202 90.1656L98.6644 90.0385C98.614 90.0456 98.5636 90.0526 98.5133 90.0526L101.21 94.5235C101.507 93.2804 101.803 92.0373 102.106 90.7942C102.223 90.3281 102.24 89.8549 102.156 89.3887C102.139 88.9155 102.027 88.4776 101.826 88.075C101.652 87.6653 101.412 87.3334 101.104 87.0862C100.835 86.7754 100.516 86.5635 100.153 86.4576C99.4365 86.2528 98.6308 86.2952 97.9985 86.8107C97.3662 87.3263 96.9298 88.0185 96.7116 88.9226C96.415 90.1656 96.1184 91.4087 95.8163 92.6518C95.682 93.2804 95.682 93.9019 95.8163 94.5305C95.9002 94.9896 96.0681 95.3922 96.3143 95.7312C96.5101 96.1126 96.7731 96.4163 97.0976 96.6423C97.5341 96.9602 98.0041 97.1226 98.5077 97.1226C98.821 97.1014 99.1456 97.0449 99.4533 96.9672C99.5373 96.9461 99.6156 96.9249 99.6995 96.8895C99.9849 96.7624 100.276 96.607 100.544 96.4375C100.617 96.3881 100.69 96.3386 100.757 96.2751C101.065 95.9996 101.401 95.71 101.652 95.3428C101.904 94.9755 102.162 94.587 102.352 94.1562C102.542 93.7254 102.687 93.2663 102.811 92.8001C102.934 92.3339 102.967 91.7901 103.012 91.2957C103.029 91.0909 103.04 90.879 103.023 90.6742C102.99 90.1868 102.962 89.6571 102.833 89.1839C102.732 88.8025 102.604 88.4281 102.464 88.075C102.425 87.9761 102.38 87.8773 102.329 87.7854C102.15 87.4676 101.96 87.1286 101.742 86.8461C101.524 86.5635 101.238 86.3234 100.981 86.0833C100.662 85.8219 100.315 85.6877 99.9401 85.6666C99.5708 85.5606 99.1959 85.5818 98.8266 85.7301C98.4629 85.8361 98.144 86.0479 97.8754 86.3587C97.5733 86.6059 97.3327 86.9379 97.1536 87.3475C96.8123 88.1668 96.6388 89.1627 96.8738 90.0667L97.1536 90.9072C97.3998 91.437 97.7355 91.8607 98.1552 92.1715V92.1786Z" fill="#263238"/>
<path d="M106.145 167.49C95.0441 168.938 84.049 171.629 73.345 175.62C62.6185 179.625 52.1718 184.894 42.2064 191.307C36.6893 194.859 31.3233 198.772 26.1307 203.031C24.9053 204.034 24.2842 206.209 25.1291 207.862C25.9181 209.409 27.6471 210.207 28.9564 209.126C33.5279 205.376 38.2392 201.887 43.0681 198.687C45.4629 197.098 47.8913 195.58 50.3421 194.132C51.5675 193.404 52.7985 192.698 54.0351 192.013C54.6338 191.681 55.2382 191.349 55.8425 191.024C55.9656 190.961 56.844 190.494 56.3069 190.777C56.6874 190.579 57.0623 190.381 57.4428 190.184C67.453 184.978 77.8381 180.924 88.4303 178.092C91.4406 177.287 94.4621 176.58 97.5005 175.98C98.2279 175.832 98.9609 175.698 99.6883 175.563C100.052 175.5 100.421 175.429 100.785 175.366C100.947 175.337 101.11 175.309 101.272 175.281C100.612 175.394 101.428 175.253 101.501 175.246C103.046 174.991 104.595 174.765 106.145 174.56C107.595 174.37 109.016 173.07 108.943 171.029C108.882 169.277 107.707 167.293 106.145 167.498V167.49Z" fill="#263238"/>
<path d="M46.9793 189.668C43.7228 204.013 41.2608 218.64 39.6213 233.416C37.9707 248.29 37.0866 263.278 37.0754 278.301C37.0642 286.713 37.3272 295.125 37.842 303.516C37.9539 305.352 39.045 307.139 40.6397 307.047C42.061 306.969 43.5605 305.486 43.4374 303.516C42.5254 288.754 42.4302 273.915 43.1465 259.132C43.5046 251.744 44.0697 244.371 44.8307 237.025C44.8531 236.806 44.8755 236.58 44.9034 236.361C44.8866 236.509 44.8307 237.011 44.909 236.298C44.9594 235.853 45.0041 235.408 45.0545 234.963C45.1552 234.073 45.2559 233.183 45.3623 232.3C45.5861 230.414 45.8211 228.528 46.0729 226.65C46.5597 222.998 47.0968 219.361 47.6788 215.73C48.9937 207.594 50.5604 199.528 52.3733 191.547C52.7762 189.774 51.8809 187.62 50.4205 187.203C48.9601 186.786 47.4102 187.768 46.9793 189.668Z" fill="#263238"/>
<path d="M81.5871 176.439C78.3753 190.819 75.7958 205.418 73.8598 220.159C71.8958 235.097 70.5697 250.169 69.9094 265.284C69.5457 273.646 69.3946 282.023 69.4394 290.4C69.4506 292.243 70.7208 294.016 72.2371 293.931C73.7535 293.846 75.046 292.377 75.0348 290.4C74.9509 275.575 75.5049 260.742 76.7079 245.995C77.01 242.28 77.3514 238.572 77.7374 234.864C77.7598 234.638 77.7822 234.412 77.8102 234.193C77.8214 234.08 77.8829 233.501 77.8158 234.122C77.8661 233.67 77.9109 233.225 77.9613 232.773C78.062 231.876 78.1627 230.979 78.2634 230.082C78.476 228.232 78.6999 226.388 78.9293 224.545C79.8525 217.228 80.938 209.939 82.1746 202.692C83.5735 194.506 85.1794 186.377 86.9811 178.318C87.3784 176.538 86.4943 174.398 85.0283 173.974C83.5623 173.551 82.0124 174.539 81.5871 176.439Z" fill="#263238"/>
<path d="M80.1659 159.411C80.1043 159.248 79.8637 158.485 79.9868 158.966C80.1267 159.495 79.8973 158.627 79.8637 158.492C79.707 157.885 79.5951 157.271 79.5 156.649C79.4049 156.027 79.556 157.433 79.4888 156.529C79.4664 156.253 79.4552 155.978 79.4441 155.695C79.4273 155.102 79.4441 154.502 79.4888 153.909C79.556 152.997 79.4049 154.424 79.5 153.781C79.5448 153.471 79.5895 153.153 79.6511 152.842C79.7574 152.263 79.8973 151.684 80.0596 151.126C80.2778 150.363 79.8805 151.542 80.0987 150.97C80.1938 150.716 80.289 150.469 80.3897 150.222C80.6079 149.692 80.8541 149.183 81.1227 148.696C81.1619 148.625 81.2738 148.371 81.3465 148.308C81.3129 148.336 80.9268 148.943 81.2626 148.463C81.4081 148.258 81.5535 148.046 81.7046 147.842C81.8557 147.637 82.0124 147.446 82.1746 147.262C82.2418 147.185 82.3145 147.1 82.3873 147.022C82.7062 146.669 82.4768 146.782 82.3369 147.05C82.5383 146.676 83.1482 146.351 83.4616 146.132C83.6574 145.998 83.8589 145.885 84.0603 145.751C84.396 145.525 83.5623 145.984 83.9148 145.822C84.0659 145.751 84.2114 145.673 84.3624 145.61C84.7821 145.426 85.2129 145.278 85.6494 145.158C85.7445 145.129 85.834 145.108 85.9292 145.087C86.097 145.045 86.3488 144.84 86.0299 145.052C85.7893 145.207 85.8508 145.073 86.0355 145.052C86.1921 145.03 86.3544 145.016 86.5111 145.002C86.9587 144.967 87.4064 144.96 87.854 144.988C88.0778 145.002 88.3016 145.03 88.5254 145.052C89.0794 145.115 88.352 145.016 88.352 145.023C88.3856 144.974 88.7772 145.122 88.822 145.129C89.3256 145.256 89.818 145.426 90.2992 145.638C90.4223 145.687 90.5398 145.744 90.6573 145.8C90.7189 145.829 90.7748 145.857 90.8364 145.885C91.0322 145.984 90.9539 145.942 90.6069 145.765C90.7636 145.956 91.0993 146.062 91.2896 146.196C91.7148 146.485 92.1401 147.008 92.5765 147.227C92.1625 147.015 92.2688 146.909 92.459 147.121C92.5765 147.255 92.6996 147.382 92.8171 147.524C93.0298 147.771 93.2312 148.032 93.4214 148.301C94.4174 149.664 96.387 149.664 97.3774 148.301C98.435 146.846 98.435 144.762 97.3774 143.307C93.9306 138.582 88.2625 136.816 83.4112 138.575C78.56 140.334 74.8782 145.737 74.0948 152.016C73.6192 155.816 73.9661 159.509 75.3426 162.97C76.0029 164.623 77.9557 165.223 79.1699 164.235C80.5128 163.147 80.8765 161.169 80.1715 159.404L80.1659 159.411Z" fill="#263238"/>
<path d="M81.7661 166.099C89.4375 165.781 96.7563 160.258 100.472 151.74C101.177 150.123 100.83 147.813 99.4701 146.909C98.1104 146.005 96.3982 146.45 95.6428 148.174C95.2567 149.056 94.8371 149.911 94.367 150.723C94.3055 150.829 94.2439 150.935 94.1824 151.041C94.3894 150.709 94.4286 150.646 94.2999 150.843C94.188 151.013 94.0817 151.182 93.9698 151.352C93.7012 151.754 93.4214 152.143 93.1361 152.517C92.5821 153.245 91.9946 153.923 91.3735 154.558C91.1105 154.827 91.1217 154.876 91.3679 154.573C91.228 154.749 91.0266 154.89 90.8643 155.039C90.523 155.342 90.1761 155.632 89.818 155.907C89.1689 156.409 88.4918 156.868 87.798 157.278C87.6749 157.348 87.5462 157.426 87.4175 157.497L87.7029 157.348C87.6917 157.405 87.1657 157.617 87.121 157.638C86.7293 157.821 86.3376 157.991 85.9403 158.146C85.2129 158.429 84.4687 158.655 83.7189 158.824C83.5511 158.86 83.2601 158.867 83.1034 158.952C83.4672 158.888 83.5455 158.874 83.3329 158.909C83.2321 158.923 83.1258 158.937 83.0251 158.952C82.6111 159.001 82.197 159.029 81.7773 159.05C80.3169 159.107 78.9125 160.633 78.9796 162.582C79.0468 164.531 80.2106 166.177 81.7773 166.113L81.7661 166.099Z" fill="#263238"/>
</svg>
