<svg width="271" height="305" viewBox="0 0 271 305" fill="none" xmlns="http://www.w3.org/2000/svg">
<g clip-path="url(#clip0_424_89)">
<path d="M53.7471 276.215C53.7471 276.215 -20.9309 265.546 11.382 219.291C43.695 173.035 6.27809 107.801 18.1394 86.823C30.0006 65.8447 29.9048 87.733 59.6298 86.823C89.3549 85.913 67.2618 29.408 100.198 19.314C133.134 9.21995 129.515 34.8202 168.083 33.9102C206.65 33.0002 265.069 -38.1609 250.009 28.4381C234.949 95.0371 210.46 91.1217 231.75 152.057C253.04 212.992 209.837 229.133 204.361 244.651C198.886 260.17 53.7471 276.215 53.7471 276.215Z" fill="#7EB1DF"/>
<path d="M88.3125 292.667C107.231 304.892 142.611 312.855 158.701 292.667C169.341 279.328 169.76 255.967 158.701 244.771C136.728 222.523 71.3353 250.231 70.3409 271.712C69.9216 280.789 81.028 287.961 88.3125 292.667Z" fill="#576C7F"/>
<path d="M64.6978 233.935L156.892 218.824C156.892 218.824 148.218 145.387 156.892 118.937C95.7288 136.275 79.4465 144.477 79.4465 144.477L64.6978 233.935Z" fill="#3C6D9A"/>
<path d="M98.0891 178.148C103.588 182.638 109.076 187.117 114.575 191.607C115.785 192.601 117.642 192.876 118.816 191.607C119.823 190.505 120.11 188.434 118.816 187.368C113.317 182.878 107.83 178.4 102.33 173.909C101.12 172.916 99.2632 172.64 98.0891 173.909C97.0827 175.011 96.7951 177.082 98.0891 178.148Z" fill="#263238"/>
<path d="M101.635 203.533C103.025 204.251 104.607 204.646 106.176 204.61C106.68 204.61 107.183 204.527 107.686 204.443C107.926 204.407 108.165 204.347 108.393 204.263C108.8 204.12 109.255 203.952 109.627 203.7C110.25 203.281 110.621 202.91 111.053 202.299C111.184 202.108 111.256 201.904 111.352 201.689C111.448 201.473 111.544 201.27 111.58 201.03C111.724 200.228 111.724 199.593 111.532 198.791C111.364 198.073 110.777 197.366 110.154 197.007C109.531 196.648 108.561 196.468 107.842 196.708C107.123 196.947 106.416 197.39 106.056 198.085C105.673 198.815 105.565 199.581 105.757 200.396C105.769 200.467 105.793 200.539 105.805 200.611L105.697 199.821C105.721 199.965 105.721 200.108 105.697 200.264L105.805 199.474C105.793 199.581 105.757 199.677 105.721 199.773L106.021 199.055C105.973 199.162 105.913 199.258 105.853 199.342L106.32 198.731C106.248 198.827 106.164 198.899 106.068 198.971L106.68 198.504C106.524 198.624 106.368 198.707 106.188 198.779L106.907 198.48C106.62 198.6 106.32 198.659 106.021 198.707L106.811 198.6C106.26 198.671 105.709 198.659 105.158 198.588L105.949 198.695C105.386 198.612 104.846 198.48 104.319 198.264L105.038 198.564C104.918 198.516 104.786 198.456 104.667 198.384C103.948 198.013 103.145 197.869 102.354 198.085C101.659 198.276 100.905 198.815 100.569 199.462C100.198 200.156 100.018 200.994 100.27 201.773C100.497 202.491 100.953 203.21 101.647 203.557L101.635 203.533Z" fill="#263238"/>
<path d="M134.967 189.715C137.351 186.698 139.975 183.884 142.814 181.285C144.192 180.016 145.63 178.807 147.104 177.657C146.744 177.933 147.259 177.538 147.319 177.49C147.511 177.346 147.715 177.19 147.906 177.047C148.302 176.747 148.697 176.46 149.105 176.173C149.907 175.598 150.722 175.047 151.549 174.508C152.855 173.658 153.526 171.814 152.627 170.413C151.788 169.108 149.931 168.425 148.529 169.335C141.784 173.73 135.746 179.154 130.738 185.464C129.767 186.686 129.456 188.518 130.738 189.703C131.816 190.697 133.936 191.008 134.979 189.703L134.967 189.715Z" fill="#263238"/>
<path d="M142.551 194.756C142.563 194.684 142.587 194.612 142.611 194.552L142.311 195.271C142.347 195.199 142.383 195.127 142.431 195.067L141.964 195.678C142.024 195.606 142.084 195.534 142.155 195.486L141.544 195.953C141.64 195.882 141.736 195.822 141.844 195.774L141.125 196.073C141.233 196.025 141.353 196.001 141.461 195.977L140.67 196.085C140.79 196.073 140.897 196.073 141.017 196.085L140.227 195.977C140.322 195.989 140.418 196.013 140.514 196.049L139.795 195.75C139.879 195.786 139.951 195.822 140.011 195.882L139.4 195.415C139.46 195.463 139.52 195.522 139.568 195.582L139.1 194.972C139.148 195.031 139.184 195.103 139.208 195.175L138.909 194.457C138.945 194.529 138.957 194.612 138.969 194.696L138.861 193.906C138.873 194.014 138.873 194.121 138.861 194.217L138.969 193.427C138.957 193.547 138.921 193.654 138.873 193.762L139.172 193.044C139.124 193.164 139.064 193.259 138.98 193.367L139.448 192.756C139.376 192.84 139.304 192.912 139.22 192.984L139.831 192.517C139.759 192.577 139.687 192.613 139.604 192.649L140.322 192.349C140.25 192.385 140.167 192.409 140.083 192.421L140.874 192.313C140.814 192.313 140.754 192.313 140.694 192.313C140.286 192.301 139.891 192.385 139.544 192.577C139.172 192.697 138.849 192.9 138.585 193.199C138.298 193.475 138.082 193.786 137.962 194.157C137.77 194.517 137.687 194.9 137.699 195.307L137.806 196.097C137.95 196.6 138.202 197.043 138.573 197.414L139.184 197.881C139.651 198.157 140.155 198.288 140.694 198.288C141.041 198.3 141.401 198.24 141.736 198.157C142.072 198.073 142.395 197.917 142.695 197.762C142.994 197.606 143.246 197.366 143.497 197.163C143.665 197.019 143.785 196.828 143.917 196.66C144.048 196.492 144.192 196.325 144.288 196.145C144.444 195.834 144.6 195.51 144.695 195.175C144.791 194.84 144.815 194.493 144.851 194.157C144.887 193.822 144.779 193.343 144.743 193.092C144.731 193.008 144.707 192.936 144.683 192.852C144.624 192.708 144.468 192.277 144.336 192.038C144.192 191.775 143.977 191.547 143.785 191.32C143.581 191.08 143.222 190.853 143.018 190.697C142.755 190.505 142.335 190.374 142.084 190.266C142.012 190.242 141.94 190.218 141.856 190.194C141.509 190.134 141.149 190.062 140.802 190.062C140.454 190.062 140.119 190.134 139.783 190.194C139.687 190.206 139.604 190.242 139.508 190.278C139.268 190.374 138.837 190.517 138.561 190.697C138.274 190.888 137.974 191.092 137.746 191.343C137.519 191.595 137.291 191.858 137.135 192.158C136.992 192.421 136.884 192.708 136.788 192.996C136.776 193.044 136.764 193.092 136.752 193.14C136.632 193.535 136.608 193.93 136.704 194.337C136.728 194.732 136.836 195.103 137.064 195.451C137.255 195.798 137.507 196.085 137.83 196.289C138.118 196.552 138.453 196.732 138.849 196.828L139.639 196.935C140.179 196.935 140.682 196.792 141.149 196.528L141.76 196.061C142.132 195.69 142.383 195.247 142.527 194.744L142.551 194.756Z" fill="#263238"/>
<path d="M79.3387 162.45C78.7037 184.399 75.8522 206.227 70.8201 227.6C69.9335 231.348 75.7084 232.953 76.595 229.193C81.7469 207.317 84.6823 184.925 85.3292 162.45C85.4371 158.595 79.4465 158.595 79.3387 162.45Z" fill="#263238"/>
<path d="M170.97 216.932C165.686 195.75 163.362 173.909 164.069 152.093C164.273 145.878 164.716 139.688 165.399 133.509C165.614 131.594 163.314 130.073 161.613 130.624C141.269 137.173 120.925 143.723 100.581 150.273L83.2685 155.853C79.6143 157.026 81.1718 162.81 84.862 161.624C105.206 155.074 125.55 148.525 145.894 141.975C151.668 140.119 157.443 138.263 163.206 136.395L159.42 133.509C156.988 155.649 157.683 178.04 161.349 200.013C162.392 206.239 163.685 212.406 165.207 218.536C166.142 222.272 171.916 220.692 170.982 216.944L170.97 216.932Z" fill="#263238"/>
<path d="M77.9369 185.74C74.3666 187.284 70.1013 189.128 66.1955 187.727C62.2896 186.326 62.2177 183.093 63.1762 179.681C64.4223 175.238 66.2673 170.868 68.1244 166.653C70.0893 162.199 72.2579 157.828 74.6062 153.566C76.4752 150.189 71.2994 147.172 69.4303 150.548C66.5908 155.697 64.0389 160.989 61.7505 166.414C60.6602 169 59.6298 171.622 58.6833 174.257C57.7368 176.891 56.7903 179.621 56.6465 182.471C56.383 187.859 59.9653 192.134 64.9973 193.618C70.4847 195.247 75.96 193.068 80.9561 190.9C82.4418 190.254 82.7773 188.074 82.0344 186.805C81.1359 185.273 79.4226 185.093 77.9369 185.728V185.74Z" fill="#263238"/>
<path d="M167.136 179.321C184.065 174.292 195.495 157.481 193.327 139.855C192.68 134.587 191.026 129.546 188.283 124.996C186.294 121.703 181.118 124.708 183.107 128.013C188.187 136.443 189.145 147.315 185.108 156.379C181.441 164.606 174.169 170.988 165.543 173.55C161.852 174.64 163.422 180.423 167.136 179.321Z" fill="#263238"/>
<path d="M100.545 232.833C98.6402 247.214 97.9932 261.726 98.6043 276.215C98.76 280.058 104.763 280.07 104.595 276.215C103.984 261.726 104.631 247.214 106.536 232.833C106.751 231.229 105.002 229.84 103.54 229.84C101.743 229.84 100.761 231.229 100.545 232.833Z" fill="#263238"/>
<path d="M119.895 221.53C115.09 239.802 113.485 258.888 115.234 277.699C115.378 279.304 116.504 280.693 118.229 280.693C119.739 280.693 121.38 279.316 121.225 277.699C119.523 259.379 121.009 240.915 125.682 223.122C126.664 219.398 120.889 217.806 119.907 221.53H119.895Z" fill="#263238"/>
<path d="M45.8636 268.946C33.6309 265.594 19.3494 261.846 11.1664 251.369C8.00336 247.31 6.2062 242.017 6.02648 237C5.84677 231.983 7.04488 227.325 10.3876 223.901C12.2926 221.961 14.7966 220.943 17.1928 219.554C20.4517 217.662 22.7641 214.848 23.459 211.076C24.1539 207.305 24.0101 203.341 24.1658 199.51C24.3456 195.223 24.5732 190.948 24.8248 186.674C25.8432 170.03 27.4726 153.41 29.749 136.886C32.3369 118.171 35.7156 99.5632 39.861 81.1234C40.556 78.0461 37.1413 76.3578 34.853 78.2137C30.8393 81.4706 31.5222 87.0385 34.3857 90.7864C37.2492 94.5342 42.425 97.1565 47.3492 95.7795C52.8485 94.2468 56.7544 89.8165 59.6658 85.1347C62.5772 80.4529 64.4103 75.3998 67.9088 71.2808C69.4064 69.5087 71.1676 67.8323 73.3482 66.9343C76.1757 65.7848 79.123 66.4793 82.0344 66.8864C85.4251 67.3534 88.6001 67.1977 91.7152 65.665C94.2312 64.4198 96.3399 62.3722 98.0771 60.2049C102.378 54.8646 105.841 48.7698 109.567 43.0223C113.593 36.8198 117.63 30.6173 121.656 24.4268C124.735 19.6971 128.329 13.4707 134.248 12.0218C136.213 11.5429 138.537 12.1296 140.334 13.3629C141.149 13.9257 141.808 14.5962 142.275 15.4703C142.659 16.2127 142.731 16.991 142.515 17.8052C142.12 19.3858 143.018 21.0382 144.612 21.4932C151.201 23.3611 156.149 17.9848 160.379 13.8059C161.397 12.8001 162.416 11.8063 163.542 10.9202C163.194 11.1956 163.865 10.6807 163.973 10.6089C164.237 10.4173 164.512 10.2377 164.8 10.0701C165.087 9.90244 165.351 9.75875 165.638 9.61507C165.71 9.57914 166.225 9.36361 165.89 9.49533C165.579 9.61507 166.094 9.43546 166.142 9.42348C166.429 9.35164 166.717 9.26782 167.016 9.19598C167.172 9.16006 167.567 9.17203 166.98 9.19598C167.112 9.19598 167.244 9.17203 167.364 9.184C167.555 9.184 168.334 9.24387 167.747 9.16006C168.142 9.21993 168.562 9.31572 168.933 9.4594C170.263 9.99823 171.186 11.3273 171.94 12.5726C173.881 15.8176 175.187 19.2541 177.703 22.1398C179.8 24.5466 182.508 26.5223 185.395 27.8633C191.637 30.785 198.766 31.4316 205.476 29.9109C212.796 28.2465 219.565 23.6485 222.884 16.7875L218.786 17.8651C225.208 21.122 224.717 30.3779 224.358 36.8079C223.95 44.0521 224.442 52.6853 229.845 58.1813C232.924 61.3065 236.938 62.1088 241.179 61.6897C243.06 61.4981 245.372 61.2467 246.798 62.025C248.068 62.7314 248.643 63.402 249.386 64.8029C252.681 70.9695 250.177 78.8603 250.716 85.7573C251.016 89.565 251.842 93.4925 254.227 96.5817C255.353 98.0306 256.755 99.2399 258.444 100.006C259.402 100.437 260.373 100.761 261.403 100.964C262.326 101.144 263.488 101.18 264.327 101.635C265.656 102.341 264.866 104.916 264.662 106.077C264.147 108.855 263.596 111.633 263.033 114.399C261.906 119.931 260.72 125.463 259.75 131.031C255.94 152.931 256.347 175.274 253.064 197.223C251.459 207.975 248.751 218.452 244.941 228.642C241.131 238.832 236.471 248.483 231.63 258.134C230.42 260.541 229.21 262.948 227.988 265.342C226.251 268.767 231.415 271.808 233.164 268.36C243.18 248.591 253.184 228.534 257.497 206.622C261.858 184.458 261.367 161.756 264.458 139.436C265.249 133.677 266.351 127.977 267.514 122.29C268.676 116.602 270.018 111.154 270.796 105.526C271.144 103.012 271.072 100.377 269.454 98.282C267.837 96.1866 265.597 95.6837 263.212 95.2287C259.894 94.606 258.312 92.8339 257.39 89.6249C256.395 86.1165 256.479 82.3088 256.814 78.6208C257.174 74.7413 257.222 70.9096 256.431 67.078C255.64 63.2463 253.879 59.6302 250.644 57.3911C248.883 56.1697 246.726 55.595 244.594 55.5111C242.269 55.4273 239.885 56.1937 237.585 55.8225C234.709 55.3555 232.9 53.0804 231.822 50.3504C230.468 46.9139 230.097 43.3217 230.192 39.6457C230.384 32.0183 231.498 23.2294 226.55 16.7156C225.268 15.0393 223.699 13.6623 221.806 12.7043C220.452 12.0218 218.439 12.2493 217.708 13.782C215.144 19.1104 210.472 22.4272 204.852 23.9119C201.953 24.6783 199.425 24.9058 196.262 24.6783C193.806 24.4987 190.487 23.6964 188.271 22.6427C185.479 21.3136 183.466 19.8408 181.513 17.4221C181.382 17.2544 180.842 16.5001 180.543 16.0211C180.052 15.2189 179.62 14.3927 179.201 13.5545C178.35 11.8662 177.548 10.1299 176.457 8.56136C174.325 5.47209 171.15 3.0773 167.22 3.22099C164.081 3.32875 161.421 4.95721 159.061 6.89698C156.557 8.96847 154.448 11.471 151.98 13.5904C151.716 13.8179 151.453 14.0454 151.177 14.261C151.513 13.9975 150.77 14.5483 150.626 14.6441C150.315 14.8477 150.003 15.0512 149.692 15.2308C149.536 15.3147 148.661 15.7337 149.212 15.5062C148.889 15.638 148.565 15.7337 148.23 15.8295C148.11 15.8655 147.978 15.8894 147.858 15.9134C147.415 16.0211 148.35 15.8894 147.894 15.9134C147.547 15.9373 147.212 15.9373 146.864 15.9134C146.517 15.8894 146.96 15.9253 146.996 15.9373C146.72 15.8894 146.457 15.8176 146.193 15.7457L148.29 19.4337C149.608 14.1771 146.289 9.36361 141.556 7.24423C136.069 4.80155 130.534 6.13065 125.933 9.77073C121.332 13.4108 118.097 18.9428 114.875 23.9119C110.897 30.0306 106.919 36.1493 102.941 42.268C100.953 45.3213 98.9637 48.3867 96.9749 51.44C95.4772 53.739 93.9916 56.0619 92.0506 58.0137C90.3493 59.7379 88.2766 61.1389 85.7845 61.2227C82.4178 61.3305 79.147 60.1091 75.7803 60.3606C69.8497 60.8036 65.3807 64.6353 61.9781 69.2333C58.5755 73.8313 56.7783 78.7406 53.7711 83.2547C52.3094 85.446 50.5482 87.5654 48.2598 88.9424C47.7686 89.2297 47.2773 89.5051 46.7502 89.7087C46.4267 89.8404 46.0912 89.9362 45.7557 90.032C45.6719 90.0559 44.7493 90.2475 45.1447 90.1996C44.0065 90.3553 43.4434 90.2236 42.3292 89.7686C40.7357 89.122 39.1302 87.5893 38.3035 85.8291C38.0759 85.3502 37.9081 84.5958 37.98 83.8774C37.9201 84.4521 37.992 83.8415 38.0519 83.6978C38.1717 83.3984 37.8722 83.9612 38.1238 83.4942C38.4233 82.9434 38.4593 82.9793 39.0823 82.4764L34.0742 79.5668C26.4902 113.273 21.4821 147.567 19.1218 182.04C18.5347 190.649 18.4029 199.294 17.8278 207.903C17.732 209.28 17.5523 210.705 16.8933 211.927C16.1385 213.328 14.7128 214.106 13.3589 214.836C10.6512 216.297 8.00336 217.674 5.87073 219.949C-2.2165 228.57 -1.31792 242.652 4.48092 252.243C12.7359 265.905 29.8089 270.802 44.2341 274.754C47.9603 275.772 49.5418 270 45.8276 268.982L45.8636 268.946Z" fill="#263238"/>
</g>
<defs>
<clipPath id="clip0_424_89">
<rect width="271" height="305" fill="white"/>
</clipPath>
</defs>
</svg>
