<svg width="302" height="378" viewBox="0 0 302 378" fill="none" xmlns="http://www.w3.org/2000/svg">
<g clip-path="url(#clip0_322_158)">
<path d="M3.98034 211.94C3.98034 211.94 74.5632 194.542 91.8978 181.972C86.42 303.416 86.971 297.524 86.971 297.524L0 310.47L3.98034 211.94Z" fill="#3B6E9B"/>
<path d="M190.44 153.36L202.563 95.4863L264.07 89.8015L258.32 150.647L224.331 161.069L190.447 153.36" fill="#3B6E9B"/>
<path d="M18.4171 367.987C26.2935 381.972 60.1782 380.946 82.8674 367.15C99.3722 357.117 116.772 336.188 111.326 325.254C103.288 309.114 43.4141 310.646 23.4347 341.172C22.2354 343.002 12.7383 357.909 18.4106 367.987H18.4171Z" fill="#576B80"/>
<path d="M37.7937 240.514C37.7742 239.67 37.7937 238.826 37.8391 237.983C37.865 237.561 37.9039 237.139 37.9493 236.724C37.9493 236.691 38.0595 235.867 37.9817 236.399C37.9168 236.899 38.0595 235.919 38.0724 235.828C38.3577 234.167 38.779 232.525 39.3365 230.935C39.4727 230.539 39.6218 230.143 39.7774 229.748C39.8357 229.605 40.0756 228.82 39.8422 229.585C39.8876 229.436 39.9848 229.267 40.0496 229.125C40.4321 228.281 40.86 227.45 41.3202 226.646C41.7351 225.912 42.1889 225.198 42.6621 224.504C42.902 224.154 43.1483 223.816 43.4011 223.479C43.4919 223.355 43.7901 223.011 43.3558 223.537C43.5438 223.31 43.7253 223.076 43.9133 222.849C45.0218 221.525 46.2535 220.299 47.5824 219.202C47.7445 219.066 47.9131 218.936 48.0751 218.806C48.4706 218.482 47.4528 219.261 48.127 218.767C48.4771 218.514 48.8206 218.268 49.1772 218.028C49.9227 217.528 50.6941 217.061 51.485 216.632C52.2046 216.243 52.9371 215.892 53.6761 215.555C54.467 215.198 53.0408 215.795 53.8512 215.484C54.0132 215.425 54.1688 215.36 54.3309 215.295C54.8106 215.114 55.2968 214.945 55.7895 214.783C56.6063 214.517 57.436 214.29 58.2723 214.101C58.6937 214.004 59.1086 213.92 59.5299 213.835C59.6985 213.803 59.867 213.77 60.0356 213.744C60.1263 213.731 61.1117 213.582 60.6255 213.647C60.0939 213.718 60.9367 213.615 60.9626 213.608C61.2154 213.582 61.4747 213.556 61.734 213.537C62.2462 213.491 62.7583 213.465 63.2769 213.446C64.2623 213.413 65.2476 213.433 66.233 213.498C66.7062 213.53 67.173 213.582 67.6397 213.628C68.5084 213.712 66.9396 213.504 67.7953 213.647C68.0481 213.693 68.3009 213.725 68.5538 213.77C69.5651 213.952 70.5699 214.192 71.5617 214.478C73.1888 214.951 75.166 213.907 75.5485 212.213C75.931 210.519 75.0299 208.728 73.2861 208.222C65.3902 205.938 56.8461 206.827 49.4689 210.376C42.1694 213.894 36.724 220.24 33.6642 227.671C32.0047 231.707 31.2073 236.146 31.3046 240.501C31.3435 242.194 32.7696 243.823 34.5459 243.745C36.3221 243.667 37.8261 242.318 37.7872 240.501L37.7937 240.514Z" fill="#263238"/>
<path d="M58.8558 228.365C58.8364 229.735 59.2966 231.019 60.1264 232.09C60.5996 232.7 61.0599 233.109 61.7017 233.563C62.1944 233.914 62.7519 234.134 63.3094 234.355C64.2105 234.718 65.2347 234.874 66.2006 234.855C67.4323 234.829 68.6251 234.537 69.7077 233.946C70.7061 233.401 71.6525 232.473 72.1258 231.428C72.5277 230.539 72.7222 229.851 72.787 228.865C72.8 228.683 72.787 228.502 72.7675 228.32C72.7222 227.885 72.6833 227.424 72.5471 227.009C71.7757 224.614 69.6753 222.843 67.2573 222.239C65.9867 221.921 64.5411 221.856 63.277 222.259C61.773 222.739 60.4116 223.732 59.6856 225.159C59.2902 225.938 59.1216 226.801 59.3615 227.658C59.5689 228.411 60.1523 229.228 60.8525 229.598C61.6045 229.994 62.5185 230.195 63.3483 229.923C64.1262 229.67 64.9041 229.183 65.2866 228.43C65.3709 228.261 65.4746 228.099 65.5913 227.943L65.0856 228.599C65.2282 228.424 65.3838 228.268 65.5653 228.125L64.9106 228.631C65.1051 228.489 65.3125 228.365 65.5394 228.268L64.768 228.592C65.0402 228.482 65.319 228.411 65.6042 228.372L64.742 228.489C65.1116 228.443 65.4811 228.45 65.8506 228.489L64.9884 228.372C65.4422 228.437 65.8765 228.553 66.2979 228.729L65.5264 228.404C65.896 228.566 66.246 228.761 66.5701 229.008L65.9154 228.502C66.1877 228.716 66.434 228.949 66.6479 229.222L66.1423 228.566C66.3044 228.781 66.4405 229.008 66.5507 229.248L66.2266 228.476C66.3173 228.703 66.3886 228.93 66.421 229.176L66.3044 228.313C66.3368 228.566 66.3368 228.813 66.3044 229.066L66.421 228.203C66.3821 228.437 66.3238 228.664 66.2395 228.884L66.5637 228.112C66.4729 228.333 66.3497 228.54 66.2071 228.729L66.7128 228.073C66.5701 228.255 66.4081 228.417 66.2266 228.56L66.8813 228.054C66.6609 228.223 66.421 228.359 66.1682 228.469L66.9397 228.145C66.5961 228.287 66.233 228.378 65.8635 228.43L66.7257 228.313C66.2979 228.365 65.8635 228.359 65.4357 228.307L66.2979 228.424C65.87 228.365 65.4551 228.248 65.0532 228.086L65.8246 228.411C65.5005 228.274 65.1958 228.099 64.9106 227.885L65.5653 228.391C65.3449 228.222 65.1505 228.028 64.9754 227.814L65.4811 228.469C65.3384 228.281 65.2218 228.086 65.1245 227.879L65.4487 228.651C65.3579 228.43 65.2931 228.203 65.2542 227.969L65.3709 228.833C65.3514 228.67 65.3384 228.515 65.3449 228.352C65.3579 227.528 64.9754 226.639 64.3985 226.055C63.8215 225.471 62.9139 225.069 62.1036 225.108C60.3274 225.185 58.8882 226.535 58.8623 228.352L58.8558 228.365Z" fill="#263238"/>
<path d="M89.6937 221.422C89.6613 220.812 89.6483 220.208 89.6807 219.598C89.6937 219.332 89.7131 219.072 89.7456 218.806C89.8363 217.943 89.6353 219.325 89.765 218.657C89.9854 217.541 90.2512 216.451 90.6531 215.386C90.705 215.244 90.7633 215.107 90.8217 214.964C90.6402 215.393 90.6207 215.438 90.7633 215.114C90.8606 214.906 90.9578 214.705 91.055 214.497C91.3273 213.952 91.6255 213.426 91.9432 212.907C92.196 212.505 92.4812 211.888 92.8442 211.59C92.5655 211.94 92.5396 211.979 92.76 211.707C92.8572 211.59 92.9544 211.473 93.0517 211.356C93.2202 211.155 93.4018 210.954 93.5768 210.753C93.9593 210.331 94.3677 209.929 94.7826 209.539C94.977 209.358 95.178 209.182 95.379 209.014C95.5281 208.89 96.1569 208.287 95.5216 208.877C96.3189 208.131 97.4404 207.553 98.4063 207.067C98.6332 206.95 98.9703 206.71 99.2232 206.677C98.8277 206.84 98.7434 206.879 98.9703 206.788C99.0741 206.742 99.1778 206.703 99.288 206.664C99.852 206.45 100.429 206.262 101.012 206.113C101.524 205.977 102.043 205.879 102.562 205.788C102.925 205.736 102.86 205.743 102.374 205.814C102.523 205.795 102.678 205.782 102.827 205.769C103.132 205.743 103.437 205.73 103.742 205.717C105.434 205.665 107.061 204.263 106.983 202.472C106.905 200.681 105.557 199.169 103.742 199.227C94.802 199.513 86.984 205.931 84.164 214.303C83.3991 216.567 83.062 219.04 83.2046 221.428C83.3018 223.122 84.6243 224.757 86.4459 224.673C88.1184 224.595 89.7909 223.245 89.6872 221.428L89.6937 221.422Z" fill="#263238"/>
<path d="M102.069 215.458C101.758 215.484 101.434 215.529 101.129 215.581C101.097 215.581 101.064 215.594 101.032 215.6C100.999 215.607 100.973 215.62 100.941 215.626C100.662 215.717 100.351 215.86 100.092 215.983C99.7353 216.152 99.4241 216.418 99.1454 216.691C99.1259 216.71 99.1065 216.736 99.0806 216.756C98.8926 216.97 98.6981 217.236 98.5295 217.463C98.4907 217.515 98.4582 217.567 98.4258 217.619C98.2313 217.969 98.0628 218.352 97.9656 218.741C97.8683 219.131 97.81 219.565 97.7905 219.981C97.7905 220.046 97.7905 220.111 97.7905 220.182C97.81 220.526 97.8683 220.876 97.9267 221.214C97.972 221.486 98.0822 221.713 98.1924 221.973C98.2638 222.148 98.3351 222.349 98.4323 222.518C98.5879 222.791 98.8926 223.148 99.0352 223.316C99.0806 223.368 99.1259 223.42 99.1778 223.466C99.3982 223.66 99.6575 223.855 99.8974 224.024C99.9233 224.043 99.9557 224.063 99.9816 224.082C100.014 224.102 100.053 224.115 100.085 224.134C100.358 224.264 100.649 224.394 100.935 224.491C101.272 224.601 101.693 224.614 102.004 224.653C102.452 224.673 102.866 224.575 103.255 224.374C103.657 224.244 104.007 224.017 104.299 223.706C104.617 223.414 104.837 223.063 104.967 222.661C105.168 222.272 105.265 221.856 105.246 221.408L105.129 220.545C104.973 219.994 104.695 219.52 104.293 219.111L103.638 218.605C103.132 218.313 102.588 218.164 102.004 218.164H101.978C102.264 218.196 102.555 218.235 102.84 218.274C102.75 218.261 102.665 218.235 102.581 218.203L103.353 218.527C103.275 218.495 103.204 218.449 103.139 218.397L103.793 218.904C103.729 218.852 103.67 218.793 103.618 218.728L104.124 219.384C104.053 219.293 103.994 219.189 103.949 219.079L104.273 219.851C104.215 219.715 104.182 219.572 104.163 219.429L104.28 220.292C104.26 220.13 104.26 219.961 104.28 219.799L104.163 220.662C104.182 220.519 104.221 220.377 104.28 220.24L103.956 221.013C104.001 220.902 104.059 220.805 104.131 220.708L103.625 221.363C103.683 221.292 103.748 221.227 103.819 221.168L103.165 221.675C103.236 221.623 103.307 221.584 103.385 221.551L102.614 221.876C102.691 221.843 102.763 221.824 102.847 221.811L101.985 221.928C101.985 221.928 102.037 221.928 102.063 221.921C102.51 221.941 102.925 221.843 103.314 221.642C103.716 221.512 104.066 221.285 104.357 220.974C104.675 220.682 104.895 220.331 105.025 219.929C105.226 219.539 105.323 219.124 105.304 218.676L105.187 217.813C105.032 217.262 104.753 216.788 104.351 216.379L103.696 215.873C103.191 215.581 102.646 215.432 102.063 215.432L102.069 215.458Z" fill="#263238"/>
<path d="M20.524 203.867C15.9667 214.075 12.5049 224.731 10.3203 235.698C8.13565 246.666 7.12436 257.866 7.40311 269.035C7.56518 275.453 8.16806 281.839 9.13397 288.185C9.39328 289.866 11.5909 290.95 13.1208 290.45C14.9554 289.86 15.662 288.263 15.3832 286.459C15.286 285.836 15.1952 285.207 15.111 284.584C15.098 284.486 15.0137 283.876 15.0721 284.292C15.1239 284.675 15.0591 284.194 15.0526 284.142C15.0008 283.76 14.9554 283.37 14.9035 282.987C14.7414 281.637 14.5923 280.281 14.4692 278.931C14.2228 276.271 14.0478 273.603 13.9441 270.93C13.7431 265.537 13.8339 260.138 14.2228 254.758C14.4173 252.091 14.6831 249.43 15.0202 246.776C15.0397 246.614 15.1693 245.653 15.0785 246.335C15.1174 246.043 15.1563 245.757 15.2017 245.465C15.3054 244.745 15.4156 244.024 15.5258 243.304C15.7268 242.006 15.9537 240.715 16.1871 239.423C17.166 234.115 18.4365 228.865 19.9924 223.699C20.8611 220.811 21.8205 217.956 22.8642 215.133C23.3893 213.718 23.9338 212.317 24.4978 210.921C24.6469 210.565 24.796 210.201 24.9386 209.844C24.9516 209.812 25.1396 209.364 25.0035 209.695C24.8544 210.058 25.1915 209.26 25.1785 209.28C25.4832 208.566 25.7943 207.852 26.112 207.145C26.7991 205.6 26.6111 203.582 24.9516 202.706C23.5384 201.959 21.2565 202.213 20.5175 203.867H20.524Z" fill="#263238"/>
<path d="M30.248 201.285C41.3722 199.117 52.1722 195.58 62.5055 190.921C72.6898 186.32 82.3424 180.544 91.1977 173.73C96.3254 169.785 101.213 165.554 105.79 160.972C106.989 159.771 107.08 157.571 105.79 156.384C104.5 155.196 102.484 155.099 101.207 156.384C97.3043 160.291 93.1814 163.977 88.851 167.403C88.6046 167.598 88.3648 167.792 88.1184 167.981C88.0406 168.039 87.5933 168.389 87.9175 168.136C88.2416 167.883 87.7943 168.234 87.7165 168.292C87.1525 168.727 86.582 169.155 86.0116 169.577C84.903 170.401 83.7815 171.206 82.6536 171.998C80.3911 173.581 78.0833 175.1 75.7366 176.547C71.0756 179.422 66.2525 182.037 61.2998 184.367C60.0486 184.957 58.791 185.522 57.5269 186.073C57.2416 186.197 56.9564 186.32 56.6712 186.443C56.5804 186.482 56.0553 186.703 56.4443 186.541C56.8332 186.378 56.3082 186.599 56.2174 186.638C55.5627 186.91 54.9014 187.183 54.2402 187.449C51.7184 188.455 49.1708 189.396 46.5972 190.259C40.6915 192.245 34.6497 193.835 28.5366 195.029C26.8705 195.353 25.762 197.443 26.2741 199.02C26.8511 200.798 28.4717 201.635 30.2609 201.285H30.248Z" fill="#263238"/>
<path d="M91.9302 243.103C88.5787 256.14 86.7052 269.58 86.3552 283.039C87.4378 281.956 88.5139 280.878 89.5965 279.795C72.3527 281.372 55.6405 287.796 41.8778 298.342C37.9688 301.34 34.2867 304.591 30.8963 308.173C29.7294 309.406 29.5803 311.554 30.8963 312.761C32.2122 313.968 34.2348 314.079 35.4795 312.761C38.3059 309.77 41.3398 306.973 44.5616 304.409C44.7691 304.247 44.9765 304.085 45.1775 303.923C45.8711 303.377 44.6459 304.318 45.3525 303.786C45.7739 303.468 46.1888 303.15 46.6166 302.839C47.4659 302.216 48.3216 301.606 49.1902 301.015C50.8563 299.88 52.5547 298.802 54.2921 297.783C56.0294 296.765 57.9548 295.72 59.8347 294.779C60.6969 294.351 61.5656 293.935 62.4407 293.533C62.9205 293.312 63.4002 293.098 63.8799 292.89C64.042 292.819 64.204 292.754 64.3596 292.683C64.6967 292.54 64.6837 292.546 64.3077 292.702C64.4698 292.637 64.6319 292.566 64.7939 292.501C68.5992 290.931 72.5083 289.62 76.4951 288.588C78.6992 288.017 80.9227 287.53 83.1657 287.134C84.2807 286.94 85.4087 286.725 86.5367 286.602C85.694 286.693 86.5821 286.602 86.7182 286.583C87.0683 286.537 87.4118 286.498 87.7619 286.459C88.3713 286.394 88.9806 286.33 89.59 286.278C91.3727 286.115 92.7859 284.921 92.8313 283.033C92.9156 279.788 93.0841 276.55 93.3435 273.318C93.4796 271.65 93.6352 269.982 93.8232 268.321C93.9139 267.49 94.0112 266.66 94.1149 265.829C94.1667 265.414 94.2186 264.999 94.2769 264.583C94.1927 265.239 94.3353 264.174 94.3547 264.045C95.2623 257.568 96.5459 251.15 98.173 244.816C98.5944 243.174 97.6349 241.221 95.9106 240.825C94.2186 240.442 92.3775 241.331 91.9238 243.09L91.9302 243.103Z" fill="#263238"/>
<path d="M47.0833 293.513C44.3865 306.187 42.8113 319.121 42.4353 332.074C42.3315 335.701 42.3186 339.329 42.4029 342.957C42.4417 344.65 43.8679 346.279 45.6442 346.201C47.4204 346.124 48.9244 344.774 48.8855 342.957C48.7429 336.649 48.8855 330.335 49.3069 324.04C49.5208 320.892 49.7995 317.752 50.1561 314.611C50.2404 313.877 50.3246 313.15 50.4154 312.417C50.4672 312.002 50.5191 311.58 50.571 311.165C50.5904 311.009 50.6099 310.853 50.6293 310.697C50.6617 310.464 50.6552 310.49 50.6163 310.775L50.6617 310.464C50.8821 308.9 51.109 307.342 51.3554 305.785C51.9194 302.255 52.5806 298.737 53.3261 295.239C53.6761 293.585 52.8399 291.651 51.0636 291.248C49.4365 290.879 47.4528 291.742 47.0768 293.513H47.0833Z" fill="#263238"/>
<path d="M66.4988 286.634C62.9592 304.357 62.1813 322.619 64.3854 340.569C65.0272 345.78 65.8764 350.965 66.972 356.104C67.3285 357.766 69.3576 358.888 70.9588 358.369C72.7091 357.805 73.6037 356.156 73.2212 354.378C72.7545 352.204 72.3266 350.024 71.9506 347.837C71.7626 346.766 71.5876 345.695 71.4256 344.625C71.3478 344.112 71.27 343.606 71.1987 343.093C71.1662 342.885 71.1403 342.684 71.1144 342.477C71.0885 342.269 71.056 342.068 71.0301 341.86C71.0755 342.21 71.0755 342.191 71.0236 341.802C70.4726 337.493 70.0707 333.171 69.8438 328.836C69.39 320.062 69.6299 311.249 70.5634 302.514C70.693 301.281 70.8421 300.048 70.9977 298.822C71.0236 298.614 71.0496 298.413 71.0755 298.205C70.9847 298.887 71.1533 297.647 71.1727 297.53C71.2635 296.914 71.3542 296.304 71.445 295.687C71.821 293.234 72.2553 290.794 72.7415 288.361C73.0721 286.699 72.2683 284.778 70.4791 284.37C68.8649 284 66.8488 284.856 66.4923 286.634H66.4988Z" fill="#263238"/>
<path d="M66.4469 268.957C66.5701 268.639 66.8034 268.444 66.3756 269.1C66.4534 268.983 66.4988 268.84 66.5571 268.717C66.6997 268.438 66.8488 268.172 67.0174 267.912C67.0952 267.795 67.1729 267.679 67.2507 267.562C67.3998 267.348 67.6916 267.14 67.0952 267.743C67.2896 267.542 67.4582 267.309 67.6462 267.107C67.8601 266.88 68.0805 266.666 68.3139 266.459C68.4176 266.368 68.5278 266.277 68.638 266.179C69.1113 265.764 67.9962 266.627 68.5213 266.27C69.014 265.933 69.5067 265.615 70.0448 265.342C70.1744 265.277 70.2976 265.219 70.4272 265.161C70.9199 264.927 69.8308 265.388 70.2003 265.251C70.4921 265.141 70.7838 265.037 71.082 264.946C71.3542 264.862 71.6265 264.791 71.8988 264.732C72.0673 264.693 72.2294 264.667 72.398 264.635C72.9425 264.531 71.7173 264.706 72.1192 264.667C72.7091 264.616 73.2926 264.59 73.889 264.628C74.0316 264.635 74.1677 264.654 74.3103 264.667C74.7122 264.7 73.487 264.525 74.0316 264.635C74.3687 264.7 74.6928 264.771 75.0234 264.869C76.6506 265.329 78.6213 264.304 79.0102 262.604C79.3992 260.904 78.4916 259.106 76.7478 258.613C73.3963 257.659 69.8503 258.191 66.771 259.742C63.6918 261.293 61.3969 264.012 60.1976 267.231C59.6012 268.821 60.8589 270.858 62.4601 271.222C64.3011 271.644 65.8116 270.664 66.4469 268.957Z" fill="#263238"/>
<path d="M6.02235 269.444C2.62545 277.108 -0.784411 285.382 1.50396 293.877C2.52821 297.673 4.64803 301.048 7.79859 303.416C10.9492 305.785 15.0073 306.706 18.8969 306.655C22.7864 306.603 26.6047 305.694 30.2609 304.461C33.9171 303.228 37.5539 301.664 41.0221 299.879C47.8937 296.336 54.2077 291.774 60.094 286.784C66.5961 281.268 72.5536 275.148 78.2778 268.84C79.4187 267.588 79.6067 265.472 78.2778 264.252C77.0331 263.11 74.9133 262.909 73.6945 264.252C68.8066 269.632 63.7631 274.869 58.3437 279.723C57.0082 280.917 55.6534 282.092 54.2726 283.227C53.6502 283.74 53.0279 284.246 52.3991 284.746C52.1916 284.915 51.9777 285.077 51.7703 285.246C51.6666 285.33 51.2841 285.622 51.7897 285.233C51.3684 285.557 50.9405 285.882 50.5126 286.2C47.6733 288.322 44.7366 290.307 41.6833 292.105C40.1599 293.001 38.617 293.844 37.0417 294.636C36.2573 295.032 35.46 295.415 34.6626 295.785C34.2996 295.953 33.943 296.116 33.58 296.271C33.3791 296.362 33.1781 296.447 32.9706 296.537C32.1538 296.894 33.593 296.284 32.7697 296.622C29.5349 297.933 26.2157 299.12 22.78 299.776C22.3521 299.86 21.9307 299.925 21.5029 299.996C20.6666 300.126 21.9956 299.951 21.464 299.996C21.2501 300.016 21.0361 300.042 20.8222 300.061C19.973 300.139 19.1237 300.178 18.268 300.165C17.8467 300.159 17.4253 300.139 17.0104 300.107C16.803 300.087 16.5955 300.061 16.3881 300.048C15.876 300.009 17.1854 300.191 16.3881 300.048C15.5907 299.905 14.7804 299.724 13.996 299.458C13.7756 299.386 13.5033 299.321 13.3023 299.205C13.8923 299.555 13.5552 299.315 13.3996 299.237C13.0301 299.049 12.6606 298.867 12.304 298.659C11.9799 298.465 11.5196 298.238 11.2603 297.965C11.7271 298.458 11.5002 298.16 11.364 298.036C11.1631 297.855 10.9492 297.68 10.7547 297.485C10.5019 297.245 10.262 296.992 10.0286 296.726C9.9249 296.602 9.37387 296.038 9.95083 296.661C9.85359 296.55 9.75635 296.401 9.67856 296.284C9.20532 295.616 8.79692 294.902 8.44686 294.162L8.39499 294.058C8.25238 293.734 8.26534 293.773 8.44037 294.188C8.44686 294.052 8.23293 293.656 8.18755 293.526C8.02548 293.078 7.88287 292.624 7.7597 292.163C7.64301 291.742 7.54577 291.313 7.4615 290.885C7.4226 290.69 7.39019 290.489 7.35777 290.294C7.20867 289.49 7.4226 291.021 7.34481 290.204C7.26053 289.328 7.20867 288.451 7.22164 287.575C7.22812 287.082 7.26053 286.583 7.30591 286.089C7.32536 285.895 7.34481 285.693 7.36426 285.499C7.40963 285.109 7.40963 285.103 7.36426 285.479C7.3837 285.33 7.40963 285.187 7.43557 285.038C7.79859 282.838 8.43389 280.69 9.19236 278.587C9.56835 277.556 9.97676 276.537 10.3981 275.518C10.1323 276.154 10.5148 275.245 10.5407 275.187C10.6574 274.914 10.7806 274.635 10.8973 274.363C11.1371 273.818 11.377 273.266 11.6233 272.721C12.3105 271.176 12.1225 269.165 10.463 268.282C9.05622 267.536 6.76137 267.789 6.02883 269.444H6.02235Z" fill="#263238"/>
<path d="M89.0973 258.522C93.4861 267.088 98.5101 275.323 104.124 283.143C109.738 290.963 116.117 298.679 122.937 305.726C126.735 309.646 130.696 313.403 134.813 316.992C136.09 318.108 138.158 318.342 139.396 316.992C140.518 315.772 140.764 313.592 139.396 312.404C132.181 306.109 125.432 299.289 119.216 291.995C117.686 290.197 116.188 288.373 114.723 286.524C114.347 286.05 113.984 285.576 113.608 285.103C113.381 284.811 113.66 285.174 113.692 285.213C113.608 285.103 113.524 284.992 113.44 284.882C113.245 284.623 113.044 284.369 112.85 284.11C112.124 283.149 111.404 282.189 110.697 281.216C107.884 277.367 105.22 273.415 102.698 269.372C99.8326 264.778 97.1682 260.06 94.6983 255.245C93.9204 253.733 91.6774 253.168 90.2642 254.083C88.7213 255.076 88.274 256.906 89.1038 258.522H89.0973Z" fill="#263238"/>
<path d="M60.8201 149.771C58.3307 151.77 58.2918 155.631 59.744 158.233C61.3192 161.056 64.6902 162.302 67.7824 162.218C70.5635 162.146 73.7983 161.296 75.6329 159.051C76.7349 157.701 77.4286 156.033 77.2795 154.255C77.1304 152.477 76.4238 150.842 75.2569 149.421C73.0593 146.74 69.2604 146.027 65.9802 146.163C64.2883 146.234 62.6611 147.603 62.7389 149.408C62.8167 151.108 64.1651 152.73 65.9802 152.652C66.8489 152.613 67.7111 152.633 68.5733 152.75L67.7111 152.633C68.4501 152.743 69.1632 152.918 69.8569 153.197L69.0854 152.873C69.3966 153.009 69.7013 153.158 69.993 153.34C70.1291 153.425 70.2588 153.535 70.4014 153.619C69.6105 153.165 70.0254 153.321 70.2653 153.561C70.3755 153.671 70.4727 153.788 70.5764 153.898C70.8033 154.145 70.0643 153.171 70.4403 153.73C70.6218 154.009 70.7774 154.294 70.907 154.599L70.5829 153.827C70.732 154.203 70.8357 154.58 70.8941 154.982L70.7774 154.119C70.8163 154.463 70.8163 154.8 70.7774 155.144L70.8941 154.281C70.8487 154.58 70.7709 154.852 70.6607 155.131L70.9848 154.359C70.8811 154.586 70.745 154.787 70.6218 155.008C71.0043 154.314 70.9978 154.554 70.7579 154.8C70.6737 154.891 70.5764 154.963 70.4921 155.053C70.2717 155.281 71.2052 154.573 70.7385 154.865C70.6348 154.93 70.531 155.002 70.4273 155.066C70.1875 155.209 69.9411 155.332 69.6883 155.443L70.4597 155.118C69.6948 155.436 68.8909 155.637 68.0676 155.754L68.9298 155.637C68.1065 155.748 67.2832 155.767 66.4535 155.67L67.3157 155.787C66.7193 155.709 66.1488 155.566 65.5978 155.339L66.3692 155.663C66.0969 155.547 65.8376 155.417 65.5848 155.261C65.1116 154.963 65.7209 155.313 65.7793 155.443C65.7469 155.371 65.52 155.222 65.4616 155.157C65.3838 155.079 65.3125 154.989 65.2412 154.911C64.9884 154.651 65.708 155.612 65.4681 155.19C65.332 154.956 65.2023 154.729 65.0986 154.476L65.4227 155.248C65.2931 154.911 65.2023 154.573 65.144 154.216L65.2607 155.079C65.2153 154.729 65.2153 154.385 65.2542 154.035L65.1375 154.898C65.1829 154.599 65.2542 154.32 65.3709 154.041L65.0467 154.813C65.0986 154.703 65.3579 154.372 65.3579 154.268C65.3579 154.333 64.7939 154.885 65.0986 154.632C65.2023 154.547 65.2866 154.456 65.3903 154.372C65.9997 153.885 66.3368 152.821 66.3368 152.075C66.3368 151.277 65.9867 150.329 65.3903 149.777C64.7939 149.226 63.9641 148.791 63.0955 148.83C62.1879 148.869 61.5072 149.213 60.8006 149.777L60.8201 149.771Z" fill="#263238"/>
<path d="M100.254 105.324C96.2152 107.959 93.2138 111.814 91.632 116.37C90.6985 119.056 90.1475 122.282 92.17 124.624C93.9657 126.701 96.9607 126.857 99.5149 126.876C104.435 126.922 109.602 125.565 113.174 122.009C116.48 118.719 118.425 113.423 116.648 108.887C114.762 104.072 109.18 100.425 103.994 102.326C102.406 102.91 101.161 104.552 101.732 106.317C102.238 107.875 104.014 109.205 105.719 108.582C105.797 108.556 106.717 108.355 106.737 108.297L106.289 108.355C106.425 108.342 106.568 108.329 106.704 108.329C106.84 108.329 106.983 108.329 107.119 108.329C107.255 108.329 107.832 108.264 107.307 108.329C106.834 108.388 107.307 108.342 107.488 108.388C107.657 108.426 107.826 108.491 107.994 108.537C108.772 108.738 107.553 108.264 108.104 108.569C108.416 108.744 108.72 108.926 109.031 109.101C109.343 109.277 109.271 109.082 108.895 108.978C109.025 109.017 109.2 109.231 109.304 109.328C109.569 109.575 109.803 109.841 110.049 110.107C110.36 110.438 109.634 109.445 109.997 110.055C110.107 110.244 110.231 110.419 110.341 110.607C110.373 110.665 110.665 111.133 110.633 111.184C110.613 111.21 110.373 110.393 110.542 111.009C110.6 111.21 110.898 111.872 110.814 112.08L110.762 111.691C110.775 111.807 110.788 111.931 110.795 112.048C110.808 112.242 110.814 112.443 110.814 112.645C110.814 112.8 110.795 112.963 110.795 113.118C110.762 113.488 110.775 113.436 110.834 112.963C110.808 113.118 110.782 113.274 110.749 113.43C110.678 113.78 110.587 114.124 110.477 114.468C110.425 114.637 110.38 114.89 110.276 115.033C110.626 114.553 110.425 114.715 110.315 114.922C110.127 115.279 109.952 115.643 109.738 115.987C109.608 116.194 109.466 116.389 109.336 116.597C108.973 117.148 109.731 116.181 109.245 116.707C108.967 117.006 108.707 117.311 108.409 117.596C108.292 117.706 108.169 117.817 108.052 117.927L107.871 118.083C107.592 118.31 107.618 118.29 107.955 118.024C107.923 118.213 107.035 118.634 106.899 118.712C106.477 118.959 106.036 119.167 105.596 119.381C105.122 119.608 106.315 119.134 105.511 119.407C105.343 119.465 105.181 119.53 105.012 119.582C104.591 119.725 104.163 119.848 103.729 119.952C103.294 120.056 102.853 120.14 102.419 120.218C101.537 120.38 103.113 120.166 102.218 120.25C101.952 120.276 101.68 120.302 101.414 120.322C100.513 120.387 99.6121 120.393 98.711 120.361C98.2637 120.341 97.8164 120.296 97.3691 120.27C96.9996 120.25 97.1682 120.4 97.5312 120.302C97.3432 120.354 97.0385 120.185 96.8375 120.153C96.1698 120.036 97.2978 120.523 96.7727 120.121C96.857 120.185 97.2719 120.614 96.9089 120.205C97.045 120.354 97.3237 121.146 97.2135 120.562C97.2459 120.724 97.207 121.224 97.2654 120.672C97.2654 120.633 97.3691 119.816 97.2784 120.335C97.1876 120.854 97.3497 120.049 97.3561 120.017C97.4663 119.53 97.596 119.043 97.7451 118.563C97.8812 118.122 98.0498 117.693 98.2119 117.265C98.3934 116.785 97.8748 117.966 98.2313 117.233C98.3415 117.006 98.4452 116.778 98.5619 116.558C98.9963 115.714 99.4954 114.702 100.157 114.007C100.085 114.079 99.7288 114.527 100.111 114.072C100.273 113.878 100.429 113.689 100.597 113.501C100.928 113.125 101.278 112.768 101.641 112.417C102.004 112.067 102.367 111.684 102.776 111.431C102.205 111.788 102.588 111.574 102.717 111.483C102.99 111.295 103.262 111.1 103.547 110.918C104.967 109.99 105.693 108.005 104.707 106.48C103.793 105.058 101.79 104.325 100.273 105.318L100.254 105.324Z" fill="#263238"/>
<path d="M160.426 35.6467C154.313 41.6041 150.047 49.359 147.947 57.6202C145.846 65.8813 145.807 74.7849 148.024 83.0525C149.256 87.6665 151.22 92.1313 153.859 96.1094L157.521 91.3461C155.194 90.8918 152.886 91.5537 151.35 93.4357C150.099 94.9607 149.263 96.7907 148.867 98.7246C148.407 100.963 148.199 103.287 147.973 105.558C147.746 107.829 147.61 109.977 147.577 112.197C147.447 120.815 148.99 129.757 153.697 137.116C157.794 143.528 164.134 148.921 171.725 150.511C174.026 150.991 176.379 151.095 178.713 151.29C179.219 151.328 179.718 151.387 180.217 151.439C179.614 151.374 180.126 151.426 180.25 151.445C180.548 151.497 180.84 151.543 181.131 151.601C181.617 151.698 182.097 151.822 182.577 151.971C182.817 152.049 183.044 152.14 183.283 152.218C183.497 152.302 183.471 152.289 183.199 152.179C183.381 152.263 183.556 152.354 183.737 152.445C184.178 152.678 184.599 152.938 185.014 153.217C185.222 153.353 185.423 153.502 185.624 153.645C185.74 153.73 186.259 154.125 185.805 153.768C186.816 154.554 187.795 155.378 188.807 156.157C190.35 157.338 191.97 158.396 193.682 159.311C209.415 167.753 227.988 165.099 244.168 159.531C253.062 156.475 261.73 152.737 270.449 149.213C279.168 145.689 287.667 142.535 295.459 137.629C308.56 129.381 318.304 115.896 321.707 100.736C322.556 96.966 323.036 93.0788 323.062 89.211C323.075 87.394 322.991 85.5704 322.796 83.7663C322.66 82.5203 322.478 81.2873 322.303 80.0479C322.265 79.7688 322.219 79.4962 322.187 79.2172C322.271 79.8532 322.135 78.7629 322.135 78.75C322.07 78.1464 322.018 77.5364 321.999 76.9264C321.979 76.3164 321.999 75.7194 322.038 75.1093C322.038 75.0185 322.128 74.4799 322.038 74.9861C322.09 74.6875 322.148 74.3955 322.219 74.1035C322.336 73.6427 322.472 73.1949 322.641 72.7537C322.705 72.5784 322.777 72.4032 322.848 72.228C322.563 72.9094 323.055 71.8257 323.114 71.7153C324.015 69.9113 325.136 68.237 326.096 66.4653C328.125 62.7079 329.149 58.5287 328.994 54.2456C328.682 45.66 324.43 37.8337 318.446 31.8569C312.262 25.6789 304.528 21.253 296.976 16.9765C288.84 12.3624 280.666 7.4434 271.895 4.12726C264.193 1.21997 255.844 -0.129843 247.624 0.00643637C239.404 0.142716 231.112 1.73913 223.482 4.84111C221.466 5.65879 219.476 6.54785 217.544 7.54723C215.612 8.54661 213.953 9.63036 212.092 10.5584C211.243 10.9802 212.643 10.4221 211.742 10.7011C211.548 10.7595 211.36 10.8309 211.159 10.8893C210.848 10.9802 210.536 11.0451 210.219 11.11C209.577 11.2462 209.979 11.1489 210.128 11.1359C208.948 11.2722 207.755 11.2398 206.576 11.2203C204.618 11.1878 202.673 11.2203 200.722 11.402C185.63 12.7453 171.135 20.2472 161.469 31.9737C159.11 34.8355 157.003 37.8921 155.259 41.1693C154.462 42.6684 154.831 44.771 156.419 45.6081C157.923 46.3998 160.004 46.0429 160.854 44.4465C161.703 42.8501 162.623 41.3056 163.635 39.813C164.114 39.1056 164.613 38.4048 165.126 37.7234C165.229 37.5871 165.333 37.4508 165.437 37.3145C164.957 37.944 165.489 37.2561 165.566 37.1653C165.858 36.7954 166.163 36.432 166.461 36.075C168.73 33.3884 171.265 30.9354 174.007 28.7419C174.175 28.6056 174.344 28.4758 174.512 28.3461C173.961 28.7809 174.428 28.4109 174.571 28.3071C174.882 28.0735 175.187 27.8464 175.504 27.6192C176.269 27.0676 177.047 26.5355 177.838 26.0228C179.348 25.0429 180.911 24.1344 182.512 23.3102C183.238 22.9338 183.971 22.5769 184.71 22.233C185.06 22.0707 185.41 21.915 185.766 21.7592C185.883 21.7073 186.687 21.3763 185.941 21.6813C186.181 21.584 186.415 21.4867 186.654 21.3893C188.327 20.7209 190.032 20.1368 191.756 19.6372C193.481 19.1375 195.069 18.7676 196.754 18.4561C197.176 18.3782 197.597 18.3068 198.018 18.2354C198.271 18.1965 198.524 18.1576 198.777 18.1186C198.933 18.0927 199.406 18.0083 198.68 18.1316C199.607 17.9758 200.553 17.9174 201.493 17.8461C205.636 17.541 210.096 18.3457 214.037 16.7558C216.118 15.9187 217.972 14.6987 219.936 13.6344C220.727 13.2061 221.531 12.7972 222.341 12.4014C222.769 12.1937 223.197 11.9925 223.625 11.7978C223.884 11.681 224.143 11.5642 224.403 11.4474C224.539 11.389 225.31 11.058 224.675 11.3241C228.26 9.83153 231.987 8.66991 235.786 7.84575C236.713 7.64457 237.647 7.46935 238.58 7.30712C239.047 7.22924 239.514 7.15137 239.987 7.08647C240.175 7.06052 240.363 7.03456 240.551 7.0086C239.76 7.11892 240.966 6.95668 241.102 6.94371C242.988 6.72306 244.881 6.58678 246.774 6.52838C248.765 6.46997 250.755 6.50242 252.745 6.62572C253.646 6.68413 254.541 6.75551 255.435 6.84636C255.908 6.89828 256.375 6.95668 256.848 7.0086C257.406 7.0735 256.064 6.89179 256.971 7.02807C257.25 7.06701 257.535 7.11243 257.814 7.15137C261.652 7.7484 265.438 8.70236 269.094 10.0067C272.75 11.3111 276.581 13.1801 280.529 15.3022C288.328 19.4814 296.172 23.7255 303.62 28.4953C305.261 29.5466 306.875 30.6433 308.437 31.7985C308.67 31.9737 308.904 32.1489 309.137 32.3241C309.221 32.389 309.617 32.707 309.17 32.3501C309.546 32.6486 309.928 32.9536 310.304 33.2586C311.127 33.9335 311.925 34.6344 312.703 35.3547C314.109 36.6721 315.445 38.0673 316.664 39.5664C316.709 39.6183 317.299 40.3711 316.878 39.8195C316.994 39.9752 317.111 40.131 317.228 40.2867C317.5 40.6566 317.766 41.033 318.025 41.4159C318.589 42.253 319.108 43.1161 319.587 44.0052C319.808 44.4076 320.015 44.8229 320.21 45.2317C320.287 45.4004 320.365 45.5627 320.443 45.7314C320.488 45.8223 320.845 46.6724 320.56 45.9715C320.91 46.8216 321.221 47.6847 321.493 48.5608C321.765 49.4369 321.986 50.3195 322.161 51.215C322.252 51.6628 322.323 52.1106 322.388 52.5584C322.265 51.7472 322.388 52.6427 322.401 52.7725C322.427 53.0386 322.453 53.3111 322.466 53.5837C322.524 54.4792 322.53 55.3813 322.485 56.2768C322.459 56.7246 322.414 57.1659 322.368 57.6137C322.381 57.4969 322.478 56.9323 322.368 57.5488C322.316 57.8538 322.265 58.1653 322.2 58.4703C322.031 59.3009 321.804 60.1251 321.519 60.9298C321.428 61.1829 321.325 61.436 321.234 61.6891C321.448 61.092 321.305 61.5333 321.24 61.6631C320.994 62.1823 320.748 62.6949 320.475 63.2011C319.542 64.9338 318.446 66.5692 317.558 68.3213C316.456 70.4953 315.737 72.6823 315.529 75.1223C315.322 77.5624 315.788 80.1517 316.151 82.6112C316.164 82.6891 316.236 83.2472 316.171 82.741C316.197 82.9551 316.223 83.1693 316.249 83.3899C316.301 83.8182 316.339 84.253 316.378 84.6878C316.456 85.5964 316.508 86.5049 316.54 87.4134C316.592 89.2305 316.54 91.0411 316.398 92.8516C316.365 93.2799 316.32 93.7147 316.275 94.143C316.255 94.3118 316.236 94.487 316.216 94.6557C316.197 94.7985 316.119 95.6746 316.197 94.8179C316.113 95.6746 315.938 96.5312 315.775 97.3748C315.108 100.86 314.083 104.28 312.748 107.57C312.703 107.687 312.353 108.491 312.67 107.758C312.599 107.92 312.534 108.076 312.463 108.238C312.288 108.634 312.106 109.03 311.925 109.426C311.523 110.295 311.095 111.146 310.641 111.996C309.805 113.573 308.891 115.111 307.912 116.597C307.458 117.291 306.985 117.972 306.505 118.641C306.252 118.991 305.987 119.342 305.727 119.692C305.202 120.4 306.142 119.179 305.598 119.861C305.436 120.062 305.274 120.27 305.112 120.471C303.99 121.86 302.797 123.196 301.553 124.468C300.308 125.74 298.992 126.954 297.631 128.103C297.3 128.382 296.963 128.661 296.619 128.927C296.619 128.927 295.945 129.459 296.334 129.154C296.723 128.849 296.049 129.374 296.042 129.374C295.251 129.972 294.441 130.543 293.618 131.094C290.046 133.482 286.228 135.481 282.325 137.272C281.372 137.713 280.413 138.135 279.447 138.557C279.012 138.745 278.578 138.934 278.144 139.115C277.593 139.349 278.837 138.83 277.904 139.219C277.612 139.342 277.32 139.459 277.029 139.582C274.948 140.446 272.86 141.283 270.773 142.126C266.436 143.879 262.099 145.637 257.762 147.389C249.542 150.712 241.284 154.061 232.662 156.202C230.464 156.747 228.253 157.208 226.017 157.571C225.485 157.656 224.954 157.74 224.416 157.811C224.986 157.734 223.78 157.883 223.625 157.902C222.652 158.013 221.68 158.097 220.701 158.162C218.737 158.285 216.773 158.318 214.808 158.24C213.875 158.201 212.941 158.142 212.008 158.058C211.587 158.019 211.172 157.974 210.75 157.928C210.517 157.902 210.29 157.87 210.057 157.844C210.809 157.941 209.972 157.831 209.81 157.805C207.885 157.513 205.973 157.104 204.099 156.572C203.211 156.319 202.329 156.04 201.461 155.728C201.026 155.573 200.599 155.41 200.171 155.242C200.002 155.177 199.827 155.105 199.659 155.034C200.326 155.3 199.561 154.989 199.419 154.924C197.655 154.138 195.951 153.217 194.33 152.166C193.941 151.913 193.558 151.653 193.182 151.387C193.033 151.277 192.884 151.173 192.735 151.062C192.677 151.017 191.944 150.452 192.489 150.881C191.594 150.173 190.713 149.447 189.811 148.746C187.964 147.318 185.993 146.156 183.718 145.553C181.442 144.949 179.264 144.839 177.034 144.683C176.529 144.644 176.023 144.612 175.517 144.56C175.264 144.534 175.012 144.508 174.759 144.482C173.799 144.391 175.141 144.56 174.571 144.463C173.696 144.307 172.833 144.138 171.984 143.898C171.2 143.677 170.383 143.431 169.644 143.08C170.422 143.444 169.216 142.873 169.067 142.795C168.62 142.574 168.185 142.34 167.758 142.094C167.077 141.705 166.409 141.276 165.767 140.822C165.599 140.699 165.43 140.575 165.262 140.459C164.601 139.985 165.612 140.757 165.223 140.433C164.873 140.134 164.51 139.849 164.166 139.544C162.837 138.369 161.651 137.058 160.536 135.682C161.029 136.292 160.244 135.28 160.127 135.118C159.881 134.774 159.641 134.423 159.414 134.066C158.954 133.353 158.52 132.626 158.111 131.879C157.703 131.133 157.333 130.374 156.983 129.602C156.925 129.478 156.607 128.68 156.912 129.446C156.847 129.29 156.782 129.134 156.724 128.979C156.523 128.472 156.342 127.953 156.167 127.441C155.499 125.461 155 123.43 154.643 121.373C154.552 120.86 154.475 120.341 154.403 119.828C154.494 120.529 154.371 119.504 154.364 119.446C154.339 119.238 154.319 119.03 154.3 118.823C154.183 117.674 154.112 116.525 154.073 115.377C153.917 111.048 154.248 106.726 154.799 102.437C154.928 101.431 154.74 102.8 154.831 102.203C154.87 101.943 154.902 101.684 154.941 101.424C155 101.035 155.058 100.646 155.149 100.256C155.24 99.8668 155.33 99.5228 155.454 99.1659C155.499 99.0231 155.557 98.8804 155.603 98.7311C155.842 97.9978 155.259 99.3346 155.635 98.6727C155.817 98.3547 155.992 98.0367 156.18 97.7252C156.439 97.3034 156.147 97.9329 156.05 97.8875C156.037 97.881 156.471 97.4786 156.471 97.4657C156.484 97.5435 155.791 97.881 156.27 97.6344C156.854 97.3359 155.661 97.8161 156.082 97.6863C156.627 97.5241 156.095 97.8291 155.855 97.6733H156.043C156.394 97.6863 156.303 97.6733 155.778 97.6279C157.087 97.881 158.345 97.5565 159.188 96.4663C159.946 95.4864 160.16 93.9419 159.44 92.8646C158.325 91.1838 157.333 89.4252 156.484 87.5951C156.296 87.1928 156.121 86.7904 155.94 86.3816C155.739 85.9208 156.231 87.1149 155.94 86.3816C155.855 86.1545 155.758 85.9338 155.674 85.7067C155.298 84.7333 154.961 83.7404 154.656 82.741C154.092 80.8915 153.658 79.0095 153.34 77.1016C153.301 76.8615 153.262 76.6214 153.23 76.3878C153.204 76.2191 153.042 75.4144 153.211 76.2904C153.12 75.8232 153.094 75.3235 153.048 74.8498C152.958 73.8828 152.893 72.9224 152.854 71.949C152.783 69.9307 152.841 67.906 153.029 65.8943C153.068 65.4919 153.107 65.0896 153.152 64.6872C153.172 64.5185 153.249 63.6878 153.159 64.5899C153.185 64.3498 153.23 64.1097 153.262 63.8695C153.424 62.8312 153.612 61.7994 153.839 60.7741C154.261 58.8856 154.792 57.0166 155.441 55.1931C155.603 54.7388 155.771 54.2846 155.946 53.8368C156.037 53.6097 156.128 53.389 156.218 53.1619C156.523 52.3961 155.927 53.8043 156.27 53.0451C156.666 52.1625 157.068 51.2864 157.509 50.4298C158.5 48.5024 159.635 46.6464 160.912 44.8878C161.055 44.6931 161.197 44.4984 161.34 44.3037C161.554 44.0182 161.534 44.0441 161.275 44.3881C161.372 44.2583 161.476 44.135 161.573 44.0117C161.923 43.5704 162.286 43.1356 162.656 42.7138C163.395 41.8637 164.179 41.0395 164.989 40.2543C166.208 39.0667 166.267 36.8408 164.989 35.6662C163.712 34.4916 161.703 34.4008 160.406 35.6662L160.426 35.6467Z" fill="#263238"/>
<path d="M200.255 157.149C208.073 139.576 213.784 121.113 217.071 102.151C218.011 96.7323 218.756 91.2746 219.327 85.804L215.223 88.9319C231.054 91.3135 247.137 90.9761 262.838 87.8417C267.169 86.9786 271.454 85.8883 275.68 84.5969C277.301 84.1037 278.494 82.3061 277.943 80.6059C277.392 78.9056 275.693 77.8089 273.956 78.341C270.267 79.4702 266.533 80.4436 262.76 81.2483C260.926 81.6377 259.078 81.9946 257.224 82.3061C256.323 82.4554 255.422 82.5982 254.515 82.7344C254.061 82.7993 253.613 82.8642 253.16 82.9291C253.756 82.8448 253.231 82.9226 253.114 82.9291C252.81 82.9681 252.511 83.007 252.207 83.0459C244.603 83.9869 236.914 84.266 229.258 83.8831C227.132 83.7792 225.006 83.617 222.879 83.4093C221.816 83.3055 220.76 83.1887 219.703 83.0589C219.502 83.033 219.301 83.007 219.1 82.981C218.925 82.9616 218.173 82.8577 218.756 82.9356C218.154 82.8512 217.551 82.7669 216.948 82.676C214.718 82.3386 213.084 83.5326 212.844 85.804C212.721 86.998 212.585 88.1986 212.442 89.3927C212.384 89.8923 212.319 90.3856 212.261 90.8852C212.222 91.1838 212.183 91.4823 212.144 91.7808C212.118 91.982 212.092 92.1767 212.066 92.3778C212.118 92.0144 212.112 92.0209 212.066 92.4103C211.749 94.6946 211.405 96.9724 211.023 99.2437C210.258 103.793 209.363 108.316 208.326 112.807C206.232 121.886 203.587 130.841 200.411 139.602C199.522 142.048 198.589 144.482 197.617 146.903C197.357 147.551 197.091 148.2 196.826 148.849C196.709 149.128 196.599 149.407 196.482 149.68C196.404 149.862 196.327 150.05 196.249 150.232C196.359 149.966 196.372 149.94 196.281 150.147C195.75 151.393 195.211 152.633 194.66 153.866C193.973 155.41 194.161 157.429 195.821 158.305C197.234 159.051 199.516 158.798 200.255 157.143V157.149Z" fill="#263238"/>
<path d="M274.526 79.8401C269.282 93.4875 266.345 108.011 265.762 122.619C265.6 126.688 265.632 130.763 265.846 134.832C265.937 136.526 267.272 138.161 269.088 138.077C270.767 137.999 272.426 136.649 272.329 134.832C271.953 127.7 272.147 120.542 272.932 113.443C273.022 112.593 273.133 111.742 273.236 110.899C273.308 110.315 273.126 111.671 273.262 110.717C273.288 110.516 273.321 110.321 273.347 110.12C273.418 109.62 273.489 109.127 273.567 108.627C273.833 106.888 274.137 105.156 274.481 103.429C275.168 99.9251 275.998 96.4532 276.964 93.0138C278.059 89.1395 279.33 85.3237 280.776 81.5663C281.385 79.9764 280.102 77.9387 278.513 77.5753C276.659 77.1534 275.181 78.1398 274.526 79.8401Z" fill="#263238"/>
<path d="M221.842 118.745C221.985 118.219 222.14 117.7 222.322 117.187C222.4 116.966 222.484 116.752 222.568 116.538C222.704 116.207 222.685 116.253 222.51 116.674C222.575 116.532 222.633 116.395 222.704 116.253C223.132 115.344 223.625 114.468 224.182 113.631C224.331 113.404 224.487 113.183 224.643 112.962C225.135 112.281 224.351 113.293 224.766 112.787C225.083 112.398 225.407 112.015 225.751 111.639C226.464 110.866 227.236 110.172 228.033 109.484C228.578 109.017 227.573 109.809 228.111 109.419C228.364 109.237 228.61 109.056 228.869 108.881C229.252 108.621 229.647 108.368 230.043 108.128C230.509 107.849 230.983 107.589 231.469 107.349C231.676 107.245 231.884 107.148 232.098 107.051C232.24 106.986 232.383 106.921 232.519 106.862C232.098 107.038 232.059 107.057 232.389 106.927C233.336 106.583 234.282 106.265 235.261 106.038C235.741 105.928 236.357 105.727 236.856 105.74C236.02 105.714 236.694 105.766 236.914 105.74C237.225 105.707 237.53 105.694 237.841 105.675C239.533 105.59 241.167 104.241 241.083 102.43C241.005 100.743 239.656 99.0944 237.841 99.1852C227.592 99.7044 218.27 107.057 215.58 117.018C215.139 118.654 216.131 120.62 217.842 121.009C219.554 121.399 221.356 120.497 221.829 118.745H221.842Z" fill="#263238"/>
<path d="M233.187 117.609C233.452 117.577 233.809 117.538 234.075 117.492C234.088 117.492 234.101 117.492 234.114 117.486C234.14 117.486 234.166 117.473 234.185 117.46C234.289 117.421 234.859 117.181 234.963 117.129C234.963 117.129 234.976 117.129 234.976 117.122C234.989 117.122 234.995 117.109 235.008 117.109C235.028 117.096 235.054 117.083 235.073 117.071C235.183 116.986 235.391 116.824 235.41 116.811C235.397 116.817 235.644 116.642 235.747 116.551C235.754 116.545 235.767 116.538 235.773 116.525C235.793 116.506 235.812 116.486 235.825 116.467C235.922 116.357 236.02 116.214 236.097 116.117C236.175 116.019 236.285 115.883 236.37 115.766C236.383 115.747 236.396 115.721 236.409 115.701C236.421 115.682 236.428 115.656 236.441 115.636C236.551 115.377 236.674 115.104 236.778 114.838C236.778 114.825 236.791 114.812 236.791 114.799C236.797 114.773 236.804 114.754 236.81 114.728C236.81 114.715 236.81 114.702 236.817 114.689C236.817 114.689 236.817 114.676 236.817 114.669C236.862 114.41 236.901 114.053 236.934 113.793C236.934 113.741 236.94 113.696 236.934 113.644C236.934 113.631 236.934 113.618 236.934 113.605C236.934 113.605 236.934 113.592 236.934 113.586C236.914 113.41 236.843 112.891 236.817 112.716C236.817 112.69 236.81 112.664 236.804 112.638C236.804 112.619 236.791 112.593 236.785 112.573C236.733 112.444 236.622 112.184 236.616 112.177C236.616 112.164 236.506 111.905 236.447 111.782C236.447 111.769 236.434 111.756 236.428 111.743C236.415 111.723 236.402 111.704 236.389 111.684C236.389 111.684 236.383 111.678 236.376 111.671C236.311 111.587 235.935 111.087 235.864 111.009C235.857 110.996 235.845 110.99 235.838 110.977C235.819 110.957 235.799 110.944 235.78 110.925C235.682 110.847 235.222 110.49 235.118 110.412C235.118 110.412 235.112 110.406 235.106 110.399C235.093 110.393 235.08 110.38 235.067 110.373C235.054 110.367 235.041 110.36 235.028 110.354C234.905 110.289 234.619 110.179 234.626 110.185C234.593 110.172 234.36 110.068 234.224 110.016C234.198 110.003 234.172 109.997 234.14 109.99C233.99 109.958 233.783 109.939 233.673 109.926C233.556 109.913 233.362 109.874 233.206 109.867C233.18 109.867 233.148 109.867 233.122 109.867C233.115 109.867 233.109 109.867 233.102 109.867C232.947 109.88 232.389 109.958 232.234 109.984C232.221 109.984 232.208 109.984 232.195 109.984C232.169 109.984 232.136 109.997 232.111 110.01C232.098 110.01 232.085 110.016 232.072 110.023C231.903 110.088 231.456 110.276 231.294 110.354C231.294 110.354 231.281 110.354 231.274 110.36C231.248 110.373 231.222 110.386 231.196 110.399C231.171 110.412 231.151 110.432 231.125 110.445C231.008 110.529 230.866 110.646 230.788 110.704C230.723 110.756 230.555 110.88 230.451 110.964C230.438 110.977 230.425 110.983 230.412 110.996C230.386 111.016 230.367 111.042 230.347 111.068C230.347 111.068 230.341 111.081 230.334 111.081C230.179 111.275 229.971 111.548 229.822 111.749C229.816 111.762 229.803 111.775 229.796 111.788C229.777 111.814 229.764 111.84 229.751 111.872C229.751 111.872 229.751 111.885 229.744 111.892C229.641 112.113 229.505 112.456 229.414 112.677C229.414 112.69 229.401 112.703 229.394 112.723C229.381 112.755 229.375 112.781 229.375 112.813C229.375 112.82 229.375 112.826 229.375 112.833L229.258 113.696V113.709C229.258 113.709 229.258 113.741 229.258 113.754C229.258 113.767 229.258 113.787 229.258 113.8C229.258 113.806 229.258 113.813 229.258 113.819C229.271 113.975 229.349 114.54 229.375 114.695C229.375 114.728 229.388 114.76 229.401 114.793C229.498 115.215 229.693 115.584 229.978 115.896C230.205 116.246 230.509 116.525 230.885 116.733C231.255 116.973 231.657 117.096 232.091 117.116C232.519 117.213 232.953 117.194 233.381 117.058L234.153 116.733C234.639 116.448 235.028 116.058 235.313 115.571L235.637 114.799C235.793 114.222 235.793 113.651 235.637 113.073C235.624 113.041 235.618 113.002 235.611 112.969L235.728 113.832C235.728 113.787 235.728 113.741 235.728 113.696L235.611 114.559C235.618 114.507 235.631 114.455 235.65 114.403L235.326 115.176C235.352 115.124 235.378 115.072 235.417 115.026L234.911 115.682C234.95 115.63 234.995 115.584 235.047 115.545L234.392 116.052C234.451 116.006 234.509 115.974 234.567 115.948L233.796 116.272C233.848 116.253 233.906 116.233 233.965 116.227L233.102 116.344C233.154 116.344 233.2 116.344 233.245 116.344L232.383 116.227C232.428 116.233 232.467 116.246 232.512 116.266L231.741 115.941C231.78 115.961 231.812 115.98 231.845 116L231.19 115.494C231.222 115.52 231.255 115.552 231.281 115.584L230.775 114.929C230.801 114.968 230.827 115.007 230.846 115.052L230.522 114.28C230.542 114.332 230.555 114.384 230.568 114.436L230.451 113.573C230.457 113.644 230.457 113.709 230.451 113.774L230.568 112.911C230.555 112.982 230.542 113.047 230.516 113.112L230.84 112.34C230.814 112.398 230.788 112.45 230.749 112.495L231.255 111.84C231.222 111.879 231.19 111.918 231.151 111.95L231.806 111.444C231.767 111.47 231.728 111.496 231.689 111.516L232.461 111.191C232.422 111.211 232.376 111.217 232.331 111.223L233.193 111.107H233.18C232.733 111.094 232.318 111.185 231.929 111.386C231.527 111.516 231.177 111.743 230.885 112.054C230.568 112.346 230.347 112.697 230.218 113.099C230.017 113.488 229.919 113.904 229.939 114.351L230.056 115.215C230.211 115.766 230.49 116.24 230.892 116.649L231.547 117.155C232.052 117.447 232.597 117.596 233.18 117.596L233.187 117.609Z" fill="#263238"/>
<path d="M253.27 112.43C253.276 112.32 253.393 111.457 253.296 112.048C253.199 112.638 253.328 111.885 253.348 111.775C253.425 111.34 253.529 110.912 253.646 110.484C253.756 110.094 253.879 109.705 254.022 109.322C254.08 109.16 254.229 108.926 254.242 108.751C254.048 109.212 254.015 109.283 254.158 108.965L254.242 108.783C254.618 107.985 255.066 107.219 255.571 106.493C255.688 106.33 255.824 106.168 255.928 105.993C255.5 106.713 255.772 106.194 255.928 106.006C256.206 105.662 256.505 105.331 256.816 105.013C257.127 104.695 257.445 104.39 257.775 104.091C257.931 103.955 258.086 103.825 258.242 103.696C258.715 103.287 257.685 104.098 258.229 103.696C258.916 103.196 259.629 102.735 260.381 102.339C260.563 102.242 260.744 102.151 260.926 102.067C261.017 102.021 261.107 101.982 261.205 101.937C261.522 101.794 261.451 101.827 260.991 102.021C261.269 102.06 261.84 101.703 262.138 101.606C262.527 101.483 262.916 101.379 263.318 101.288C263.519 101.243 263.713 101.204 263.914 101.165C264.05 101.139 264.18 101.119 264.316 101.1C263.791 101.165 263.707 101.178 264.063 101.139C264.952 101.035 265.697 100.847 266.358 100.191C266.922 99.6267 267.344 98.7052 267.305 97.894C267.233 96.3041 265.866 94.4416 264.063 94.6492C259.545 95.1684 255.409 97.1347 252.233 100.425C249.056 103.715 247.157 107.888 246.787 112.424C246.651 114.118 248.375 115.74 250.029 115.669C251.902 115.584 253.121 114.241 253.27 112.424V112.43Z" fill="#263238"/>
<path d="M261.315 113.981L262.897 111.697C263.136 111.327 263.26 110.925 263.279 110.49C263.376 110.062 263.357 109.627 263.221 109.199C263.123 108.777 262.929 108.407 262.644 108.095C262.417 107.745 262.112 107.466 261.736 107.258L260.965 106.934C260.388 106.778 259.817 106.778 259.24 106.934L258.469 107.258C257.983 107.544 257.594 107.933 257.309 108.42L255.727 110.704C255.487 111.074 255.364 111.476 255.344 111.911C255.247 112.339 255.267 112.774 255.403 113.203C255.5 113.624 255.694 113.994 255.98 114.306C256.207 114.656 256.511 114.935 256.887 115.143L257.659 115.467C258.236 115.623 258.806 115.623 259.383 115.467L260.154 115.143C260.641 114.857 261.03 114.468 261.315 113.981Z" fill="#263238"/>
<path d="M222.341 140.329C232.571 141.627 243.196 140.114 252.693 136.11C255.526 134.916 258.268 133.554 260.893 131.951C262.339 131.068 263.02 129.004 262.054 127.512C261.088 126.019 259.169 125.403 257.62 126.35C255.519 127.635 253.335 128.79 251.085 129.796C250.956 129.855 250.832 129.907 250.703 129.965C250.657 129.984 250.23 130.173 250.58 130.023C250.93 129.874 250.495 130.056 250.45 130.075C250.275 130.147 250.106 130.218 249.931 130.283C249.367 130.51 248.803 130.724 248.239 130.932C247.06 131.36 245.867 131.756 244.661 132.106C242.295 132.801 239.883 133.339 237.452 133.722C237.174 133.768 236.901 133.8 236.623 133.846C236.24 133.904 236.752 133.826 236.791 133.826C236.61 133.852 236.422 133.872 236.24 133.898C235.637 133.969 235.041 134.034 234.438 134.086C233.187 134.196 231.936 134.267 230.678 134.293C227.89 134.352 225.096 134.203 222.328 133.852C220.636 133.638 219.016 135.5 219.087 137.097C219.171 139.037 220.52 140.114 222.328 140.342L222.341 140.329Z" fill="#263238"/>
<path d="M211.788 118.492C207.133 114.325 200.78 116.616 196.314 119.841C191.847 123.067 187.705 127.123 184.269 131.659C182.447 134.066 180.852 136.63 179.478 139.31C178.707 140.822 179.037 142.898 180.639 143.749C182.123 144.534 184.249 144.196 185.073 142.587C186.162 140.458 187.393 138.401 188.768 136.441C189.098 135.968 189.435 135.507 189.786 135.046C189.863 134.942 189.948 134.832 190.025 134.728C189.636 135.241 189.922 134.858 190.006 134.754C190.2 134.514 190.395 134.267 190.589 134.027C191.348 133.099 192.139 132.204 192.956 131.334C194.596 129.595 196.359 127.966 198.226 126.474C198.362 126.363 198.505 126.253 198.641 126.143C198.608 126.169 198.219 126.461 198.511 126.246C198.725 126.084 198.933 125.928 199.146 125.766C199.633 125.409 200.119 125.052 200.624 124.721C201.052 124.436 201.5 124.163 201.953 123.91C202.2 123.774 202.453 123.644 202.705 123.514C202.816 123.462 202.926 123.411 203.036 123.359C203.509 123.132 202.939 123.346 202.932 123.398C202.971 123.183 204.534 122.865 204.747 122.814C204.89 122.781 205.713 122.645 205.227 122.703C204.741 122.762 205.623 122.69 205.804 122.684C206.05 122.684 206.323 122.749 206.569 122.723C206.452 122.736 205.83 122.547 206.342 122.716C206.472 122.762 206.621 122.794 206.757 122.827C206.939 122.865 207.081 122.814 206.77 122.814C206.459 122.814 206.66 122.755 206.867 122.878C206.99 122.95 207.114 123.034 207.237 123.106C207.587 123.3 206.653 122.606 207.198 123.086C208.462 124.215 210.549 124.429 211.781 123.086C212.916 121.853 213.129 119.705 211.781 118.498L211.788 118.492Z" fill="#263238"/>
<path d="M272.66 115.675C284.892 111.23 295.167 101.716 300.431 89.7755C301.922 86.3945 303.082 82.9162 303.744 79.282C304.048 77.6207 303.29 75.7063 301.481 75.291C299.893 74.9276 297.819 75.7712 297.494 77.5558C296.95 80.5215 296.081 83.3899 294.973 86.1869C294.85 86.5048 294.746 86.3556 295.025 86.0701C294.953 86.1414 294.882 86.3945 294.837 86.5048C294.675 86.8683 294.512 87.2252 294.344 87.5821C294.026 88.2635 293.683 88.9319 293.333 89.5938C292.645 90.8853 291.893 92.1377 291.083 93.3578C290.688 93.9483 290.279 94.5323 289.858 95.1099C289.741 95.2722 289.625 95.4279 289.501 95.5836C289.08 96.2066 289.378 95.7394 289.501 95.5836C289.281 95.9081 289.009 96.2066 288.756 96.5116C287.803 97.6733 286.792 98.7895 285.728 99.8472C284.665 100.905 283.55 101.917 282.39 102.871C282.144 103.073 281.897 103.267 281.651 103.468C281.042 103.955 282.053 103.176 281.651 103.468C281.489 103.585 281.333 103.708 281.178 103.825C280.575 104.273 279.959 104.701 279.337 105.117C277.956 106.032 276.523 106.875 275.045 107.628C274.306 108.005 273.561 108.361 272.796 108.692C272.653 108.757 272.504 108.822 272.361 108.881C273.133 108.576 272.439 108.842 272.258 108.913C271.817 109.088 271.376 109.257 270.929 109.419C269.34 109.997 268.096 111.652 268.666 113.41C269.172 114.974 270.948 116.298 272.653 115.675H272.66Z" fill="#263238"/>
</g>
<defs>
<clipPath id="clip0_322_158">
<rect width="329" height="378" fill="white"/>
</clipPath>
</defs>
</svg>
