<svg width="343" height="442" viewBox="0 0 343 442" fill="none" xmlns="http://www.w3.org/2000/svg">
<path d="M52.39 354.586C134.408 358.895 156.913 354.748 157.897 348.812C159.615 338.456 98.6922 305.677 67.4585 330.335C63.0605 333.807 56.1893 340.836 52.3844 354.586H52.39Z" fill="#576B80"/>
<path d="M43.6891 140.961L156.208 120.823L146.902 255.067L43.6891 292.467V140.961Z" fill="#89AFDD"/>
<path d="M57.0343 135.822C70.8662 135.487 84.603 133.33 98.088 130.354C111.506 127.394 124.728 123.626 137.983 120.031C141.699 119.028 145.409 117.974 149.157 117.111C150.125 116.888 151.099 116.681 152.073 116.509C152.559 116.419 153.046 116.341 153.539 116.269C153.667 116.252 154.255 116.18 153.729 116.241C153.998 116.208 154.261 116.18 154.529 116.152C156.487 115.951 158.463 115.923 160.421 116.118C161.881 116.263 163.28 114.731 163.219 113.332C163.146 111.698 161.988 110.701 160.421 110.545C153.36 109.837 146.332 112.011 139.589 113.822C132.847 115.633 126.334 117.445 119.698 119.229C106.464 122.785 93.1416 126.118 79.5839 128.202C78.6214 128.353 77.6534 128.492 76.691 128.626C76.5176 128.648 76.3385 128.676 76.165 128.698C75.9916 128.721 75.8125 128.749 75.6391 128.771C75.9021 128.737 75.93 128.732 75.723 128.76C75.2418 128.821 74.755 128.888 74.2738 128.944C72.4273 129.172 70.5752 129.378 68.7231 129.551C64.8343 129.919 60.9343 130.153 57.0287 130.248C55.5683 130.281 54.1638 131.502 54.231 133.035C54.2981 134.568 55.4619 135.861 57.0287 135.822H57.0343Z" fill="#263238"/>
<path d="M155.71 166.444C151.077 170.903 150.053 178.322 153.169 183.906C153.88 185.183 155.749 185.707 156.997 184.904C158.244 184.102 158.759 182.457 157.998 181.092C157.853 180.835 157.73 180.568 157.595 180.306C157.433 179.999 157.786 180.83 157.612 180.339C157.567 180.217 157.523 180.094 157.478 179.971C157.288 179.42 157.142 178.845 157.036 178.271C157.019 178.171 157.013 177.647 156.997 178.06C156.98 178.472 157.002 178.048 156.997 177.943C156.974 177.647 156.957 177.357 156.952 177.062C156.952 176.733 156.957 176.41 156.98 176.081C156.991 175.953 157.002 175.819 157.013 175.691C157.058 175.156 156.935 176.103 157.002 175.752C157.114 175.172 157.226 174.598 157.399 174.03C157.489 173.745 157.59 173.472 157.69 173.199C157.825 172.837 157.635 173.194 157.635 173.322C157.635 173.194 157.791 172.993 157.847 172.882C158.11 172.358 158.412 171.85 158.754 171.371C158.798 171.304 159.084 170.97 158.832 171.26C158.552 171.583 158.927 171.154 158.989 171.087C159.207 170.842 159.436 170.607 159.671 170.379C160.723 169.364 160.774 167.442 159.671 166.438C158.569 165.435 156.84 165.357 155.715 166.438L155.71 166.444Z" fill="#263238"/>
<path d="M160.309 169.889C175.579 168.11 190.927 167.063 206.298 166.756C210.651 166.667 214.999 166.645 219.352 166.672C220.818 166.684 222.217 165.385 222.15 163.886C222.083 162.386 220.919 161.11 219.352 161.099C203.982 160.993 188.605 161.617 173.296 162.977C168.96 163.362 164.634 163.808 160.309 164.309C158.86 164.476 157.439 165.469 157.511 167.096C157.573 168.462 158.754 170.061 160.309 169.883V169.889Z" fill="#263238"/>
<path d="M220.594 159.499C214.204 166.427 211.692 176.488 214.199 185.584C214.585 186.989 216.202 187.992 217.64 187.529C219.078 187.067 220.012 185.606 219.593 184.102C219.341 183.187 218.988 182.123 218.972 181.164C218.988 181.945 218.955 181.003 218.938 180.841C218.916 180.629 218.899 180.412 218.882 180.2C218.843 179.704 218.826 179.202 218.821 178.701C218.809 177.703 218.86 176.7 218.966 175.702C218.983 175.557 219 175.418 219.016 175.278C218.96 175.663 218.96 175.696 219.005 175.384C219.039 175.172 219.072 174.961 219.112 174.749C219.207 174.219 219.313 173.695 219.442 173.171C219.677 172.196 219.973 171.237 220.32 170.301C220.41 170.067 220.499 169.833 220.594 169.599C220.801 169.069 220.393 170.045 220.695 169.376C220.902 168.919 221.12 168.467 221.355 168.027C221.82 167.141 222.34 166.282 222.911 165.463C223.056 165.257 223.202 165.056 223.347 164.855C223.672 164.398 223.045 165.218 223.504 164.655C223.84 164.237 224.198 163.835 224.562 163.44C225.552 162.364 225.709 160.547 224.562 159.499C223.482 158.512 221.663 158.351 220.606 159.499H220.594Z" fill="#263238"/>
<path d="M222.021 163.651L232.345 165.669L230.672 161.578C225.423 170.089 223.907 180.69 226.492 190.333C226.872 191.743 228.501 192.741 229.933 192.278C231.366 191.816 232.294 190.361 231.886 188.85C231.584 187.73 231.338 186.593 231.153 185.445C231.114 185.194 231.047 184.77 231.119 185.267C231.075 184.96 231.041 184.653 231.013 184.341C230.957 183.801 230.918 183.26 230.884 182.719C230.823 181.56 230.817 180.395 230.873 179.236C230.901 178.695 230.94 178.154 230.991 177.614C231.013 177.38 231.035 177.151 231.063 176.923C231.08 176.767 231.103 176.616 231.119 176.46C231.069 176.817 231.069 176.833 231.119 176.51C231.483 174.286 231.998 172.107 232.759 169.983C232.943 169.47 233.139 168.969 233.346 168.467C233.095 169.075 233.425 168.294 233.481 168.172C233.593 167.927 233.704 167.681 233.822 167.436C234.326 166.388 234.891 165.374 235.501 164.382C236.39 162.938 235.596 160.63 233.828 160.29L223.504 158.273C222.072 157.994 220.415 158.674 220.063 160.218C219.749 161.6 220.482 163.345 222.016 163.646L222.021 163.651Z" fill="#263238"/>
<path d="M219.358 189.051L227.471 188.895C228.932 188.867 230.336 187.635 230.269 186.108C230.202 184.581 229.038 183.293 227.471 183.321L219.358 183.477C217.897 183.505 216.493 184.737 216.56 186.264C216.627 187.791 217.791 189.079 219.358 189.051Z" fill="#263238"/>
<path d="M156.784 188.377C173.408 187.73 190.038 187.078 206.662 186.431C211.306 186.247 215.95 186.069 220.594 185.885C222.055 185.829 223.459 184.642 223.392 183.098C223.325 181.638 222.161 180.25 220.594 180.311C203.97 180.958 187.341 181.61 170.717 182.257C166.072 182.44 161.428 182.619 156.784 182.803C155.324 182.858 153.919 184.046 153.986 185.59C154.053 187.05 155.217 188.438 156.784 188.377Z" fill="#263238"/>
<path d="M233.262 166.806C245.891 165.797 258.571 165.335 271.239 165.435C274.814 165.463 278.384 165.535 281.959 165.652C283.425 165.702 284.824 164.337 284.757 162.865C284.69 161.316 283.526 160.129 281.959 160.079C269.291 159.666 256.612 159.805 243.961 160.508C240.391 160.703 236.827 160.948 233.262 161.232C231.808 161.349 230.392 162.431 230.465 164.019C230.526 165.429 231.701 166.929 233.262 166.806Z" fill="#263238"/>
<path d="M232.093 187.908C243.815 188.299 255.532 188.689 267.255 189.079L277.298 189.413C278.764 189.463 280.163 188.098 280.096 186.626C280.029 185.077 278.865 183.89 277.298 183.84C265.576 183.449 253.859 183.059 242.137 182.669L232.093 182.335C230.627 182.284 229.228 183.65 229.295 185.121C229.362 186.671 230.526 187.858 232.093 187.908Z" fill="#263238"/>
<path d="M289.071 151.584C285.361 156.734 282.62 162.631 281.047 168.774C280.298 171.706 279.732 174.766 279.609 177.792C279.509 180.306 279.755 182.981 280.645 185.356C281.221 186.888 281.954 188.237 283.034 189.475C284.114 190.712 285.513 191.537 287.029 192.145C288.389 192.691 290.162 191.548 290.47 190.199C290.839 188.583 289.972 187.357 288.517 186.771C289.284 187.078 288.489 186.738 288.31 186.643C288.215 186.593 287.74 186.22 287.661 186.231C287.7 186.225 288.187 186.677 287.829 186.359C287.745 186.287 287.661 186.214 287.577 186.136C287.37 185.947 287.174 185.746 286.995 185.534C286.951 185.484 286.85 185.322 286.783 185.278C287.13 185.506 287.068 185.673 286.917 185.434C286.777 185.216 286.637 185.01 286.509 184.787C286.38 184.564 286.257 184.33 286.145 184.096C286.111 184.029 286.044 183.812 285.999 183.778C286.156 184.146 286.19 184.235 286.111 184.035C286.078 183.951 286.05 183.868 286.016 183.784C285.843 183.305 285.697 182.814 285.574 182.318C285.518 182.078 285.468 181.839 285.417 181.599C285.389 181.448 285.361 181.298 285.339 181.142L285.311 180.958C285.289 180.795 285.289 180.795 285.311 180.958L285.339 181.142C285.322 181.019 285.311 180.897 285.3 180.768C285.289 180.646 285.278 180.518 285.266 180.395C285.244 180.144 285.233 179.899 285.222 179.648C285.194 179.057 285.194 178.467 285.216 177.876C285.233 177.357 285.272 176.839 285.322 176.326C285.356 176.025 285.389 175.73 285.429 175.429C285.518 174.654 285.367 175.808 285.44 175.334C285.473 175.133 285.496 174.938 285.529 174.738C285.753 173.305 286.044 171.889 286.397 170.485C286.749 169.08 287.163 167.692 287.639 166.321C287.863 165.675 288.103 165.034 288.355 164.398C288.417 164.248 288.473 164.097 288.534 163.952C288.562 163.88 288.758 163.406 288.624 163.729C288.467 164.114 288.775 163.384 288.769 163.395C288.847 163.211 288.931 163.027 289.015 162.843C290.364 159.872 292.009 157.041 293.917 154.393C294.773 153.206 294.163 151.239 292.915 150.581C291.472 149.817 290 150.313 289.088 151.579L289.071 151.584Z" fill="#263238"/>
<path d="M293.536 153.178C297.117 153.646 300.699 154.115 304.28 154.577L301.583 151.049C297.694 161.121 297.699 172.737 301.404 182.858C302.478 185.796 303.826 188.633 305.483 191.292C306.255 192.529 308.017 193.12 309.31 192.289C310.602 191.459 311.14 189.803 310.312 188.477C309.629 187.379 308.991 186.253 308.409 185.099C308.135 184.558 307.878 184.007 307.626 183.455C307.553 183.293 307.223 182.491 307.458 183.076C307.329 182.758 307.2 182.446 307.077 182.123C306.16 179.748 305.455 177.296 304.962 174.799C304.845 174.202 304.744 173.606 304.649 173.004C304.627 172.859 304.582 172.692 304.582 172.553C304.582 172.642 304.655 173.155 304.593 172.614C304.554 172.274 304.509 171.934 304.476 171.594C304.347 170.345 304.274 169.097 304.252 167.843C304.229 166.589 304.263 165.335 304.347 164.086C304.386 163.478 304.442 162.877 304.509 162.269C304.526 162.118 304.543 161.968 304.559 161.818C304.571 161.723 304.638 161.238 304.582 161.622C304.526 162.007 304.599 161.522 304.61 161.427C304.638 161.238 304.666 161.054 304.699 160.864C305.164 158.016 305.925 155.224 306.965 152.526C307.279 151.718 306.965 150.742 306.467 150.096C305.886 149.343 305.186 149.115 304.268 148.998C300.687 148.53 297.106 148.061 293.525 147.599C292.07 147.409 290.666 149.015 290.728 150.386C290.8 152.058 291.964 152.966 293.525 153.173L293.536 153.178Z" fill="#263238"/>
<path d="M282.855 195.322C287.549 197.746 292.949 198.828 298.214 198.125C299.658 197.936 301.085 196.983 301.012 195.338C300.95 193.995 299.77 192.345 298.214 192.551C297.084 192.702 295.948 192.78 294.812 192.763C294.241 192.758 293.676 192.73 293.106 192.68C292.781 192.652 292.456 192.618 292.138 192.579C292.803 192.663 291.931 192.54 291.796 192.518C290.677 192.323 289.569 192.05 288.489 191.693C288.221 191.604 287.952 191.509 287.684 191.414C287.533 191.359 287.381 191.297 287.23 191.242C286.967 191.136 286.928 191.119 287.113 191.197C287.298 191.275 287.258 191.258 287.001 191.147C286.85 191.08 286.704 191.013 286.559 190.946C286.262 190.807 285.977 190.662 285.686 190.511C284.388 189.843 282.586 190.132 281.859 191.509C281.182 192.791 281.473 194.608 282.86 195.322H282.855Z" fill="#263238"/>
<path d="M304.464 150.832C305.505 151.807 306.703 152.9 307.475 154.109C307.049 153.44 307.637 154.338 307.732 154.471C307.939 154.756 308.141 155.045 308.336 155.341C308.75 155.954 309.137 156.584 309.506 157.225C309.875 157.866 310.188 158.462 310.496 159.098C310.636 159.387 310.77 159.677 310.905 159.973C310.983 160.145 311.078 160.324 311.14 160.502C310.888 159.772 311.123 160.48 311.19 160.641C311.727 161.99 312.169 163.373 312.527 164.777C312.701 165.468 312.857 166.16 312.986 166.856C313.048 167.174 313.104 167.492 313.154 167.809C313.182 167.977 313.26 168.216 313.238 168.383C313.305 167.776 313.204 168.127 313.238 168.411C313.417 169.888 313.495 171.371 313.479 172.859C313.473 173.506 313.445 174.147 313.406 174.793C313.378 175.178 313.35 175.562 313.305 175.947C313.294 176.075 313.277 176.203 313.266 176.332C313.249 176.46 313.238 176.588 313.221 176.716C313.182 177.028 313.188 176.973 313.244 176.549C313.294 176.817 313.137 177.229 313.092 177.502C313.025 177.881 312.953 178.26 312.874 178.639C312.729 179.33 312.561 180.016 312.371 180.701C312.147 181.504 311.889 182.301 311.599 183.081C311.475 183.41 311.369 183.856 311.179 184.157C311.559 183.566 311.24 184.018 311.156 184.202C311.073 184.386 311 184.553 310.916 184.726C310.205 186.247 309.36 187.697 308.404 189.073C307.564 190.277 308.141 192.222 309.405 192.886C310.832 193.638 312.343 193.17 313.232 191.888C320.607 181.303 320.803 166.689 314.894 155.419C313.238 152.259 311.028 149.332 308.42 146.885C307.357 145.888 305.505 145.754 304.464 146.885C303.424 148.017 303.328 149.761 304.464 150.826V150.832Z" fill="#263238"/>
<path d="M160.818 108.956C157.528 124.886 157.064 141.234 159.352 157.331C159.985 161.79 160.846 166.215 161.921 170.591C162.268 172.006 163.952 172.993 165.362 172.536C166.772 172.079 167.69 170.624 167.315 169.108C166.38 165.29 165.602 161.433 165.004 157.554C164.931 157.074 164.858 156.595 164.785 156.11C164.752 155.893 164.724 155.675 164.69 155.452C164.674 155.319 164.595 154.744 164.668 155.274C164.528 154.226 164.405 153.173 164.287 152.119C164.075 150.191 163.907 148.251 163.784 146.311C163.275 138.558 163.426 130.761 164.237 123.035C164.349 121.982 164.472 120.928 164.606 119.881C164.612 119.825 164.73 118.955 164.646 119.568C164.696 119.217 164.741 118.866 164.791 118.521C164.869 117.997 164.948 117.473 165.026 116.949C165.367 114.769 165.765 112.596 166.212 110.433C166.509 109.012 165.798 107.356 164.26 107.005C162.861 106.687 161.132 107.423 160.818 108.95V108.956Z" fill="#263238"/>
<path d="M62.3444 129.512C60.2237 139.383 58.4276 149.321 56.9784 159.309C55.5291 169.298 54.3653 179.531 53.5707 189.698C52.7762 199.864 52.3341 209.847 52.2278 219.941C52.1159 230.035 52.3509 240.129 52.9161 250.207C53.4868 260.284 54.3933 270.339 55.6466 280.355C55.7977 281.581 55.96 282.807 56.1223 284.034C56.3125 285.472 57.2693 286.893 58.92 286.821C60.2685 286.759 61.9247 285.583 61.7177 284.034C60.3916 274.079 59.4012 264.08 58.7465 254.052C58.0918 244.025 57.7785 233.987 57.7953 223.943C57.8121 213.899 58.1702 203.855 58.8584 193.839C59.1997 188.856 59.6306 183.873 60.1398 178.901C60.3972 176.393 60.6769 173.885 60.9735 171.377C61.119 170.15 61.27 168.919 61.4267 167.692C61.5107 167.057 61.589 166.416 61.6729 165.781C61.6897 165.636 61.7121 165.485 61.7289 165.34C61.7289 165.346 61.7904 164.861 61.7569 165.123C61.7233 165.385 61.7848 164.9 61.7848 164.906C61.8128 164.71 61.8408 164.515 61.8632 164.315C63.2284 154.366 64.9295 144.461 66.9662 134.623C67.218 133.414 67.4698 132.199 67.7328 130.995C68.0405 129.573 67.3075 127.912 65.78 127.567C64.3699 127.249 62.6689 127.99 62.3388 129.512H62.3444Z" fill="#263238"/>
<path d="M56.6706 225.058C61.0574 220.916 65.6512 216.998 70.4129 213.291C71.0452 212.795 71.118 212.745 71.7559 212.255C72.3546 211.798 72.9589 211.346 73.5632 210.895C74.7718 209.992 75.9916 209.105 77.2226 208.23C79.679 206.48 82.1745 204.775 84.6925 203.114C94.7307 196.509 105.217 190.606 115.909 185.127C127.139 179.369 138.576 174.013 150.125 168.93C161.837 163.774 173.61 158.981 185.718 154.438C197.827 149.895 210.081 145.67 222.435 141.791C223.991 141.301 225.552 140.821 227.113 140.342C228.512 139.913 229.541 138.374 229.066 136.914C228.59 135.454 227.124 134.506 225.625 134.969C213.141 138.798 200.764 142.967 188.516 147.476C176.139 152.03 163.896 156.941 151.787 162.169C139.679 167.397 128.432 172.603 117.006 178.338C106.173 183.773 95.5196 189.592 85.2912 196.096C75.0627 202.601 65.1197 209.908 56.0439 218.057C54.9192 219.066 53.8113 220.091 52.7146 221.128C51.6179 222.165 51.6235 224.071 52.7146 225.069C53.8057 226.066 55.5347 226.139 56.6706 225.069V225.058Z" fill="#263238"/>
<path d="M184.414 186.838C181.113 194.279 177.056 201.375 172.323 208.002C171.724 208.838 171.12 209.668 170.498 210.488C170.202 210.884 169.9 211.274 169.598 211.669C169.928 211.24 169.525 211.764 169.402 211.915C169.239 212.126 169.072 212.333 168.904 212.539C167.622 214.144 166.302 215.722 164.942 217.26C162.245 220.314 159.397 223.229 156.409 226C154.731 227.549 153.013 229.054 151.25 230.509C150.372 231.233 149.476 231.952 148.576 232.649C148.486 232.722 148.396 232.788 148.307 232.861C148.497 232.71 148.559 232.671 148.329 232.844C148.089 233.028 147.843 233.212 147.602 233.396C147.115 233.764 146.623 234.126 146.13 234.483C144.955 235.341 144.25 236.941 145.129 238.295C145.879 239.455 147.691 240.218 148.956 239.293C155.799 234.299 162.15 228.664 167.835 222.393C173.486 216.162 178.533 209.351 182.82 202.116C185.203 198.092 187.346 193.928 189.243 189.653C189.831 188.321 189.68 186.599 188.242 185.841C187.027 185.2 185.047 185.417 184.414 186.838Z" fill="#263238"/>
<path d="M157.019 188.505C152.134 201.993 149.241 216.179 148.369 230.487C148.122 234.505 148.05 238.529 148.134 242.554C148.161 244.009 149.398 245.408 150.931 245.341C152.464 245.274 153.763 244.114 153.729 242.554C153.578 235.514 153.93 228.463 154.792 221.468C154.842 221.078 154.893 220.688 154.943 220.298C155.055 219.434 154.865 220.861 154.982 219.997C155.005 219.824 155.033 219.651 155.055 219.478C155.184 218.57 155.324 217.661 155.469 216.753C155.749 215.025 156.057 213.303 156.398 211.586C157.086 208.108 157.898 204.658 158.838 201.241C159.878 197.445 161.076 193.688 162.419 189.988C162.917 188.616 161.859 186.877 160.466 186.56C158.894 186.203 157.556 187.033 157.025 188.505H157.019Z" fill="#263238"/>
<path d="M76.0419 219.813C74.4864 214.557 73.0036 209.261 72.1979 203.833C72.1755 203.688 72.0692 202.885 72.1307 203.387C72.086 203.036 72.0412 202.684 72.002 202.328C71.9237 201.625 71.8566 200.918 71.8062 200.21C71.7111 198.883 71.6663 197.551 71.6775 196.219C71.6887 195.06 71.7447 193.906 71.8566 192.752C71.8789 192.501 71.9069 192.245 71.9349 191.994C71.9517 191.855 71.9629 191.699 71.9853 191.559C71.8622 192.183 71.9517 191.793 71.9741 191.648C72.0636 191.074 72.1531 190.495 72.265 189.926C72.6903 187.736 73.3505 185.64 74.1395 183.561C74.285 183.182 73.9437 183.996 74.1115 183.628C74.1675 183.494 74.229 183.366 74.285 183.232C74.3857 183.003 74.492 182.775 74.6039 182.546C74.8557 182.028 75.1187 181.515 75.3985 181.014C75.9412 180.044 76.5343 179.107 77.1946 178.21C77.3289 178.026 77.6366 177.541 77.3457 178.004C77.4968 177.77 77.7094 177.552 77.894 177.34C78.241 176.934 78.6046 176.532 78.9795 176.148C79.3544 175.763 79.7461 175.384 80.149 175.027C80.3728 174.827 80.5966 174.637 80.826 174.448C80.9771 174.325 81.615 173.84 81.145 174.186C83.0139 172.809 85.0282 171.683 87.1489 170.752C87.1992 170.73 87.5462 170.585 87.2272 170.719C86.8579 170.869 87.4454 170.63 87.5182 170.602C87.8315 170.479 88.1505 170.357 88.4694 170.24C89.0737 170.017 89.678 169.805 90.2879 169.61C91.5189 169.214 92.7667 168.863 94.0201 168.545C96.6052 167.887 99.2238 167.369 101.848 166.862C103.286 166.583 104.243 164.788 103.801 163.434C103.303 161.907 101.904 161.188 100.36 161.489C90.7915 163.345 80.44 165.702 73.8597 173.489C67.2795 181.276 65.2987 192.039 66.3674 202.066C67.0669 208.626 68.7567 214.986 70.6312 221.295C71.0452 222.694 72.6175 223.709 74.0724 223.24C75.5272 222.772 76.4728 221.312 76.0252 219.813H76.0419Z" fill="#263238"/>
<path d="M89.1632 183.851C89.2248 183.89 89.2807 183.934 89.3367 183.979L88.7715 183.544C89.0345 183.751 89.2639 183.985 89.4709 184.252L89.0345 183.689C89.2471 183.979 89.4262 184.286 89.5661 184.614L89.2863 183.951C89.4318 184.308 89.5269 184.67 89.5829 185.055L89.4821 184.313C89.5269 184.693 89.5325 185.072 89.4821 185.451L89.5829 184.709C89.5325 185.038 89.4486 185.356 89.3255 185.668L89.6052 185.005C89.5493 185.138 89.4877 185.261 89.415 185.389L94.5292 186.052C94.5124 185.958 94.5012 185.863 94.4845 185.768L94.5852 186.51C94.5012 185.846 94.5068 185.183 94.5908 184.52L94.4901 185.261C94.5852 184.598 94.7642 183.957 95.0216 183.344H89.6276C89.65 183.411 89.6668 183.472 89.678 183.539L89.5773 182.797C89.5885 182.875 89.5885 182.953 89.5773 183.032L89.678 182.29C89.6668 182.379 89.6444 182.469 89.6108 182.552L89.8906 181.889C89.8514 181.972 89.8067 182.051 89.7507 182.129L90.1872 181.566C90.1088 181.666 90.0193 181.755 89.9186 181.839L90.4837 181.404C90.3494 181.504 90.2039 181.588 90.0473 181.655L90.7131 181.376C90.5565 181.437 90.3942 181.482 90.2263 181.504L90.9705 181.404C90.8418 181.415 90.7131 181.421 90.5844 181.404L91.3286 181.504C91.2167 181.488 91.116 181.46 91.0153 181.421L91.6812 181.699C91.6084 181.666 91.5469 181.633 91.4853 181.588L92.0504 182.023C91.9777 181.967 91.9106 181.9 91.8546 181.828L92.2911 182.391C92.2407 182.318 92.2015 182.251 92.168 182.173C91.905 181.577 91.0936 181.058 90.4949 180.891C89.8235 180.707 88.9338 180.791 88.3407 181.17C87.7476 181.549 87.216 182.123 87.0537 182.836L86.953 183.578C86.953 184.079 87.0817 184.548 87.3335 184.982C87.4958 185.35 87.7699 185.685 88.0721 185.947C88.5533 186.365 89.0681 186.693 89.7004 186.85C90.092 186.944 90.5173 187.011 90.9202 186.983C91.323 186.955 91.7819 186.905 92.1791 186.76C93.1863 186.393 94.0144 185.824 94.6076 184.91C95.2007 183.996 95.335 182.848 95.016 181.867C94.8258 181.281 94.5068 180.796 94.0144 180.417C93.522 180.038 92.9345 179.793 92.319 179.821C91.821 179.843 91.3454 179.972 90.909 180.2C90.5844 180.373 90.3215 180.613 90.1256 180.919C89.8794 181.187 89.7116 181.504 89.6276 181.867C89.2471 182.77 89.0905 183.695 88.9786 184.67C88.8666 185.646 88.9786 186.588 89.1352 187.541L89.415 188.204L89.8514 188.767C90.2879 189.202 90.853 189.452 91.4573 189.536C91.9665 189.603 92.4309 189.547 92.9065 189.347C93.4493 189.118 93.9529 188.733 94.2439 188.204C95.1055 186.654 95.3014 184.876 94.8985 183.16C94.7307 182.452 94.4341 181.733 94.0312 181.12C93.4717 180.261 92.8338 179.637 91.9889 179.057C91.4182 178.662 90.4781 178.6 89.8347 178.779C89.1912 178.957 88.4806 179.459 88.1616 180.061C87.8203 180.707 87.6468 181.493 87.8818 182.207C88.1169 182.92 88.5421 183.438 89.1688 183.873L89.1632 183.851Z" fill="#263238"/>
<path d="M120.576 205.906C119.781 203.671 119.11 201.391 118.601 199.073C118.343 197.913 118.125 196.743 117.952 195.567C117.924 195.383 117.834 194.664 117.896 195.216C117.862 194.931 117.823 194.647 117.795 194.363C117.728 193.755 117.672 193.142 117.627 192.535C117.454 190.183 117.454 187.814 117.65 185.467C117.694 184.904 117.756 184.341 117.823 183.778C117.89 183.215 117.834 183.689 117.823 183.795C117.84 183.672 117.857 183.555 117.873 183.433C117.929 183.07 117.985 182.714 118.052 182.357C118.254 181.242 118.5 180.139 118.797 179.046C119.116 177.876 119.49 176.716 119.927 175.585C120.016 175.356 120.106 175.133 120.195 174.905C120.397 174.409 120.24 174.793 120.195 174.894C120.251 174.771 120.307 174.643 120.358 174.52C120.565 174.052 120.789 173.589 121.024 173.132C121.477 172.246 121.969 171.382 122.501 170.541C122.758 170.134 123.027 169.732 123.301 169.342C123.418 169.175 123.536 169.008 123.659 168.841C123.737 168.729 123.821 168.618 123.905 168.506C123.956 168.439 124.314 167.971 124.062 168.294C123.833 168.595 124.303 167.999 124.358 167.932C124.51 167.748 124.666 167.559 124.823 167.38C125.159 166.99 125.5 166.605 125.852 166.226C126.535 165.502 127.246 164.805 127.996 164.147C128.354 163.83 128.723 163.518 129.092 163.217C129.171 163.15 129.254 163.088 129.333 163.022C129.657 162.76 129.254 162.999 129.254 163.077C129.254 162.977 129.831 162.648 129.915 162.587C130.715 162.013 131.543 161.472 132.399 160.976C133.339 160.43 134.307 159.939 135.298 159.505C135.387 159.465 135.801 159.304 135.432 159.449C135.023 159.605 135.633 159.371 135.661 159.36C135.913 159.259 136.165 159.165 136.422 159.075C136.931 158.897 137.446 158.73 137.961 158.579C139.002 158.278 140.054 158.061 141.122 157.883C141.632 157.799 141.055 157.883 140.983 157.899C141.145 157.866 141.318 157.86 141.486 157.838C141.755 157.81 142.029 157.782 142.297 157.765C142.874 157.721 143.456 157.704 144.032 157.699C145.492 157.693 146.897 156.422 146.83 154.912C146.763 153.401 145.599 152.114 144.032 152.125C135.124 152.175 126.664 156.684 120.934 163.356C114.477 170.875 111.64 180.646 111.931 190.456C112.104 196.219 113.257 201.96 115.188 207.389C115.674 208.76 117.118 209.825 118.629 209.334C119.983 208.899 121.108 207.378 120.582 205.906H120.576Z" fill="#263238"/>
<path d="M141.844 179.676C141.844 179.676 141.883 179.704 141.906 179.72L141.341 179.286C141.436 179.364 141.52 179.447 141.598 179.542L141.162 178.979C141.246 179.091 141.318 179.213 141.374 179.341L141.094 178.678C141.15 178.823 141.19 178.968 141.218 179.124L141.117 178.383C141.145 178.589 141.145 178.795 141.117 178.996L141.218 178.255C141.184 178.461 141.134 178.661 141.05 178.857L141.329 178.193C141.251 178.372 141.156 178.539 141.039 178.7L141.475 178.138C141.374 178.271 141.257 178.388 141.122 178.489L141.688 178.054C141.576 178.138 141.453 178.21 141.324 178.266L141.99 177.987C141.867 178.037 141.738 178.071 141.609 178.087L142.353 177.987C142.303 177.993 142.253 177.998 142.202 177.998L144.899 181.526C145.196 180.545 145.492 179.564 145.795 178.583C145.912 178.216 145.929 177.842 145.845 177.474C145.828 177.101 145.716 176.755 145.515 176.438C145.341 176.114 145.101 175.852 144.793 175.657C144.524 175.412 144.206 175.245 143.842 175.161C143.126 174.999 142.32 175.033 141.688 175.44C141.055 175.847 140.619 176.393 140.401 177.106C140.104 178.087 139.808 179.068 139.505 180.049C139.371 180.545 139.371 181.036 139.505 181.532C139.589 181.894 139.757 182.212 140.003 182.479C140.199 182.78 140.462 183.02 140.787 183.199C141.223 183.449 141.693 183.578 142.197 183.578C142.51 183.561 142.835 183.516 143.142 183.455C143.226 183.438 143.305 183.421 143.389 183.394C143.674 183.293 143.965 183.171 144.234 183.037C144.306 182.998 144.379 182.959 144.446 182.909C144.754 182.691 145.09 182.463 145.341 182.173C145.593 181.883 145.851 181.577 146.041 181.237C146.231 180.897 146.377 180.534 146.5 180.166C146.623 179.799 146.656 179.369 146.701 178.979C146.718 178.818 146.729 178.65 146.712 178.489C146.679 178.104 146.651 177.686 146.522 177.313C146.421 177.012 146.293 176.716 146.153 176.438C146.114 176.359 146.069 176.281 146.018 176.209C145.839 175.958 145.649 175.691 145.431 175.468C145.213 175.245 144.927 175.055 144.67 174.866C144.351 174.659 144.004 174.554 143.629 174.537C143.26 174.453 142.885 174.47 142.516 174.587C142.152 174.671 141.833 174.838 141.564 175.083C141.262 175.278 141.022 175.54 140.843 175.863C140.501 176.51 140.328 177.296 140.563 178.009L140.843 178.673C141.089 179.091 141.425 179.425 141.844 179.67V179.676Z" fill="#263238"/>
<path d="M149.834 239.109C138.733 240.252 127.738 242.375 117.034 245.524C106.308 248.685 95.8609 252.843 85.8955 257.904C80.3784 260.707 75.0124 263.795 69.8198 267.156C68.5944 267.948 67.9733 269.664 68.8182 270.969C69.6072 272.189 71.3362 272.819 72.6455 271.966C77.217 269.007 81.9283 266.253 86.7572 263.728C89.152 262.474 91.5804 261.276 94.0312 260.133C95.2566 259.559 96.4876 259.002 97.7242 258.461C98.3229 258.199 98.9272 257.937 99.5315 257.681C99.6546 257.631 100.533 257.263 99.996 257.486C100.376 257.33 100.751 257.174 101.132 257.018C111.142 252.91 121.527 249.71 132.119 247.475C135.13 246.84 138.151 246.282 141.19 245.809C141.917 245.692 142.65 245.586 143.377 245.48C143.741 245.43 144.11 245.374 144.474 245.324C144.636 245.301 144.799 245.279 144.961 245.257C144.301 245.346 145.118 245.235 145.19 245.229C146.735 245.028 148.285 244.85 149.834 244.688C151.284 244.538 152.705 243.512 152.632 241.901C152.571 240.519 151.396 238.953 149.834 239.115V239.109Z" fill="#263238"/>
<path d="M90.6684 256.611C87.4119 267.931 84.9499 279.474 83.3104 291.135C81.6598 302.873 80.7757 314.7 80.7645 326.556C80.7533 333.194 81.0163 339.833 81.5311 346.454C81.643 347.903 82.7341 349.314 84.3288 349.241C85.75 349.18 87.2496 348.009 87.1265 346.454C86.2145 334.805 86.1193 323.095 86.8356 311.429C87.1937 305.598 87.7588 299.779 88.5198 293.983C88.5422 293.81 88.5645 293.632 88.5925 293.459C88.5757 293.576 88.5198 293.972 88.5981 293.409C88.6485 293.057 88.6932 292.706 88.7436 292.355C88.8443 291.653 88.945 290.951 89.0513 290.254C89.2752 288.766 89.5102 287.278 89.762 285.795C90.2488 282.913 90.7859 280.043 91.3678 277.178C92.6828 270.757 94.2495 264.392 96.0624 258.093C96.4653 256.694 95.57 254.994 94.1096 254.665C92.6492 254.337 91.0993 255.111 90.6684 256.611Z" fill="#263238"/>
<path d="M125.276 246.171C122.064 257.519 119.485 269.04 117.549 280.673C115.585 292.461 114.259 304.356 113.599 316.284C113.235 322.883 113.084 329.493 113.128 336.104C113.14 337.559 114.41 338.958 115.926 338.891C117.443 338.824 118.735 337.664 118.724 336.104C118.64 324.404 119.194 312.7 120.397 301.062C120.699 298.13 121.04 295.204 121.427 292.277C121.449 292.099 121.471 291.921 121.499 291.748C121.51 291.659 121.572 291.202 121.505 291.692C121.555 291.335 121.6 290.984 121.65 290.627C121.751 289.92 121.852 289.212 121.952 288.504C122.165 287.043 122.389 285.589 122.618 284.134C123.542 278.36 124.627 272.607 125.864 266.889C127.263 260.429 128.868 254.013 130.67 247.654C131.067 246.249 130.183 244.56 128.717 244.226C127.251 243.891 125.701 244.672 125.276 246.171Z" fill="#263238"/>
<path d="M123.855 232.733C123.793 232.604 123.553 232.002 123.676 232.381C123.816 232.799 123.586 232.114 123.553 232.008C123.396 231.529 123.284 231.044 123.189 230.553C123.094 230.063 123.245 231.172 123.178 230.459C123.156 230.241 123.144 230.024 123.133 229.801C123.116 229.333 123.133 228.859 123.178 228.391C123.245 227.672 123.094 228.798 123.189 228.29C123.234 228.045 123.279 227.794 123.34 227.549C123.446 227.092 123.586 226.635 123.749 226.195C123.967 225.593 123.57 226.523 123.788 226.072C123.883 225.871 123.978 225.676 124.079 225.481C124.297 225.063 124.543 224.662 124.812 224.277C124.851 224.221 124.963 224.021 125.036 223.971C125.002 223.993 124.616 224.472 124.952 224.093C125.097 223.932 125.243 223.764 125.394 223.603C125.545 223.441 125.701 223.291 125.864 223.146C125.931 223.084 126.004 223.018 126.076 222.956C126.395 222.678 126.166 222.767 126.026 222.979C126.227 222.683 126.837 222.427 127.151 222.254C127.347 222.148 127.548 222.059 127.749 221.953C128.085 221.775 127.251 222.137 127.604 222.009C127.755 221.953 127.9 221.892 128.052 221.841C128.471 221.697 128.902 221.579 129.338 221.485C129.434 221.462 129.523 221.446 129.618 221.429C129.786 221.396 130.038 221.234 129.719 221.401C129.478 221.524 129.54 221.418 129.725 221.401C129.881 221.384 130.044 221.373 130.2 221.362C130.648 221.334 131.095 221.329 131.543 221.351C131.767 221.362 131.991 221.384 132.215 221.401C132.768 221.451 132.041 221.373 132.041 221.379C132.075 221.34 132.466 221.457 132.511 221.462C133.015 221.563 133.507 221.697 133.988 221.864C134.111 221.903 134.229 221.947 134.346 221.992C134.408 222.014 134.464 222.037 134.525 222.059C134.721 222.137 134.643 222.103 134.296 221.964C134.453 222.115 134.788 222.198 134.979 222.304C135.404 222.533 135.829 222.945 136.266 223.118C135.852 222.951 135.958 222.867 136.148 223.034C136.266 223.14 136.389 223.24 136.506 223.352C136.719 223.547 136.92 223.753 137.111 223.965C138.107 225.041 140.076 225.041 141.067 223.965C142.124 222.817 142.124 221.173 141.067 220.024C137.62 216.296 131.952 214.902 127.1 216.29C122.249 217.678 118.567 221.942 117.784 226.897C117.308 229.896 117.655 232.811 119.032 235.542C119.692 236.846 121.645 237.32 122.859 236.539C124.202 235.681 124.566 234.12 123.861 232.727L123.855 232.733Z" fill="#263238"/>
<path d="M125.455 238.011C133.127 237.76 140.445 233.401 144.161 226.68C144.866 225.403 144.519 223.581 143.159 222.867C141.799 222.154 140.087 222.505 139.332 223.865C138.946 224.561 138.526 225.236 138.056 225.877C137.995 225.96 137.933 226.044 137.871 226.128C138.079 225.866 138.118 225.816 137.989 225.972C137.877 226.105 137.771 226.239 137.659 226.373C137.39 226.691 137.111 226.997 136.825 227.293C136.271 227.867 135.684 228.402 135.063 228.903C134.8 229.115 134.811 229.154 135.057 228.915C134.917 229.054 134.716 229.165 134.553 229.282C134.212 229.522 133.865 229.751 133.507 229.968C132.858 230.364 132.181 230.726 131.487 231.049C131.364 231.105 131.235 231.166 131.107 231.222L131.392 231.105C131.381 231.15 130.855 231.317 130.81 231.334C130.418 231.479 130.027 231.612 129.629 231.735C128.902 231.958 128.158 232.136 127.408 232.27C127.24 232.298 126.949 232.303 126.793 232.37C127.156 232.32 127.235 232.309 127.022 232.337C126.921 232.348 126.815 232.359 126.714 232.37C126.3 232.409 125.886 232.432 125.466 232.448C124.006 232.493 122.602 233.697 122.669 235.235C122.736 236.774 123.9 238.072 125.466 238.022L125.455 238.011Z" fill="#263238"/>
</svg>
