<svg width="843" height="785" viewBox="0 0 843 785" fill="none" xmlns="http://www.w3.org/2000/svg">
  <g clip-path="url(#clip0_112_835)">
    <path
      d="M139.707 561.271C139.707 582.201 123.286 656.268 112.991 672.519C151.901 684.286 191.085 689.885 227.979 682.054C248.099 629.465 253.638 566.577 253.638 566.577C253.638 566.577 192.787 585.529 139.727 561.291L139.707 561.271Z"
      fill="#7BB2E9"
    />
    <path
      d="M313.842 551.011C313.842 551.011 313.96 634.888 320.027 672.519C531.154 690.747 665.773 674.594 665.773 674.594C665.773 674.594 656.104 590.326 666.692 541.339C472.985 555.005 453.687 559.704 313.842 551.011Z"
      fill="#7BB2E9"
    />
    <path
      d="M78.211 273.616C78.211 273.616 111.288 306.705 150.903 298.168C175.76 314.262 204.159 318.726 237.393 307.547C273.621 307.547 302.06 306.235 325.37 288.614C368.821 289.651 409.316 273.401 430.924 253.528C382.404 202.368 348.564 158.531 248.432 171.884C104.301 180.636 78.1915 273.616 78.1915 273.616H78.211Z"
      fill="#006FDC"
    />
    <path
      d="M78.2111 273.617C78.2111 273.617 102.833 180.479 236.943 165.56C307.521 167.185 352.674 158.022 430.944 253.528C355.629 223.729 338.19 219.422 338.19 219.422L202.456 237.591L112.991 252.98L78.2306 273.617H78.2111Z"
      fill="#7BB2E9"
    />
    <path
      d="M103.048 758.999C104.242 773.331 142.682 783.845 173.881 782.866C209.111 781.769 251.348 765.48 250.682 750.795C249.9 733.742 191.143 714.672 143.309 729.905C128.218 734.721 102.031 746.801 103.048 758.999Z"
      fill="#5B6B7D"
    />
    <path
      d="M264.305 771.667C338.954 793.321 719.459 789.483 716.543 753.634C715.799 744.608 701.805 737.952 613.554 724.657C556.011 715.984 454.489 724.344 335.333 730.453C316.289 732.391 239.154 745.157 240.094 756.865C240.74 764.853 258.042 769.865 264.285 771.686L264.305 771.667Z"
      fill="#5B6B7D"
    />
    <path
      d="M243.343 117.67C242.638 122.839 242.149 127.929 242.423 133.137C242.697 138.345 243.421 143.475 244.615 148.487C245.809 153.5 252.131 157.376 257.318 155.712C262.798 153.95 265.89 148.644 264.54 143.005C263.972 140.656 263.541 138.306 263.209 135.918L263.581 138.659C262.817 132.765 262.817 126.813 263.581 120.901L263.209 123.642L263.267 123.172C263.698 121.801 263.757 120.431 263.444 119.06C263.385 117.69 262.974 116.397 262.211 115.223C260.958 113.089 258.492 111.033 256.045 110.465C253.403 109.858 250.428 109.995 248.079 111.503C245.985 112.854 243.676 115.086 243.323 117.67H243.343Z"
      fill="#263238"
    />
    <path
      d="M240.603 149.427C227.607 147.88 214.728 152.501 203.376 158.414C193.649 163.485 184.391 169.632 175.525 176.093C157.303 189.368 140.608 204.581 126.026 221.791C117.591 231.737 109.801 242.251 102.774 253.235C99.8581 257.797 101.678 264.845 106.474 267.371C111.582 270.073 117.493 268.526 120.605 263.67C123.521 259.108 126.555 254.644 129.725 250.259C131.154 248.301 132.544 246.284 134.09 244.405C132.661 246.147 133.855 244.698 134.208 244.248C134.619 243.719 135.049 243.191 135.46 242.662C136.302 241.605 137.163 240.547 138.005 239.51C144.698 231.365 151.862 223.612 159.456 216.289C163.253 212.628 167.148 209.084 171.16 205.658C173.117 203.993 175.075 202.349 177.071 200.724C178.01 199.96 178.969 199.197 179.928 198.453C180.457 198.041 180.985 197.611 181.533 197.2C179.537 198.727 181.749 197.043 182.023 196.847C190.458 190.464 199.286 184.512 208.445 179.206C211.205 177.601 214.023 176.074 216.901 174.703C217.429 174.449 217.958 174.214 218.486 173.959C219.21 173.626 220.893 172.941 219.21 173.626C220.815 172.98 222.42 172.373 224.064 171.845C225.415 171.414 226.785 171.022 228.174 170.69C228.859 170.533 229.564 170.376 230.249 170.239C230.562 170.181 233.283 169.789 231.795 169.946C230.132 170.122 232.891 169.867 232.95 169.867C233.792 169.809 234.633 169.769 235.475 169.769C237.178 169.769 238.88 169.887 240.564 170.083C245.946 170.729 251.113 164.875 250.898 159.745C250.624 153.597 246.337 150.112 240.564 149.407L240.603 149.427Z"
      fill="#263238"
    />
    <path
      d="M266.262 163.896C268.983 163.191 271.742 162.604 274.522 162.154C274.58 162.154 277.32 161.742 275.637 161.977C273.954 162.212 276.694 161.86 276.772 161.86C278.436 161.684 280.119 161.547 281.783 161.449C287.381 161.135 292.998 161.312 298.576 161.919C299.281 161.997 299.966 162.075 300.67 162.154C302.373 162.349 298.145 161.742 300.846 162.193C302.236 162.428 303.626 162.643 305.015 162.898C307.795 163.426 310.554 164.053 313.294 164.758C319.068 166.265 324.744 168.164 330.283 170.396C330.812 170.612 331.34 170.827 331.868 171.042C329.833 170.2 331.653 170.964 332.143 171.179C333.317 171.688 334.472 172.217 335.646 172.765C338.464 174.097 341.263 175.506 344.003 176.994C349.073 179.755 354.005 182.79 358.8 186.02C361.207 187.626 363.576 189.31 365.905 191.013C367.079 191.874 368.234 192.736 369.389 193.597C369.858 193.95 370.309 194.302 370.778 194.655C368.86 193.186 371.796 195.457 372.109 195.712C376.67 199.314 381.113 203.074 385.458 206.911C395.498 215.78 405.108 225.12 414.718 234.459C418.594 238.237 425.522 238.609 429.319 234.459C433.116 230.308 433.449 223.866 429.319 219.853C394.128 185.59 355.394 149.153 304.643 142.026C289.945 139.951 275.207 140.284 260.743 143.965C255.497 145.296 251.837 151.424 253.52 156.671C255.204 161.919 260.625 165.325 266.223 163.896H266.262Z"
      fill="#263238"
    />
    <path
      d="M246.925 158.257C220.893 174.997 201.223 199.863 190.635 228.898C188.775 233.989 192.709 240.43 197.857 241.605C203.689 242.936 208.582 239.843 210.559 234.38C211.166 232.697 211.831 231.013 212.497 229.349C213.475 226.901 211.577 231.385 212.653 228.977C213.025 228.154 213.378 227.332 213.769 226.51C215.237 223.357 216.822 220.283 218.545 217.268C220.267 214.253 221.95 211.532 223.829 208.751C224.69 207.479 225.571 206.206 226.491 204.973C227.098 204.15 227.685 203.289 228.331 202.506C227.254 203.837 227.939 203.015 228.624 202.173C232.813 196.965 237.393 192.09 242.345 187.587C243.676 186.373 245.026 185.198 246.416 184.043C247.003 183.553 247.61 183.064 248.197 182.574C249.038 181.889 249.86 181.204 248.53 182.281C251.328 180.029 254.343 178.032 257.357 176.094C261.897 173.176 264.168 166.774 261.056 161.958C258.12 157.415 251.779 155.125 246.925 158.257Z"
      fill="#263238"
    />
    <path
      d="M243.832 177.425C251.231 195.066 256.613 213.47 259.823 232.324C260.743 237.67 267.593 241.135 272.525 239.549C278.279 237.689 280.726 232.559 279.747 226.842C276.518 207.988 271.155 189.584 263.757 171.943C262.661 169.339 261.545 167.263 259.001 165.775C256.789 164.483 253.52 163.935 251.035 164.738C246.279 166.285 241.581 172.119 243.813 177.445L243.832 177.425Z"
      fill="#263238"
    />
    <path
      d="M267.476 181.869C270.294 182.829 273.856 183.631 276.381 185.198C274.345 183.925 276.283 185.159 276.831 185.413C277.555 185.726 278.279 186.059 279.004 186.392C280.432 187.058 281.861 187.743 283.29 188.467C288.829 191.267 294.172 194.459 299.281 197.983C300.475 198.805 301.668 199.647 302.823 200.508C303.449 200.978 304.115 201.429 304.722 201.938C302.823 200.352 304.683 201.938 305.133 202.271C307.599 204.248 310.006 206.323 312.355 208.477C317.013 212.785 321.378 217.405 325.41 222.3C328.854 226.49 336.488 226.137 340.011 222.3C344.101 217.855 343.69 212.158 340.011 207.694C322.533 186.47 298.967 170.709 272.975 161.938C267.847 160.215 261.467 163.935 260.273 169.163C258.962 174.88 261.995 180.029 267.495 181.869H267.476Z"
      fill="#263238"
    />
    <path
      d="M121.896 279.216C122.445 278.433 123.012 277.65 123.56 276.866C124.226 275.966 124.128 276.103 123.247 277.238C123.541 276.866 123.834 276.494 124.147 276.122C125.361 274.634 126.613 273.186 127.944 271.795C130.587 268.996 133.425 266.47 136.4 264.003C137.28 263.318 137.143 263.396 136.008 264.297C136.4 264.003 136.771 263.729 137.163 263.435C137.946 262.867 138.729 262.319 139.512 261.771C141.097 260.694 142.721 259.656 144.366 258.678C146.01 257.699 147.712 256.778 149.415 255.917C150.276 255.486 151.138 255.075 152.018 254.664C152.586 254.39 155.404 252.823 152.84 254.253C156.05 252.451 160.2 251.492 163.742 250.552C165.602 250.063 167.461 249.632 169.359 249.26C170.299 249.084 171.238 248.908 172.197 248.751C172.667 248.673 173.137 248.594 173.626 248.536C172.06 248.731 171.865 248.771 173.019 248.614C176.836 248.222 180.653 247.968 184.489 248.046C186.407 248.085 188.325 248.203 190.224 248.379C190.693 248.418 191.183 248.477 191.652 248.536C192.807 248.673 192.611 248.653 191.046 248.438C191.907 248.359 193.042 248.751 193.884 248.888C199.188 249.828 205.275 247.459 206.586 241.663C207.741 236.632 205.059 229.955 199.364 228.957C170.886 223.944 141.802 232.246 119.822 250.963C113.754 256.132 108.548 262.202 104.027 268.761C100.954 273.225 103.048 280.43 107.726 282.897C112.991 285.677 118.569 283.954 121.857 279.196L121.896 279.216Z"
      fill="#263238"
    />
    <path
      d="M217.723 248.908C219.23 247.048 220.854 245.286 222.616 243.661C223.399 242.936 224.24 242.251 225.062 241.546C226.021 240.704 223.399 242.721 224.964 241.624C225.454 241.292 225.943 240.92 226.432 240.587C228.311 239.314 230.269 238.139 232.304 237.121C232.833 236.847 233.381 236.593 233.929 236.338C235.259 235.712 234.672 235.751 233.772 236.377C234.672 235.77 236.121 235.477 237.138 235.124C239.291 234.4 241.503 233.812 243.734 233.362C244.321 233.245 244.909 233.147 245.496 233.029C247.453 232.677 243.91 233.166 245.241 233.049C246.318 232.951 247.394 232.833 248.471 232.775C250.859 232.638 253.266 232.677 255.654 232.892C256.104 232.931 256.632 233.068 257.083 233.029C254.91 233.225 255.869 232.853 256.828 233.029C258.14 233.245 259.412 233.538 260.703 233.852C265.949 235.144 272.153 232.168 273.406 226.627C274.659 221.086 271.801 215.31 266.184 213.92C243.597 208.34 217.938 216.093 203.122 234.321C199.716 238.511 198.718 244.894 203.122 248.927C206.899 252.393 214.082 253.411 217.723 248.927V248.908Z"
      fill="#263238"
    />
    <path
      d="M282.605 238.12C283.427 237.258 284.269 236.436 285.149 235.653C285.502 235.34 285.854 235.026 286.226 234.733C286.402 234.576 288.163 233.401 286.852 234.224C285.541 235.046 287.244 233.969 287.518 233.773C288.007 233.441 288.496 233.108 289.005 232.794C289.905 232.227 290.825 231.678 291.745 231.169C292.783 230.602 293.859 230.112 294.916 229.583C296.638 228.742 293.526 230.093 294.74 229.662C295.307 229.466 295.836 229.231 296.403 229.035C298.517 228.291 300.709 227.665 302.901 227.214C303.626 227.058 305.407 226.392 306.053 226.647C305.387 226.373 303.9 226.901 305.779 226.725C306.366 226.666 306.953 226.627 307.56 226.588C309.81 226.451 312.061 226.47 314.312 226.647C314.841 226.686 315.565 226.882 316.074 226.823C315.545 226.882 314.019 226.49 315.428 226.745C316.602 226.94 317.757 227.156 318.912 227.449C321.221 227.998 323.472 228.761 325.664 229.642C330.675 231.698 337.231 227.43 338.367 222.418C339.737 216.407 336.527 211.904 331.144 209.711C309.947 201.057 283.779 207.205 267.984 223.534C264.226 227.43 263.835 234.322 267.984 238.139C272.134 241.957 278.573 242.29 282.585 238.139L282.605 238.12Z"
      fill="#263238"
    />
    <path
      d="M337.662 230.875C338.367 230.758 339.071 230.66 339.776 230.543C341.068 230.327 337.975 230.738 340.011 230.523C341.439 230.366 342.849 230.21 344.277 230.092C347.135 229.877 349.992 229.759 352.85 229.759C355.708 229.759 358.565 229.877 361.423 230.092C362.852 230.21 364.28 230.366 365.689 230.503C367.725 230.719 364.633 230.327 365.924 230.523C366.629 230.64 367.334 230.738 368.038 230.856C373.538 231.756 378.979 233.088 384.283 234.811C385.653 235.261 387.004 235.731 388.335 236.22C389 236.475 389.666 236.73 390.331 236.984C390.331 236.984 392.797 237.963 391.486 237.434C390.175 236.906 392.367 237.826 392.621 237.943C393.267 238.237 393.932 238.531 394.578 238.844C396.007 239.51 397.416 240.215 398.806 240.959C403.601 243.465 410.256 242.349 412.937 237.258C415.442 232.5 414.346 225.785 409.238 223.122C385.438 210.689 358.585 206.637 332.162 210.983C326.819 211.864 323.355 218.776 324.94 223.69C326.819 229.485 331.908 231.854 337.642 230.915L337.662 230.875Z"
      fill="#263238"
    />
    <path
      d="M173.587 243.563C171.454 254.762 169.34 265.942 167.206 277.141C166.678 279.901 166.776 282.603 168.244 285.109C169.496 287.244 171.963 289.299 174.409 289.867C179.498 291.022 186.035 288.32 187.112 282.643C189.245 271.443 191.359 260.264 193.492 249.065C194.021 246.304 193.923 243.602 192.455 241.096C191.202 238.962 188.736 236.906 186.289 236.338C181.201 235.183 174.664 237.885 173.587 243.563Z"
      fill="#263238"
    />
    <path
      d="M239.291 235.301C236.003 250.357 235.788 265.531 238.411 280.704C239.331 286.049 246.181 289.515 251.113 287.929C256.867 286.069 259.314 280.939 258.335 275.222C258.179 274.341 258.061 273.48 257.905 272.599C257.787 271.815 257.826 272.109 258.003 273.46C257.944 273.088 257.905 272.716 257.866 272.325C257.67 270.699 257.513 269.055 257.396 267.43C257.18 264.278 257.102 261.125 257.161 257.954C257.22 254.782 257.435 251.649 257.807 248.497C257.885 247.812 257.787 245.599 257.826 248.242C257.826 247.518 258.061 246.715 258.179 245.991C258.472 244.248 258.825 242.506 259.196 240.783C260.351 235.516 257.631 229.349 251.974 228.076C246.768 226.882 240.505 229.642 239.272 235.301H239.291Z"
      fill="#263238"
    />
    <path
      d="M303.352 232.383C308.44 239.49 312.727 247.126 316.132 255.173L315.095 252.706C316.328 255.682 317.463 258.717 318.461 261.771C320.125 266.901 325.684 270.758 331.164 268.996C336.292 267.331 340.167 261.791 338.386 256.289C334.413 244.072 328.698 232.403 321.221 221.947C319.616 219.715 317.796 217.953 315.056 217.19C312.59 216.504 309.282 216.818 307.09 218.227C302.745 221.027 300.024 227.664 303.391 232.363L303.352 232.383Z"
      fill="#263238"
    />
    <path
      d="M114.831 277.728C133.072 293.567 158.849 297.013 180.672 286.813C185.585 284.522 187.209 277.062 184.371 272.677C181.103 267.625 175.486 266.509 170.24 268.976C169.927 269.113 167.97 269.916 169.477 269.348C170.866 268.82 169.281 269.407 169.007 269.505C167.989 269.877 166.952 270.229 165.895 270.542C163.84 271.149 161.472 271.228 159.495 271.952C161.53 271.189 160.65 271.796 159.71 271.893C159.221 271.933 158.751 271.972 158.262 272.011C157.166 272.089 156.07 272.128 154.974 272.128C153.76 272.128 152.547 272.089 151.333 272.011C150.844 271.972 150.355 271.933 149.885 271.893C149.533 271.854 147.399 271.639 149.082 271.815C150.629 271.972 148.965 271.776 148.652 271.717C148.045 271.619 147.458 271.502 146.851 271.365C145.775 271.13 144.718 270.875 143.661 270.582C142.604 270.288 141.567 269.955 140.529 269.583C140.079 269.426 139.609 269.25 139.159 269.074C137.339 268.408 140.432 269.701 139.277 269.133C137.3 268.173 135.362 267.234 133.483 266.059C132.544 265.471 131.663 264.845 130.763 264.238C129.549 263.416 130.958 264.101 131.115 264.532C130.998 264.218 129.706 263.357 129.432 263.122C125.361 259.578 118.785 258.815 114.831 263.122C111.269 266.999 110.466 273.949 114.831 277.728Z"
      fill="#263238"
    />
    <path
      d="M183.256 298.13C206.469 306.333 232.187 307.116 255.928 300.753C261.154 299.363 264.853 293.333 263.15 288.046C261.447 282.76 256.045 279.334 250.448 280.822C247.727 281.546 245.006 282.192 242.247 282.721C240.935 282.975 239.624 283.171 238.313 283.406C236.297 283.739 239.272 283.328 237.98 283.465C237.393 283.524 236.806 283.602 236.219 283.68C230.64 284.287 225.004 284.483 219.386 284.268C216.724 284.17 214.082 283.974 211.42 283.68C210.696 283.602 209.952 283.524 209.228 283.426C210.168 283.563 210.442 283.602 209.346 283.426C207.878 283.191 206.429 282.956 204.981 282.662C199.462 281.585 194.04 280.078 188.756 278.218C183.471 276.358 177.227 280.254 176.053 285.442C174.742 291.238 177.815 296.23 183.275 298.149L183.256 298.13Z"
      fill="#263238"
    />
    <path
      d="M261.486 290.924C285.874 291.473 310.456 287.439 333.336 278.962C338.386 277.082 342.379 271.874 340.559 266.255C338.954 261.301 333.278 257.033 327.856 259.03C316.974 263.063 305.739 266.098 294.309 268.036C292.959 268.271 291.608 268.487 290.238 268.683C289.788 268.741 287.635 269.035 289.808 268.761C289.201 268.839 288.594 268.918 287.987 268.996C285.11 269.348 282.214 269.622 279.336 269.818C273.406 270.249 267.456 270.386 261.506 270.249C256.104 270.131 250.937 275.085 251.172 280.587C251.407 286.088 255.713 290.787 261.506 290.924H261.486Z"
      fill="#263238"
    />
    <path
      d="M329.872 276.181C356.021 282.309 384.851 276.671 406.576 260.772C412.898 256.152 418.691 251.003 423.643 244.894C427.049 240.704 428.047 234.321 423.643 230.288C419.866 226.822 412.663 225.804 409.042 230.288C406.596 233.303 403.953 236.142 401.096 238.785C399.667 240.097 398.18 241.33 396.673 242.564C395.048 243.895 398.317 241.409 396.457 242.721C395.674 243.288 394.891 243.856 394.089 244.404C390.879 246.597 387.532 248.575 384.068 250.298C382.58 251.042 381.015 251.903 379.449 252.451C382.228 251.492 379.097 252.569 378.529 252.765C377.629 253.117 376.709 253.43 375.789 253.763C372.344 254.938 368.821 255.897 365.259 256.641C364.3 256.837 363.36 257.013 362.401 257.189C361.658 257.307 358.683 258.227 361.54 257.366C359.798 257.894 357.567 257.796 355.747 257.894C352.126 258.11 348.466 258.071 344.845 257.796C343.886 257.718 342.907 257.62 341.948 257.522C340.794 257.385 340.989 257.405 342.535 257.62C342.046 257.561 341.576 257.483 341.087 257.405C339.169 257.092 337.27 256.7 335.372 256.269C330.127 255.036 323.942 257.894 322.67 263.494C321.476 268.78 324.255 274.889 329.892 276.201L329.872 276.181Z"
      fill="#263238"
    />
    <path
      d="M253.207 227.469C255.008 267.86 256.809 308.252 258.609 348.643C260.41 389.035 262.211 429.426 264.011 469.817C265.029 492.627 266.047 515.417 267.065 538.226C267.299 543.611 271.644 548.819 277.399 548.564C282.781 548.329 287.987 544.022 287.733 538.226C285.932 497.835 284.132 457.444 282.331 417.052C280.53 376.661 278.73 336.269 276.929 295.878C275.911 273.068 274.893 250.278 273.876 227.469C273.641 222.085 269.296 216.877 263.541 217.131C258.159 217.366 252.953 221.673 253.207 227.469Z"
      fill="#263238"
    />
    <path
      d="M180.809 561.584C209.698 571.1 242.775 567.027 268.552 550.894C273.132 548.036 275.344 541.535 272.251 536.758C269.159 531.981 263.013 529.984 258.12 533.058C255.165 534.918 252.111 536.602 248.96 538.109C248.236 538.462 247.492 538.775 246.768 539.127C244.791 540.067 248.49 538.462 246.279 539.343C244.772 539.93 243.284 540.517 241.757 541.046C238.587 542.142 235.357 543.082 232.089 543.846C230.386 544.237 228.683 544.59 226.961 544.903C226.158 545.04 225.375 545.158 224.573 545.295C222.361 545.667 226.55 545.099 224.123 545.353C217.429 546.058 210.716 546.215 204.022 545.588C203.22 545.51 202.417 545.412 201.615 545.334C199.383 545.099 203.572 545.667 201.164 545.255C199.579 544.981 197.994 544.727 196.408 544.394C192.983 543.689 189.617 542.749 186.309 541.653C181.181 539.969 174.801 543.611 173.607 548.878C172.315 554.555 175.329 559.783 180.829 561.584H180.809Z"
      fill="#263238"
    />
    <path
      d="M260.704 545.001C260.841 545.803 260.978 546.606 261.095 547.429C261.173 547.938 261.31 548.525 261.33 549.054C261.33 548.975 261.095 547.115 261.232 548.329C261.447 550.228 261.682 552.128 261.839 554.027C262.152 557.551 262.328 561.095 262.387 564.639C262.445 568.182 262.348 572 262.132 575.681C262.034 577.443 261.897 579.225 261.721 580.987C261.643 581.809 261.565 582.612 261.467 583.434C261.428 583.845 261.369 584.257 261.33 584.648C261.33 584.707 260.958 587.291 261.193 585.705C261.389 584.335 261.017 586.782 260.958 587.174C260.801 588.114 260.664 589.053 260.488 589.993C260.175 591.736 259.842 593.478 259.47 595.221C258.707 598.823 257.807 602.406 256.789 605.95C255.771 609.494 254.617 612.999 253.344 616.445C252.777 617.972 252.19 619.499 251.563 621.026C251.446 621.339 250.741 622.945 251.289 621.672C251.798 620.478 251.25 621.75 251.172 621.946C250.78 622.827 250.408 623.689 249.997 624.55C246.514 632.108 242.403 639.352 237.686 646.224C234.633 650.688 236.708 657.874 241.386 660.36C246.631 663.14 252.248 661.417 255.517 656.66C273.386 630.541 282.957 598.726 283.016 567.086C283.016 557.825 282.116 548.623 280.569 539.499C279.669 534.154 272.799 530.688 267.867 532.274C262.093 534.134 259.686 539.264 260.645 544.981L260.704 545.001Z"
      fill="#263238"
    />
    <path
      d="M177.541 603.111H183.843C185.272 603.17 186.583 602.876 187.816 602.23C189.088 601.819 190.204 601.095 191.143 600.096C192.142 599.156 192.866 598.06 193.277 596.768C193.923 595.534 194.216 594.203 194.158 592.793L193.786 590.052C193.296 588.31 192.416 586.783 191.124 585.49L189.03 583.865C187.425 582.925 185.683 582.456 183.823 582.456H177.521C176.092 582.397 174.781 582.691 173.548 583.337C172.276 583.748 171.16 584.472 170.221 585.471C169.222 586.411 168.498 587.507 168.087 588.799C167.441 590.033 167.148 591.364 167.206 592.774L167.578 595.515C168.068 597.257 168.948 598.784 170.24 600.077L172.334 601.702C173.939 602.642 175.681 603.111 177.541 603.111Z"
      fill="#263238"
    />
    <path
      d="M224.416 600.801L230.699 598.667C232.05 598.353 233.224 597.727 234.203 596.826C235.318 596.102 236.219 595.123 236.864 593.929C237.628 592.734 238.019 591.462 238.097 590.091C238.411 588.721 238.352 587.35 237.921 585.979L236.884 583.512C235.964 581.966 234.731 580.732 233.185 579.812L230.719 578.774C228.879 578.285 227.059 578.285 225.219 578.774L218.936 580.908C217.586 581.222 216.411 581.848 215.433 582.749C214.317 583.473 213.417 584.452 212.771 585.647C212.008 586.841 211.616 588.114 211.538 589.484C211.225 590.855 211.283 592.225 211.714 593.596L212.751 596.063C213.671 597.609 214.904 598.843 216.45 599.763L218.917 600.801C220.756 601.29 222.577 601.29 224.416 600.801Z"
      fill="#263238"
    />
    <path
      d="M194.334 642.994H200.636C202.065 643.053 203.376 642.759 204.609 642.113C205.881 641.702 206.997 640.977 207.936 639.979C208.935 639.039 209.659 637.942 210.07 636.65C210.716 635.417 211.009 634.085 210.951 632.676L210.579 629.935C210.089 628.192 209.209 626.665 207.917 625.373L205.823 623.748C204.218 622.808 202.476 622.338 200.616 622.338H194.314C192.885 622.279 191.574 622.573 190.341 623.219C189.069 623.63 187.953 624.355 187.014 625.353C186.015 626.293 185.291 627.389 184.88 628.682C184.234 629.915 183.941 631.246 184 632.656L184.371 635.397C184.861 637.14 185.741 638.667 187.033 639.959L189.127 641.584C190.732 642.524 192.474 642.994 194.334 642.994Z"
      fill="#263238"
    />
    <path
      d="M161.178 547.996C160.963 548.505 160.748 549.034 160.532 549.543L161.57 547.076C157.342 557.022 151.862 566.401 145.285 574.976L146.91 572.881C146.342 573.625 145.755 574.35 145.188 575.074C143.407 577.287 142.154 579.421 142.154 582.377C142.154 584.903 143.269 587.937 145.188 589.68C147.106 591.423 149.748 592.832 152.488 592.715C155.052 592.597 158.105 591.775 159.789 589.68C164.192 584.198 168.322 578.52 171.884 572.451C175.446 566.381 178.421 559.998 181.103 553.478C182.042 551.168 181.259 547.566 180.065 545.51C178.872 543.454 176.347 541.32 173.9 540.752C171.258 540.145 168.283 540.282 165.934 541.79C163.586 543.297 162.274 545.334 161.178 547.957V547.996Z"
      fill="#263238"
    />
    <path
      d="M136.948 672.245C170.808 682.524 207.467 679.587 239.605 665.118C244.556 662.886 246.122 655.328 243.304 650.982C240.016 645.872 234.457 644.893 229.172 647.282C228.761 647.458 225.375 648.907 227.744 647.928C226.961 648.241 226.178 648.574 225.375 648.887C223.536 649.611 221.657 650.297 219.778 650.943C216.02 652.215 212.203 653.331 208.347 654.271C204.492 655.211 200.597 655.975 196.663 656.582C196.095 656.66 193.531 657.13 196.037 656.679C195.058 656.856 194.06 656.914 193.081 657.032C191.104 657.247 189.127 657.404 187.151 657.521C179.361 657.991 171.552 657.815 163.801 656.954C162.959 656.856 162.118 656.777 161.276 656.64C163.997 657.051 160.297 656.464 159.808 656.386C157.851 656.072 155.894 655.7 153.956 655.289C150.061 654.467 146.225 653.468 142.428 652.313C137.261 650.747 130.939 654.193 129.725 659.538C128.512 664.883 131.409 670.561 136.948 672.245Z"
      fill="#263238"
    />
    <path
      d="M172.041 671.853C169.79 679.293 169.379 687.184 169.457 694.917C169.496 698.539 169.614 702.142 169.594 705.764C169.594 707.565 169.536 709.367 169.418 711.168C169.359 711.99 169.281 712.793 169.222 713.615C169.085 715.73 169.633 711.168 169.183 713.831C168.733 716.493 168.009 719.117 167.05 721.643C166.932 721.956 166.815 722.269 166.678 722.582C167.246 721.251 167.363 720.957 167.05 721.662C166.737 722.25 166.482 722.876 166.169 723.464C165.543 724.638 164.858 725.754 164.114 726.851C162.842 728.75 164.819 726.244 164.153 726.812C163.683 727.223 163.312 727.771 162.881 728.221C162.45 728.672 161.961 729.083 161.511 729.513C159.906 731.041 162.392 729.122 161.628 729.415C161.08 729.631 160.571 730.101 160.043 730.375C159.691 730.571 157.831 731.726 159.319 730.766C160.689 729.885 159.006 730.806 158.497 730.943C157.753 731.138 155.267 731.471 158.418 731.099C153.075 731.745 147.81 735.387 148.084 741.437C148.319 746.488 152.664 752.46 158.418 751.775C166.247 750.835 173.313 747.722 178.558 741.652C183.295 736.17 186.603 729.611 188.403 722.602C190.321 715.045 190.321 707.174 190.184 699.44C190.106 695.544 190.028 691.648 190.204 687.751C190.243 686.714 190.321 685.676 190.419 684.638C190.458 684.188 190.498 683.757 190.556 683.307C190.361 684.58 190.361 684.619 190.556 683.424C190.928 681.369 191.378 679.352 191.965 677.355C193.531 672.186 190.106 665.862 184.743 664.648C179.38 663.434 173.704 666.332 172.041 671.873V671.853Z"
      fill="#263238"
    />
    <path
      d="M196.037 672.519L192.142 724.834L191.202 737.423C190.948 740.889 191.75 743.688 193.766 746.449C195.175 748.368 196.663 750.287 198.326 752.009C203.944 757.844 211.166 762.034 218.897 764.383C224.064 765.95 230.386 762.523 231.599 757.159C232.813 751.794 229.916 746.116 224.377 744.452C223.614 744.217 222.107 744.021 221.5 743.493C222.792 744.06 222.929 744.119 221.872 743.649C221.422 743.434 220.952 743.219 220.502 742.984C218.799 742.122 217.253 741.065 215.668 740.008C215.061 739.557 215.257 739.714 216.255 740.477C215.863 740.164 215.472 739.831 215.1 739.499C214.337 738.833 213.612 738.128 212.908 737.404C212.301 736.777 211.264 735.935 210.892 735.132C211.714 736.229 211.792 736.327 211.127 735.426C210.833 735.015 210.559 734.604 210.266 734.173L211.675 739.381C213.338 717.1 215.002 694.819 216.666 672.519C217.077 667.115 211.636 661.946 206.332 662.181C200.382 662.455 196.428 666.723 195.997 672.519H196.037Z"
      fill="#263238"
    />
    <path
      d="M331.027 538.207C326.095 575.427 327.132 613.097 333.493 650.101C334.413 655.446 341.263 658.911 346.195 657.325C351.95 655.465 354.396 650.336 353.418 644.619C353.007 642.269 352.635 639.92 352.263 637.57C352.087 636.474 351.93 635.377 351.774 634.281C351.676 633.654 351.597 633.028 351.5 632.401C351.637 633.419 351.656 633.537 351.558 632.793C350.971 628.231 350.443 623.65 350.032 619.068C349.21 610.218 348.72 601.33 348.564 592.441C348.231 574.33 349.307 556.22 351.676 538.266C351.989 535.838 350.286 532.607 348.642 530.963C346.841 529.161 343.905 527.83 341.342 527.928C335.137 528.202 331.771 532.49 331.007 538.266L331.027 538.207Z"
      fill="#263238"
    />
    <path
      d="M373.988 583.884C382.972 581.026 392.112 578.657 401.35 576.816C406.126 575.877 410.921 575.094 415.736 574.389C413.7 574.682 416.382 574.31 417.067 574.232C418.124 574.095 419.181 573.978 420.238 573.86C422.802 573.586 425.385 573.351 427.949 573.136C437.344 572.411 446.778 572.215 456.212 572.548C460.928 572.724 465.626 573.018 470.323 573.449C472.594 573.664 474.864 573.899 477.134 574.173C477.819 574.252 480.481 574.663 478.465 574.33C479.385 574.487 480.305 574.624 481.205 574.819C483.124 575.231 484.885 575.935 486.764 576.444C487.782 576.719 485.824 576.072 485.785 576.014C485.942 576.249 487.234 576.699 487.508 576.836C488.232 577.228 488.917 577.678 489.641 578.089C491.07 578.911 489.113 577.756 488.995 577.541C489.191 577.893 489.778 578.207 490.072 578.5C490.267 578.696 490.463 578.911 490.659 579.107C491.951 580.341 489.622 577.169 490.346 578.755C490.444 578.97 490.581 579.283 490.737 579.46C491.442 580.36 489.954 577.11 490.365 578.716C490.776 580.321 490.228 577.678 490.267 577.56V578.109C490.248 579.205 490.326 578.872 490.522 577.091C490.111 579.969 490.033 582.436 491.559 585.059C492.812 587.193 495.278 589.249 497.724 589.817C502.598 590.933 509.624 588.329 510.427 582.592C511.19 577.188 510.799 572.02 507.569 567.419C504.77 563.424 500.934 560.331 496.511 558.275C487.155 553.968 476.86 553.243 466.702 552.441C445.447 550.776 424.074 551.99 403.053 555.534C391.349 557.512 379.821 560.311 368.508 563.914C363.36 565.559 359.524 571.178 361.286 576.621C362.949 581.77 368.469 585.588 373.988 583.845V583.884Z"
      fill="#263238"
    />
    <path
      d="M472.789 596.376L477.115 592.833C478.113 591.893 478.837 590.796 479.248 589.504C479.894 588.271 480.188 586.939 480.129 585.53L479.757 582.788C479.444 581.438 478.818 580.263 477.917 579.284C477.467 578.501 476.841 577.894 476.058 577.424C475.06 576.504 473.885 575.897 472.554 575.583L469.814 575.211C467.955 575.211 466.213 575.681 464.608 576.621C464.569 576.641 464.53 576.66 464.51 576.699L462.416 578.324C462.416 578.324 462.299 578.403 462.259 578.462C461.927 578.794 461.516 579.421 461.359 579.617C461.202 579.812 460.713 580.38 460.478 580.772C460.439 580.831 460.42 580.889 460.38 580.948L459.343 583.415C459.343 583.415 459.324 583.493 459.304 583.513C459.01 584.433 458.893 586.215 458.873 586.528C458.658 588.799 459.539 591.09 460.517 593.048C460.576 593.165 460.635 593.263 460.713 593.361C460.987 593.753 461.359 594.183 461.614 594.536C461.848 594.849 462.201 595.358 462.533 595.711C462.612 595.809 462.71 595.867 462.788 595.946L464.882 597.571C464.882 597.571 464.941 597.61 464.98 597.649C465.019 597.688 465.078 597.708 465.137 597.747C465.998 598.217 466.918 598.608 467.857 598.902C467.916 598.902 467.975 598.941 468.014 598.941C468.053 598.941 468.092 598.941 468.131 598.941L470.871 599.313C472.026 599.391 473.239 599.274 474.316 598.843C475.666 598.53 476.841 597.903 477.819 597.003C478.935 596.278 479.835 595.299 480.481 594.105C481.245 592.911 481.636 591.638 481.714 590.268C482.027 588.897 481.969 587.527 481.538 586.156L480.501 583.689C479.581 582.142 478.348 580.909 476.802 579.989L474.336 578.951C472.496 578.462 470.675 578.462 468.836 578.951C468.718 578.99 468.601 579.029 468.483 579.049L471.224 578.677C471.106 578.677 470.989 578.677 470.891 578.677L473.631 579.049C473.494 579.049 473.376 578.99 473.259 578.951L475.725 579.989C475.588 579.93 475.451 579.852 475.334 579.754L477.428 581.379C477.291 581.261 477.154 581.144 477.056 581.007L478.681 583.102C478.544 582.926 478.426 582.73 478.328 582.514L479.366 584.981C479.287 584.766 479.209 584.57 479.189 584.335L479.561 587.076C479.542 586.9 479.542 586.724 479.561 586.548L479.189 589.289C479.209 589.152 479.248 589.034 479.307 588.917L478.27 591.384C478.309 591.286 478.367 591.188 478.446 591.09L476.821 593.185C476.821 593.185 476.978 593.009 477.076 592.93L474.981 594.555C474.981 594.555 475.06 594.516 475.079 594.477L462.553 578.246L458.227 581.79C457.229 582.73 456.505 583.826 456.094 585.118C455.448 586.352 455.155 587.683 455.213 589.093C455.155 590.522 455.448 591.834 456.094 593.067C456.505 594.34 457.229 595.456 458.227 596.396L460.322 598.021C461.927 598.961 463.669 599.431 465.528 599.431L468.268 599.059C470.01 598.569 471.537 597.688 472.828 596.396L472.789 596.376Z"
      fill="#263238"
    />
    <path
      d="M538.494 576.053C557.792 574.937 577.11 573.801 596.408 572.685C601.086 572.411 605.764 572.137 610.442 571.863C612.849 571.726 615.237 571.609 617.644 571.609C618.545 571.609 619.445 571.628 620.345 571.687C620.815 571.707 624.612 571.785 622.028 571.765C623.144 571.765 624.436 572.216 625.512 572.529C625.786 572.607 627.626 573.41 627.88 573.312C626.51 572.725 626.354 572.666 627.372 573.155C627.802 573.371 628.213 573.606 628.624 573.86C629.035 574.115 629.446 574.369 629.838 574.643C628.722 573.743 628.585 573.645 629.446 574.35C629.955 574.839 630.464 575.368 630.993 575.838C631.717 576.68 631.638 576.543 630.738 575.387C631.012 575.759 631.267 576.151 631.521 576.562C631.756 576.954 631.991 577.365 632.186 577.776C631.619 576.366 631.541 576.171 631.912 577.247C632.049 577.698 632.167 578.128 632.265 578.598C632.089 576.993 632.049 576.778 632.147 577.952C632.5 583.336 636.649 588.544 642.481 588.29C647.786 588.055 653.188 583.728 652.816 577.952C652.229 568.907 647.414 561.623 639.976 556.631C632.989 551.951 624.064 550.835 615.844 550.992C599.481 551.305 583.06 552.813 566.717 553.772C557.303 554.32 547.908 554.869 538.494 555.417C533.111 555.73 527.905 559.94 528.159 565.755C528.394 571.08 532.72 576.425 538.494 576.092V576.053Z"
      fill="#263238"
    />
    <path
      d="M617.39 600.311L619.621 598.373C620.619 597.433 621.343 596.337 621.754 595.045C622.4 593.811 622.694 592.48 622.635 591.07C622.694 589.641 622.4 588.329 621.754 587.096C621.343 585.823 620.619 584.707 619.621 583.767L617.527 582.142C615.922 581.202 614.18 580.732 612.321 580.732L609.58 581.104C607.838 581.594 606.312 582.475 605.02 583.767L602.789 585.706C601.791 586.645 601.066 587.742 600.655 589.034C600.01 590.267 599.716 591.599 599.775 593.008C599.716 594.438 600.01 595.75 600.655 596.983C601.066 598.256 601.791 599.372 602.789 600.311L604.883 601.937C606.488 602.876 608.23 603.346 610.089 603.346L612.829 602.974C614.571 602.485 616.098 601.604 617.39 600.311Z"
      fill="#263238"
    />
    <path
      d="M341.263 547.448C384.205 548.388 427.166 548.173 470.108 546.802C513.03 545.431 555.933 542.925 598.737 539.264C622.87 537.189 646.964 534.761 671.038 531.961C676.381 531.335 681.646 527.654 681.372 521.623C681.137 516.552 676.792 510.62 671.038 511.286C628.37 516.239 585.565 520.057 542.702 522.72C499.838 525.383 456.897 526.89 413.935 527.262C389.724 527.458 365.494 527.301 341.283 526.773C335.881 526.655 330.714 531.609 330.949 537.11C331.183 542.612 335.489 547.311 341.283 547.448H341.263Z"
      fill="#263238"
    />
    <path
      d="M674.874 588.603C676.988 607.987 680.608 627.154 686.03 645.892C687.537 651.08 693.389 654.839 698.732 653.116C704.076 651.393 707.56 645.97 705.955 640.409C703.41 631.638 701.238 622.788 699.457 613.841C698.595 609.514 697.832 605.187 697.147 600.84C696.951 599.607 696.775 598.354 696.579 597.101C696.482 596.455 696.188 594.242 696.423 596.102C696.09 593.616 695.797 591.109 695.522 588.603C694.935 583.239 691.197 577.992 685.188 578.266C680.099 578.501 674.228 582.847 674.854 588.603H674.874Z"
      fill="#263238"
    />
    <path
      d="M310.065 579.46C301.962 602.857 296.795 627.076 294.153 651.667C293.565 657.051 299.32 662.24 304.487 662.005C310.574 661.731 314.195 657.443 314.821 651.667C314.978 650.14 315.154 648.593 315.349 647.066C315.428 646.459 315.506 645.832 315.584 645.226C315.956 642.269 315.389 646.459 315.643 644.756C316.054 641.858 316.485 638.941 316.974 636.063C317.933 630.267 319.068 624.511 320.36 618.794C322.944 607.34 326.173 596.043 330.009 584.961C331.771 579.851 327.993 573.429 322.787 572.255C317.033 570.943 311.983 573.997 310.084 579.479L310.065 579.46Z"
      fill="#263238"
    />
    <path
      d="M332.593 655.505C374.81 664.276 417.693 669.974 460.733 672.519C503.772 675.064 545.794 674.418 588.149 670.698C612.497 668.564 636.786 665.392 660.879 661.281C666.223 660.36 669.687 653.508 668.102 648.574C666.242 642.818 661.114 640.37 655.399 641.349C650.134 642.25 644.869 643.092 639.604 643.895C637.119 644.267 634.633 644.639 632.147 644.991C630.914 645.167 629.662 645.343 628.428 645.52C627.802 645.598 627.176 645.696 626.569 645.774L625.63 645.892C626.667 645.755 626.804 645.735 626.041 645.833C615.609 647.184 605.177 648.398 594.705 649.396C573.783 651.393 552.781 652.627 531.761 653.116C489.896 654.076 447.932 652 406.361 646.91C403.405 646.557 400.45 646.166 397.495 645.774C397.906 645.833 399.491 646.048 397.436 645.774C396.653 645.676 395.89 645.559 395.107 645.461C393.56 645.246 391.995 645.03 390.448 644.795C384.694 643.973 378.96 643.072 373.244 642.132C361.481 640.194 349.758 638.001 338.092 635.573C332.808 634.477 326.682 637.12 325.39 642.798C324.216 647.967 326.956 654.33 332.612 655.505H332.593Z"
      fill="#263238"
    />
    <path
      d="M388.726 663.18C381.445 692.391 376.826 722.289 374.83 752.323C374.477 757.726 379.84 762.895 385.164 762.66C391.075 762.386 395.107 758.118 395.498 752.323C395.988 745.039 396.614 737.775 397.416 730.512C397.808 727.046 398.219 723.581 398.688 720.115C398.395 722.406 398.806 719.293 398.825 719.097C398.962 718.157 399.099 717.218 399.236 716.278C399.491 714.555 399.745 712.832 400.019 711.109C402.27 696.855 405.167 682.7 408.651 668.681C409.962 663.454 406.968 657.228 401.429 655.974C395.89 654.721 390.116 657.58 388.726 663.199V663.18Z"
      fill="#263238"
    />
    <path
      d="M629.309 660.615C634.124 673.635 638.117 686.968 641.229 700.497C642.736 707.115 644.047 713.791 645.124 720.487C645.417 722.308 645.691 724.149 645.965 725.969C646.005 726.224 646.357 728.73 646.161 727.34C645.965 725.95 646.298 728.456 646.337 728.71C646.807 732.391 647.198 736.072 647.531 739.753C648.021 745.118 651.935 750.345 657.865 750.091C663.032 749.856 668.728 745.529 668.2 739.753C665.538 710.815 659.353 682.347 649.254 655.093C647.375 650.042 642.168 646.048 636.551 647.869C631.599 649.474 627.333 655.152 629.329 660.576L629.309 660.615Z"
      fill="#263238"
    />
    <path
      d="M495.552 642.171C495.767 641.995 498.135 640.174 496.863 641.095C495.591 642.015 498.018 640.272 498.253 640.116C499.486 639.254 500.758 638.412 502.03 637.629C504.829 635.906 507.745 634.457 510.701 633.048C511.758 632.597 511.621 632.636 510.31 633.185C510.779 632.989 511.249 632.813 511.719 632.617C512.423 632.343 513.128 632.069 513.833 631.814C515.261 631.305 516.69 630.835 518.138 630.405C521.407 629.445 524.715 628.682 528.081 628.133C530.841 627.683 526.535 628.251 528.707 628.035C529.451 627.957 530.215 627.859 530.958 627.8C532.583 627.644 534.227 627.546 535.851 627.507C539.12 627.409 542.389 627.507 545.657 627.82C546.283 627.879 549.2 628.035 546.283 627.84C547.027 627.898 547.79 628.055 548.515 628.192C550.12 628.466 551.725 628.799 553.31 629.171C556.618 629.954 559.847 630.992 563.037 632.206C568.087 634.164 574.585 630.052 575.74 624.981C577.09 619.068 573.939 614.35 568.518 612.274C539.14 600.938 504.947 607.693 480.931 627.546C476.743 631.011 477.095 638.628 480.931 642.152C485.374 646.224 491.07 645.833 495.532 642.152L495.552 642.171Z"
      fill="#263238"
    />
    <path
      d="M82.1842 116.202C81.4209 125.188 83.9262 134.547 89.0541 141.967C90.5808 144.18 93.6536 145.413 96.1197 143.827C98.3314 142.398 99.6232 139.129 97.9791 136.759C96.8831 135.154 95.8849 133.49 95.0628 131.728C94.9454 131.473 94.1234 129.985 94.8084 131.179C94.554 130.749 94.4169 130.201 94.2604 129.731C93.9276 128.81 93.6536 127.89 93.3992 126.95C93.1447 126.011 92.9295 125.071 92.7729 124.111C92.7142 123.818 92.3227 122.134 92.675 123.563C92.5771 123.132 92.5771 122.643 92.538 122.212C92.3618 120.215 92.3814 118.199 92.538 116.202C92.7729 113.5 89.9936 110.915 87.3709 111.033C84.3763 111.17 82.4583 113.304 82.2038 116.202H82.1842Z"
      fill="#263238"
    />
    <path
      d="M99.3492 169.985C101.483 178.365 103.616 186.764 105.749 195.144C106.415 197.768 109.488 199.608 112.11 198.746C114.733 197.885 116.436 195.203 115.712 192.383L109.312 167.224C108.646 164.601 105.573 162.76 102.95 163.622C100.328 164.483 98.625 167.166 99.3492 169.985Z"
      fill="#263238"
    />
    <path
      d="M111.523 53.2159C112.913 64.3759 115.907 75.0073 120.624 85.208C121.76 87.6749 125.498 88.4777 127.69 87.068C130.234 85.4233 130.763 82.6236 129.549 80C128.336 77.3764 127.944 76.417 126.966 73.7738C126.124 71.5027 125.38 69.1924 124.715 66.8625C124.049 64.5326 123.462 62.1831 122.973 59.814C122.719 58.5806 122.484 57.3471 122.288 56.1136C122.19 55.585 122.112 55.0563 122.034 54.5277C121.975 54.1753 121.936 53.8229 121.877 53.4704C121.936 53.9599 121.936 53.8816 121.857 53.2355C121.525 50.5727 119.724 47.9296 116.69 48.0666C114.185 48.1841 111.171 50.3574 111.523 53.2355V53.2159Z"
      fill="#263238"
    />
    <path
      d="M138.827 142.79L140.921 153.284C141.156 154.498 142.252 155.771 143.289 156.378C144.405 157.024 146.029 157.298 147.262 156.906C148.495 156.515 149.709 155.732 150.355 154.537C151.02 153.265 151.157 151.972 150.883 150.563L148.789 140.068C148.554 138.854 147.458 137.582 146.421 136.975C145.305 136.329 143.681 136.055 142.447 136.446C141.214 136.838 140.001 137.621 139.355 138.815C138.69 140.088 138.553 141.38 138.827 142.79Z"
      fill="#263238"
    />
    <path
      d="M178.343 136.603C182.062 149.838 185.761 163.073 189.48 176.309C191.28 182.711 201.243 179.99 199.442 173.568C195.723 160.332 192.024 147.097 188.305 133.861C186.505 127.459 176.542 130.181 178.343 136.603Z"
      fill="#263238"
    />
    <path
      d="M201.262 159.53L203.357 149.035C203.631 147.665 203.552 146.294 202.828 145.061C202.202 143.984 200.969 142.966 199.736 142.692C198.405 142.398 196.937 142.457 195.762 143.22C194.686 143.925 193.649 145.002 193.394 146.314L191.3 156.808C191.026 158.179 191.104 159.549 191.828 160.783C192.455 161.859 193.688 162.878 194.921 163.152C196.252 163.445 197.72 163.387 198.894 162.623C199.971 161.918 201.008 160.841 201.262 159.53Z"
      fill="#263238"
    />
    <path
      d="M193.081 23.2012C195.997 35.0661 198.933 46.9309 201.849 58.7958C202.515 61.4977 205.568 63.1228 208.21 62.3983C210.853 61.6739 212.497 58.7567 211.812 56.0352C208.896 44.1703 205.96 32.3054 203.043 20.4406C202.378 17.7387 199.325 16.1136 196.682 16.838C194.04 17.5625 192.396 20.4797 193.081 23.2012Z"
      fill="#263238"
    />
    <path
      d="M208.25 94.4685C208.954 99.3633 209.639 104.258 210.344 109.172C210.52 110.367 211.734 111.678 212.712 112.266C213.828 112.912 215.452 113.186 216.685 112.794C217.918 112.403 219.132 111.62 219.778 110.425L220.306 109.192C220.561 108.272 220.561 107.351 220.306 106.451L218.212 91.747C218.036 90.5527 216.822 89.2409 215.844 88.6535C214.728 88.0074 213.104 87.7333 211.871 88.1249C210.637 88.5165 209.424 89.2997 208.778 90.494L208.25 91.7274C207.995 92.6477 207.995 93.5679 208.25 94.4685Z"
      fill="#263238"
    />
    <path
      d="M157.714 56.7399L159.847 63.0247C160.004 63.6904 160.317 64.2778 160.767 64.7868C161.139 65.3546 161.609 65.7854 162.216 66.1182C162.803 66.4902 163.449 66.7056 164.134 66.7252C164.819 66.8818 165.504 66.8426 166.189 66.6273C167.441 66.2161 168.635 65.4525 169.281 64.2582C169.927 63.0639 170.24 61.5955 169.81 60.2837L167.676 53.9988C167.52 53.3331 167.206 52.7458 166.756 52.2367C166.384 51.6689 165.915 51.2382 165.308 50.9053C164.721 50.5333 164.075 50.318 163.39 50.2984C162.705 50.1418 162.02 50.1809 161.335 50.3963C160.082 50.8074 158.888 51.571 158.242 52.7654C157.596 53.9597 157.283 55.4281 157.714 56.7399Z"
      fill="#263238"
    />
    <path
      d="M273.347 46.1868C275.441 57.386 277.536 68.5852 279.63 79.7844C280.139 82.5254 283.447 84.0918 285.991 83.3869C288.868 82.6038 290.121 79.7844 289.592 77.0238C287.498 65.8246 285.404 54.6254 283.31 43.4262C282.801 40.6852 279.493 39.1188 276.949 39.8237C274.071 40.6068 272.819 43.4262 273.347 46.1868Z"
      fill="#263238"
    />
    <path
      d="M302.53 31.5417C304.643 38.5314 306.757 45.5211 308.871 52.5304C309.654 55.1148 312.531 57.014 315.232 56.1329C317.933 55.2519 319.675 52.55 318.833 49.7698C316.72 42.7801 314.606 35.7904 312.492 28.7811C311.709 26.1967 308.832 24.2975 306.131 25.1786C303.43 26.0596 301.688 28.7615 302.53 31.5417Z"
      fill="#263238"
    />
    <path
      d="M352.478 94.5667C356.079 115.536 359.681 136.525 363.263 157.494C363.732 160.254 367.118 161.781 369.624 161.096C372.54 160.293 373.695 157.494 373.225 154.733L362.44 91.8061C361.971 89.0454 358.585 87.5183 356.079 88.2036C353.163 89.0063 352.008 91.8061 352.478 94.5667Z"
      fill="#263238"
    />
    <path
      d="M397.142 161.664C401.096 176.994 405.049 192.344 408.984 207.674L413.955 201.135C412.115 201.233 410.256 201.331 408.416 201.429C405.637 201.585 403.249 203.7 403.249 206.597C403.249 209.28 405.617 211.903 408.416 211.766C410.256 211.668 412.115 211.571 413.955 211.473C417.321 211.296 419.807 208.32 418.926 204.933C414.973 189.603 411.019 174.253 407.085 158.923C405.421 152.481 395.459 155.222 397.123 161.664H397.142Z"
      fill="#263238"
    />
    <path
      d="M430.18 214.136C430.572 211.669 431.257 209.28 432.216 206.97L431.687 208.203C432.744 205.736 434.075 203.426 435.7 201.292L434.897 202.33C435.621 201.39 436.404 200.47 437.246 199.608C439.125 197.67 439.321 194.204 437.246 192.305C435.171 190.406 431.942 190.23 429.945 192.305C424.935 197.494 421.373 204.229 420.238 211.375C420.003 212.785 420.003 214.077 420.766 215.35C421.392 216.426 422.625 217.445 423.858 217.719C425.189 218.012 426.657 217.954 427.832 217.19C428.889 216.505 430.004 215.408 430.2 214.097L430.18 214.136Z"
      fill="#263238"
    />
    <path
      d="M438.87 283.465C440.984 296.054 443.118 308.643 445.231 321.252C445.701 324.013 449.087 325.54 451.592 324.855C454.509 324.052 455.664 321.252 455.194 318.491C453.08 305.902 450.947 293.313 448.833 280.704C448.363 277.943 444.977 276.416 442.472 277.102C439.556 277.904 438.401 280.704 438.87 283.465Z"
      fill="#263238"
    />
    <path
      d="M462.201 417.796C462.905 419.891 463.59 421.986 464.295 424.1C464.452 424.766 464.765 425.354 465.215 425.863C465.587 426.43 466.056 426.861 466.663 427.194C467.25 427.566 467.896 427.781 468.581 427.801C469.266 427.958 469.951 427.918 470.636 427.703C471.889 427.292 473.083 426.528 473.729 425.334C474.375 424.14 474.688 422.671 474.257 421.359L472.163 415.055C472.006 414.389 471.693 413.802 471.243 413.293C470.871 412.725 470.402 412.294 469.795 411.962C469.208 411.59 468.562 411.374 467.877 411.355C467.192 411.198 466.507 411.237 465.822 411.452C464.569 411.864 463.375 412.627 462.729 413.821C462.083 415.016 461.77 416.484 462.201 417.796Z"
      fill="#263238"
    />
    <path
      d="M483.182 487.086C484.572 492.686 485.981 498.286 487.371 503.885C488.017 506.509 491.109 508.33 493.732 507.488C496.354 506.646 498.038 503.944 497.333 501.125C495.943 495.525 494.534 489.925 493.145 484.326C492.499 481.702 489.406 479.881 486.784 480.723C484.161 481.565 482.478 484.267 483.182 487.086Z"
      fill="#263238"
    />
    <path
      d="M518.471 411.57C524.206 445.129 529.96 478.707 535.695 512.265C536.165 515.026 539.551 516.553 542.056 515.867C544.972 515.065 546.127 512.265 545.657 509.504C539.922 475.946 534.168 442.368 528.433 408.809C527.964 406.049 524.578 404.522 522.072 405.207C519.156 406.01 518.001 408.81 518.471 411.57Z"
      fill="#263238"
    />
    <path
      d="M544.835 534.957C551.49 534.957 551.49 524.619 544.835 524.619C538.181 524.619 538.181 534.957 544.835 534.957Z"
      fill="#263238"
    />
    <path
      d="M547.438 527.439L541.136 523.249C540.549 522.877 539.903 522.661 539.218 522.642C538.533 522.485 537.848 522.524 537.163 522.74C536.497 522.896 535.91 523.209 535.401 523.66C534.834 524.032 534.403 524.502 534.07 525.109C533.444 526.303 533.111 527.752 533.542 529.083L534.07 530.317C534.521 531.1 535.147 531.707 535.93 532.177L542.232 536.367C542.819 536.739 543.465 536.954 544.15 536.974C544.835 537.13 545.52 537.091 546.205 536.876C546.871 536.719 547.458 536.406 547.967 535.955C548.534 535.583 548.965 535.113 549.298 534.507C549.924 533.312 550.257 531.863 549.826 530.532L549.298 529.299C548.847 528.515 548.221 527.908 547.438 527.439Z"
      fill="#263238"
    />
    <path
      d="M564.955 501.81C567.069 507.409 569.164 513.009 571.277 518.589C571.767 519.881 572.432 520.958 573.646 521.683C574.761 522.329 576.386 522.603 577.619 522.211C580.085 521.408 582.238 518.569 581.22 515.848C579.106 510.248 577.012 504.649 574.898 499.069C574.409 497.777 573.743 496.7 572.53 495.975C571.414 495.329 569.79 495.055 568.557 495.447C566.091 496.249 563.938 499.088 564.955 501.81Z"
      fill="#263238"
    />
    <path
      d="M589.773 529.788C590.478 523.483 591.182 517.199 591.907 510.894C592.044 509.661 591.222 508.075 590.4 507.233C589.499 506.332 588.031 505.667 586.74 505.725C585.448 505.784 584.019 506.215 583.079 507.233C582.101 508.31 581.729 509.445 581.572 510.894C580.868 517.199 580.163 523.483 579.439 529.788C579.302 531.021 580.124 532.607 580.946 533.449C581.846 534.35 583.314 535.015 584.606 534.957C585.898 534.898 587.327 534.467 588.266 533.449C589.245 532.372 589.617 531.237 589.773 529.788Z"
      fill="#263238"
    />
    <path
      d="M486.94 261.086C487.664 270.19 488.388 279.275 489.113 288.379C489.328 291.062 491.344 293.685 494.28 293.548C496.902 293.431 499.682 291.257 499.447 288.379C498.723 279.275 497.998 270.19 497.274 261.086C497.059 258.404 495.043 255.78 492.107 255.917C489.484 256.035 486.705 258.208 486.94 261.086Z"
      fill="#263238"
    />
    <path
      d="M462.044 128.086C463.453 135.78 464.882 143.475 466.291 151.169C466.781 153.832 470.147 155.594 472.652 154.772C475.51 153.852 476.782 151.267 476.254 148.409C474.844 140.714 473.416 133.02 472.006 125.325C471.517 122.662 468.151 120.9 465.645 121.723C462.788 122.643 461.516 125.227 462.044 128.086Z"
      fill="#263238"
    />
    <path
      d="M424.23 49.0063C423.761 55.8002 424.563 62.7507 426.52 69.2705C427.303 71.8549 430.18 73.7541 432.881 72.873C435.582 71.992 437.324 69.2901 436.483 66.5099C436.032 65.0415 435.661 63.5534 435.347 62.0459C435.171 61.2431 435.034 60.4208 434.897 59.6181C434.839 59.2656 434.799 58.9132 434.741 58.5608C435.015 60.0684 434.76 58.6979 434.741 58.3454C434.408 55.2324 434.369 52.0997 434.584 48.9867C434.78 46.2848 432.079 43.7003 429.417 43.8178C426.462 43.9549 424.446 46.089 424.25 48.9867L424.23 49.0063Z"
      fill="#263238"
    />
    <path
      d="M500.014 52.472C502.813 64.376 505.612 76.2605 508.391 88.1645C509.037 90.886 512.13 92.4915 514.752 91.7671C517.532 91.0035 519 88.1449 518.354 85.4039C515.555 73.4999 512.756 61.6154 509.977 49.7114C509.331 46.9899 506.238 45.3844 503.616 46.1089C500.836 46.8724 499.369 49.731 500.014 52.472Z"
      fill="#263238"
    />
    <path
      d="M531.095 159.628C535.401 184.102 539.707 208.575 543.993 233.049C544.483 235.79 547.849 237.356 550.354 236.652C553.251 235.849 554.445 233.049 553.956 230.288C549.65 205.815 545.344 181.341 541.058 156.867C540.568 154.126 537.202 152.56 534.697 153.265C531.8 154.067 530.606 156.867 531.095 159.628Z"
      fill="#263238"
    />
    <path
      d="M562.744 336.641C563.448 346.431 564.153 356.24 564.838 366.029C565.034 368.712 567.069 371.335 570.005 371.198C572.647 371.081 575.368 368.927 575.172 366.029C574.468 356.24 573.763 346.431 573.078 336.641C572.882 333.959 570.847 331.335 567.911 331.472C565.269 331.59 562.548 333.744 562.744 336.641Z"
      fill="#263238"
    />
    <path
      d="M585.213 273.049C590.791 311.756 596.389 350.444 601.967 389.152C603.552 400.116 605.137 411.081 606.723 422.045C607.114 424.805 610.637 426.333 613.084 425.647C616.059 424.825 617.096 422.064 616.685 419.284C611.107 380.576 605.509 341.888 599.931 303.181C598.346 292.216 596.761 281.252 595.175 270.288C594.784 267.527 591.261 266 588.814 266.685C585.839 267.508 584.802 270.268 585.213 273.049Z"
      fill="#263238"
    />
    <path
      d="M615.335 476.592C616.822 484.972 618.31 493.351 619.778 501.731C620.247 504.394 623.653 506.136 626.139 505.334C628.996 504.413 630.249 501.829 629.74 498.97C628.252 490.591 626.765 482.211 625.297 473.831C624.827 471.168 621.422 469.426 618.936 470.229C616.078 471.149 614.826 473.733 615.335 476.592Z"
      fill="#263238"
    />
    <path
      d="M630.112 512.382C629.72 512.284 629.348 512.147 628.957 511.991L630.19 512.519C629.525 512.245 628.918 511.873 628.35 511.443L629.388 512.245C628.82 511.795 628.311 511.305 627.88 510.738L628.683 511.775C628.233 511.188 627.841 510.542 627.567 509.857L628.096 511.09C627.881 510.581 627.724 510.033 627.626 509.485C627.47 508.819 627.156 508.232 626.706 507.723C626.334 507.155 625.865 506.724 625.258 506.391C624.671 506.019 624.025 505.804 623.34 505.784C622.655 505.628 621.97 505.667 621.285 505.882C620.032 506.293 618.838 507.057 618.192 508.251L617.664 509.485C617.409 510.405 617.409 511.325 617.664 512.226C617.879 513.42 618.388 514.575 618.936 515.652C619.112 516.004 619.327 516.357 619.562 516.69C620.032 517.355 620.541 518.041 621.108 518.628C621.931 519.509 622.929 520.273 623.946 520.899C624.475 521.212 625.023 521.447 625.591 521.682C626.158 521.917 626.745 522.172 627.352 522.328C628.663 522.661 630.151 522.505 631.325 521.8C631.932 521.467 632.402 521.036 632.774 520.468C633.224 519.979 633.537 519.392 633.693 518.706C633.987 517.375 633.928 515.907 633.165 514.732C632.402 513.557 631.404 512.696 630.073 512.363L630.112 512.382Z"
      fill="#263238"
    />
    <path
      d="M640.055 518.569C641.444 514.379 642.853 510.17 644.243 505.98C645.104 503.415 643.264 500.224 640.642 499.617C637.784 498.971 635.201 500.478 634.281 503.219L630.092 515.809C629.231 518.374 631.071 521.565 633.694 522.172C636.551 522.818 639.135 521.31 640.055 518.569Z"
      fill="#263238"
    />
    <path
      d="M661.545 439.509L665.714 481.506C665.988 484.286 667.886 486.675 670.881 486.675C673.464 486.675 676.322 484.306 676.048 481.506L671.879 439.509C671.605 436.729 669.707 434.34 666.712 434.34C664.129 434.34 661.271 436.709 661.545 439.509Z"
      fill="#263238"
    />
    <path
      d="M472.691 522.779L474.844 528.868L478.446 522.505C478.152 522.563 477.878 522.602 477.585 522.642L478.955 522.465C477.232 522.7 475.49 522.7 473.768 522.465L475.138 522.642C473.416 522.407 471.732 521.937 470.127 521.271L471.361 521.8C470.832 521.565 470.304 521.31 469.795 521.056C468.581 520.41 467.152 520.155 465.822 520.527C464.628 520.86 463.316 521.78 462.729 522.896C461.457 525.285 462.044 528.613 464.589 529.964C466.918 531.198 469.442 532.157 472.065 532.568C473.553 532.803 475.06 532.979 476.567 532.96C478.074 532.94 479.659 532.725 481.166 532.451C482.321 532.235 483.711 531.1 484.259 530.082C484.885 528.907 485.237 527.399 484.787 526.107L482.634 520.018C482.184 518.726 481.46 517.629 480.266 516.925C479.15 516.278 477.526 516.004 476.293 516.396C475.06 516.787 473.846 517.571 473.2 518.765C472.554 519.959 472.222 521.447 472.672 522.739L472.691 522.779Z"
      fill="#263238"
    />
    <path
      d="M590.028 111.992L592.122 149.78C592.278 152.56 594.392 154.948 597.289 154.948C599.97 154.948 602.613 152.579 602.456 149.78L600.362 111.992C600.205 109.212 598.091 106.823 595.195 106.823C592.513 106.823 589.871 109.192 590.028 111.992Z"
      fill="#263238"
    />
    <path
      d="M621.52 101.498C622.224 107.097 622.909 112.697 623.614 118.296C623.79 119.726 624.064 120.9 625.121 121.958C626.021 122.858 627.489 123.524 628.781 123.465C630.073 123.407 631.501 122.976 632.441 121.958C633.302 121.018 634.124 119.628 633.948 118.296C633.243 112.697 632.558 107.097 631.854 101.498C631.678 100.068 631.404 98.8936 630.347 97.8364C629.446 96.9357 627.978 96.2701 626.687 96.3288C625.395 96.3875 623.966 96.8183 623.027 97.8364C622.165 98.7762 621.343 100.166 621.52 101.498Z"
      fill="#263238"
    />
    <path
      d="M659.47 306.529C660.938 311.189 662.034 315.946 662.739 320.782C662.798 321.154 662.798 321.154 662.739 320.782C662.778 321.154 662.837 321.507 662.876 321.879C662.935 322.427 662.993 322.975 663.052 323.524C663.169 324.718 663.267 325.912 663.346 327.106C663.502 329.593 663.541 332.08 663.483 334.566C663.424 337.268 665.89 339.852 668.65 339.735C671.409 339.617 673.758 337.464 673.817 334.566C674.012 324.17 672.545 313.714 669.433 303.807C668.63 301.223 665.792 299.324 663.072 300.205C660.351 301.086 658.609 303.807 659.47 306.568V306.529Z"
      fill="#263238"
    />
    <path
      d="M31.5115 151.914L33.6644 168.693C33.8406 170.122 34.1146 171.297 35.1715 172.354C36.0718 173.255 37.5398 173.92 38.8315 173.862C40.1233 173.803 41.5521 173.372 42.4916 172.354C43.3527 171.414 44.1748 170.024 43.9986 168.693L41.8457 151.914C41.6695 150.484 41.3955 149.31 40.3386 148.252C39.4383 147.352 37.9703 146.686 36.6786 146.745C35.3868 146.804 33.958 147.234 33.0185 148.252C32.1574 149.192 31.3353 150.582 31.5115 151.914Z"
      fill="#263238"
    />
    <path
      d="M50.6336 272.97L52.7279 285.56C52.9236 286.754 54.0979 288.066 55.0961 288.653C56.2117 289.299 57.8363 289.573 59.0693 289.182C60.3024 288.79 61.5159 288.007 62.1617 286.813C62.8468 285.521 62.9251 284.268 62.6902 282.838L60.5959 270.249C60.4002 269.055 59.2259 267.743 58.2277 267.156C57.1121 266.509 55.4876 266.235 54.2545 266.627C53.0215 267.018 51.808 267.802 51.1621 268.996C50.4771 270.288 50.3988 271.541 50.6336 272.97Z"
      fill="#263238"
    />
    <path
      d="M65.626 390.483C68.464 407.967 71.2825 425.471 74.1204 442.955C74.5706 445.716 77.9958 447.243 80.4815 446.557C83.4173 445.755 84.5329 442.974 84.0828 440.194C81.2448 422.71 78.4264 405.207 75.5884 387.723C75.1382 384.962 71.713 383.435 69.2274 384.12C66.2915 384.923 65.1759 387.703 65.626 390.483Z"
      fill="#263238"
    />
    <path
      d="M80.227 535.368L82.3213 550.072C82.4974 551.266 83.7109 552.578 84.6895 553.165C85.8051 553.811 87.4296 554.085 88.6627 553.694C89.8958 553.302 91.1092 552.519 91.7551 551.325L92.2836 550.091C92.538 549.171 92.538 548.251 92.2836 547.35L90.1893 532.646C90.0132 531.452 88.7997 530.14 87.8211 529.553C86.7055 528.907 85.081 528.633 83.8479 529.024C82.6148 529.416 81.4014 530.199 80.7555 531.393L80.227 532.627C79.9726 533.547 79.9726 534.467 80.227 535.368Z"
      fill="#263238"
    />
    <path
      d="M88.7997 640.292C94.3582 657.795 99.8972 675.318 105.456 692.822C107.452 699.146 117.434 696.444 115.418 690.081C109.86 672.577 104.321 655.054 98.762 637.551C96.7656 631.227 86.7837 633.928 88.7997 640.292Z"
      fill="#263238"
    />
    <path
      d="M0.0195821 305.178L4.24721 345.06C4.54079 347.84 6.41973 350.229 9.4143 350.229C11.9783 350.229 14.875 347.86 14.5814 345.06L10.3538 305.178C10.0602 302.397 8.18125 300.009 5.18668 300.009C2.6227 300.009 -0.274003 302.378 0.0195821 305.178Z"
      fill="#263238"
    />
    <path
      d="M738.836 492.529C742.731 511.07 746.626 529.592 750.521 548.133C751.088 550.875 754.298 552.441 756.882 551.736C759.72 550.953 761.07 548.114 760.483 545.373C756.588 526.832 752.693 508.31 748.798 489.768C748.231 487.027 745.021 485.461 742.437 486.166C739.599 486.949 738.249 489.788 738.836 492.529Z"
      fill="#263238"
    />
    <path
      d="M771.209 709.856C775.612 727.575 779.488 745.431 782.835 763.365C783.344 766.106 786.671 767.673 789.196 766.968C792.073 766.185 793.306 763.365 792.797 760.605C789.45 742.651 785.575 724.814 781.171 707.095C779.566 700.654 769.604 703.375 771.209 709.836V709.856Z"
      fill="#263238"
    />
    <path
      d="M49.3614 738.892C50.6336 750.796 51.9058 762.719 53.1976 774.623C53.4912 777.403 55.3506 779.792 58.3647 779.792C60.9287 779.792 63.8254 777.423 63.5318 774.623C62.2596 762.719 60.9874 750.796 59.6956 738.892C59.402 736.111 57.5427 733.723 54.5285 733.723C51.9646 733.723 49.0679 736.092 49.3614 738.892Z"
      fill="#263238"
    />
    <path
      d="M57.9733 775.093C50.4575 767.418 40.8279 761.858 30.435 759.195C27.8123 758.53 24.7003 760.057 24.074 762.798C23.4477 765.539 24.8765 768.436 27.6753 769.161C29.9653 769.748 32.1965 770.492 34.3886 771.334C35.3085 771.687 33.9189 771.119 34.506 771.373C34.7605 771.491 35.0149 771.589 35.2694 771.706C35.7782 771.941 36.2871 772.176 36.7764 772.411C37.8921 772.959 39.0077 773.547 40.0842 774.173C41.1019 774.76 42.1001 775.387 43.0787 776.033C43.5485 776.346 43.9986 776.66 44.4488 776.973C44.6837 777.13 44.899 777.306 45.1143 777.462C45.1143 777.462 46.1516 778.246 45.584 777.815C45.0751 777.423 45.7993 777.991 45.8776 778.05C46.0929 778.226 46.3082 778.402 46.5235 778.578C47.0128 778.97 47.4825 779.381 47.9327 779.792C48.8721 780.615 49.7529 781.496 50.6337 782.377C52.5322 784.315 56.0552 784.413 57.9341 782.377C59.8131 780.341 59.9501 777.13 57.9341 775.074L57.9733 775.093Z"
      fill="#263238"
    />
    <path
      d="M65.5282 779.127C65.9783 777.443 66.5068 775.779 67.1331 774.153C67.2897 773.742 67.4463 773.351 67.6029 772.94C67.8181 772.431 67.7594 772.528 67.4658 773.272C67.5441 773.077 67.642 772.881 67.7203 772.665C68.053 771.921 68.4053 771.177 68.7576 770.453C69.5209 768.945 70.343 767.457 71.2433 766.028C71.713 765.284 72.1828 764.56 72.6917 763.855C72.9461 763.503 73.2005 763.15 73.455 762.798C73.592 762.621 73.7094 762.445 73.8464 762.269C73.3767 762.876 73.2984 762.974 73.6311 762.543C74.5119 761.408 75.1382 760.389 75.1382 758.882C75.1382 757.609 74.5706 756.102 73.6311 755.221C72.6917 754.34 71.3607 753.654 69.9711 753.713C68.6989 753.772 67.1331 754.183 66.3111 755.221C61.3593 761.545 57.6405 768.613 55.5267 776.385C54.8221 778.989 56.4075 782.122 59.128 782.749C61.8486 783.375 64.7257 781.926 65.489 779.146L65.5282 779.127Z"
      fill="#263238"
    />
    <path
      d="M798.904 776.992C799.158 776.072 799.432 775.152 799.765 774.251C799.921 773.801 800.097 773.351 800.274 772.9C800.567 772.156 800.391 772.685 800.176 773.096C800.274 772.9 800.352 772.704 800.43 772.509C801.233 770.707 802.192 768.965 803.249 767.32C803.777 766.518 804.325 765.734 804.893 764.971C805.284 764.423 804.247 765.774 804.677 765.264C804.854 765.069 805.01 764.853 805.186 764.638C805.499 764.266 805.813 763.914 806.126 763.542C807.437 762.073 808.866 760.703 810.393 759.45C812.487 757.727 812.311 753.909 810.393 752.147C808.161 750.11 805.323 750.306 803.092 752.147C796.261 757.785 791.29 765.715 788.941 774.251C788.217 776.855 789.822 779.988 792.543 780.614C795.263 781.241 798.121 779.792 798.904 777.012V776.992Z"
      fill="#263238"
    />
    <path
      d="M793.208 764.716C790.116 760.663 786.671 757.217 782.619 754.124C778.861 751.265 774.712 749.131 770.328 747.408C769.154 746.958 767.392 747.31 766.355 747.937C765.317 748.563 764.261 749.797 763.987 751.03C763.301 754.006 764.887 756.336 767.588 757.393C767.842 757.491 768.077 757.589 768.332 757.687C768.938 757.922 767.118 757.159 768.136 757.609C768.586 757.805 769.017 758 769.447 758.216C770.328 758.627 771.17 759.077 772.011 759.547C773.792 760.546 775.495 761.662 777.139 762.876C777.276 762.974 777.883 763.443 777.257 762.954C776.591 762.445 777.354 763.032 777.491 763.15C777.863 763.463 778.235 763.757 778.607 764.07C779.37 764.736 780.134 765.421 780.858 766.145C781.543 766.831 782.208 767.516 782.854 768.24C783.207 768.632 783.559 769.043 783.911 769.454C784.166 769.767 785.242 771.138 784.303 769.924C785.164 771.04 785.986 771.902 787.395 772.293C788.628 772.626 790.272 772.489 791.368 771.764C793.482 770.394 794.97 766.987 793.228 764.696L793.208 764.716Z"
      fill="#263238"
    />
    <path
      d="M788.041 552.382C789.548 560.586 791.642 568.652 794.343 576.523C795.224 579.068 797.925 581.026 800.704 580.126C803.229 579.303 805.245 576.503 804.306 573.762C801.605 565.872 799.51 557.806 798.003 549.622C797.514 546.959 794.148 545.197 791.642 546.019C788.785 546.939 787.513 549.524 788.041 552.382Z"
      fill="#263238"
    />
    <path
      d="M697.754 253.215C701.394 267.841 706.013 282.192 711.552 296.191C712.57 298.776 715.017 300.596 717.913 299.794C720.379 299.108 722.552 296.054 721.515 293.43C715.976 279.412 711.357 265.061 707.716 250.455C706.111 244.013 696.149 246.735 697.754 253.196V253.215Z"
      fill="#263238"
    />
    <path
      d="M660.605 59.755C661.545 70.8759 664.363 81.5464 669.041 91.6883C670.176 94.1553 673.915 94.958 676.107 93.5483C678.651 91.9037 679.18 89.1039 677.966 86.4803C676.929 84.2287 676.381 82.9169 675.461 80.2934C674.658 78.0222 673.954 75.7315 673.327 73.4016C672.701 71.0717 672.192 68.7222 671.781 66.3531C671.683 65.8245 671.605 65.2959 671.527 64.7672C671.507 64.591 671.233 62.6135 671.331 63.4946C671.175 62.2611 671.057 61.0081 670.94 59.7746C670.705 57.0923 668.728 54.4687 665.773 54.6057C663.169 54.7232 660.371 56.8965 660.605 59.7746V59.755Z"
      fill="#263238"
    />
    <path
      d="M585.409 3.75928C584.254 8.30161 583.823 13.0985 584.313 17.7583C584.469 19.1679 584.782 20.3818 585.82 21.4195C586.72 22.3202 588.188 22.9859 589.48 22.9271C590.771 22.8684 592.2 22.4376 593.14 21.4195C594.001 20.4797 594.803 19.1092 594.647 17.7583C594.334 14.8801 594.373 12.002 594.764 9.14351L594.588 10.514C594.784 9.16308 595.038 7.83171 595.371 6.51992C595.704 5.20813 595.547 3.72013 594.842 2.54539C594.216 1.46854 592.983 0.450434 591.75 0.176328C589.069 -0.43062 586.113 0.979067 585.389 3.77886L585.409 3.75928Z"
      fill="#263238"
    />
    <path
      d="M20.7663 499.578C20.3748 511.286 21.2164 522.974 23.0562 534.546C23.4868 537.306 26.9315 538.833 29.4172 538.148C32.3531 537.345 33.4687 534.565 33.0185 531.785C31.3549 521.33 30.7481 510.346 31.1004 499.558C31.1983 496.856 28.6539 494.272 25.9333 494.389C23.0562 494.526 20.8641 496.66 20.7663 499.558V499.578Z"
      fill="#263238"
    />
    <path
      d="M12.5263 604.873L14.6401 618.52C14.8163 619.714 16.0102 621.026 17.0084 621.613C18.124 622.259 19.7485 622.534 20.9816 622.142C22.2146 621.75 23.4281 620.967 24.074 619.773L24.6024 618.539C24.8569 617.619 24.8569 616.699 24.6024 615.798L22.4886 602.152C22.3125 600.957 21.1186 599.646 20.1204 599.058C19.0048 598.412 17.3802 598.138 16.1472 598.53C14.9141 598.921 13.7006 599.704 13.0548 600.899L12.5263 602.132C12.2719 603.052 12.2719 603.973 12.5263 604.873Z"
      fill="#263238"
    />
    <path
      d="M830.748 654.76L832.862 662.103C833.234 663.356 834.095 664.53 835.23 665.196C835.817 665.568 836.463 665.783 837.148 665.803C837.833 665.96 838.518 665.92 839.203 665.705C840.456 665.294 841.65 664.53 842.296 663.336C842.941 662.142 843.215 660.712 842.824 659.361L840.71 652.019C840.338 650.766 839.477 649.592 838.342 648.926C837.755 648.554 837.109 648.338 836.424 648.319C835.739 648.162 835.054 648.201 834.369 648.417C833.116 648.828 831.922 649.592 831.276 650.786C830.63 651.98 830.356 653.409 830.748 654.76Z"
      fill="#263238"
    />
  </g>
  <defs>
    <clipPath id="clip0_112_835">
      <rect width="843" height="785" fill="white" />
    </clipPath>
  </defs>
</svg>
