<svg width="369" height="399" viewBox="0 0 369 399" fill="none" xmlns="http://www.w3.org/2000/svg">
<g clip-path="url(#clip0_110_399)">
<path d="M16.14 338.56C16.14 338.56 -11.98 150.87 116.92 143.57C171.21 141.46 195.72 181.47 216.49 207.73V338.56C216.49 338.56 121.89 365.42 16.14 338.56Z" fill="#7BB2E9"/>
<path d="M303.54 124.23C335.954 124.23 362.23 98.5266 362.23 66.82C362.23 35.1133 335.954 9.40997 303.54 9.40997C271.126 9.40997 244.85 35.1133 244.85 66.82C244.85 98.5266 271.126 124.23 303.54 124.23Z" fill="#EC1C24"/>
<path d="M73.6 381.41C73.6 381.41 94.22 399.7 150.6 398.17C206.98 396.64 196.31 365.41 196.31 365.41C196.31 365.41 199.76 352.46 129.85 360.08C59.94 367.7 73.61 381.41 73.61 381.41H73.6Z" fill="#7BB2E9"/>
<path d="M41.95 315.21C31.6 269.33 40.34 219.89 65.7 180.28C77.99 161.08 94.94 142.33 116.98 134.55C135.99 127.85 157.69 129 175.95 137.54C186.72 142.58 195.83 149.8 203.32 159.02C211.91 169.59 218.72 181.49 228.89 190.73C234.59 195.91 243.1 187.45 237.38 182.24C227.44 173.21 220.68 161.57 212.34 151.17C205.23 142.31 196.5 134.86 186.5 129.43C166.61 118.63 142.64 115.35 120.65 120.9C96.29 127.05 77 144.42 62.32 164.12C47.23 184.37 36.56 208.04 30.8 232.6C24.2 260.78 24.01 290.16 30.38 318.39C32.08 325.92 43.65 322.73 41.95 315.2V315.21Z" fill="#263238"/>
<path d="M44.11 210.17C40.77 214.64 41.07 220.12 41.55 225.39C42.17 232.24 42.84 239.09 43.55 245.94C45 259.96 46.62 273.95 48.4 287.93C49.36 295.49 61.37 295.58 60.4 287.93C58.79 275.25 57.3 262.56 55.96 249.85C55.31 243.66 54.69 237.46 54.1 231.26C53.69 226.96 51.67 219.98 54.48 216.23C59.11 210.04 48.69 204.05 44.12 210.17H44.11Z" fill="#263238"/>
<path d="M61.48 174.68C61.5 206.11 63.55 237.48 67.6 268.65C68.02 271.89 70.06 274.61 73.6 274.65C76.52 274.68 80.02 271.86 79.6 268.65C75.55 237.48 73.51 206.11 73.48 174.68C73.48 166.96 61.47 166.95 61.48 174.68Z" fill="#263238"/>
<path d="M78.46 161.43C78.34 188.61 80.43 215.69 84.51 242.56C85.67 250.17 97.23 246.94 96.08 239.37C92.16 213.58 90.34 187.52 90.45 161.43C90.48 153.71 78.48 153.7 78.45 161.43H78.46Z" fill="#263238"/>
<path d="M99.98 134.92C101.3 169.5 103.37 204.04 106.17 238.53C106.79 246.17 118.8 246.24 118.17 238.53C115.37 204.04 113.31 169.5 111.98 134.92C111.69 127.22 99.68 127.18 99.98 134.92Z" fill="#263238"/>
<path d="M123.84 127.7C125.18 161.07 127.37 194.41 130.41 227.67C131.11 235.3 143.11 235.37 142.41 227.67C139.38 194.41 137.19 161.08 135.84 127.7C135.53 120 123.53 119.96 123.84 127.7Z" fill="#263238"/>
<path d="M148.19 125.28C147.9 158.07 150.13 190.77 154.65 223.24C155.71 230.86 167.27 227.61 166.22 220.05C161.85 188.66 159.91 156.96 160.18 125.28C160.25 117.56 148.25 117.55 148.18 125.28H148.19Z" fill="#263238"/>
<path d="M169.81 133.72C171.86 163.84 173.91 193.95 175.97 224.07C176.49 231.73 188.5 231.79 187.97 224.07C185.92 193.95 183.87 163.84 181.81 133.72C181.29 126.06 169.28 126 169.81 133.72Z" fill="#263238"/>
<path d="M194.92 150.61C196.52 172.7 198.12 194.79 199.72 216.88C200.27 224.54 212.28 224.6 211.72 216.88C210.12 194.79 208.52 172.7 206.92 150.61C206.37 142.95 194.36 142.89 194.92 150.61Z" fill="#263238"/>
<path d="M91.95 286.29C102.81 283.12 113.66 279.95 124.52 276.78C131.92 274.62 128.77 263.04 121.33 265.21C110.47 268.38 99.62 271.55 88.76 274.72C81.36 276.88 84.51 288.46 91.95 286.29Z" fill="#263238"/>
<path d="M116.92 292.73H118.12C118.95 292.76 119.72 292.59 120.43 292.21C121.17 291.97 121.82 291.55 122.36 290.97C122.95 290.43 123.36 289.78 123.6 289.04C123.98 288.32 124.15 287.55 124.12 286.73L123.91 285.13C123.62 284.11 123.11 283.23 122.37 282.48L121.16 281.54C120.22 281 119.21 280.72 118.13 280.72H116.93C116.1 280.69 115.33 280.86 114.62 281.24C113.88 281.48 113.23 281.9 112.69 282.48C112.1 283.02 111.69 283.67 111.45 284.41C111.07 285.13 110.9 285.9 110.93 286.72L111.14 288.32C111.43 289.34 111.94 290.22 112.68 290.97L113.89 291.91C114.83 292.45 115.84 292.73 116.92 292.73Z" fill="#263238"/>
<path d="M152.19 276.61L193.43 265.6C200.88 263.61 197.72 252.03 190.24 254.03C176.49 257.7 162.75 261.37 149 265.04C141.55 267.03 144.71 278.61 152.19 276.61Z" fill="#263238"/>
<path d="M187.38 280.13L188.58 281.33C189.12 281.92 189.77 282.33 190.51 282.57C191.23 282.95 192 283.12 192.82 283.09C193.65 283.12 194.42 282.95 195.13 282.57C195.87 282.33 196.52 281.91 197.06 281.33L198 280.12C198.54 279.18 198.82 278.17 198.82 277.09L198.61 275.49C198.32 274.47 197.81 273.59 197.07 272.84L195.87 271.64C195.33 271.05 194.68 270.64 193.94 270.4C193.22 270.02 192.45 269.85 191.63 269.88C190.8 269.85 190.03 270.02 189.32 270.4C188.58 270.64 187.93 271.06 187.39 271.64L186.45 272.85C185.91 273.79 185.63 274.8 185.63 275.88L185.84 277.48C186.13 278.5 186.64 279.38 187.38 280.13Z" fill="#263238"/>
<path d="M33.01 330.14C88.4 344.65 146.55 346.23 202.66 334.91C210.22 333.39 207.02 321.82 199.47 323.34C145.5 334.22 89.45 332.52 36.2 318.57C28.72 316.61 25.53 328.18 33.01 330.14Z" fill="#263238"/>
<path d="M149.45 318.03C157.17 318.03 157.18 306.03 149.45 306.03C141.72 306.03 141.72 318.03 149.45 318.03Z" fill="#263238"/>
<path d="M85.64 334.92C85.54 348.08 87.22 361.16 90.62 373.87C92.61 381.32 104.19 378.16 102.19 370.68C99.05 358.94 97.55 347.07 97.64 334.92C97.7 327.2 85.7 327.19 85.64 334.92Z" fill="#263238"/>
<path d="M173.61 337.33C174.77 349.38 175.93 361.43 177.1 373.49C177.83 381.11 189.84 381.18 189.1 373.49C187.94 361.44 186.78 349.39 185.61 337.33C184.88 329.71 172.87 329.64 173.61 337.33Z" fill="#263238"/>
<path d="M22.02 253.09C17.35 256.83 14.94 262.16 12.94 267.66C10.53 274.33 8.51001 281.15 6.76001 288.02C3.26001 301.81 1.08001 315.91 0.0100143 330.09C-0.569986 337.79 11.43 337.76 12.01 330.09C12.96 317.58 14.89 305.21 17.88 293.02C19.29 287.28 20.92 281.6 22.76 275.98C24.5 270.68 25.99 265.18 30.5 261.57C36.53 256.74 27.99 248.3 22.01 253.08L22.02 253.09Z" fill="#263238"/>
<path d="M236.73 293.26C257.84 275.82 280.23 260.04 303.68 245.92C310.29 241.94 304.26 231.56 297.62 235.56C273.29 250.21 250.13 266.69 228.24 284.78C222.28 289.7 230.81 298.15 236.73 293.27V293.26Z" fill="#263238"/>
<path d="M295.99 126.48C295.63 169.05 295.27 211.63 294.91 254.2C294.84 261.92 306.84 261.93 306.91 254.2C307.27 211.63 307.63 169.05 307.99 126.48C308.06 118.76 296.06 118.75 295.99 126.48Z" fill="#263238"/>
<path d="M301.99 126.48C335.26 126.48 362.23 99.5096 362.23 66.24C362.23 32.9704 335.26 6 301.99 6C268.72 6 241.75 32.9704 241.75 66.24C241.75 99.5096 268.72 126.48 301.99 126.48Z" stroke="#263238" stroke-width="12" stroke-miterlimit="10"/>
<path d="M321.87 34.98C303.25 51.33 286.1 69.24 270.55 88.54C265.75 94.5 274.19 103.04 279.04 97.03C294.59 77.73 311.74 59.83 330.36 43.47C336.17 38.36 327.66 29.9 321.87 34.98Z" fill="white"/>
<path d="M271.08 43.77C285.51 65.34 301.9 85.53 320.1 104.03C325.52 109.54 334.01 101.06 328.59 95.54C311.09 77.75 295.32 58.45 281.44 37.71C277.17 31.32 266.77 37.32 271.08 43.77Z" fill="white"/>
</g>
<defs>
<clipPath id="clip0_110_399">
<rect width="368.23" height="398.27" fill="white"/>
</clipPath>
</defs>
</svg>

