<svg width="435" height="401" viewBox="0 0 435 401" fill="none" xmlns="http://www.w3.org/2000/svg">
<g clip-path="url(#clip0_112_676)">
<path d="M251.95 161.1L214.2 182.24C214.2 182.24 140.49 123.75 86.2 185.85C43.91 157.09 37.32 151.6 37.32 151.6C37.32 151.6 31.89 326.24 160.48 326.24C274.28 326.24 240.55 191.95 251.95 161.1Z" fill="#7BB2E9"/>
<path d="M321.25 24.96L324.16 103.77L414.39 100.91L417.82 16.75L321.25 24.96Z" fill="#37B34A"/>
<path d="M105.95 382.05C104.44 369.42 142.72 354.46 166.14 348.15C215.69 334.79 277.11 339.01 280.04 354.25C282.9 369.12 230.49 396.91 179.47 399.96C147.42 401.88 107.43 394.53 105.95 382.06V382.05Z" fill="#5B6B7D"/>
<path d="M105.09 172.19C118 157.46 136.33 147.67 156.01 146.35C176.19 145 196.3 152.09 211.26 165.68C216.97 170.86 225.48 162.4 219.75 157.19C202.55 141.57 179.34 132.78 156.02 134.35C133.26 135.88 111.65 146.55 96.62 163.71C91.55 169.5 100 178.02 105.11 172.2L105.09 172.19Z" fill="#263238"/>
<path d="M221.87 168.43C235.62 155 251.94 144.51 269.96 137.79L262.58 130.41C258.5 154.11 256.35 178.06 256.29 202.1C256.27 209.82 268.27 209.83 268.29 202.1C268.35 179.13 270.26 156.24 274.15 133.6C274.85 129.56 271.48 124.46 266.77 126.22C246.76 133.68 228.67 145.02 213.38 159.95C207.85 165.35 216.33 173.84 221.87 168.44V168.43Z" fill="#263238"/>
<path d="M70.8 236.48C45.01 223.54 20.64 241.56 1.93001 258.17C-3.85999 263.31 4.66001 271.77 10.42 266.66C24.46 254.19 44.71 236.8 64.74 246.85C71.62 250.3 77.71 239.96 70.8 236.49V236.48Z" fill="#263238"/>
<path d="M75.39 256.87C56.1 253.16 35.8 262.36 26.72 280.02C23.19 286.88 33.54 292.95 37.08 286.08C43.59 273.42 58.01 265.72 72.2 268.45C79.75 269.9 82.98 258.34 75.39 256.88V256.87Z" fill="#263238"/>
<path d="M77.64 274.97C58.78 287.57 45.01 306.34 38.93 328.21C36.86 335.66 48.43 338.84 50.5 331.4C55.73 312.6 67.45 296.18 83.7 285.33C90.09 281.06 84.09 270.66 77.64 274.97Z" fill="#263238"/>
<path d="M251.95 225.17C268.87 222.92 285.53 226.29 300.08 235.26C306.67 239.33 312.7 228.95 306.14 224.9C290 214.94 270.78 210.66 251.95 213.17C248.71 213.6 245.99 215.62 245.95 219.17C245.92 222.08 248.74 225.6 251.95 225.17Z" fill="#263238"/>
<path d="M252.77 245.05C266.53 247.61 279.36 252.61 291.17 260.12C297.71 264.27 303.73 253.89 297.23 249.76C284.63 241.75 270.64 236.21 255.96 233.48C248.41 232.08 245.18 243.64 252.77 245.05Z" fill="#263238"/>
<path d="M254.96 260.5C265 269.34 275.04 278.18 285.07 287.01C290.85 292.1 299.37 283.64 293.56 278.52C283.52 269.68 273.48 260.84 263.45 252.01C257.67 246.92 249.15 255.38 254.96 260.5Z" fill="#263238"/>
<path d="M98.72 296.23C121 313.15 149.71 321.81 177.66 319.43C205.61 317.05 231.26 304.9 250.79 285.3C256.25 279.82 247.77 271.33 242.3 276.81C224.72 294.45 200.99 305.81 176.04 307.54C150.42 309.32 125.16 301.33 104.77 285.85C98.62 281.18 92.63 291.6 98.71 296.21L98.72 296.23Z" fill="#263238"/>
<path d="M135.85 192.82C131 188.84 124.91 188.18 119.41 191.44C113.91 194.7 111.15 201.55 109.04 207.5C104.07 221.54 102.42 236.69 103.95 251.48C104.74 259.09 116.74 259.17 115.95 251.48C114.96 241.88 115.21 232.22 117.21 222.76C117.63 220.78 123.62 198.23 127.36 201.3C133.29 206.16 141.82 197.72 135.85 192.81V192.82Z" fill="#263238"/>
<path d="M125.75 231.98C125.8 232.02 125.84 232.06 125.88 232.11L124.94 230.9C124.98 230.95 125 231 125.03 231.06L124.43 229.63C124.45 229.69 124.46 229.74 124.47 229.81L124.26 228.21C124.26 228.29 124.26 228.37 124.26 228.46L124.47 226.86C124.45 226.94 124.43 227.02 124.4 227.1L125 225.67C124.97 225.75 124.93 225.82 124.88 225.89L125.82 224.68C125.77 224.75 125.71 224.8 125.65 224.86L126.86 223.92C126.81 223.96 126.76 223.98 126.7 224.01L128.13 223.41C128.07 223.43 128.02 223.45 127.95 223.46L129.55 223.25C129.55 223.25 129.47 223.25 129.42 223.25L131.02 223.46C130.96 223.46 130.9 223.44 130.84 223.42L132.27 224.02C132.21 223.99 132.17 223.97 132.12 223.93L133.33 224.87C133.33 224.87 133.24 224.79 133.2 224.75L134.14 225.96C134.09 225.89 134.05 225.83 134.02 225.75L134.62 227.18C134.58 227.08 134.56 226.99 134.54 226.88L134.75 228.48C134.75 228.4 134.75 228.32 134.75 228.24L134.54 229.84C134.55 229.76 134.57 229.69 134.6 229.61L134 231.04C134.03 230.99 134.05 230.94 134.09 230.89L133.15 232.1C133.15 232.1 133.23 232.02 133.28 231.98L132.07 232.92C132.07 232.92 132.14 232.87 132.18 232.86C132.88 232.48 133.44 231.97 133.86 231.31C134.39 230.73 134.75 230.05 134.93 229.27C135.18 228.47 135.22 227.67 135.04 226.88C135 226.08 134.77 225.34 134.33 224.65C133.5 223.37 132.27 222.24 130.74 221.89L129.14 221.68C128.06 221.68 127.05 221.96 126.11 222.5C124.59 223.31 123.54 224.81 123.03 226.42C123.02 226.47 123 226.51 122.98 226.56C122.98 226.59 122.97 226.62 122.96 226.65L122.75 228.25C122.72 228.88 122.84 229.5 122.97 230.12C123.09 230.69 123.44 231.44 123.65 231.82C123.67 231.86 123.7 231.91 123.72 231.95C123.74 231.98 123.75 232 123.77 232.02L124.71 233.23C124.71 233.23 124.79 233.31 124.84 233.35L126.05 234.29C126.05 234.29 126.1 234.32 126.12 234.34C126.14 234.36 126.17 234.37 126.2 234.38L127.63 234.98C127.69 235 127.75 235.01 127.81 235.02L129.41 235.23C129.41 235.23 129.47 235.23 129.51 235.23C130.07 235.25 130.65 235.15 131.2 235C131.79 234.84 132.35 234.59 132.88 234.29C133.41 233.99 133.89 233.6 134.29 233.16L135.23 231.95C135.23 231.95 135.27 231.9 135.28 231.87C135.31 231.82 135.33 231.78 135.35 231.73C135.96 230.47 135.97 230.41 136.13 229.26C136.29 228.11 136.33 227.9 136.03 226.62C135.79 225.6 135.07 224.18 134.22 223.51C133.68 222.92 133.03 222.51 132.29 222.27C131.57 221.89 130.8 221.72 129.98 221.75C129.15 221.72 128.38 221.89 127.67 222.27C126.93 222.51 126.28 222.93 125.74 223.51C124.69 224.65 123.91 226.15 123.98 227.75L124.19 229.35C124.48 230.37 124.99 231.25 125.73 232L125.75 231.98Z" fill="#263238"/>
<path d="M196.96 197.41C198.11 191.18 194.48 185.97 188.18 184.8C181.88 183.63 176.55 188.41 174.01 193.95C167.7 207.75 164.12 224.34 164.79 239.49C165.13 247.18 177.13 247.22 176.79 239.49C176.41 230.96 177.6 222.73 179.8 214.49C180.84 210.58 182.06 206.72 183.38 202.9C183.86 201.52 184.27 200.05 184.96 198.76C185.3 197.99 185.76 197.31 186.33 196.7C185.56 196.22 185.25 195.4 185.4 194.23C184 201.78 195.57 205.02 196.97 197.42L196.96 197.41Z" fill="#263238"/>
<path d="M192.85 221.35C192.85 221.24 192.87 221.14 192.88 221.03L192.67 222.63C192.72 222.3 192.79 221.99 192.92 221.68L192.32 223.11C192.39 222.95 192.47 222.81 192.57 222.67L191.63 223.88C191.69 223.8 191.75 223.74 191.83 223.67L190.62 224.61C190.7 224.55 190.77 224.51 190.85 224.46L189.42 225.06C189.51 225.02 189.6 225 189.69 224.99L188.09 225.2C188.15 225.2 188.2 225.2 188.26 225.2L186.66 224.99C186.66 224.99 186.74 225 186.78 225.02L185.35 224.42C185.35 224.42 185.41 224.45 185.44 224.47L184.23 223.53C184.23 223.53 184.28 223.58 184.3 223.6L183.36 222.39L183.38 222.43L182.78 221C182.8 221.05 182.81 221.1 182.82 221.15L182.61 219.55C182.61 219.63 182.61 219.7 182.61 219.78L182.82 218.18C182.8 218.28 182.77 218.38 182.74 218.47L183.34 217.04C183.31 217.11 183.27 217.17 183.23 217.24L184.17 216.03C184.17 216.03 184.11 216.1 184.07 216.13L185.28 215.19C185.28 215.19 185.24 215.22 185.21 215.23L186.64 214.63H186.61C187.14 214.57 187.67 214.5 188.21 214.43H188.18C188.71 214.5 189.24 214.58 189.78 214.65H189.75C190.23 214.85 190.71 215.05 191.18 215.25C191.16 215.25 191.14 215.23 191.12 215.21L192.33 216.15L192.3 216.12L193.24 217.33C193.24 217.33 193.2 217.27 193.19 217.23L193.79 218.66L193.77 218.6C193.58 217.82 193.23 217.14 192.7 216.56C192.28 215.91 191.72 215.39 191.02 215.01C190.33 214.57 189.59 214.33 188.79 214.3C187.99 214.12 187.19 214.16 186.4 214.41C184.95 214.88 183.55 215.78 182.81 217.17C182.07 218.56 181.64 220.31 182.21 221.79C182.64 222.91 182.97 223.74 183.85 224.61C184.62 225.38 185.56 225.93 186.61 226.21C188.85 226.82 191.05 226.07 192.68 224.51C193.49 223.73 193.65 223.29 194.03 222.38C194.19 222.01 194.34 221.73 194.42 221.37C194.64 220.39 194.66 219.69 194.53 218.74C194.5 218.51 194.48 218.12 194.4 217.84C194.31 217.51 193.93 216.61 193.75 216.32C193.54 215.98 193.03 215.34 192.76 215.05C192.4 214.66 191.95 214.34 191.48 214.07C190.46 213.47 189.38 213.24 188.22 213.2C186.47 213.13 184.5 213.98 183.3 215.25C182.33 216.28 181.78 217.31 181.32 218.63C181.02 219.49 180.96 220.45 180.88 221.34C180.85 222.17 181.02 222.94 181.4 223.65C181.64 224.39 182.06 225.04 182.64 225.58C183.18 226.17 183.83 226.58 184.57 226.82C185.29 227.2 186.06 227.37 186.88 227.34C188.43 227.27 190.04 226.76 191.12 225.58L192.06 224.37C192.6 223.43 192.88 222.42 192.88 221.34L192.85 221.35Z" fill="#263238"/>
<path d="M149.56 284.16C166.6 293.11 187.64 290.33 201.72 277.2C207.38 271.92 198.88 263.45 193.23 268.71C183.2 278.07 167.77 280.19 155.61 273.8C148.78 270.21 142.71 280.57 149.55 284.16H149.56Z" fill="#263238"/>
<path d="M135.46 317.39C133.12 330.16 132.95 342.99 135.27 355.79C136.92 364.93 140.96 376.1 151.4 377.89C158.95 379.18 162.2 367.62 154.59 366.32C147.8 365.16 146.92 354.03 146.22 348.67C145.01 339.35 145.35 329.81 147.04 320.58C148.42 313.03 136.86 309.79 135.47 317.39H135.46Z" fill="#263238"/>
<path d="M201.57 309.17C199.75 322.48 195.59 337.59 198.6 350.95C200.95 361.39 210.16 370.85 221.44 369.88C229.08 369.22 229.15 357.22 221.44 357.88C212.75 358.63 209.67 349.27 209.65 342.15C209.62 332.24 211.81 322.15 213.14 312.36C213.58 309.12 212.36 305.96 208.95 304.98C206.16 304.18 202.01 305.96 201.57 309.17Z" fill="#263238"/>
<path d="M46.75 153.93C48.52 175.97 51.89 197.84 56.9 219.37C58.65 226.89 70.22 223.71 68.47 216.18C63.7 195.68 60.43 174.91 58.74 153.93C58.13 146.28 46.12 146.22 46.74 153.93H46.75Z" fill="#263238"/>
<path d="M53.72 149.44C65.28 156.59 75.62 165.2 84.81 175.22C90.04 180.92 98.51 172.42 93.3 166.73C83.45 156 72.17 146.74 59.78 139.08C53.19 135.01 47.16 145.38 53.72 149.44Z" fill="#263238"/>
<path d="M69.54 226.91C64.16 264.69 66.23 302.99 76.05 339.9C78.03 347.36 89.61 344.19 87.62 336.71C78.4 302.02 76.05 265.66 81.11 230.1C81.57 226.87 80.31 223.69 76.92 222.72C74.11 221.91 70 223.71 69.54 226.91Z" fill="#263238"/>
<path d="M266.67 218.46C304.86 204.22 344.47 194.19 384.84 188.56C392.46 187.5 389.21 175.93 381.65 176.99C341.29 182.63 301.67 192.65 263.48 206.89C256.31 209.56 259.41 221.17 266.67 218.46Z" fill="#263238"/>
<path d="M377.54 93.6499C378.62 130.2 379.7 166.75 380.78 203.3C381.01 211 393.01 211.04 392.78 203.3C391.7 166.75 390.62 130.2 389.54 93.6499C389.31 85.9499 377.31 85.9099 377.54 93.6499Z" fill="#263238"/>
<path d="M331.53 20.1799C329.72 38.2299 329.68 56.3399 331.43 74.3899C332.17 82.0099 344.18 82.0799 343.43 74.3899C341.68 56.3399 341.71 38.2299 343.53 20.1799C344.3 12.4999 332.3 12.5599 331.53 20.1799Z" fill="#263238"/>
<path d="M352.34 16.4799C377.3 12.4799 402.61 11.1999 427.85 12.4299C435.57 12.8099 435.55 0.809924 427.85 0.429924C401.5 -0.850076 375.19 0.729924 349.15 4.90992C341.55 6.12992 344.77 17.6999 352.34 16.4799Z" fill="#263238"/>
<path d="M422.63 12.9C420.27 39.76 419.65 66.72 420.77 93.65C421.09 101.34 433.09 101.38 432.77 93.65C431.65 66.71 432.27 39.75 434.63 12.9C435.31 5.20997 423.3 5.24997 422.63 12.9Z" fill="#263238"/>
<path d="M337.49 97.65C366.36 95.62 395.28 94.39 424.21 93.97C431.93 93.86 431.95 81.86 424.21 81.97C395.27 82.39 366.36 83.62 337.49 85.65C329.83 86.19 329.77 98.19 337.49 97.65Z" fill="#263238"/>
<path d="M360.85 61.87C365.88 66.28 371.28 70.11 377.19 73.26C380.03 74.77 383.74 74.01 385.4 71.11C393.08 57.66 401.7 44.77 411.33 32.64C416.08 26.65 407.65 18.11 402.84 24.15C392.56 37.1 383.24 50.69 375.03 65.05L383.24 62.9C378.23 60.23 373.6 57.13 369.33 53.39C363.54 48.32 355.02 56.78 360.84 61.88L360.85 61.87Z" fill="#263238"/>
</g>
<defs>
<clipPath id="clip0_112_676">
<rect width="434.66" height="400.26" fill="white"/>
</clipPath>
</defs>
</svg>

