<svg width="280" height="489" viewBox="0 0 280 489" fill="none" xmlns="http://www.w3.org/2000/svg">
<g clip-path="url(#clip0_112_710)">
<path d="M143.73 482.31C199.51 501.18 269.92 468.91 268.87 448.02C268.1 432.64 228.5 421.84 202.58 420.02C157.57 416.86 108.17 437.59 108.29 456.02C108.39 470.35 138.4 480.51 143.72 482.31H143.73Z" fill="#5B6B7D"/>
<path d="M0.299988 98.99L83.35 360.7L162.76 396.57L113.44 188.73L0.299988 98.99Z" fill="#006FDC"/>
<path d="M113.44 188.73L162.76 396.57L221.91 356.7L213.31 100.7C213.31 100.7 136.64 34.1901 90.47 16.5901C-9.98999 109.27 0.300006 98.9901 0.300006 98.9901L113.44 188.73Z" fill="#7BB2E9"/>
<path d="M127.45 1.12996C92.14 26.78 60.03 56.53 31.97 89.97C27.04 95.85 35.48 104.38 40.46 98.46C67.83 65.83 99.05 36.53 133.51 11.49C139.7 6.98996 133.72 -3.42004 127.45 1.12996Z" fill="#263238"/>
<path d="M125.45 13.1C156.15 32.2 185.87 52.86 214.37 75.12C220.39 79.82 228.94 71.39 222.86 66.63C193.55 43.73 163.1 22.37 131.51 2.72999C124.93 -1.36001 118.9 9.01999 125.45 13.09V13.1Z" fill="#263238"/>
<path d="M28.69 100.43C42 116.06 57.86 129.1 74.03 141.64C91.21 154.96 108.49 168.16 125.72 181.42C128.31 183.41 132.41 181.8 133.93 179.27C135.77 176.2 134.33 173.03 131.78 171.06C114.88 158.06 97.92 145.14 81.09 132.05C65.41 119.86 50.1 107.12 37.18 91.9499C32.16 86.0599 23.71 94.5899 28.69 100.44V100.43Z" fill="#263238"/>
<path d="M213.76 70.49C182.54 103.55 152.01 137.26 122.2 171.6C117.16 177.41 125.61 185.93 130.69 180.09C160.5 145.75 191.03 112.04 222.25 78.98C227.55 73.37 219.08 64.87 213.76 70.49Z" fill="#263238"/>
<path d="M121.58 180.65C136.71 242.97 150.41 305.63 162.68 368.58C164.16 376.15 175.72 372.95 174.25 365.39C161.98 302.44 148.27 239.78 133.15 177.46C131.33 169.96 119.75 173.14 121.58 180.65Z" fill="#263238"/>
<path d="M215.91 74.2898C218.72 141.82 221.53 209.35 224.35 276.88C225.15 296.08 225.95 315.28 226.75 334.48C227.07 342.17 239.07 342.21 238.75 334.48C235.94 266.95 233.13 199.42 230.31 131.89C229.51 112.69 228.71 93.4898 227.91 74.2898C227.59 66.5998 215.59 66.5598 215.91 74.2898Z" fill="#263238"/>
<path d="M25.47 97.4301C48.64 178.71 71.8 259.98 94.97 341.26C97.08 348.67 108.67 345.52 106.54 338.07C83.37 256.79 60.21 175.52 37.04 94.2401C34.93 86.8301 23.34 89.9801 25.47 97.4301Z" fill="#263238"/>
<path d="M97.97 224.9C101.45 277.55 109.92 329.8 123.32 380.83C125.28 388.29 136.86 385.13 134.89 377.64C121.75 327.63 113.38 276.5 109.97 224.9C109.46 217.23 97.46 217.18 97.97 224.9Z" fill="#263238"/>
<path d="M221.4 162.17C241.74 215.56 257.43 270.63 268.27 326.73C269.73 334.3 281.3 331.1 279.84 323.54C269 267.44 253.31 212.37 232.97 158.98C230.25 151.83 218.64 154.93 221.4 162.17Z" fill="#263238"/>
<path d="M159.71 213.29C162.37 206.32 167.91 201.23 174.63 198.26C177.59 196.95 178.29 192.62 176.78 190.05C174.99 186.99 171.55 186.58 168.57 187.9C158.89 192.18 151.87 200.31 148.13 210.1C146.97 213.13 149.41 216.68 152.32 217.48C155.7 218.41 158.54 216.33 159.7 213.29H159.71Z" fill="#263238"/>
<path d="M163.67 218.03C164.55 222.83 165.43 227.64 166.32 232.44C166.91 235.63 170.77 237.44 173.7 236.63C177.05 235.71 178.48 232.45 177.89 229.25C177.01 224.45 176.13 219.64 175.24 214.84C174.65 211.65 170.79 209.84 167.86 210.65C164.51 211.57 163.08 214.83 163.67 218.03Z" fill="#263238"/>
<path d="M198.34 188.73C198.26 182.74 202.44 178.07 208.23 176.96C215.8 175.5 212.6 163.93 205.04 165.39C194.16 167.49 186.19 177.76 186.34 188.74C186.45 196.46 198.45 196.48 198.34 188.74V188.73Z" fill="#263238"/>
<path d="M198.3 194.75C198.42 205.39 199.36 215.95 200.98 226.46C202.15 234.07 213.71 230.84 212.55 223.27C211.1 213.82 210.4 204.31 210.3 194.75C210.22 187.03 198.22 187.01 198.3 194.75Z" fill="#263238"/>
<path d="M186.28 309.6C197.06 308.8 206.9 304.31 214.14 296.2C219.27 290.46 210.81 281.94 205.65 287.71C200.55 293.41 193.97 297.02 186.27 297.59C178.57 298.16 178.55 310.16 186.27 309.59L186.28 309.6Z" fill="#263238"/>
<path d="M176.15 378.64C194.79 362.55 214.96 348.42 236.39 336.28C243.11 332.47 237.07 322.1 230.33 325.92C208.02 338.55 187.07 353.4 167.66 370.15C161.8 375.21 170.32 383.66 176.15 378.64Z" fill="#263238"/>
<path d="M145.57 391.23C147.85 415.49 152.6 439.39 159.98 462.62C162.31 469.95 173.9 466.82 171.55 459.43C164.5 437.24 159.75 414.41 157.57 391.23C156.85 383.61 144.85 383.53 145.57 391.23Z" fill="#263238"/>
<path d="M201.88 350.18C204.05 381.8 207.77 413.29 212.96 444.55C214.22 452.15 225.79 448.93 224.53 441.36C219.51 411.15 215.98 380.73 213.88 350.18C213.35 342.52 201.35 342.46 201.88 350.18Z" fill="#263238"/>
</g>
<defs>
<clipPath id="clip0_112_710">
<rect width="279.97" height="488.01" fill="white"/>
</clipPath>
</defs>
</svg>

