<svg width="404" height="494" viewBox="0 0 404 494" fill="none" xmlns="http://www.w3.org/2000/svg">
<g clip-path="url(#clip0_112_944)">
<path d="M52.0988 475.671C56.0879 498.978 225.871 503.791 235.42 467.945C238.383 456.798 225.073 444.676 220.945 440.927C180.953 404.523 101.323 443.029 89.7229 448.653C69.7648 458.305 50.6931 467.527 52.0988 475.671Z" fill="#5B6B7D"/>
<path d="M298.371 5.44678C298.371 5.44678 206.762 152.608 192.021 191.697C293.078 183.008 382.801 170.265 382.801 170.265L298.371 5.44678Z" fill="#FFCC3F"/>
<path d="M0 390.741C99.8666 392.907 243.145 386.397 243.145 386.397C243.145 386.397 132.096 141.753 114.164 116.774C68.0172 186.225 14.4747 345.141 0 390.741Z" fill="#7BB2E9"/>
<path d="M93.2181 285.912C95.219 275.095 98.005 264.467 101.728 254.119C103.564 249.027 105.603 244.036 107.908 239.134C108.947 236.917 109.922 234.561 111.213 232.471C111.695 231.471 112.328 230.571 113.113 229.799C112.644 229.748 112.353 229.913 112.214 230.293C112.1 240.071 127.296 240.084 127.41 230.293C127.499 222.515 121.661 215.409 113.67 214.839C105.679 214.269 100.158 220.628 96.7767 227.367C88.14 244.555 82.074 262.96 78.5788 281.871C76.8059 291.435 91.4452 295.539 93.2308 285.912H93.2181Z" fill="#263238"/>
<path d="M117.039 250.42H115.519C114.468 250.382 113.493 250.597 112.594 251.078C111.657 251.382 110.833 251.914 110.15 252.649C109.402 253.333 108.883 254.156 108.579 255.094C108.098 256.006 107.883 256.981 107.921 258.02L108.187 260.046C108.554 261.338 109.2 262.453 110.137 263.403L111.669 264.594C112.86 265.278 114.139 265.632 115.506 265.632H117.026C118.077 265.67 119.052 265.455 119.951 264.974C120.888 264.67 121.712 264.138 122.395 263.403C123.143 262.719 123.662 261.896 123.966 260.958C124.447 260.046 124.662 259.071 124.624 258.032L124.358 256.006C123.991 254.714 123.345 253.599 122.408 252.649L120.876 251.458C119.685 250.774 118.406 250.42 117.039 250.42Z" fill="#263238"/>
<path d="M177.382 238.539C179.218 232.89 182.384 229.495 186.246 225.214C187.969 224.15 188.108 223.947 186.652 224.606C185.119 224.834 185.195 225.594 186.892 226.873C187.779 229.457 190.185 232.18 191.565 234.549C197.289 244.327 202.367 254.499 206.673 264.987C210.345 273.904 225.048 270.003 221.325 260.946C217.944 252.7 214.297 244.593 210.143 236.702C205.989 228.811 201.949 219.779 195.921 213.547C182.194 199.335 166.503 222.832 162.717 234.485C159.69 243.808 174.355 247.811 177.369 238.526L177.382 238.539Z" fill="#263238"/>
<path d="M173.519 253.434V254.954C173.481 256.006 173.696 256.981 174.178 257.88C174.482 258.818 175.013 259.641 175.748 260.325C176.432 261.072 177.255 261.592 178.192 261.896C179.104 262.377 180.079 262.592 181.117 262.554L183.144 262.288C184.435 261.921 185.55 261.275 186.5 260.338L187.69 258.805C188.374 257.614 188.728 256.335 188.728 254.967V253.447C188.766 252.396 188.551 251.42 188.07 250.521C187.766 249.584 187.234 248.76 186.5 248.076C185.816 247.329 184.993 246.81 184.055 246.506C183.144 246.024 182.169 245.809 181.13 245.847L179.104 246.113C177.812 246.48 176.698 247.126 175.748 248.064L174.558 249.596C173.874 250.787 173.519 252.066 173.519 253.434Z" fill="#263238"/>
<path d="M145.418 340.847C146.14 337.63 147.039 334.489 148.496 331.512C149.661 329.131 151.978 323.887 154.498 322.683C158.006 321.011 167.656 333.729 169.872 336.718C175.647 344.483 188.842 336.908 182.992 329.042C176.356 320.112 164.097 303.493 151.104 307.217C139.77 310.46 133.084 326.458 130.754 336.807C128.613 346.332 143.265 350.398 145.406 340.847H145.418Z" fill="#263238"/>
<path d="M101.792 160.563C78.3508 203.553 58.5953 248.558 42.9176 294.956C38.9538 306.673 35.2687 318.478 31.8368 330.359C28.9241 340.455 23.7573 352.45 24.5551 363.103C25.3529 373.755 34.3569 379.379 44.5006 380.114C57.253 381.039 70.3473 380.304 83.1251 380.051C113.29 379.455 143.417 377.707 173.456 374.883C183.106 373.983 183.207 358.771 173.456 359.683C149.673 361.912 125.84 363.483 101.969 364.331C89.8242 364.762 77.6797 365.003 65.5224 365.066C59.6591 365.091 53.7831 365.155 47.9198 365.028C44.5259 364.952 39.9416 365.471 39.663 361.215C39.3717 356.579 41.8412 351.057 43.0442 346.661C44.5639 341.063 46.1468 335.489 47.7805 329.929C50.9464 319.175 54.3403 308.484 57.9368 297.869C65.0539 276.906 72.9814 256.196 81.7954 235.879C91.7998 212.825 102.881 190.266 114.911 168.201C119.597 159.613 106.477 151.924 101.792 160.525V160.563Z" fill="#263238"/>
<path d="M144.595 156.306C147.951 169.581 154.447 181.437 163.603 191.596C170.163 198.879 180.889 188.1 174.355 180.842C166.934 172.608 161.957 162.994 159.26 152.266C156.866 142.791 142.214 146.806 144.608 156.306H144.595Z" fill="#263238"/>
<path d="M223.44 301.492C229.278 317.959 235.116 334.438 240.954 350.905L242.993 356.655L243.803 358.948C243.93 361.608 244.715 361.963 246.159 360.012C249.869 357.985 245.297 358.771 243.993 358.771C241.46 358.745 238.94 358.707 236.408 358.682C227.138 358.568 217.868 358.454 208.585 358.34C198.809 358.226 198.796 373.426 208.585 373.54C220.388 373.679 232.19 373.92 243.993 373.971C252.68 374.009 261.862 370.69 259.949 359.999C258.037 349.309 252.959 339.416 249.502 329.625C245.703 318.896 241.904 308.167 238.092 297.451C234.85 288.293 220.16 292.245 223.44 301.492Z" fill="#263238"/>
<path d="M51.4403 260.477C34.6988 310.295 26.1507 362.647 26.0494 415.201C26.0241 424.979 41.2206 424.992 41.2459 415.201C41.3473 363.901 49.756 313.133 66.0923 264.518C69.2202 255.221 54.5429 251.243 51.4403 260.477Z" fill="#263238"/>
<path d="M235.116 290.219C254.631 278.907 276.172 271.409 298.587 268.647C308.173 267.469 308.287 252.257 298.587 253.447C273.398 256.551 249.426 264.341 227.442 277.096C218.982 281.998 226.631 295.146 235.116 290.219Z" fill="#263238"/>
<path d="M109.694 376.554C106.642 395.77 105.705 415.175 107.592 434.568C108.364 442.484 108.757 451.604 112.758 458.71C114.43 461.687 116.709 464.17 119.533 466.07C121.876 467.653 126.967 468.742 128.664 470.984C134.477 478.698 147.672 471.136 141.784 463.308C139.973 460.902 138.111 458.862 135.515 457.254C132.919 455.645 129.487 455.012 127.309 452.909C122.712 448.476 123.054 437.937 122.547 432.123C121.053 414.96 121.623 397.606 124.32 380.582C125.84 371.019 111.201 366.89 109.668 376.542L109.694 376.554Z" fill="#263238"/>
<path d="M163.034 378.505C163.819 396.352 163.287 414.846 165.68 432.554C167.681 447.361 178.648 456.709 189.881 465.272C197.656 471.2 205.229 458.014 197.555 452.149C193.161 448.792 188.488 445.195 185.094 440.774C180.927 435.34 180.484 429.526 180.193 422.902C179.534 408.107 178.889 393.3 178.243 378.492C177.812 368.752 162.616 368.701 163.046 378.492L163.034 378.505Z" fill="#263238"/>
<path d="M307.907 163.4C306.172 201.527 305.071 239.679 304.615 277.856C304.501 287.635 319.697 287.648 319.811 277.856C320.267 239.692 321.369 201.54 323.104 163.4C323.547 153.622 308.35 153.647 307.907 163.4Z" fill="#263238"/>
<path d="M308.021 51.4898L302.373 76.0125C300.182 85.5378 314.834 89.5912 317.025 80.0532L322.673 55.5305C324.864 46.0052 310.212 41.9518 308.021 51.4898Z" fill="#263238"/>
<path d="M300.854 119.307C300.98 119.333 301.803 119.586 301.867 119.535C300.955 119.092 300.752 119.016 301.259 119.269C301.411 119.345 301.563 119.434 301.715 119.535C302.563 119.915 300.727 118.674 301.385 119.307C302.044 119.941 300.588 118.003 301.233 119.193C300.917 118.598 300.689 117.977 300.702 117.293L300.892 116.179C300.702 116.787 300.727 116.761 300.955 116.115C301.069 115.913 301.968 114.583 301.613 114.963C301.322 115.241 301.398 115.178 301.854 114.798C302.247 114.418 302.715 114.177 303.26 114.063C304.792 113.696 306.489 114.317 307.591 115.381C308.477 116.229 308.781 117.103 309.034 118.231C309.376 119.725 309.199 117.711 309.06 119.219C308.933 119.991 308.933 120.105 309.085 119.548L308.604 120.739C308.186 121.461 307.464 122.119 306.742 122.525L305.488 123.044C302.095 122.905 301.411 122.943 303.437 123.171C304.108 123.348 304.779 123.348 305.463 123.171C306.894 122.968 306.806 122.993 305.223 123.247L301.385 122.208L298.549 117.192L299.587 113.354L307.92 111.011L310.643 113.734L310.44 113.443C308.186 110.175 303.678 108.376 300.043 110.719C296.801 112.809 294.902 117.623 297.32 121.119C299.144 123.766 301.715 125.552 305.033 125.514C308.173 125.476 311.162 123.779 312.694 121.03C316.519 114.165 309.68 106.425 302.411 108.376H306.451C302.93 107.844 299.967 108.351 297.27 110.783C295.168 112.67 294.192 115.469 293.964 118.205C293.471 124.247 298.599 129.428 304.627 129.124C310.655 128.82 316.139 123.323 315.873 117.027C315.607 110.732 310.795 105.716 304.893 104.639C300.993 103.93 296.51 105.703 295.547 109.947C294.699 113.671 296.675 118.535 300.854 119.295V119.307Z" fill="#263238"/>
<path d="M309.136 4.59817C275.488 53.5802 245.31 104.855 218.818 158.055C214.474 166.782 227.568 174.496 231.937 165.731C258.43 112.543 288.608 61.2562 322.255 12.2742C327.802 4.19283 314.644 -3.41983 309.136 4.59817Z" fill="#263238"/>
<path d="M225.415 173.065L370.238 159.575C379.888 158.676 379.989 143.463 370.238 144.375C321.964 148.872 273.69 153.368 225.415 157.865C215.766 158.764 215.664 173.977 225.415 173.065Z" fill="#263238"/>
<path d="M316.582 11.5013C341.048 59.2926 365.502 107.084 389.969 154.875C394.426 163.59 407.546 155.901 403.088 147.199C378.622 99.408 354.168 51.6166 329.702 3.82529C325.244 -4.88938 312.124 2.79929 316.582 11.5013Z" fill="#263238"/>
</g>
<defs>
<clipPath id="clip0_112_944">
<rect width="404" height="494" fill="white"/>
</clipPath>
</defs>
</svg>

