<svg width="94" height="94" viewBox="0 0 94 94" fill="none" xmlns="http://www.w3.org/2000/svg">
<style>
    #light-icon {
      display: inline;
    }
    #dark-icon {
      display: none;
    }

    @media (prefers-color-scheme: dark) {
      #light-icon {
        display: none;
      }
      #dark-icon {
        display: inline;
      }
    }
  </style>
<mask id="mask0_1_6" style="mask-type:luminance" maskUnits="userSpaceOnUse" x="12" y="2" width="53" height="32">
<path d="M12.8026 2.29778H64.9375V33.0044H12.8026V2.29778Z" fill="white"/>
</mask>
<g mask="url(#mask0_1_6)">
<mask id="mask1_1_6" style="mask-type:luminance" maskUnits="userSpaceOnUse" x="12" y="2" width="53" height="31">
<path d="M55.9284 21.7865C52.9174 19.8697 50.8179 18.0093 49.0203 16.4027C46.3081 13.9768 45.3844 12.7667 41.6978 8.96427C40.2364 7.45554 38.1589 5.35278 35.5658 2.8608C35.0974 2.4112 34.2521 2.30757 33.6899 2.63069L13.701 14.153C13.0947 14.5015 12.774 15.3346 12.9911 16.0037L16.6997 27.353C18.095 27.0136 19.3108 26.6831 20.986 26.1331L23.3531 25.3286C22.5355 22.8456 21.7155 20.3601 20.8987 17.8771L33.8376 10.5105C35.374 12.3799 37.5519 14.9037 40.318 17.7515C40.6289 18.0722 44.1017 21.6355 46.7389 23.8802C49.4732 26.2058 54.5894 29.9013 63.0975 32.8274C63.5218 30.8511 64.0497 28.9899 64.7099 26.6798L64.8135 26.3159C61.0543 24.7754 58.0752 23.1475 55.9284 21.7832" fill="white"/>
</mask>
<g mask="url(#mask1_1_6)">
<path d="M0.240711 0.0946541H93.5178V94H0.240711V0.0946541Z" fill="#006FDC"/>
</g>
</g>
<mask id="mask2_1_6" style="mask-type:luminance" maskUnits="userSpaceOnUse" x="1" y="21" width="42" height="43">
<path d="M1.81064 21.1369H42.8222V63.5022H1.81064V21.1369Z" fill="white"/>
</mask>
<g mask="url(#mask2_1_6)">
<mask id="mask3_1_6" style="mask-type:luminance" maskUnits="userSpaceOnUse" x="1" y="21" width="42" height="43">
<path d="M29.5349 26.608C26.3698 28.2579 23.7081 29.1441 21.4168 29.8956C17.9595 31.0298 16.4508 31.2281 11.3126 32.5198C9.27597 33.0322 6.41599 33.7764 2.96198 34.7792C2.33939 34.9587 1.82778 35.64 1.82778 36.2879L1.81146 59.3595C1.81146 60.0605 2.37121 60.7548 3.05908 60.8993L14.7446 63.3602C15.1469 61.9804 15.4708 60.7614 15.8323 59.0356L16.3194 56.5844C13.7581 56.0499 11.1992 55.5155 8.63788 54.9843L8.72601 40.1034C11.1144 39.7044 14.3897 39.0851 18.2362 38.1108C18.667 38.0006 23.491 36.7751 26.7533 35.6123C30.1355 34.4087 35.893 31.8221 42.6811 25.9194C41.1821 24.5616 39.8341 23.1761 38.1655 21.4503L37.9011 21.1769C34.6894 23.6632 31.7886 25.429 29.5317 26.6048" fill="white"/>
</mask>
<g mask="url(#mask3_1_6)">
<path d="M0.240709 0.094656H93.5178V94H0.240709V0.094656Z" fill="#006FDC"/>
</g>
</g>
<mask id="mask4_1_6" style="mask-type:luminance" maskUnits="userSpaceOnUse" x="14" y="40" width="32" height="53">
<path d="M14.2044 40.1067H45.12V92.5378H14.2044V40.1067Z" fill="white"/>
</mask>
<g mask="url(#mask4_1_6)">
<mask id="mask5_1_6" style="mask-type:luminance" maskUnits="userSpaceOnUse" x="14" y="40" width="32" height="53">
<path d="M20.6025 51.8477C20.4491 55.4151 19.8861 58.1617 19.3932 60.5223C18.6482 64.0832 18.0632 65.4883 16.6116 70.5857C16.0363 72.6036 15.2538 75.4538 14.3929 78.9486C14.2387 79.5777 14.5684 80.3635 15.1314 80.6866L35.1039 92.2367C35.7102 92.5892 36.5906 92.4472 37.0623 91.9258L45.0351 83.0374C44.0421 82.0003 43.1494 81.1076 41.8357 79.9359L39.9565 78.2893C38.2152 80.2403 36.4715 82.1888 34.7302 84.1406L21.8852 76.6165C22.7338 74.3506 23.8337 71.2017 24.9149 67.383C25.0373 66.9554 26.3861 62.1665 27.0111 58.759C27.6582 55.2266 28.2995 48.9502 26.5836 40.1189C24.6603 40.7382 22.7868 41.2123 20.4548 41.7941L20.0876 41.8855C20.6343 45.9115 20.7159 49.3051 20.6057 51.8477" fill="white"/>
</mask>
<g mask="url(#mask5_1_6)">
<path d="M0.240711 0.0946503H93.5178V94H0.240711V0.0946503Z" fill="#006FDC"/>
</g>
</g>
<mask id="mask6_1_6" style="mask-type:luminance" maskUnits="userSpaceOnUse" x="28" y="61" width="53" height="31">
<path d="M28.8267 61.2044H80.9551V91.7022H28.8267V61.2044Z" fill="white"/>
</mask>
<g mask="url(#mask6_1_6)">
<mask id="mask7_1_6" style="mask-type:luminance" maskUnits="userSpaceOnUse" x="28" y="61" width="53" height="31">
<path d="M37.8758 72.3523C40.8867 74.269 42.9862 76.1294 44.7838 77.736C47.4961 80.1619 48.4206 81.372 52.1072 85.1753C53.5686 86.6832 55.6452 88.7859 58.2384 91.2779C58.7068 91.7275 59.5521 91.8311 60.1151 91.508L80.1032 79.9857C80.7094 79.634 81.0301 78.8042 80.8139 78.1351L77.1053 66.7857C75.71 67.1251 74.4934 67.4556 72.8182 68.0056L70.4519 68.8101C71.2686 71.2964 72.0887 73.7786 72.9063 76.2616L59.9731 83.6257C58.4367 81.7555 56.2588 79.2317 53.4927 76.384C53.1818 76.0641 49.709 72.5 47.0718 70.256C44.3375 67.9297 39.2213 64.2342 30.7132 61.3081C30.2889 63.2852 29.761 65.1456 29.1008 67.4556L28.9972 67.8203C32.7564 69.3601 35.7355 70.988 37.8856 72.3523" fill="white"/>
</mask>
<g mask="url(#mask7_1_6)">
<path d="M0.240713 0.0946503H93.5178V94H0.240713V0.0946503Z" fill="#006FDC"/>
</g>
</g>
<mask id="mask8_1_6" style="mask-type:luminance" maskUnits="userSpaceOnUse" x="48" y="1" width="32" height="54">
<path d="M48.6711 1.6654H79.5867V54.1022H48.6711V1.6654Z" fill="white"/>
</mask>
<g mask="url(#mask8_1_6)">
<mask id="mask9_1_6" style="mask-type:luminance" maskUnits="userSpaceOnUse" x="48" y="1" width="32" height="53">
<path d="M73.1984 42.247C73.3526 38.6795 73.9148 35.933 74.4085 33.5724C75.1535 30.0115 75.7377 28.6064 77.1902 23.509C77.7646 21.4878 78.5479 18.6409 79.4088 15.1461C79.563 14.517 79.2325 13.732 78.6703 13.4081L58.6945 1.86123C58.0874 1.50873 57.2078 1.65071 56.7394 2.17212L48.7658 11.0572C49.7588 12.0943 50.6515 12.9838 51.9652 14.1588L53.8444 15.8086C55.5857 13.8577 57.3302 11.9091 59.0715 9.95731L71.9165 17.4781C71.0679 19.7441 69.968 22.8929 68.8868 26.7117C68.7636 27.1392 67.4156 31.929 66.7898 35.3389C66.1427 38.8713 65.5014 45.1477 67.2206 53.979C69.1439 53.3597 71.0206 52.8856 73.3494 52.3038L73.7174 52.2124C73.1699 48.1864 73.0883 44.7928 73.1984 42.2502" fill="white"/>
</mask>
<g mask="url(#mask9_1_6)">
<path d="M0.240707 0.0946541H93.5178V94H0.240707V0.0946541Z" fill="#006FDC"/>
</g>
</g>
<mask id="mask10_1_6" style="mask-type:luminance" maskUnits="userSpaceOnUse" x="51" y="30" width="42" height="44">
<path d="M51.119 30.9156H92.12V73.2719H51.119V30.9156Z" fill="white"/>
</mask>
<g mask="url(#mask10_1_6)">
<mask id="mask11_1_6" style="mask-type:luminance" maskUnits="userSpaceOnUse" x="51" y="30" width="42" height="44">
<path d="M64.2823 67.729C67.4466 66.0791 70.1092 65.1929 72.4004 64.4414C75.8577 63.3039 77.3656 63.1089 82.5046 61.8172C84.5413 61.3048 87.4012 60.5566 90.8553 59.5578C91.477 59.3783 91.9895 58.6961 91.9895 58.0491L92.005 34.9775C92.005 34.2765 91.446 33.5822 90.7573 33.4369L79.0726 30.9768C78.6703 32.3533 78.3464 33.5756 77.9849 35.3006L77.4978 37.7526C80.0591 38.287 82.6172 38.8207 85.1793 39.3519L85.088 54.2336C82.6996 54.6326 79.4243 55.2519 75.5778 56.2262C75.147 56.3364 70.3229 57.5619 67.0607 58.7247C63.6785 59.9283 57.921 62.5149 51.1329 68.4168C52.6318 69.7746 53.9798 71.1577 55.6485 72.8867L55.9129 73.1601C59.1245 70.6738 62.0253 68.9072 64.2823 67.729Z" fill="white"/>
</mask>
<g mask="url(#mask11_1_6)">
<path d="M0.240711 0.0946503H93.5178V94H0.240711V0.0946503Z" fill="#006FDC"/>
</g>
</g>
</svg>
