<svg width="360" height="198" viewBox="0 0 360 198" fill="none" xmlns="http://www.w3.org/2000/svg">
<g clip-path="url(#clip0_112_756)">
<path d="M62.86 187.6C54.45 200.79 8.21 200.41 1 185.47C-1.8 179.66 1.75 172.61 5.8 168.58C18.57 155.89 51.04 158.65 60.89 173.08C61.68 174.24 66.69 181.57 62.86 187.6Z" fill="#5B6B7D"/>
<path d="M47.81 133.71H75.26H316.97C327.7 133.71 336.4 125.01 336.4 114.28V41.71C336.4 30.98 327.7 22.28 316.97 22.28H47.81C37.08 22.28 28.38 30.98 28.38 41.71V114.28C28.38 125.01 37.08 133.71 47.81 133.71Z" fill="#7BB2E9"/>
<path d="M29.3 178.86L75.26 133.71L39.26 121.26L29.3 178.86Z" fill="#7BB2E9"/>
<path d="M63.96 109.14C59.75 125.66 55.54 142.18 51.33 158.7C49.42 166.19 60.99 169.38 62.9 161.89C67.11 145.37 71.32 128.85 75.53 112.33C77.44 104.84 65.87 101.65 63.96 109.14Z" fill="#263238"/>
<path d="M92.72 106.67C82.04 123.57 70.58 139.97 58.27 155.72C53.57 161.74 62 170.29 66.76 164.21C79.71 147.64 91.86 130.5 103.09 112.73C107.23 106.18 96.85 100.15 92.73 106.67H92.72Z" fill="#263238"/>
<path d="M61.53 5.39989C51.49 -1.11011 39.9 7.11989 37.09 17.2999C35.33 23.6799 35.95 30.6599 36.02 37.1899C36.1 44.8499 36.19 52.4999 36.27 60.1599C36.35 67.8199 36.43 74.8099 36.51 82.1299C36.59 89.4499 36.08 96.9399 37.1 104.14C37.83 109.29 40.09 114.22 44.9 116.73C49.71 119.24 55.61 118.68 59.42 114.68C64.75 109.09 56.27 100.59 50.93 106.19C51.55 106.36 51.45 106.36 50.62 106.19C50.11 106 49.77 105.63 49.58 105.07C48.7 103.88 48.79 101.71 48.73 100.31C48.53 95.5899 48.6 90.8399 48.54 86.1099C48.44 76.7899 48.33 67.4699 48.23 58.1499C48.13 48.8299 47.97 39.5099 47.92 30.1899C47.9 27.1399 48.32 11.1399 55.45 15.7599C61.95 19.9699 67.97 9.58989 61.51 5.39989H61.53Z" fill="#263238"/>
<path d="M118.59 122.12C188.6 121.07 258.62 121.17 328.63 122.37C336.3 122.5 344.71 122.73 351.31 118.19C357.48 113.95 360.96 106.5 358.79 99.14C356.62 91.78 345.03 94.9 347.22 102.33C349.89 111.37 333.4 110.46 328.63 110.37C318.72 110.2 308.82 110.04 298.91 109.92C279.1 109.66 259.28 109.5 239.47 109.43C199.18 109.28 158.89 109.52 118.6 110.12C110.89 110.24 110.86 122.24 118.6 122.12H118.59Z" fill="#263238"/>
<path d="M105 12H319.46C327.18 12 327.19 0 319.46 0H105C97.28 0 97.27 12 105 12Z" fill="#263238"/>
<path d="M83.48 60.48C85.84 54.38 90.02 47.89 96.45 45.54C101.49 43.69 107.76 45 110.56 49.8C114.45 56.46 124.83 50.43 120.92 43.74C115.62 34.67 104.47 30.99 94.48 33.6C83.08 36.59 75.93 46.88 71.91 57.29C69.13 64.5 80.72 67.62 83.48 60.48Z" fill="#263238"/>
<path d="M99.55 65.66L99.94 66.05C105.41 71.52 113.9 63.03 108.43 57.56L108.04 57.17C102.57 51.7 94.08 60.19 99.55 65.66L99.94 66.05C105.41 71.52 113.9 63.03 108.43 57.56L108.04 57.17C102.57 51.7 94.08 60.19 99.55 65.66Z" fill="#263238"/>
<path d="M173.38 54.7799C176.19 49.2199 180.47 43.7599 186.81 42.1699C192.01 40.8699 197.68 42.6799 200.42 47.3999C204.29 54.0799 214.67 48.0399 210.78 41.3399C205.81 32.7699 195.88 28.6399 186.21 30.0999C175.79 31.6799 167.62 39.5999 163.02 48.7199C159.55 55.5999 169.9 61.6799 173.38 54.7799Z" fill="#263238"/>
<path d="M190.53 53.22C189.47 53.17 188.23 53.54 187.31 54.07C186.35 54.63 185.63 55.37 185.04 56.32C185.02 56.36 185 56.39 184.98 56.43L184.38 57.86C184.38 57.86 184.36 57.8999 184.36 57.9199C184.21 58.5099 184.11 59.1199 184.12 59.7299C184.13 60.34 184.21 60.95 184.37 61.54C184.46 61.79 184.57 62.04 184.68 62.29C184.78 62.54 184.89 62.79 185 63.04C185.26 63.51 185.65 63.9799 185.99 64.3399C186.02 64.3699 186.04 64.3999 186.07 64.4199L187.28 65.36C187.28 65.36 187.31 65.3799 187.33 65.3899C188.14 65.9 189.6 66.3099 190.55 66.2399C191.38 66.2699 192.15 66.1 192.86 65.72C193.6 65.48 194.25 65.06 194.79 64.48C195.38 63.94 195.79 63.2899 196.03 62.5499C196.41 61.8299 196.58 61.06 196.55 60.24L196.34 58.6399C196.05 57.6199 195.54 56.74 194.8 55.99L193.59 55.0499C192.65 54.5099 191.64 54.2299 190.56 54.2299C190.52 54.2299 190.49 54.2299 190.46 54.2299L192.06 54.4399C192.06 54.4399 192 54.43 191.97 54.41L193.4 55.0099C193.4 55.0099 193.36 54.9899 193.35 54.9799L194.56 55.9199C194.56 55.9199 194.5 55.87 194.48 55.84L195.42 57.0499C195.42 57.0499 195.38 56.9799 195.36 56.9399L195.96 58.3699C195.94 58.3199 195.93 58.2599 195.92 58.2099L196.13 59.81C196.13 59.74 196.13 59.68 196.13 59.61L195.92 61.2099C195.92 61.1599 195.94 61.0999 195.96 61.0499L195.36 62.4799C195.36 62.4799 195.4 62.4099 195.42 62.3699L194.48 63.58C194.48 63.58 194.52 63.54 194.54 63.52L193.33 64.4599C193.33 64.4599 193.38 64.4299 193.41 64.4199L191.98 65.0199C191.98 65.0199 192.04 65 192.07 65L190.47 65.2099C190.47 65.2099 190.52 65.2099 190.54 65.2099C191.37 65.2399 192.14 65.07 192.85 64.69C193.59 64.45 194.24 64.03 194.78 63.45C195.37 62.91 195.78 62.26 196.02 61.52C196.4 60.8 196.57 60.0299 196.54 59.2099L196.33 57.61C196.04 56.59 195.53 55.7099 194.79 54.9599L193.58 54.02C192.64 53.48 191.63 53.2 190.55 53.2L190.53 53.22Z" fill="#263238"/>
<path d="M262.73 55.9599C265.67 50.6299 270.12 45.18 276.44 43.93C281.82 42.87 286.94 45.2 289.19 50.2C292.36 57.23 302.71 51.13 299.55 44.14C295.57 35.33 285.47 30.78 276.12 31.89C265.56 33.14 257.33 40.91 252.37 49.9C248.63 56.66 258.99 62.7199 262.73 55.9599Z" fill="#263238"/>
<path d="M274.25 55.97L273.05 57.17C272.46 57.71 272.05 58.36 271.81 59.1C271.43 59.82 271.26 60.59 271.29 61.41C271.26 62.24 271.43 63.01 271.81 63.72C272.05 64.46 272.47 65.11 273.05 65.65L274.26 66.59C275.2 67.13 276.21 67.41 277.29 67.41L278.89 67.2C279.91 66.91 280.79 66.4 281.54 65.66L282.74 64.46C283.33 63.92 283.74 63.27 283.98 62.53C284.36 61.81 284.53 61.04 284.5 60.22C284.53 59.39 284.36 58.62 283.98 57.91C283.74 57.17 283.32 56.52 282.74 55.98L281.53 55.04C280.59 54.5 279.58 54.22 278.5 54.22L276.9 54.43C275.88 54.72 275 55.23 274.25 55.97Z" fill="#263238"/>
<path d="M122.11 88.6602C131.7 99.5902 146.14 93.5302 156.03 86.7002C162.34 82.3402 156.35 71.9302 149.97 76.3402C144.88 79.8602 136.12 86.4802 130.6 80.1802C125.5 74.3602 117.04 82.8802 122.11 88.6702V88.6602Z" fill="#263238"/>
<path d="M214.65 87.8498C226.13 95.9698 241.14 96.5198 253.5 90.1298C260.36 86.5898 254.3 76.2298 247.44 79.7698C238.68 84.2898 228.63 83.0998 220.7 77.4898C214.38 73.0198 208.38 83.4198 214.64 87.8498H214.65Z" fill="#263238"/>
</g>
<defs>
<clipPath id="clip0_112_756">
<rect width="359.44" height="197.11" fill="white"/>
</clipPath>
</defs>
</svg>

