<svg width="207" height="301" viewBox="0 0 207 301" fill="none" xmlns="http://www.w3.org/2000/svg">
<g clip-path="url(#clip0_102_122)">
<path d="M98.65 204.04C98.65 204.04 169.76 204.82 180.61 202.53C174.32 143.1 158.75 78.76 170.18 44.35C181.61 9.93999 115.43 22.9 112.04 117.75C80.65 113.18 74.5 112.04 74.5 112.04C74.5 112.04 93.81 67.4 99.81 21.15C105.81 -25.1 48.08 6.52 38.94 96.42C5.23 137.18 -14.2 178.71 22.37 191.95C58.94 205.19 98.65 204.04 98.65 204.04Z" fill="#7BB2E9"/>
<path d="M65.8 102.08C78.56 68.05 84.65 56.52 87.9 57.4C90.83 58.2 89.88 73.25 85.04 102.54" fill="#006FDC"/>
<path d="M144.06 108.57C156.82 74.54 158.63 72.92 161.88 73.8C164.81 74.6 168.37 79.27 163.54 108.57" fill="#006FDC"/>
<path d="M38.56 263.01C43.13 234.1 110.94 234.06 139.89 250.06C168.84 266.06 184.84 301.87 139.89 300.35C94.94 298.83 36.27 277.49 38.56 263.02V263.01Z" fill="#5B6B7D"/>
<path d="M54.2 105C53.84 75.88 65.32 45.54 87.21 25.8C90.04 23.24 93.12 20.98 96.52 19.21C98.05 18.42 103.91 15.22 105.52 16.24C106.49 16.85 106.06 23.74 106.02 25.46C105.91 29.74 105.48 34 104.73 38.21C101.84 54.55 95.43 70.01 88.97 85.2C87.69 88.2 88.1 91.6 91.12 93.41C93.63 94.91 98.06 94.24 99.33 91.26C105.61 76.49 112 61.59 115.42 45.84C117.06 38.28 118.08 30.5 118.04 22.75C118.01 16.61 117.68 8.75 111.42 5.5C105.16 2.25 97.49 5.46 91.9 8.14C85.38 11.26 79.61 16.12 74.65 21.31C64.72 31.71 56.94 44.04 51.41 57.28C45.11 72.38 42 88.64 42.2 105C42.3 112.72 54.3 112.74 54.2 105Z" fill="#263238"/>
<path d="M128.59 107.96C131.68 88.02 139.49 69.16 151.64 53.01C157.38 45.38 164.27 37.85 171.96 32.13C172.87 31.46 176 28.99 177.34 29.43C178.25 29.72 177.16 31.74 176.75 33.12C175.02 38.9 173.03 44.62 171.18 50.36C168.8 57.73 180.38 60.88 182.75 53.55C185.83 44.01 196.85 22.58 181.56 17.87C170 14.31 158.31 27.49 151.39 34.84C133.27 54.07 121.08 78.65 117.03 104.77C115.86 112.32 127.42 115.58 128.6 107.96H128.59Z" fill="#263238"/>
<path d="M117.87 102.57C111.85 102.11 105.83 101.65 99.81 101.19C92.11 100.6 92.15 112.6 99.81 113.19C105.83 113.65 111.85 114.11 117.87 114.57C125.57 115.16 125.53 103.16 117.87 102.57Z" fill="#263238"/>
<path d="M44.19 106.7C31.77 113.77 21.69 124.68 15.94 137.79C9.91 151.53 7.47 168.14 19.01 179.72C30.18 190.93 47.55 194.78 62.65 196.84C80.59 199.28 98.82 200.13 116.91 200.16C138.21 200.2 159.49 198.76 180.61 195.98C183.85 195.55 186.57 193.53 186.61 189.98C186.64 187.06 183.82 183.56 180.61 183.98C159.82 186.72 138.87 188.16 117.89 188.16C98.06 188.16 77.59 187.66 58.04 184.04C49.46 182.45 40.75 180.11 33.21 175.59C25.26 170.82 21.56 164.16 23.1 154.81C25.73 138.85 36.36 124.96 50.24 117.06C56.95 113.24 50.91 102.87 44.18 106.7H44.19Z" fill="#263238"/>
<path d="M56.5 154.34C56.9 144.91 65.13 137.13 74.5 137C82.22 136.89 82.24 124.89 74.5 125C58.43 125.22 45.17 138.35 44.5 154.34C44.18 162.06 56.18 162.05 56.5 154.34Z" fill="#263238"/>
<path d="M68.49 148.31V149.51C68.46 150.34 68.63 151.11 69.01 151.82C69.25 152.56 69.67 153.21 70.25 153.75C70.79 154.34 71.44 154.75 72.18 154.99C72.9 155.37 73.67 155.54 74.49 155.51L76.09 155.3C77.11 155.01 77.99 154.5 78.74 153.76L79.68 152.55C80.22 151.61 80.5 150.6 80.5 149.52V148.32C80.53 147.49 80.36 146.72 79.98 146.01C79.74 145.27 79.32 144.62 78.74 144.08C78.2 143.49 77.55 143.08 76.81 142.84C76.09 142.46 75.32 142.29 74.5 142.32L72.9 142.53C71.88 142.82 71 143.33 70.25 144.07L69.31 145.28C68.77 146.22 68.49 147.23 68.49 148.31Z" fill="#263238"/>
<path d="M125.38 150.65C126.58 139.02 137.93 130.8 149.18 131.56C156.89 132.08 156.86 120.08 149.18 119.56C130.91 118.32 115.23 132.85 113.38 150.65C112.59 158.32 124.59 158.27 125.38 150.65Z" fill="#263238"/>
<path d="M142.74 139.45L140.33 141.86C139.24 142.95 138.57 144.56 138.57 146.1C138.57 147.64 139.22 149.33 140.33 150.34C141.44 151.35 142.97 152.17 144.57 152.1C146.17 152.03 147.66 151.49 148.81 150.34L151.22 147.93C152.31 146.84 152.98 145.23 152.98 143.69C152.98 142.15 152.33 140.46 151.22 139.45C150.11 138.44 148.58 137.62 146.98 137.69C145.38 137.76 143.89 138.3 142.74 139.45Z" fill="#263238"/>
<path d="M104.11 183.48C114.51 185.8 125.06 185.37 135.13 181.83C142.37 179.28 139.25 167.68 131.94 170.26C123.86 173.11 115.69 173.79 107.3 171.91C99.78 170.23 96.56 181.79 104.11 183.48Z" fill="#263238"/>
<path d="M65.63 194.04C63.06 215.28 62.75 236.66 64.69 257.97C65.38 265.6 77.39 265.67 76.69 257.97C74.75 236.66 75.07 215.28 77.63 194.04C78.55 186.39 66.55 186.46 65.63 194.04Z" fill="#263238"/>
<path d="M124.06 198.92C123.07 223.83 123.31 248.75 124.79 273.63C125.25 281.3 137.25 281.36 136.79 273.63C135.31 248.75 135.07 223.82 136.06 198.92C136.37 191.2 124.37 191.21 124.06 198.92Z" fill="#263238"/>
<path d="M7.92 157.37C3.01 171.96 0.39 187.15 4.72181e-07 202.53C-0.2 210.25 11.8 210.25 12 202.53C12.37 188.16 14.91 174.18 19.49 160.56C21.96 153.22 10.37 150.08 7.92 157.37Z" fill="#263238"/>
<path d="M187.62 154.77C190.13 173.23 192.63 191.69 195.14 210.15C195.58 213.39 199.69 215.09 202.52 214.34C205.99 213.42 207.14 210.16 206.71 206.96C204.2 188.5 201.7 170.04 199.19 151.58C198.75 148.34 194.64 146.64 191.81 147.39C188.34 148.31 187.19 151.57 187.62 154.77Z" fill="#263238"/>
<path d="M150.06 102.53C150.21 92.82 154.36 84.26 161.6 77.84L151.36 73.6C151.09 76.02 150.81 78.43 150.54 80.85C149.67 88.51 161.68 88.45 162.54 80.85C162.81 78.43 163.09 76.02 163.36 73.6C164 68 156.6 66.27 153.12 69.36C143.58 77.82 138.27 89.82 138.07 102.53C137.95 110.25 149.95 110.26 150.07 102.53H150.06Z" fill="#263238"/>
<path d="M68.14 99.28C72.06 82.95 79.36 67.68 89.97 54.62L79.94 51.97C80.21 53.28 80.47 54.59 80.74 55.9C82.28 63.46 93.85 60.26 92.31 52.71C92.04 51.4 91.78 50.09 91.51 48.78C90.66 44.6 84.28 42.69 81.48 46.13C69.55 60.81 60.98 77.66 56.56 96.08C54.76 103.59 66.33 106.79 68.13 99.27L68.14 99.28Z" fill="#263238"/>
</g>
<defs>
<clipPath id="clip0_102_122">
<rect width="206.8" height="300.39" fill="white"/>
</clipPath>
</defs>
</svg>

