<svg width="336" height="264" viewBox="0 0 336 264" fill="none" xmlns="http://www.w3.org/2000/svg">
<path d="M327.5 14C269.5 25.2 227 24 213 22C217.4 70 214.833 138.333 213 166.5H333C332.5 130.833 330.7 50.4 327.5 14Z" fill="#2A3236"/>
<ellipse cx="142.5" cy="132" rx="142.5" ry="132" fill="#E7F2FD"/>
<path d="M112.43 111.62C112.43 111.62 79.4899 132.31 52.7699 132.2C52.6699 164.53 58.1199 198.47 61.8999 221.66C85.9399 210.59 98.4399 204.49 124.34 207.14C124.34 178.56 112.43 111.62 112.43 111.62Z" fill="#576D7F"/>
<path d="M85.0009 209.691C85.2509 219.591 85.491 229.501 85.741 239.401C85.821 242.611 90.821 242.621 90.741 239.401C90.491 229.501 90.2509 219.591 90.0009 209.691C89.9209 206.481 84.9209 206.471 85.0009 209.691Z" fill="#576D7F" fill-opacity="0.35"/>
<path d="M95.6914 207.411C96.0114 219.651 97.3914 231.851 99.7814 243.861C100.041 245.181 101.621 245.951 102.861 245.611C104.241 245.231 104.871 243.861 104.611 242.531C102.311 230.951 101.011 219.211 100.701 207.411C100.621 204.201 95.6114 204.191 95.7014 207.411H95.6914Z" fill="#576D7F" fill-opacity="0.35"/>
<path d="M142.154 164.597C148.184 157.957 153.934 150.637 156.544 141.907C158.754 134.517 158.164 126.207 154.184 119.507C152.074 115.957 148.974 112.957 145.164 111.287C143.924 110.747 142.484 110.927 141.744 112.187C141.124 113.247 141.394 115.057 142.644 115.607C148.484 118.167 151.774 123.947 152.644 130.107C153.664 137.357 150.904 144.407 147.044 150.417C144.594 154.247 141.664 157.717 138.614 161.077C136.454 163.457 139.984 166.997 142.154 164.617V164.597Z" fill="#576D7F" fill-opacity="0.35"/>
<path d="M55.2835 168.407C49.4435 175.937 44.1035 183.817 39.3535 192.077C37.7435 194.867 42.0635 197.397 43.6735 194.597C48.2035 186.717 53.2435 179.127 58.8235 171.937C59.6535 170.867 59.8635 169.437 58.8235 168.397C57.9635 167.537 56.1235 167.327 55.2835 168.397V168.407Z" fill="#576D7F" fill-opacity="0.35"/>
<path d="M123.54 101.94C123.54 101.94 90.6003 122.63 63.8803 122.52C63.7803 154.85 69.2303 188.79 73.0103 211.98C97.0503 200.91 109.55 194.81 135.45 197.46C135.45 168.88 123.54 101.94 123.54 101.94Z" fill="#4089C8"/>
<path d="M60.0999 124.31C59.9899 146.71 62.0299 169.12 66.1599 191.14C67.3199 197.35 68.6599 203.52 70.1599 209.65C70.9199 212.77 75.7499 211.45 74.9799 208.32C69.7599 186.9 66.5599 165.02 65.4999 143C65.1999 136.77 65.0699 130.54 65.0999 124.31C65.1199 121.09 60.1199 121.09 60.0999 124.31Z" fill="#263238"/>
<path d="M80.7699 148.62C80.4799 149.31 80.8899 148.42 80.9799 148.25C81.1099 148.01 81.2599 147.78 81.4099 147.55C81.4399 147.5 81.5899 147.22 81.6499 147.22C81.4399 147.49 81.3899 147.55 81.5099 147.4C81.5599 147.34 81.6099 147.27 81.6699 147.21C81.8499 147 82.0299 146.8 82.2299 146.61C82.4299 146.42 82.6299 146.24 82.8399 146.06C83.2599 145.68 82.3899 146.37 82.8499 146.05C82.9599 145.97 83.0699 145.89 83.1899 145.81C83.6699 145.49 84.1699 145.21 84.6899 144.96C85.0999 144.76 84.3299 145.09 84.6199 144.98C84.7499 144.93 84.8799 144.88 84.9999 144.83C85.2599 144.74 85.5199 144.66 85.7799 144.58C86.0699 144.5 86.3599 144.44 86.6599 144.38C87.0499 144.31 86.7999 144.38 86.5599 144.38C86.6899 144.38 86.8299 144.35 86.9699 144.34C87.5399 144.29 88.1099 144.31 88.6799 144.35C89.2499 144.39 88.0999 144.24 88.6599 144.35C88.7699 144.37 88.8699 144.39 88.9799 144.41C89.2999 144.48 89.6199 144.57 89.9299 144.67C91.1799 145.07 92.7099 144.2 93.0099 142.92C93.3199 141.55 92.5999 140.27 91.2599 139.84C88.2299 138.87 84.9899 139.3 82.1399 140.62C79.2899 141.94 77.1399 144.36 75.9399 147.26C75.4399 148.47 76.4799 150.06 77.6899 150.34C79.1499 150.67 80.2299 149.89 80.7699 148.59V148.62Z" fill="#263238"/>
<path d="M115.94 140.66C120.85 137.23 126.61 134.99 132.4 134.37C133.74 134.23 134.9 133.32 134.9 131.87C134.9 130.63 133.75 129.23 132.4 129.37C125.59 130.1 119.05 132.41 113.42 136.34C112.31 137.11 111.8 138.53 112.52 139.76C113.16 140.85 114.83 141.43 115.94 140.66Z" fill="#263238"/>
<path d="M102.18 178.27C100.98 176.67 101.07 175.06 101.94 173.12C102.97 170.84 104.75 169.03 106.7 167.51C108.79 165.89 111.16 164.52 113.63 163.58C114.89 163.1 116.3 162.51 117.66 162.54C118.2 162.55 118.54 162.6 118.93 162.93C118.98 162.98 119.16 163.45 119.13 163.17C119.24 164.52 120.2 165.67 121.63 165.67C122.89 165.67 124.24 164.52 124.13 163.17C123.96 161.17 122.96 159.48 121.2 158.46C119.31 157.36 117.07 157.41 115.01 157.9C111.33 158.77 107.69 160.63 104.64 162.85C101.76 164.95 99.0495 167.45 97.5395 170.76C96.0295 174.07 95.5995 177.81 97.8495 180.81C98.6595 181.89 100.01 182.44 101.27 181.71C102.33 181.09 102.98 179.38 102.17 178.29L102.18 178.27Z" fill="#263238"/>
<path d="M101.73 180.66C108.68 176.26 116.09 172.65 123.86 169.94C125.13 169.5 125.98 168.23 125.61 166.86C125.27 165.62 123.82 164.67 122.53 165.11C114.36 167.96 106.52 171.71 99.2099 176.33C96.4999 178.05 98.9999 182.37 101.73 180.65V180.66Z" fill="#263238"/>
<path d="M63.8799 125.02C81.4399 123.26 98.5299 118.51 114.48 110.95C115.7 110.37 116.02 108.62 115.38 107.53C114.65 106.28 113.18 106.05 111.96 106.63C96.8599 113.79 80.5099 118.35 63.8799 120.02C62.5399 120.15 61.3799 121.07 61.3799 122.52C61.3799 123.77 62.5299 125.16 63.8799 125.02Z" fill="#263238"/>
<path d="M74.2692 214.14C86.6492 206.1 100.919 201.15 115.639 199.97C116.989 199.86 118.139 198.9 118.139 197.47C118.139 196.2 116.989 194.86 115.639 194.97C100.039 196.23 84.8792 201.3 71.7392 209.83C69.0492 211.58 71.5492 215.91 74.2592 214.15L74.2692 214.14Z" fill="#263238"/>
<path d="M91.7295 204.31C91.9795 214.21 92.2195 224.12 92.4695 234.02C92.5495 237.23 97.5495 237.24 97.4695 234.02C97.2195 224.12 96.9795 214.21 96.7295 204.31C96.6495 201.1 91.6495 201.09 91.7295 204.31Z" fill="#263238"/>
<path d="M102.42 202.03C102.74 214.27 104.12 226.47 106.51 238.48C106.77 239.8 108.35 240.57 109.59 240.23C110.97 239.85 111.6 238.48 111.34 237.15C109.04 225.57 107.74 213.83 107.43 202.03C107.35 198.82 102.34 198.81 102.43 202.03H102.42Z" fill="#263238"/>
<path d="M150.27 161.25C156.3 154.61 162.05 147.29 164.66 138.56C166.87 131.17 166.28 122.86 162.3 116.16C160.19 112.61 157.09 109.61 153.28 107.94C152.04 107.4 150.6 107.58 149.86 108.84C149.24 109.9 149.51 111.71 150.76 112.26C156.6 114.82 159.89 120.6 160.76 126.76C161.78 134.01 159.02 141.06 155.16 147.07C152.71 150.9 149.78 154.37 146.73 157.73C144.57 160.11 148.1 163.65 150.27 161.27V161.25Z" fill="#263238"/>
<path d="M63.3997 165.06C57.5597 172.59 52.2197 180.47 47.4697 188.73C45.8597 191.52 50.1797 194.05 51.7897 191.25C56.3197 183.37 61.3597 175.78 66.9397 168.59C67.7697 167.52 67.9797 166.09 66.9397 165.05C66.0797 164.19 64.2397 163.98 63.3997 165.05V165.06Z" fill="#263238"/>
<path d="M66.1299 114.71C81.5999 113.59 96.3299 107.77 108.44 98.09C109.5 97.25 109.32 95.43 108.44 94.55C107.4 93.51 105.96 93.7 104.9 94.55C93.9099 103.34 80.1599 108.69 66.1299 109.7C64.7799 109.8 63.6299 110.78 63.6299 112.2C63.6299 113.48 64.7799 114.8 66.1299 114.7V114.71Z" fill="#263238"/>
<path d="M79.4099 109.64C79.4599 108.91 79.5099 108.18 79.5799 107.45C79.6099 107.08 79.6499 106.72 79.6899 106.35C79.7099 106.17 79.7299 105.98 79.7499 105.8C79.7199 106.01 79.7299 105.96 79.7699 105.65C79.9799 104.31 80.2599 102.98 80.7199 101.69C80.8999 101.2 80.9899 100.97 81.3399 100.33C81.5099 100.01 81.7199 99.72 81.8999 99.41C82.0999 99.14 82.1099 99.11 81.9299 99.34C82.0199 99.23 82.1199 99.11 82.2099 99C82.4099 98.78 82.6099 98.57 82.8299 98.37C82.8599 98.34 83.4199 97.87 83.0099 98.19C83.4799 97.82 84.0099 97.55 84.5299 97.26C84.7899 97.14 84.7999 97.13 84.5399 97.24C84.6799 97.19 84.8099 97.13 84.9499 97.09C85.2299 97 85.5099 96.91 85.7899 96.85C85.9199 96.82 86.5599 96.72 85.9699 96.79C86.2499 96.75 86.5399 96.74 86.8199 96.74C86.9599 96.74 87.8299 96.85 87.1999 96.74C87.4699 96.79 87.7399 96.87 88.0099 96.93C88.5399 97.04 87.7499 96.75 88.1799 96.99C88.4299 97.13 88.6699 97.26 88.9099 97.42C88.4599 97.1 89.1999 97.73 89.2799 97.8C89.4699 98.03 89.4899 98.04 89.3499 97.86C89.4399 97.99 89.5299 98.13 89.6199 98.26C89.7899 98.54 89.9399 98.82 90.0799 99.12C89.8999 98.72 90.1899 99.43 90.1899 99.44C90.4099 100.08 90.5699 100.73 90.6999 101.39C90.7699 101.72 90.8199 102.06 90.8799 102.39C90.8899 102.48 91.0299 103.44 90.9699 102.97C91.1399 104.26 91.9999 105.54 93.4699 105.47C94.6799 105.42 96.1599 104.36 95.9699 102.97C95.6299 100.39 95.2699 97.62 93.7399 95.42C92.2099 93.22 89.8099 91.81 87.0399 91.73C84.7399 91.66 82.3299 92.5 80.4899 93.87C78.2299 95.55 76.7799 97.83 75.8499 100.48C74.8299 103.4 74.6099 106.56 74.3999 109.62C74.3099 110.93 75.6099 112.18 76.8999 112.12C78.3299 112.06 79.2999 111.02 79.3999 109.62L79.4099 109.64Z" fill="#263238"/>
<path d="M210.051 24.54C211.181 43.46 211.881 62.41 212.131 81.37C212.381 100.33 212.181 119.12 211.541 137.99C211.181 148.66 210.681 159.33 210.031 169.99C209.841 173.2 214.841 173.19 215.031 169.99C216.171 151.07 216.871 132.12 217.121 113.16C217.371 94.2 217.181 75.41 216.541 56.54C216.181 45.87 215.681 35.2 215.041 24.54C214.851 21.34 209.851 21.32 210.041 24.54H210.051Z" fill="#212121"/>
<path d="M213.861 25.08C244.001 26.89 274.291 25.49 304.151 20.98C312.481 19.72 320.771 18.22 329.011 16.48L325.851 14.07C327.611 33.7 328.931 53.38 329.781 73.07C330.631 92.76 331.031 112.48 330.971 132.19C330.941 143.29 330.751 154.39 330.431 165.48C330.341 168.7 335.341 168.7 335.431 165.48C336.001 145.78 336.131 126.06 335.791 106.35C335.451 86.64 334.661 66.94 333.401 47.27C332.691 36.19 331.841 25.13 330.851 14.07C330.701 12.39 329.381 11.3 327.691 11.66C298.581 17.81 268.871 20.89 239.121 20.86C230.701 20.85 222.281 20.59 213.871 20.08C210.661 19.89 210.671 24.89 213.871 25.08H213.861Z" fill="#212121"/>
<path d="M211.65 169.76C243.22 169.86 274.8 169.95 306.37 170.05C315.18 170.08 323.98 170.1 332.79 170.13C336.01 170.13 336.01 165.14 332.79 165.13C301.22 165.03 269.64 164.94 238.07 164.84C229.26 164.81 220.46 164.79 211.65 164.76C208.43 164.76 208.43 169.75 211.65 169.76Z" fill="#212121"/>
<path d="M223.62 37.53C223.17 40.93 223.41 44.42 224.27 47.74C224.73 49.5 225.38 51.21 226.18 52.85C226.98 54.49 228.14 55.83 229.97 56.05C234 56.54 235.46 51.52 236.54 48.59C237.77 45.24 238.63 41.77 239.15 38.24L234.33 36.91C233.53 42.75 234.65 48.66 237.87 53.64C238.7 54.92 240.68 55.4 241.8 54.15C246.05 49.39 247.82 43.08 246.78 36.8C246.56 35.47 244.91 34.72 243.7 35.05C242.28 35.44 241.73 36.79 241.95 38.13C242 38.46 241.99 38.32 242.03 38.74C242.06 39.07 242.08 39.41 242.1 39.74C242.12 40.31 242.11 40.89 242.08 41.46C242.01 42.61 241.85 43.49 241.48 44.75C240.86 46.89 239.73 48.96 238.26 50.61L242.19 51.12C239.72 47.3 238.55 42.61 239.15 38.24C239.33 36.9 238.83 35.56 237.4 35.16C236.22 34.84 234.52 35.56 234.32 36.91C233.9 39.82 233.24 42.7 232.32 45.5C231.9 46.8 231.43 48.09 230.89 49.35C230.66 49.89 230.4 50.41 230.14 50.94C229.92 51.39 230.25 50.9 229.94 51.23C229.72 51.44 229.71 51.45 229.9 51.26C230.05 51.15 230.22 51.11 230.41 51.16C230.59 51.11 230.76 51.13 230.91 51.22C231.08 51.35 231.1 51.36 230.97 51.23C230.86 51.1 230.86 51.11 230.99 51.26C230.9 51.12 230.82 50.98 230.74 50.84C230.5 50.4 230.27 49.91 230.09 49.47C229.56 48.19 229.16 46.84 228.86 45.49C228.3 42.93 228.26 40.22 228.61 37.55C228.79 36.21 227.33 35.05 226.11 35.05C224.61 35.05 223.79 36.21 223.61 37.55L223.62 37.53Z" fill="#212121"/>
<path d="M251 37.45C250.37 43.18 249.16 48.85 247.48 54.36C247.09 55.65 247.95 57.08 249.23 57.44C250.51 57.8 251.91 56.99 252.31 55.69C254.13 49.74 255.33 43.64 256.01 37.45C256.16 36.11 254.76 34.95 253.51 34.95C252.04 34.95 251.16 36.1 251.01 37.45H251Z" fill="#212121"/>
<path d="M250.921 39.33C253.291 43.94 255.121 48.79 256.391 53.82C256.981 56.13 257.381 60.77 260.991 59.75C262.751 59.25 263.431 57.18 262.541 55.65C261.481 53.83 259.091 53.95 257.981 55.63C257.231 56.76 257.761 58.4 258.881 59.05C260.101 59.77 261.551 59.28 262.301 58.15L262.361 58.05L260.201 59.29H260.281C259.691 59.04 259.101 58.8 258.511 58.56L257.951 57.23L258.291 55.97L258.231 56.07L259.721 54.92L259.601 54.96H260.931C261.831 56.2 262.171 56.47 261.961 55.79C261.911 55.56 261.861 55.33 261.821 55.09C261.731 54.68 261.641 54.28 261.551 53.88C261.351 53.01 261.131 52.15 260.901 51.3C260.461 49.7 259.971 48.11 259.431 46.55C258.271 43.22 256.861 39.96 255.251 36.82C254.631 35.62 252.951 35.27 251.831 35.92C250.611 36.63 250.311 38.14 250.931 39.34L250.921 39.33Z" fill="#212121"/>
<path d="M251.271 53.1L258.121 52.94C259.431 52.91 260.681 51.81 260.621 50.44C260.561 49.07 259.521 47.91 258.121 47.94L251.271 48.1C249.961 48.13 248.711 49.23 248.771 50.6C248.831 51.97 249.871 53.13 251.271 53.1Z" fill="#212121"/>
<path d="M262.56 36.7L260.95 51.17C260.81 52.47 262.2 53.73 263.45 53.67C264.93 53.6 265.79 52.57 265.95 51.17L267.56 36.7C267.7 35.4 266.31 34.14 265.06 34.2C263.58 34.27 262.72 35.3 262.56 36.7Z" fill="#212121"/>
<path d="M262.52 37.46C262.13 45 267.13 52.08 274.14 54.62C275.33 55.05 276.99 54.13 277.22 52.87C278.17 47.54 278.95 42.17 279.58 36.79C279.73 35.49 278.32 34.23 277.08 34.29C275.6 34.36 274.74 35.39 274.58 36.79C274.01 41.7 273.29 46.55 272.4 51.54L275.48 49.79C275.3 49.73 275.13 49.66 274.96 49.59C274.69 49.49 275.26 49.74 274.84 49.53C274.51 49.36 274.18 49.2 273.85 49.02C273.52 48.84 273.21 48.64 272.91 48.43C272.76 48.33 272.61 48.22 272.46 48.11C272.23 47.95 272.7 48.32 272.35 48.02C271.79 47.53 271.24 47.04 270.74 46.48C270.62 46.34 270.49 46.2 270.37 46.06C270.31 45.99 269.99 45.59 270.27 45.96C270.04 45.67 269.83 45.36 269.63 45.05C269.22 44.43 268.86 43.78 268.55 43.1C268.49 42.97 268.43 42.83 268.37 42.69C268.58 43.19 268.31 42.51 268.29 42.46C268.18 42.15 268.07 41.83 267.98 41.51C267.88 41.15 267.79 40.79 267.71 40.43C267.67 40.25 267.64 40.07 267.61 39.88C267.48 39.19 267.62 40.18 267.59 39.77C267.53 38.99 267.49 38.22 267.53 37.44C267.6 36.13 266.33 34.88 265.03 34.94C263.62 35 262.6 36.04 262.53 37.44L262.52 37.46Z" fill="#212121"/>
<path d="M278.81 38.24C283.36 39.02 288.06 38.69 292.39 37C293.6 36.53 294.58 35.3 294.14 33.92C293.76 32.74 292.37 31.67 291.06 32.17C290.09 32.55 289.1 32.86 288.09 33.11C287.66 33.21 287.22 33.31 286.78 33.39C286.49 33.44 286.19 33.49 285.9 33.53C286.35 33.47 285.86 33.53 285.68 33.55C284.72 33.65 283.75 33.68 282.79 33.66C282.27 33.65 281.75 33.62 281.24 33.57C281.02 33.55 280.8 33.52 280.58 33.5C281.18 33.57 280.25 33.44 280.14 33.42C278.86 33.2 277.38 33.76 277.06 35.17C276.78 36.38 277.43 38.01 278.81 38.25V38.24Z" fill="#212121"/>
<path d="M283.84 35.17C283.59 41.27 283.34 47.3601 283.09 53.4601C283.03 54.8101 284.28 55.9601 285.59 55.9601C286.99 55.9601 288.03 54.8101 288.09 53.4601C288.34 47.3601 288.59 41.27 288.84 35.17C288.9 33.82 287.65 32.67 286.34 32.67C284.94 32.67 283.9 33.82 283.84 35.17Z" fill="#212121"/>
<path d="M293.931 41.45C297.071 41.24 300.071 40.4 302.851 38.93C304.011 38.32 304.461 36.61 303.751 35.51C302.991 34.33 301.571 33.9601 300.331 34.6101C299.841 34.8701 299.341 35.1101 298.831 35.3301L299.431 35.0801C297.901 35.7301 296.291 36.17 294.641 36.4L295.301 36.31C294.841 36.37 294.381 36.42 293.921 36.45C293.251 36.49 292.641 36.7 292.151 37.18C291.721 37.61 291.391 38.33 291.421 38.95C291.481 40.23 292.521 41.54 293.921 41.45H293.931Z" fill="#212121"/>
<path d="M291.431 38.22V49.65C291.431 50.96 292.581 52.21 293.931 52.15C295.281 52.09 296.431 51.05 296.431 49.65V38.22C296.431 36.91 295.281 35.66 293.931 35.72C292.581 35.78 291.431 36.82 291.431 38.22Z" fill="#212121"/>
<path d="M293.94 46.92L301.54 45.98C302.23 45.89 302.8 45.76 303.31 45.25C303.74 44.82 304.07 44.1 304.04 43.48C304.01 42.86 303.8 42.1601 303.31 41.7101C302.86 41.2901 302.18 40.9 301.54 40.98L293.94 41.92C293.25 42.01 292.68 42.14 292.17 42.65C291.74 43.08 291.41 43.8 291.44 44.42C291.47 45.04 291.68 45.7401 292.17 46.1901C292.62 46.6101 293.3 47 293.94 46.92Z" fill="#212121"/>
<path d="M292.39 54.2C296.57 53.91 300.7 53.11 304.65 51.73C305.88 51.3 306.83 50 306.4 48.65C306.01 47.43 304.65 46.44 303.32 46.9C301.48 47.54 299.61 48.0601 297.71 48.4601C296.78 48.6501 295.84 48.81 294.89 48.95C294.7 48.98 294.74 48.97 295.01 48.93C294.86 48.95 294.72 48.97 294.57 48.98C294.35 49.01 294.13 49.03 293.91 49.05C293.4 49.1 292.89 49.14 292.38 49.18C291.08 49.27 289.82 50.27 289.88 51.68C289.94 52.96 290.98 54.28 292.38 54.18L292.39 54.2Z" fill="#212121"/>
<path d="M308.131 37.51C307.031 41.42 307.081 45.67 308.321 49.54C308.721 50.78 310.07 51.71 311.4 51.29C312.64 50.89 313.57 49.55 313.15 48.21C312.87 47.35 312.651 46.47 312.501 45.58C312.471 45.43 312.341 44.85 312.481 45.48C312.441 45.29 312.441 45.09 312.421 44.9C312.381 44.45 312.351 44 312.351 43.54C312.351 43.12 312.351 42.7 312.371 42.28C312.371 42.13 312.341 41.1 312.481 41.02C312.431 41.36 312.431 41.39 312.471 41.11C312.481 41.01 312.5 40.92 312.52 40.82C312.56 40.6 312.601 40.37 312.641 40.15C312.731 39.71 312.841 39.27 312.971 38.83C313.321 37.57 312.531 36.05 311.221 35.75C309.911 35.45 308.521 36.15 308.141 37.5L308.131 37.51Z" fill="#212121"/>
<path d="M311.361 38.27C311.501 38.17 311.651 38.08 311.801 37.99C311.841 37.97 312.091 37.82 312.101 37.83C312.121 37.84 311.611 38 311.891 37.92C311.971 37.9 312.931 37.61 312.931 37.64C312.931 37.67 312.401 37.68 312.681 37.68C312.791 37.68 312.901 37.66 313.011 37.66C313.181 37.66 313.341 37.66 313.511 37.66C313.621 37.66 314.141 37.64 313.761 37.66C313.461 37.69 313.641 37.64 313.761 37.66C313.901 37.69 314.041 37.72 314.181 37.75C314.351 37.79 314.511 37.84 314.671 37.89C314.761 37.92 315.291 38.06 314.941 37.97C314.591 37.88 315.171 38.08 315.271 38.13C315.451 38.22 315.631 38.32 315.801 38.43C315.951 38.52 316.091 38.64 316.241 38.72C316.481 38.85 316.081 38.59 316.081 38.59C316.151 38.62 316.221 38.71 316.281 38.76C316.591 39.03 316.871 39.31 317.141 39.62C317.191 39.67 317.281 39.76 317.311 39.82C317.311 39.82 317.041 39.41 317.181 39.66C317.271 39.83 317.411 39.99 317.511 40.17C317.601 40.32 317.671 40.47 317.751 40.63C317.781 40.69 317.881 40.97 317.761 40.65C317.631 40.31 317.761 40.69 317.791 40.75C317.851 40.94 317.911 41.13 317.961 41.33C317.981 41.41 317.991 41.51 318.011 41.58C318.091 41.84 317.961 41.37 317.991 41.35C317.911 41.43 317.991 42.61 318.001 42.75C318.001 42.32 318.031 42.61 317.971 42.87C317.931 43.06 317.881 43.26 317.831 43.45C317.771 43.67 317.681 43.89 317.611 44.11C317.521 44.38 317.661 43.99 317.671 43.97C317.611 44.09 317.561 44.21 317.501 44.33C317.321 44.69 317.101 45.02 316.881 45.35C316.621 45.73 316.851 45.4 316.911 45.33C316.851 45.41 316.781 45.49 316.721 45.56C316.571 45.74 316.401 45.91 316.241 46.08C316.051 46.27 315.841 46.45 315.641 46.63C315.611 46.66 315.341 46.87 315.581 46.69C315.821 46.51 315.471 46.77 315.421 46.8C315.001 47.09 314.561 47.33 314.101 47.57C314.061 47.59 313.751 47.74 314.031 47.61C314.311 47.48 313.911 47.65 313.861 47.67C313.641 47.75 313.411 47.83 313.181 47.89C312.921 47.96 312.651 48.02 312.391 48.07C312.341 48.08 312.001 48.13 312.321 48.09C312.691 48.04 312.061 48.1 312.051 48.11C310.751 48.2 309.491 49.19 309.551 50.61C309.611 51.89 310.651 53.21 312.051 53.11C317.001 52.76 321.871 49.16 322.841 44.11C323.291 41.74 322.971 39.24 321.581 37.22C320.191 35.2 318.351 33.86 316.121 33.11C313.751 32.32 310.961 32.55 308.861 33.96C307.781 34.69 307.201 36.2 307.961 37.38C308.661 38.46 310.221 39.06 311.381 38.28L311.361 38.27Z" fill="#212121"/>
<path d="M255.83 88.8C264.72 89.71 273.62 89.45 282.45 88.17C283.79 87.98 284.52 86.28 284.2 85.09C283.81 83.65 282.47 83.15 281.12 83.34C272.75 84.55 264.23 84.65 255.82 83.79C254.47 83.65 253.32 85.04 253.32 86.29C253.32 87.76 254.47 88.65 255.82 88.79L255.83 88.8Z" fill="#212121"/>
<path d="M264.66 85.74C264.53 85.43 264.43 85.12 264.36 84.8C264.34 84.72 264.34 84.59 264.31 84.52C264.31 84.52 264.34 85.08 264.36 84.84C264.37 84.66 264.33 84.47 264.34 84.28C264.34 84.12 264.36 83.95 264.36 83.79C264.38 83.37 264.23 84.41 264.36 83.83C264.44 83.48 264.54 83.15 264.65 82.81C264.38 83.34 264.78 82.41 264.65 82.81C264.73 82.66 264.8 82.51 264.88 82.37C264.95 82.25 265.03 82.12 265.1 82.01C265.15 81.93 265.21 81.85 265.26 81.78C265.45 81.49 265.2 81.91 265.13 81.95C265.37 81.81 265.6 81.42 265.81 81.23C265.87 81.17 266.33 80.79 265.99 81.06C265.65 81.33 266.16 80.96 266.26 80.9C266.4 80.81 266.54 80.74 266.69 80.66C266.77 80.62 266.88 80.59 266.94 80.54C266.94 80.54 266.43 80.71 266.67 80.66C266.99 80.59 267.38 80.51 267.69 80.4C267.64 80.42 267.05 80.44 267.45 80.44C267.52 80.44 267.59 80.44 267.67 80.44C267.84 80.44 268.01 80.44 268.18 80.45C268.6 80.46 267.59 80.3 268.16 80.45C268.35 80.5 268.53 80.54 268.71 80.6C268.78 80.62 268.84 80.65 268.91 80.67C269.3 80.79 268.74 80.62 268.71 80.58C268.8 80.68 269.04 80.74 269.16 80.81C269.31 80.89 269.45 80.98 269.59 81.07C269.65 81.11 269.71 81.16 269.77 81.19C270.01 81.33 269.31 80.78 269.66 81.11C269.91 81.34 270.16 81.57 270.38 81.83C270.43 81.88 270.47 81.95 270.52 82C270.7 82.18 270.36 81.79 270.35 81.78C270.38 81.92 270.6 82.14 270.68 82.26C270.78 82.43 270.88 82.6 270.96 82.77C270.98 82.82 271.04 82.99 271.09 83.03C270.97 82.91 270.9 82.5 271.03 82.9C271.15 83.27 271.23 83.64 271.32 84.01C271.38 84.26 271.28 83.69 271.28 83.7C271.26 83.8 271.3 83.95 271.3 84.06C271.3 84.25 271.3 84.44 271.3 84.63C271.3 84.7 271.27 84.78 271.28 84.84C271.21 84.31 271.36 84.41 271.28 84.67C271.22 84.88 271.17 85.09 271.1 85.3C270.68 86.54 271.58 88.09 272.85 88.38C274.23 88.69 275.48 87.96 275.93 86.63C277.27 82.64 274.9 77.84 271.1 76.17C268.89 75.2 266.62 75.19 264.42 76.19C262.7 76.97 261.19 78.51 260.36 80.2C259.33 82.28 258.93 84.83 259.85 87.04C260.11 87.67 260.39 88.18 261 88.53C261.54 88.84 262.33 88.98 262.93 88.78C264.09 88.41 265.22 87 264.68 85.7L264.66 85.74Z" fill="#212121"/>
<path d="M250.33 99.17C250.1 112.7 249.1 126.23 247.25 139.64C247.07 140.98 247.57 142.32 249 142.72C250.17 143.04 251.89 142.32 252.08 140.97C253.99 127.11 255.1 113.16 255.34 99.17C255.39 95.95 250.39 95.95 250.34 99.17H250.33Z" fill="#212121"/>
<path d="M253.551 100.87C265.271 101.69 277.001 101.18 288.621 99.48L285.461 97.07C283.961 111.5 282.471 125.92 280.971 140.35C280.831 141.69 282.221 142.85 283.471 142.85C284.941 142.85 285.831 141.7 285.971 140.35C287.471 125.92 288.961 111.5 290.461 97.07C290.651 95.28 288.721 94.45 287.301 94.66C276.141 96.29 264.801 96.65 253.551 95.87C252.201 95.78 251.051 97.09 251.051 98.37C251.051 99.8 252.201 100.78 253.551 100.87Z" fill="#212121"/>
<path d="M248.17 142.62C259.12 143.39 270.12 142.63 280.88 140.48C282.2 140.21 282.97 138.64 282.63 137.4C282.25 136.02 280.88 135.39 279.55 135.65C269.22 137.72 258.67 138.35 248.17 137.62C246.82 137.53 245.67 138.84 245.67 140.12C245.67 141.55 246.82 142.53 248.17 142.62Z" fill="#212121"/>
<path d="M258.001 109.08C257.971 109.74 258.061 110.43 258.271 111.06C258.481 111.69 258.751 112.31 259.141 112.84C259.391 113.17 259.641 113.52 259.941 113.81C260.241 114.1 260.601 114.38 260.961 114.63C261.141 114.76 261.341 114.87 261.541 114.96C261.941 115.14 262.341 115.32 262.771 115.43C263.411 115.59 264.121 115.51 264.701 115.18C265.221 114.88 265.711 114.28 265.851 113.69C266.001 113.05 265.961 112.33 265.601 111.76C265.241 111.19 264.751 110.77 264.111 110.61C263.931 110.57 263.751 110.51 263.581 110.44L264.181 110.69C263.871 110.56 263.591 110.39 263.321 110.18L263.831 110.57C263.571 110.36 263.331 110.12 263.121 109.86L263.511 110.37C263.291 110.09 263.121 109.78 262.981 109.46L263.231 110.06C263.101 109.75 263.011 109.43 262.961 109.1L263.051 109.76C263.021 109.54 263.011 109.32 263.021 109.09C263.051 108.47 262.721 107.75 262.291 107.32C261.861 106.89 261.141 106.56 260.521 106.59C259.901 106.62 259.201 106.83 258.751 107.32C258.301 107.81 258.051 108.4 258.021 109.09L258.001 109.08Z" fill="#212121"/>
<path d="M270.99 115.37C274.02 114.79 276.91 113.17 279.02 110.92C279.92 109.97 280.04 108.32 279.02 107.38C278 106.44 276.44 106.36 275.48 107.38C275.02 107.87 274.53 108.32 274 108.73L274.51 108.34C273.62 109.02 272.66 109.59 271.63 110.03L272.23 109.78C271.4 110.12 270.55 110.38 269.67 110.55C269.08 110.66 268.47 111.2 268.18 111.7C267.87 112.24 267.73 113.03 267.93 113.63C268.13 114.23 268.5 114.82 269.08 115.12C269.7 115.45 270.31 115.5 271.01 115.37H270.99Z" fill="#212121"/>
<path d="M259.87 129.59C261.49 130.33 263.18 130.77 264.97 130.77C266.76 130.77 268.45 130.32 270.07 129.57C270.61 129.32 271.07 128.63 271.22 128.08C271.38 127.48 271.31 126.68 270.97 126.15C270.63 125.62 270.11 125.15 269.48 125C268.79 124.84 268.19 124.95 267.55 125.25C267.43 125.31 267.31 125.36 267.19 125.41L267.79 125.16C267.07 125.46 266.32 125.66 265.54 125.77L266.2 125.68C265.38 125.79 264.56 125.79 263.74 125.68L264.4 125.77C263.62 125.66 262.87 125.47 262.15 125.17L262.75 125.42C262.63 125.37 262.51 125.32 262.39 125.26C261.76 124.97 261.15 124.82 260.46 125.01C259.88 125.17 259.25 125.62 258.97 126.16C258.39 127.26 258.6 129 259.87 129.58V129.59Z" fill="#212121"/>
<path d="M257.001 141.06L255.501 156.3C255.371 157.61 256.741 158.86 258.001 158.8C259.461 158.73 260.361 157.7 260.501 156.3L262.001 141.06C262.131 139.75 260.761 138.5 259.501 138.56C258.041 138.63 257.141 139.66 257.001 141.06Z" fill="#212121"/>
<path d="M269.37 139.55C268.88 145.19 269.58 150.95 271.38 156.32C271.79 157.56 273.12 158.5 274.46 158.07C275.69 157.67 276.65 156.32 276.21 154.99C274.51 149.9 273.92 144.92 274.38 139.54C274.49 138.23 273.15 136.98 271.88 137.04C270.43 137.1 269.5 138.14 269.38 139.54L269.37 139.55Z" fill="#212121"/>
<path d="M287.071 116.16L297.901 116.14H303.211C304.061 116.13 304.911 116.12 305.761 116.12C305.991 116.12 306.211 116.12 306.441 116.12H306.3C306.6 116.21 306.651 116.22 306.451 116.12C306.051 115.71 305.881 115.18 305.951 114.52C305.101 117.63 309.92 118.95 310.771 115.85C311.381 113.6 309.731 111.78 307.631 111.28C306.601 111.04 305.531 111.1 304.481 111.1H300.871C296.271 111.12 291.671 111.13 287.061 111.13C283.841 111.13 283.841 116.14 287.061 116.13L287.071 116.16Z" fill="#212121"/>
<path d="M249.54 108.61C243.97 112.7 239.12 117.57 235.09 123.19C233.15 125.89 231.43 128.75 229.96 131.73C229.23 133.21 228.59 134.68 229.03 136.37C229.5 138.15 231.24 139.52 233.11 138.84C234.38 138.38 235.23 137.14 234.86 135.76C234.52 134.53 233.06 133.56 231.78 134.01L232.53 134.03L233.63 134.67C233.57 134.62 233.9 135.08 233.86 135.09C233.76 135.11 234.02 134.77 233.9 134.99C234.17 134.52 234.39 134 234.63 133.51C235.22 132.36 235.84 131.23 236.5 130.12C237.81 127.91 239.25 125.77 240.85 123.76C244.09 119.69 247.86 115.99 252.06 112.91C253.15 112.11 253.69 110.74 252.96 109.49C252.33 108.42 250.63 107.79 249.54 108.59V108.61Z" fill="#212121"/>
<path d="M320.501 157.97C320.561 157.95 320.631 157.94 320.691 157.93L320.031 158.02C320.181 158 320.331 158 320.471 158.02L319.811 157.93C319.971 157.95 320.121 157.99 320.271 158.05L319.671 157.8C319.821 157.87 319.971 157.95 320.101 158.05L319.591 157.66C319.711 157.75 319.811 157.86 319.901 157.97L319.511 157.46C319.581 157.55 319.641 157.64 319.681 157.74L320.071 154.71C319.971 154.8 319.871 154.89 319.761 154.97L320.271 154.58C319.981 154.81 319.661 154.99 319.311 155.14L319.911 154.89C319.681 154.99 319.451 155.06 319.211 155.12L322.291 158.2C322.311 158.13 322.331 158.06 322.361 157.98L322.111 158.58C322.171 158.45 322.241 158.33 322.331 158.21L321.941 158.72C322.031 158.61 322.131 158.51 322.241 158.42L321.731 158.81C321.841 158.72 321.971 158.65 322.101 158.6L321.501 158.85C321.631 158.8 321.771 158.76 321.911 158.74L321.251 158.83C321.251 158.83 321.331 158.83 321.361 158.82C321.701 158.83 322.031 158.76 322.321 158.6C322.631 158.5 322.901 158.33 323.121 158.08C323.361 157.85 323.541 157.59 323.641 157.28C323.801 156.98 323.871 156.66 323.861 156.32L323.771 155.66C323.651 155.24 323.441 154.87 323.131 154.56L322.621 154.17C322.231 153.94 321.811 153.83 321.361 153.83C321.061 153.85 320.751 153.89 320.461 153.95C320.371 153.97 320.291 154 320.201 154.03C319.921 154.14 319.631 154.24 319.371 154.4C319.111 154.56 318.891 154.75 318.671 154.93C318.601 154.99 318.531 155.05 318.471 155.12C318.371 155.23 318.291 155.35 318.201 155.46C318.111 155.57 318.011 155.69 317.931 155.82C317.881 155.89 317.841 155.97 317.801 156.06C317.681 156.32 317.541 156.61 317.461 156.9C317.231 157.77 317.461 158.7 318.101 159.33C318.411 159.64 318.781 159.85 319.201 159.97C319.641 160.09 320.091 160.09 320.531 159.97C320.721 159.93 320.901 159.87 321.081 159.81C321.451 159.67 321.831 159.52 322.181 159.33C322.351 159.24 322.511 159.14 322.671 159.03C322.991 158.8 323.311 158.56 323.601 158.29L323.991 157.78C324.171 157.49 324.271 157.18 324.291 156.85C324.351 156.63 324.351 156.41 324.291 156.19C324.271 155.86 324.181 155.55 323.991 155.26C323.941 155.16 323.891 155.07 323.821 154.99C323.651 154.76 323.451 154.47 323.231 154.27C323.011 154.07 322.761 153.88 322.511 153.7C322.421 153.64 322.331 153.59 322.231 153.54C321.951 153.41 321.671 153.28 321.371 153.19C321.071 153.1 320.731 153.08 320.421 153.04C320.321 153.03 320.221 153.02 320.111 153.04C319.841 153.06 319.571 153.1 319.311 153.14C319.251 153.14 319.201 153.16 319.151 153.17C318.821 153.25 318.541 153.4 318.301 153.62C318.031 153.8 317.811 154.03 317.661 154.32C317.481 154.61 317.381 154.92 317.361 155.25C317.291 155.58 317.301 155.91 317.401 156.25L317.651 156.85C317.871 157.23 318.171 157.52 318.551 157.75L319.151 158C319.591 158.12 320.041 158.12 320.481 158L320.501 157.97Z" fill="#212121"/>
<path d="M315.801 25.15L316.611 26.65L320.031 23.23C319.361 22.73 318.691 22.23 318.021 21.73C317.731 21.55 317.421 21.45 317.091 21.43C316.761 21.36 316.431 21.37 316.091 21.47C315.761 21.55 315.481 21.7 315.241 21.92C314.971 22.1 314.751 22.33 314.601 22.62L314.351 23.22C314.231 23.66 314.231 24.11 314.351 24.55L314.601 25.15C314.821 25.53 315.121 25.82 315.501 26.05C316.171 26.55 316.841 27.05 317.511 27.55L318.111 27.8C318.441 27.9 318.771 27.92 319.111 27.84C319.341 27.84 319.551 27.78 319.741 27.67C320.051 27.57 320.321 27.4 320.541 27.15L320.931 26.64L321.181 26.04C321.281 25.71 321.301 25.38 321.221 25.04C321.201 24.71 321.111 24.4 320.921 24.11L320.111 22.61C319.951 22.32 319.741 22.08 319.471 21.91C319.231 21.69 318.951 21.54 318.621 21.46C318.291 21.36 317.961 21.34 317.621 21.42C317.291 21.44 316.981 21.53 316.691 21.72L316.181 22.11C315.871 22.42 315.661 22.79 315.541 23.21L315.451 23.87C315.451 24.32 315.571 24.74 315.791 25.13L315.801 25.15Z" fill="#212121"/>
<path d="M219.39 25.94C219.12 25.97 218.83 25.99 218.56 26.06C218.53 26.06 218.5 26.08 218.47 26.09C218.25 26.17 218.01 26.27 217.79 26.38C217.74 26.41 217.69 26.44 217.65 26.47C217.44 26.62 217.2 26.77 217.03 26.97C216.86 27.17 216.69 27.38 216.55 27.59C216.52 27.64 216.49 27.7 216.46 27.75C216.33 28.02 216.16 28.37 216.1 28.69C216.05 28.96 216.01 29.24 215.99 29.52C215.99 29.59 215.99 29.65 215.99 29.72C215.99 29.78 215.99 29.85 216 29.91C216.03 30.19 216.06 30.47 216.12 30.75C216.13 30.81 216.15 30.87 216.17 30.93C216.26 31.19 216.37 31.45 216.49 31.7C216.52 31.75 216.55 31.81 216.58 31.85C216.73 32.07 216.89 32.29 217.07 32.49C217.28 32.73 217.55 32.93 217.83 33.09C218.41 33.41 218.77 33.47 219.41 33.53C219.75 33.57 220.11 33.5 220.44 33.42C220.77 33.34 221.07 33.21 221.34 33.03C221.89 32.66 222.08 32.44 222.47 31.91C222.61 31.72 222.68 31.52 222.77 31.3C222.86 31.08 222.96 30.88 223 30.64C223.06 30.3 223.13 29.94 223.11 29.6C223.09 29.26 223.06 28.88 222.96 28.54C222.86 28.2 222.74 27.88 222.54 27.59C222.19 27.08 221.9 26.78 221.39 26.44C221.36 26.42 221.33 26.41 221.31 26.39C221.1 26.28 220.86 26.19 220.64 26.1C220.57 26.07 220.49 26.05 220.41 26.04C219.97 25.92 219.52 25.92 219.08 26.04C218.66 26.16 218.29 26.37 217.98 26.68C217.67 26.99 217.46 27.36 217.34 27.78C217.22 28.22 217.22 28.67 217.34 29.11V29.14C217.32 28.92 217.29 28.7 217.26 28.48C217.26 28.54 217.26 28.59 217.26 28.64L217.35 27.98C217.35 28.03 217.33 28.08 217.31 28.13L217.56 27.53C217.53 27.59 217.5 27.64 217.46 27.69L217.85 27.18C217.8 27.24 217.75 27.29 217.69 27.33L218.2 26.94C218.13 26.99 218.06 27.03 217.98 27.07L218.58 26.82C218.5 26.85 218.42 26.87 218.34 26.88L219 26.79C218.94 26.79 218.87 26.79 218.81 26.79L219.47 26.88C219.42 26.88 219.37 26.86 219.32 26.84L219.92 27.09C219.87 27.07 219.82 27.04 219.78 27.01L220.29 27.4C220.29 27.4 220.25 27.36 220.23 27.34C220 27.1 219.74 26.92 219.43 26.82C219.13 26.66 218.81 26.59 218.47 26.6C218.13 26.59 217.8 26.66 217.51 26.82C217.2 26.92 216.93 27.09 216.71 27.34C216.27 27.82 215.95 28.44 215.98 29.11L216.07 29.77C216.19 30.19 216.4 30.56 216.71 30.87C216.92 31.08 217.15 31.28 217.42 31.4C217.6 31.48 217.85 31.6 218.04 31.66C218.06 31.66 218.08 31.67 218.1 31.68C218.12 31.69 218.14 31.68 218.17 31.69C218.39 31.73 218.65 31.77 218.87 31.78C218.91 31.78 218.95 31.78 218.99 31.78C219.24 31.76 219.51 31.73 219.76 31.67C220.05 31.61 220.33 31.47 220.59 31.33C220.63 31.31 220.66 31.29 220.7 31.26C220.9 31.12 221.11 30.96 221.29 30.8C221.32 30.77 221.35 30.74 221.38 30.7C221.53 30.52 221.7 30.32 221.83 30.12C221.84 30.1 221.85 30.08 221.86 30.06C221.96 29.87 222.05 29.63 222.13 29.43C222.15 29.39 222.16 29.35 222.17 29.3C222.21 29.1 222.25 28.81 222.26 28.61C222.26 28.59 222.26 28.57 222.26 28.54C222.26 28.28 222.2 28 222.16 27.75L219.08 30.83C219.16 30.84 219.23 30.86 219.31 30.89L218.71 30.64C218.78 30.67 218.85 30.71 218.92 30.76L218.41 30.37C218.47 30.42 218.53 30.48 218.58 30.54L218.19 30.03C218.25 30.11 218.3 30.2 218.34 30.29L218.09 29.69C218.14 29.81 218.17 29.94 218.19 30.06L218.1 29.4C218.12 29.56 218.12 29.71 218.1 29.87L218.19 29.21C218.17 29.36 218.13 29.5 218.08 29.64L218.33 29.04C218.28 29.15 218.22 29.26 218.15 29.35L218.54 28.84C218.48 28.91 218.42 28.98 218.34 29.04L218.85 28.65C218.79 28.7 218.72 28.74 218.65 28.77L219.25 28.52C219.17 28.55 219.09 28.57 219.01 28.58L219.67 28.49C219.58 28.49 219.5 28.49 219.41 28.49L220.07 28.58C219.99 28.57 219.91 28.55 219.83 28.51L220.43 28.76C220.36 28.73 220.29 28.69 220.23 28.64L220.74 29.03C220.67 28.98 220.61 28.91 220.56 28.85L220.95 29.36C220.88 29.27 220.83 29.18 220.78 29.07L221.03 29.67C220.97 29.53 220.94 29.39 220.91 29.25L221 29.91C220.98 29.75 220.98 29.58 221 29.42L220.91 30.08C220.93 29.94 220.96 29.81 221.02 29.68L220.77 30.28C220.81 30.19 220.86 30.1 220.92 30.02L220.53 30.53C220.58 30.47 220.63 30.41 220.7 30.36L220.19 30.75C220.25 30.7 220.32 30.66 220.39 30.63L219.79 30.88C219.87 30.85 219.95 30.83 220.03 30.81L219.37 30.9H219.39C219.73 30.9 220.06 30.84 220.35 30.68C220.66 30.58 220.93 30.41 221.15 30.16C221.39 29.93 221.57 29.67 221.67 29.36C221.83 29.06 221.9 28.74 221.89 28.4L221.8 27.74C221.68 27.32 221.47 26.95 221.16 26.64L220.65 26.25C220.26 26.02 219.84 25.91 219.39 25.91V25.94Z" fill="#212121"/>
<path d="M222.74 154.47C222.74 154.47 222.72 154.45 222.71 154.44L223.1 154.95C223.1 154.95 223.07 154.91 223.06 154.88L223.31 155.48C223.31 155.48 223.3 155.44 223.29 155.41L223.38 156.07C223.38 156.07 223.38 156.03 223.38 156.01L223.29 156.67C223.29 156.67 223.29 156.64 223.3 156.63L223.05 157.23C223.05 157.23 223.07 157.18 223.09 157.16L222.7 157.67C222.7 157.67 222.74 157.63 222.76 157.61L222.25 158C222.25 158 222.33 157.94 222.38 157.92L221.78 158.17C221.85 158.14 221.93 158.12 222.01 158.11L221.35 158.2C221.42 158.2 221.5 158.2 221.57 158.2L220.91 158.11C220.97 158.11 221.02 158.13 221.07 158.15L220.47 157.9C220.47 157.9 220.54 157.94 220.57 157.96L220.06 157.57C220.06 157.57 220.11 157.61 220.13 157.64L219.74 157.13C219.74 157.13 219.78 157.19 219.79 157.22L219.54 156.62C219.54 156.62 219.56 156.7 219.57 156.74L219.48 156.08C219.48 156.15 219.48 156.22 219.48 156.3L219.57 155.64C219.56 155.72 219.54 155.8 219.51 155.88L219.76 155.28C219.72 155.38 219.66 155.47 219.59 155.56L219.98 155.05C219.87 155.19 219.73 155.32 219.59 155.43L220.1 155.04C219.94 155.16 219.78 155.27 219.6 155.37L223.27 158.19C223.62 157.29 223.98 156.4 224.33 155.5H219.51C219.51 155.5 219.51 155.55 219.52 155.57L219.43 154.91C219.44 155.02 219.44 155.13 219.43 155.23L219.52 154.57C219.5 154.7 219.47 154.83 219.42 154.95L219.67 154.35C219.62 154.47 219.55 154.59 219.47 154.69L219.86 154.18C219.78 154.28 219.7 154.36 219.6 154.44L220.11 154.05C220.01 154.12 219.91 154.18 219.8 154.23L220.4 153.98C220.31 154.02 220.22 154.04 220.12 154.06C219.79 154.14 219.51 154.29 219.27 154.51C219 154.69 218.78 154.92 218.63 155.21C218.45 155.5 218.35 155.81 218.33 156.14C218.26 156.47 218.27 156.8 218.37 157.14C218.57 157.74 218.94 158.33 219.52 158.63L220.12 158.88C220.56 159 221.01 159 221.45 158.88C221.65 158.84 221.83 158.75 222.03 158.67C222.23 158.59 222.4 158.53 222.57 158.41C223.14 158.02 223.46 157.7 223.85 157.13C223.91 157.05 223.95 156.97 223.99 156.88C224.11 156.61 224.26 156.32 224.33 156.03C224.34 155.98 224.35 155.94 224.36 155.89C224.4 155.64 224.45 155.38 224.46 155.12C224.46 155.07 224.46 155.01 224.46 154.96C224.44 154.7 224.4 154.43 224.35 154.17L224.1 153.57C223.94 153.28 223.73 153.04 223.46 152.87C223.3 152.72 223.12 152.61 222.91 152.55C222.61 152.39 222.29 152.32 221.95 152.33L221.29 152.42L220.69 152.67C220.4 152.83 220.16 153.04 219.99 153.31C219.77 153.55 219.62 153.83 219.54 154.16C219.19 155.06 218.83 155.95 218.48 156.85L218.39 157.51L218.48 158.17L218.73 158.77C218.89 159.06 219.1 159.3 219.37 159.47C219.53 159.62 219.71 159.73 219.92 159.79C220.11 159.9 220.33 159.96 220.55 159.96C220.77 160.02 220.99 160.02 221.21 159.96C221.54 159.94 221.85 159.85 222.14 159.66C222.31 159.56 222.48 159.45 222.64 159.33C222.95 159.09 223.29 158.87 223.54 158.56C223.69 158.38 223.93 158.1 224.06 157.85C224.17 157.63 224.26 157.4 224.35 157.17C224.37 157.12 224.39 157.07 224.4 157.02C224.46 156.78 224.48 156.51 224.5 156.27C224.5 156.23 224.5 156.19 224.5 156.14C224.5 155.89 224.45 155.63 224.4 155.38C224.4 155.34 224.39 155.3 224.37 155.27C224.34 155.19 224.16 154.74 224.11 154.66C224.11 154.65 224.1 154.63 224.09 154.62C224.03 154.51 223.94 154.41 223.86 154.32C223.78 154.23 223.71 154.11 223.62 154.02C223.62 154.02 223.6 154 223.59 153.99C223.46 153.87 223.21 153.67 223.06 153.58C223.04 153.57 223.02 153.56 223 153.55C222.85 153.47 222.54 153.35 222.38 153.29C222.37 153.29 222.35 153.28 222.34 153.28C222.32 153.28 222.29 153.27 222.27 153.26C222.04 153.21 221.77 153.18 221.54 153.16C221.22 153.13 220.88 153.19 220.57 153.27C220.26 153.35 219.97 153.46 219.71 153.64C219.53 153.76 219.32 153.91 219.17 154.07C219.17 154.07 219.16 154.09 219.15 154.09C219.08 154.16 218.8 154.53 218.75 154.61C218.68 154.72 218.65 154.82 218.59 154.96C218.43 155.35 218.46 155.21 218.41 155.63C218.39 155.82 218.37 155.88 218.36 156.02C218.36 156.04 218.45 156.67 218.45 156.69C218.45 156.7 218.45 156.72 218.46 156.73C218.58 157.22 218.86 157.58 219.18 157.95C219.41 158.19 219.67 158.37 219.98 158.47C220.28 158.63 220.6 158.7 220.94 158.69C221.28 158.7 221.61 158.63 221.9 158.47C222.21 158.37 222.48 158.2 222.7 157.95C223.14 157.47 223.46 156.85 223.43 156.18L223.34 155.52C223.22 155.1 223.01 154.73 222.7 154.42L222.74 154.47Z" fill="#212121"/>
</svg>
