<?xml version="1.0" encoding="UTF-8"?>
<svg version="1.1" xmlns="http://www.w3.org/2000/svg" width="1520" height="348">
<path d="M0 0 C3.54480172 2.80828836 6.79814083 5.8088137 10 9 C10.7115625 9.68835938 11.423125 10.37671875 12.15625 11.0859375 C26.44621639 25.87055657 29.60223564 45.20410146 29.40478516 64.9609375 C28.85674238 85.64084082 21.80920606 103.79793667 6.8125 118.375 C-5.41923642 128.89600406 -19.99263665 133.55066259 -36 133.4375 C-37.00289062 133.45748047 -38.00578125 133.47746094 -39.0390625 133.49804688 C-51.08663002 133.49026421 -62.91936685 128.96140505 -71.58984375 120.4609375 C-77.52076049 113.95847902 -77.52076049 113.95847902 -79 111 C-79.33 139.38 -79.66 167.76 -80 197 C-91.88 197 -103.76 197 -116 197 C-116 129.35 -116 61.7 -116 -8 C-104.12 -8 -92.24 -8 -80 -8 C-79.505 1.405 -79.505 1.405 -79 11 C-78.05125 9.659375 -77.1025 8.31875 -76.125 6.9375 C-58.7434666 -15.26060289 -22.01954366 -15.36247232 0 0 Z M-72.42578125 35.83984375 C-77.78183128 43.81862034 -79.54526503 51.85604532 -79.4375 61.375 C-79.43137695 62.29676025 -79.42525391 63.21852051 -79.41894531 64.16821289 C-79.26095638 71.05106163 -78.30569905 76.87236274 -75 83 C-74.443125 84.051875 -73.88625 85.10375 -73.3125 86.1875 C-66.32660723 94.68385607 -57.79595615 101.13038359 -46.58984375 102.23828125 C-35.82897835 102.5393953 -26.95745302 99.27538562 -19 92 C-11.15289231 84.4259935 -7.92581083 75.4657694 -7.70751953 64.73901367 C-7.61633849 51.97922707 -8.83411304 41.6130034 -18 32 C-27.20485996 23.51240185 -35.2913375 21.060933 -47.7265625 21.51953125 C-57.37263965 22.28512697 -66.55829118 28.26837026 -72.42578125 35.83984375 Z " fill="#FFFFFF" transform="translate(1042,98)"/>
<path d="M0 0 C11.88 0 23.76 0 36 0 C36.33 21.45 36.66 42.9 37 65 C39.31 62.03 41.62 59.06 44 56 C55.98405072 45.05230586 71.03652903 43.19319121 86.62060547 43.82080078 C102.38489321 45.00805578 114.92647498 51.96338673 126 63 C126.7115625 63.68835938 127.423125 64.37671875 128.15625 65.0859375 C142.44621639 79.87055657 145.60223564 99.20410146 145.40478516 118.9609375 C144.85674238 139.64084082 137.80920606 157.79793667 122.8125 172.375 C110.58076358 182.89600406 96.00736335 187.55066259 80 187.4375 C78.99710937 187.45748047 77.99421875 187.47746094 76.9609375 187.49804688 C64.91336998 187.49026421 53.08063315 182.96140505 44.41015625 174.4609375 C38.47923951 167.95847902 38.47923951 167.95847902 37 165 C36.67 171.6 36.34 178.2 36 185 C24.12 185 12.24 185 0 185 C0 123.95 0 62.9 0 0 Z M43.57421875 89.83984375 C38.21816872 97.81862034 36.45473497 105.85604532 36.5625 115.375 C36.56862305 116.29676025 36.57474609 117.21852051 36.58105469 118.16821289 C36.73904362 125.05106163 37.69430095 130.87236274 41 137 C41.556875 138.051875 42.11375 139.10375 42.6875 140.1875 C49.67339277 148.68385607 58.20404385 155.13038359 69.41015625 156.23828125 C80.17102165 156.5393953 89.04254698 153.27538562 97 146 C104.84710769 138.4259935 108.07418917 129.4657694 108.29248047 118.73901367 C108.38366151 105.97922707 107.16588696 95.6130034 98 86 C88.79514004 77.51240185 80.7086625 75.060933 68.2734375 75.51953125 C58.62736035 76.28512697 49.44170882 82.26837026 43.57421875 89.83984375 Z " fill="#FFFFFF" transform="translate(357,44)"/>
<path d="M0 0 C0.61359375 0.43699219 1.2271875 0.87398437 1.859375 1.32421875 C14.32434935 10.84448586 20.04847754 26.24238772 23 41 C23 50.24 23 59.48 23 69 C-10.33 69 -43.66 69 -78 69 C-73.39324971 84.78490137 -73.39324971 84.78490137 -61.55078125 93.77734375 C-52.56879233 98.08264625 -43.97262448 97.74950365 -34.6171875 94.9765625 C-29.51218514 93.07171087 -25.9361039 90.87985253 -23.4753418 85.93823242 C-21 83 -21 83 -19.09571838 82.46983337 C-16.66322012 82.30452153 -14.29598119 82.32573804 -11.859375 82.4140625 C-10.97719299 82.42255219 -10.09501099 82.43104187 -9.18609619 82.43978882 C-6.37281325 82.47333442 -3.56241394 82.54861226 -0.75 82.625 C1.15881272 82.65509827 3.06767045 82.68247432 4.9765625 82.70703125 C9.65215004 82.7731292 14.32558645 82.87665621 19 83 C18.53308592 84.43511106 18.06318597 85.86925088 17.59204102 87.30297852 C17.20001244 88.5010891 17.20001244 88.5010891 16.80006409 89.72340393 C11.44742702 104.95442443 -0.85529394 115.62768016 -15.046875 122.46875 C-32.20150193 129.95757191 -53.92132481 131.19482395 -71.79296875 125.3125 C-89.94774016 117.88253265 -102.47933517 106.27194533 -110.59375 88.51171875 C-117.99986746 68.81230748 -118.63374476 43.40455506 -110 24 C-106.26081035 15.75548703 -101.36672745 9.39872105 -95 3 C-93.98486328 1.93265625 -93.98486328 1.93265625 -92.94921875 0.84375 C-68.75089022 -22.85329489 -25.23515258 -19.54400803 0 0 Z M-72 28 C-76.32168202 33.84465463 -77.05907852 37.47262819 -78 45 C-56.88 45 -35.76 45 -14 45 C-16.18165023 34.09174885 -18.53083862 27.89509502 -27 21 C-42.62928741 11.33029134 -59.99344725 14.77812429 -72 28 Z " fill="#FFFFFF" transform="translate(876,103)"/>
<path d="M0 0 C11.49583133 9.83127657 18.39516828 21.90308069 20.40234375 37.02734375 C20.53692697 40.13140524 20.52889566 43.23085106 20.51586914 46.33740234 C20.51601517 47.25511414 20.51616119 48.17282593 20.51631165 49.11834717 C20.51561759 52.1375163 20.50784898 55.15662296 20.5 58.17578125 C20.49813402 60.27470872 20.49671097 62.37363663 20.49571228 64.4725647 C20.49190129 69.98644217 20.48208313 75.50029313 20.4710083 81.01416016 C20.46076367 86.64485312 20.45620812 92.27555039 20.45117188 97.90625 C20.44045957 108.94662808 20.42287427 119.98697956 20.40234375 131.02734375 C8.52234375 131.02734375 -3.35765625 131.02734375 -15.59765625 131.02734375 C-15.60700195 128.51004639 -15.61634766 125.99274902 -15.62597656 123.39916992 C-15.65985892 115.04910197 -15.71547008 106.69927823 -15.78155899 98.34940624 C-15.82094025 93.29062355 -15.85317444 88.23201249 -15.86865234 83.1730957 C-15.88388071 78.28399071 -15.91843514 73.39535788 -15.96596527 68.506464 C-15.9807156 66.64836054 -15.98869359 64.79018964 -15.9895401 62.93202782 C-16.00116387 50.20198824 -16.16418691 38.35430415 -25.65234375 28.6875 C-33.46240229 22.0222894 -42.6813636 21.99832918 -52.53320312 22.76123047 C-60.0821111 23.73430399 -65.56233558 28.04208201 -70.1953125 33.86328125 C-77.40283851 44.98575871 -75.78302583 59.92973706 -75.9140625 72.62890625 C-75.93467213 74.31855735 -75.95566954 76.00820376 -75.97703552 77.69784546 C-76.03184274 82.11342536 -76.08143175 86.52904854 -76.12988281 90.94470215 C-76.18930792 96.25965536 -76.255305 101.57453065 -76.3201828 106.88941956 C-76.41767087 114.93534611 -76.50688265 122.98132604 -76.59765625 131.02734375 C-88.47765625 131.02734375 -100.35765625 131.02734375 -112.59765625 131.02734375 C-112.59765625 85.15734375 -112.59765625 39.28734375 -112.59765625 -7.97265625 C-100.71765625 -7.97265625 -88.83765625 -7.97265625 -76.59765625 -7.97265625 C-76.10265625 0.93734375 -76.10265625 0.93734375 -75.59765625 10.02734375 C-74.81390625 8.85171875 -74.03015625 7.67609375 -73.22265625 6.46484375 C-66.44668588 -2.50101868 -56.64814204 -7.28137772 -45.80859375 -9.55859375 C-29.72993052 -11.63199801 -13.24987051 -10.06193174 0 0 Z " fill="#FFFFFF" transform="translate(1383.59765625,97.97265625)"/>
<path d="M0 0 C11.88 0 23.76 0 36 0 C36.01458252 2.49224121 36.02916504 4.98448242 36.04418945 7.55224609 C36.09467331 15.8144863 36.16129237 24.07654076 36.23571491 32.33859825 C36.28031841 37.34469345 36.31959637 42.35070914 36.34643555 47.35693359 C36.3725688 52.19410174 36.41304133 57.03096229 36.46318626 61.867939 C36.47978746 63.70733418 36.49134354 65.5467825 36.49761391 67.38624191 C36.54308864 79.50738881 36.6448007 89.85489751 44 100 C44 100.66 44 101.32 44 102 C44.86625 102.43119141 44.86625 102.43119141 45.75 102.87109375 C47.17092503 103.58402315 48.58815251 104.30441488 50 105.03515625 C50.66 105.37417969 51.32 105.71320313 52 106.0625 C52.66 106.40410156 53.32 106.74570313 54 107.09765625 C60.97771275 110.24580399 69.6608766 110.00364806 76.875 107.75 C84.20453979 104.88421597 89.0896978 100.79752895 93 94 C96.82699787 83.96993808 96.47461167 73.44523451 96.51171875 62.890625 C96.52859643 61.06930353 96.54675073 59.24799349 96.56611633 57.42669678 C96.61328746 52.67248101 96.64330835 47.9183116 96.66955566 43.16394043 C96.70481418 37.43838955 96.76173181 31.71301657 96.81494904 25.98760986 C96.89307655 17.32509701 96.94397379 8.6628108 97 0 C108.88 0 120.76 0 133 0 C133 45.87 133 91.74 133 139 C121.12 139 109.24 139 97 139 C96.67 133.39 96.34 127.78 96 122 C94.80375 123.505625 93.6075 125.01125 92.375 126.5625 C84.81946187 134.97743584 73.90607591 140.25924693 62.57543945 141.20166016 C59.94219106 141.3034694 57.322633 141.32893831 54.6875 141.3125 C53.75832764 141.30758545 52.82915527 141.3026709 51.87182617 141.29760742 C45.1918397 141.18345464 39.22669084 140.57189404 33 138 C31.75089844 137.50693359 31.75089844 137.50693359 30.4765625 137.00390625 C18.93435935 131.87206516 9.0512665 122.12559098 4.49609375 110.27734375 C1.21698704 101.06045647 -0.15542244 92.49174262 -0.11352539 82.76000977 C-0.11367142 81.86165909 -0.11381744 80.96330841 -0.1139679 80.03773499 C-0.1132751 77.08893358 -0.10551247 74.14019653 -0.09765625 71.19140625 C-0.09578982 69.13874852 -0.09436698 67.08609034 -0.09336853 65.03343201 C-0.08956107 59.64615639 -0.07974597 54.25890798 -0.06866455 48.87164307 C-0.05841229 43.3682085 -0.05386275 37.8647695 -0.04882812 32.36132812 C-0.03812205 21.57420491 -0.02053965 10.78710898 0 0 Z " fill="#FFFFFF" transform="translate(601,90)"/>
<path d="M0 0 C11.88 0 23.76 0 36 0 C36 11.55 36 23.1 36 35 C46.23 35 56.46 35 67 35 C67 44.57 67 54.14 67 64 C56.77 64 46.54 64 36 64 C36.12006298 75.71301416 36.12006298 75.71301416 36.2578125 87.42578125 C36.31796786 92.20747816 36.37611382 96.98913694 36.421875 101.77099609 C36.45892652 105.62905871 36.50533845 109.48690848 36.55806351 113.3447876 C36.57650249 114.81183107 36.59164858 116.27891998 36.60334396 117.74603271 C36.03357768 130.13369585 36.03357768 130.13369585 40.75878906 140.9543457 C43.53748344 142.25076705 45.79932966 142.52750656 48.859375 142.73046875 C49.86452148 142.80418701 50.86966797 142.87790527 51.90527344 142.95385742 C53.1740332 143.03095947 54.44279297 143.10806152 55.75 143.1875 C59.7925 143.455625 63.835 143.72375 68 144 C68 153.9 68 163.8 68 174 C63.51941347 174.06952634 59.04075834 174.12905226 54.56005859 174.16479492 C53.04143879 174.17972112 51.52286083 174.20006959 50.00439453 174.22631836 C36.08767778 174.46056013 21.87904417 173.48113237 10.7421875 164.09765625 C1.72421612 154.89666331 -0.13484445 142.88400249 -0.11352539 130.41235352 C-0.11367142 129.68956711 -0.11381744 128.9667807 -0.1139679 128.22209167 C-0.11327699 125.85766489 -0.10552352 123.4933191 -0.09765625 121.12890625 C-0.09578914 119.47981306 -0.09436662 117.83071931 -0.09336853 116.18162537 C-0.0895664 111.85965419 -0.07975597 107.53771708 -0.06866455 103.21575928 C-0.05840071 98.79814108 -0.05386029 94.38051733 -0.04882812 89.96289062 C-0.03813147 81.30857644 -0.02055352 72.6542964 0 64 C-4.62 64 -9.24 64 -14 64 C-14 54.43 -14 44.86 -14 35 C-9.38 35 -4.76 35 0 35 C0 23.45 0 11.9 0 0 Z " fill="#FFFFFF" transform="translate(1443,55)"/>
<path d="M0 0 C11.88 0 23.76 0 36 0 C36 61.05 36 122.1 36 185 C24.12 185 12.24 185 0 185 C0 123.95 0 62.9 0 0 Z " fill="#FFFFFF" transform="translate(529,44)"/>
<path d="M0 0 C0 12.21 0 24.42 0 37 C-7.92 37.495 -7.92 37.495 -16 38 C-24.30774341 39.93847346 -31.25207524 42.468809 -36 50 C-40.95664365 62.01543527 -40.16976492 75.49883875 -40.31640625 88.265625 C-40.33703319 89.79547614 -40.3580309 91.32532233 -40.37937927 92.85516357 C-40.43400847 96.83998543 -40.48367304 100.82485352 -40.53222656 104.80975342 C-40.59181905 109.61331625 -40.65771435 114.41679644 -40.72252655 119.22029114 C-40.81978931 126.48014271 -40.90915401 133.74005255 -41 141 C-52.88 141 -64.76 141 -77 141 C-77 95.13 -77 49.26 -77 2 C-65.12 2 -53.24 2 -41 2 C-40.505 12.395 -40.505 12.395 -40 23 C-38.02 20.36 -36.04 17.72 -34 15 C-31.625 12.375 -31.625 12.375 -29 10 C-28.46117187 9.50628906 -27.92234375 9.01257813 -27.3671875 8.50390625 C-19.30263946 1.73845904 -10.32727361 0 0 0 Z " fill="#FFFFFF" transform="translate(1175,88)"/>
<path d="M0 0 C5.28501846 0.60019137 9.58463456 2.32627725 14.375 4.5 C15.16084473 4.85457275 15.94668945 5.20914551 16.75634766 5.57446289 C46.70002976 19.33147691 73.35190888 42.55997614 93 69 C96.75193927 68.30830485 99.67029011 66.6559852 102.98046875 64.796875 C103.55275711 64.47720764 104.12504547 64.15754028 104.7146759 63.82818604 C106.54144414 62.80650142 108.36450775 61.7784041 110.1875 60.75 C111.39363738 60.07378544 112.60001547 59.39800005 113.80664062 58.72265625 C116.13588765 57.41826836 118.46358664 56.11124573 120.79052734 54.80273438 C124.85259016 52.52110712 128.92419057 50.25695851 133 48 C131.39016307 41.93550132 129.73325931 35.95740718 127.55078125 30.0703125 C126.90753846 27.65244953 126.96380521 25.49256328 127 23 C130.2903223 21.99553896 133.58246822 20.99719244 136.875 20 C137.81214844 19.71382812 138.74929687 19.42765625 139.71484375 19.1328125 C140.61074219 18.86210937 141.50664062 18.59140625 142.4296875 18.3125 C143.25710449 18.06113281 144.08452148 17.80976563 144.93701172 17.55078125 C147 17 147 17 149 17 C150.74474807 22.01124277 152.47142852 27.02821846 154.18188477 32.05126953 C154.76586132 33.75802885 155.35468126 35.46313914 155.94848633 37.16650391 C156.80277556 39.61981061 157.63928533 42.07858332 158.47265625 44.5390625 C158.87412621 45.67379501 158.87412621 45.67379501 159.28370667 46.83145142 C160.74307797 51.20543737 161.52606104 54.46397555 160 59 C158.38842773 60.63696289 158.38842773 60.63696289 156.24609375 61.91015625 C155.42866699 62.40660645 154.61124023 62.90305664 153.76904297 63.41455078 C152.3983667 64.19934814 152.3983667 64.19934814 151 65 C150.02820801 65.57089355 149.05641602 66.14178711 148.05517578 66.72998047 C144.73863707 68.6583204 141.40297654 70.55112812 138.0625 72.4375 C135.58385537 73.84367977 133.10646273 75.2520604 130.62890625 76.66015625 C130.00098175 77.01658203 129.37305725 77.37300781 128.72610474 77.74023438 C124.31613738 80.24519114 119.91798934 82.76993441 115.52734375 85.30859375 C114.93139908 85.65315109 114.33545441 85.99770844 113.72145081 86.35270691 C110.87202471 88.00099733 108.02370814 89.65118981 105.17602539 91.30249023 C104.15887451 91.89102783 103.14172363 92.47956543 102.09375 93.0859375 C101.20365234 93.6020459 100.31355469 94.1181543 99.39648438 94.64990234 C98.60564453 95.09543457 97.81480469 95.5409668 97 96 C96.33806641 96.41072754 95.67613281 96.82145508 94.99414062 97.24462891 C92.08628329 98.34611159 90.92659578 98.13812058 88 97 C85.37973679 94.92940073 83.08536589 92.57362998 80.7578125 90.18359375 C80.07121552 89.49370865 79.38461853 88.80382355 78.67721558 88.09303284 C76.48363481 85.8837118 74.30456636 83.66063843 72.125 81.4375 C70.66623255 79.96723727 69.20660583 78.49782656 67.74609375 77.02929688 C66.33256307 75.6023251 64.91977893 74.17461335 63.5078125 72.74609375 C62.85966583 72.09056015 62.21151917 71.43502655 61.54373169 70.7596283 C58.351283 67.50151288 55.26345657 64.19173584 52.27856445 60.74169922 C49.99301173 58.10119049 47.70874112 55.64551841 45.03515625 53.38671875 C44.36371582 52.81743652 43.69227539 52.2481543 43.00048828 51.66162109 C42.34032715 51.11328613 41.68016602 50.56495117 41 50 C40.38753418 49.48131348 39.77506836 48.96262695 39.14404297 48.42822266 C25.5824506 37.09622967 10.3121244 28.73270509 -6 22 C-5.1913257 18.70738124 -4.37741268 15.41607984 -3.5625 12.125 C-3.21735352 10.71927734 -3.21735352 10.71927734 -2.86523438 9.28515625 C-2.64287109 8.38925781 -2.42050781 7.49335938 -2.19140625 6.5703125 C-1.88505249 5.32918701 -1.88505249 5.32918701 -1.57250977 4.06298828 C-1 2 -1 2 0 0 Z " fill="#FFFFFF" transform="translate(92,190)"/>
<path d="M0 0 C3.09043392 2.13545225 5.58096714 4.76662412 8.1640625 7.48046875 C8.91916107 8.24547195 9.67425964 9.01047516 10.45223999 9.79866028 C12.86010784 12.24564691 15.24253981 14.71579377 17.625 17.1875 C19.23534946 18.83297671 20.84731235 20.47687608 22.4609375 22.11914062 C25.42761462 25.1429246 28.38470566 28.17541756 31.33056641 31.21948242 C34.1921349 34.1758683 37.08616455 37.09526292 40 40 C40.55300781 40.59941406 41.10601562 41.19882812 41.67578125 41.81640625 C54.29438597 55.27825901 70.95044017 65.8879207 88.29125977 72.01123047 C89.89194697 72.59505341 91.45133645 73.28958465 93 74 C94.10313617 77.3094085 93.89941114 78.19482294 93.00390625 81.44921875 C92.77509766 82.29677734 92.54628906 83.14433594 92.31054688 84.01757812 C92.06369141 84.89865234 91.81683594 85.77972656 91.5625 86.6875 C91.19801758 88.02651367 91.19801758 88.02651367 90.82617188 89.39257812 C90.22490694 91.59721622 89.61593343 93.79942345 89 96 C85.76664108 97.08290214 84.10089808 96.95809446 80.98046875 95.62890625 C80.21307373 95.30615723 79.44567871 94.9834082 78.6550293 94.65087891 C77.84074463 94.29171387 77.02645996 93.93254883 76.1875 93.5625 C75.3416333 93.19560059 74.4957666 92.82870117 73.62426758 92.45068359 C54.64768946 84.09248452 38.82322757 73.49365415 24 59 C23.24960449 58.27006836 22.49920898 57.54013672 21.72607422 56.78808594 C4.339368 39.82087951 4.339368 39.82087951 -2.40625 30.8359375 C-3.96109541 28.73013161 -3.96109541 28.73013161 -7 28 C-9.56972585 29.06101168 -9.56972585 29.06101168 -12.33984375 30.71875 C-13.40396484 31.32203125 -14.46808594 31.9253125 -15.56445312 32.546875 C-16.67755859 33.19140625 -17.79066406 33.8359375 -18.9375 34.5 C-20.55495117 35.42039062 -20.55495117 35.42039062 -22.20507812 36.359375 C-26.63074807 38.8837835 -31.04090955 41.43075813 -35.42236328 44.03125 C-36.50114746 44.670625 -37.57993164 45.31 -38.69140625 45.96875 C-39.66408447 46.55076172 -40.6367627 47.13277344 -41.63891602 47.73242188 C-44 49 -44 49 -46 49 C-43.36 56.92 -40.72 64.84 -38 73 C-42.59601523 75.29800761 -46.32626935 76.82760589 -51.1875 78.1875 C-52.39792969 78.53167969 -53.60835937 78.87585938 -54.85546875 79.23046875 C-58 80 -58 80 -61 80 C-62.58190928 75.3093483 -64.14784931 70.61376567 -65.69970703 65.91308594 C-66.22895812 64.31725989 -66.76242102 62.72282389 -67.30029297 61.12988281 C-68.0761133 58.82976985 -68.83626261 56.52495603 -69.59375 54.21875 C-69.83436157 53.51633179 -70.07497314 52.81391357 -70.32287598 52.09020996 C-71.89982673 47.22032528 -72.6907964 43.11663906 -72 38 C-69.62426758 35.73681641 -69.62426758 35.73681641 -66.33203125 33.9765625 C-65.74508987 33.65048004 -65.1581485 33.32439758 -64.55342102 32.98843384 C-63.32293279 32.30691406 -62.08552808 31.63774757 -60.84185791 30.98059082 C-57.9999709 29.46759229 -55.23146155 27.83038312 -52.44921875 26.2109375 C-50.19667142 24.92989922 -47.94272503 23.65131837 -45.6875 22.375 C-38.4431206 18.27457934 -31.21827598 14.15784245 -24.09375 9.8515625 C-23.01262939 9.20268066 -21.93150879 8.55379883 -20.81762695 7.88525391 C-18.77988109 6.65793361 -16.74931085 5.41859355 -14.72729492 4.16552734 C-13.35214722 3.34109131 -13.35214722 3.34109131 -11.94921875 2.5 C-11.15862061 2.0153125 -10.36802246 1.530625 -9.5534668 1.03125 C-5.94244798 -0.42710582 -3.87823501 -0.65366386 0 0 Z " fill="#FFFFFF" transform="translate(108,3)"/>
<path d="M0 0 C24.33081877 4.71482373 24.33081877 4.71482373 34.5 7.1875 C35.7478125 7.49042969 36.995625 7.79335937 38.28125 8.10546875 C39.1784375 8.40066406 40.075625 8.69585937 41 9 C42.50621348 12.01242697 42.16477384 15.12616434 42.17700195 18.43139648 C42.18357315 19.19740173 42.19014435 19.96340698 42.19691467 20.75262451 C42.21665588 23.29211519 42.22831033 25.8315468 42.23828125 28.37109375 C42.24235678 29.23708757 42.2464323 30.1030814 42.25063133 30.99531746 C42.27149279 35.57638435 42.28579575 40.15742126 42.29516602 44.73852539 C42.30624759 49.47798367 42.34066708 54.21697464 42.38033772 58.95626736 C42.40643388 62.59447627 42.41485145 66.23257249 42.41844749 69.87086678 C42.42332944 71.61843088 42.43498889 73.36598942 42.45348549 75.11346245 C42.4777354 77.55575955 42.47693877 79.99682933 42.4699707 82.43920898 C42.48918579 83.52637962 42.48918579 83.52637962 42.50878906 84.63551331 C42.47558735 87.81974748 42.4378979 89.53852065 40.19818115 91.89884949 C36.92172018 93.54015037 33.50124643 94.42138714 29.96484375 95.3046875 C29.17211563 95.51054474 28.37938751 95.71640198 27.56263733 95.92849731 C25.0230543 96.58594738 22.48045809 97.23074206 19.9375 97.875 C18.28558812 98.29993014 16.63389308 98.72570415 14.98242188 99.15234375 C11.66502752 100.00812419 8.34692022 100.86104067 5.02807617 101.71118164 C4.20141449 101.92308136 3.37475281 102.13498108 2.52304077 102.353302 C0.82424728 102.78873149 -0.87462721 103.22384508 -2.57357788 103.65866089 C-15.78034233 106.99288579 -15.78034233 106.99288579 -28.6875 111.3125 C-29.85091919 111.75178833 -29.85091919 111.75178833 -31.0378418 112.19995117 C-44.62813233 117.45601026 -56.41768728 124.18805127 -68 133 C-69.33333333 134 -70.66666667 135 -72 136 C-74.93230193 134.67879172 -76.98664899 133.25361803 -79.234375 130.9609375 C-79.80800781 130.38085938 -80.38164062 129.80078125 -80.97265625 129.203125 C-81.55917969 128.59984375 -82.14570313 127.9965625 -82.75 127.375 C-83.35199219 126.76398438 -83.95398438 126.15296875 -84.57421875 125.5234375 C-86.05405305 124.02011376 -87.52764676 122.51065144 -89 121 C-87.68884551 118.00609747 -86.43959425 116.26213021 -83.83203125 114.30078125 C-83.19410645 113.81834961 -82.55618164 113.33591797 -81.89892578 112.83886719 C-81.21040527 112.33516602 -80.52188477 111.83146484 -79.8125 111.3125 C-79.09562012 110.78430664 -78.37874023 110.25611328 -77.64013672 109.71191406 C-48.87061845 88.812765 -16.45813472 80.89162694 18 74 C18.33 58.82 18.66 43.64 19 28 C12.07 26.68 5.14 25.36 -2 24 C-3.485 23.505 -3.485 23.505 -5 23 C-4.44636539 14.97229811 -2.34312056 7.66145933 0 0 Z " fill="#FFFFFF" transform="translate(246,93)"/>
<path d="M0 0 C2.3581543 1.04711914 2.3581543 1.04711914 4.82421875 2.53515625 C5.75758057 3.08985596 6.69094238 3.64455566 7.65258789 4.21606445 C8.65410889 4.82538818 9.65562988 5.43471191 10.6875 6.0625 C12.84581588 7.34986122 15.00468999 8.63628691 17.1640625 9.921875 C18.28458008 10.59283203 19.40509766 11.26378906 20.55957031 11.95507812 C26.18603374 15.31169103 31.87930463 18.55327671 37.5625 21.8125 C44.75691875 25.95378929 51.94150626 30.10840187 59.0625 34.375 C59.669729 34.73827393 60.27695801 35.10154785 60.90258789 35.47583008 C64.86950739 37.86950739 64.86950739 37.86950739 66 39 C66.23541553 43.76046188 65.75142985 47.783662 64.49609375 52.3671875 C64.17084717 53.57036621 63.84560059 54.77354492 63.51049805 56.01318359 C63.15293722 57.30048495 62.79526872 58.5877564 62.4375 59.875 C62.0732085 61.21284501 61.70969308 62.55090157 61.34692383 63.88916016 C59.61318508 70.26144189 57.83035033 76.61904439 56.015625 82.96875 C51.1111266 100.13513752 46.79732972 117.02891172 46.8125 135 C46.8115332 136.21200073 46.8115332 136.21200073 46.81054688 137.44848633 C46.88159217 145.74383138 47.87645553 153.78408106 49 162 C41.41 163.98 33.82 165.96 26 168 C21.6196245 146.09812251 20.44401599 121.79550084 26 100 C26.23638184 99.02321289 26.47276367 98.04642578 26.71630859 97.04003906 C30.48732374 81.47910362 34.92761671 66.18453004 40 51 C39.21463867 50.55197021 38.42927734 50.10394043 37.62011719 49.64233398 C34.64524653 47.94487436 31.67067451 46.24689358 28.69628906 44.54858398 C27.42036264 43.82019197 26.14432491 43.09199489 24.86816406 42.36401367 C16.55251475 37.62016491 8.25957546 32.84106086 0 28 C-0.400979 28.88316895 -0.400979 28.88316895 -0.81005859 29.78417969 C-2.01642087 32.03057772 -3.2934065 33.60478336 -5.0390625 35.453125 C-5.90917969 36.38125 -5.90917969 36.38125 -6.796875 37.328125 C-7.40015625 37.96234375 -8.0034375 38.5965625 -8.625 39.25 C-9.54152344 40.22453125 -9.54152344 40.22453125 -10.4765625 41.21875 C-11.98028074 42.81645063 -13.48815737 44.40999149 -15 46 C-18.58222499 44.30864387 -21.13552651 42.25107746 -24.0625 39.5625 C-24.91972656 38.78003906 -25.77695313 37.99757812 -26.66015625 37.19140625 C-27.43230469 36.46824219 -28.20445312 35.74507812 -29 35 C-29.61746094 34.49339844 -30.23492187 33.98679688 -30.87109375 33.46484375 C-32 32 -32 32 -32.0078125 30.171875 C-30.54302777 27.01520713 -28.26104608 24.72728767 -25.875 22.25 C-24.86782413 21.17901083 -23.86131356 20.10739561 -22.85546875 19.03515625 C-22.36481934 18.5158252 -21.87416992 17.99649414 -21.36865234 17.46142578 C-17.89313554 13.75032275 -14.58337906 9.88392786 -11.3125 5.9921875 C-10.77625 5.35539063 -10.24 4.71859375 -9.6875 4.0625 C-9.21699219 3.49660156 -8.74648437 2.93070312 -8.26171875 2.34765625 C-5.75860362 -0.3259497 -3.5107609 -0.28981471 0 0 Z " fill="#FFFFFF" transform="translate(182,0)"/>
<path d="M0 0 C2.93230193 1.32120828 4.98664899 2.74638197 7.234375 5.0390625 C7.80800781 5.61914062 8.38164063 6.19921875 8.97265625 6.796875 C9.55917969 7.40015625 10.14570312 8.0034375 10.75 8.625 C11.35199219 9.23601562 11.95398438 9.84703125 12.57421875 10.4765625 C14.05405305 11.97988624 15.52764676 13.48934856 17 15 C15.699411 17.95713697 14.47330547 19.71528328 11.90234375 21.6640625 C11.27440918 22.14149902 10.64647461 22.61893555 9.99951172 23.11083984 C9.31904785 23.6105127 8.63858398 24.11018555 7.9375 24.625 C7.22867676 25.14916504 6.51985352 25.67333008 5.78955078 26.21337891 C-20.33902224 45.19145732 -58.22405736 61 -91 61 C-91 76.51 -91 92.02 -91 108 C-86.71 108.66 -82.42 109.32 -78 110 C-68.18666667 111.81333333 -68.18666667 111.81333333 -67 113 C-67.06317898 120.53409297 -69.02787365 127.78127337 -71 135 C-79.6468899 134.4540796 -87.96930915 132.982703 -96.4375 131.1875 C-98.31598633 130.8152832 -98.31598633 130.8152832 -100.23242188 130.43554688 C-102.03356445 130.0555957 -102.03356445 130.0555957 -103.87109375 129.66796875 C-104.95318115 129.44391357 -106.03526855 129.2198584 -107.15014648 128.98901367 C-110.53420706 127.81460869 -111.81390443 126.83469776 -114 124 C-114.39500944 121.37353375 -114.54795913 119.16506132 -114.51757812 116.54101562 C-114.5245874 115.79583176 -114.53159668 115.05064789 -114.53881836 114.28288269 C-114.55640042 111.82362424 -114.54477574 109.36551982 -114.53125 106.90625 C-114.53394488 105.19518819 -114.53782726 103.48412786 -114.54284668 101.77307129 C-114.54874198 98.18857225 -114.54017799 94.60447216 -114.52148438 91.02001953 C-114.49869451 86.42633561 -114.51181746 81.83358646 -114.53577423 77.23993683 C-114.55023152 73.70714276 -114.54562661 70.17457016 -114.53526306 66.64176941 C-114.53259557 64.94809356 -114.53586635 63.25439757 -114.54518127 61.56074524 C-114.55534612 59.19295024 -114.53984879 56.82666683 -114.51757812 54.45898438 C-114.52567505 53.75964279 -114.53377197 53.06030121 -114.54211426 52.33976746 C-114.48384137 48.9939929 -114.2142367 47.27550852 -112.13464355 44.60115051 C-109.55434537 42.66572399 -107.36668497 41.9328438 -104.25 41.10546875 C-102.52209229 40.63741821 -102.52209229 40.63741821 -100.75927734 40.15991211 C-99.51871582 39.83901611 -98.2781543 39.51812012 -97 39.1875 C-95.7010505 38.84033547 -94.40238881 38.49209245 -93.10400391 38.14282227 C-85.40160863 36.08512923 -77.6662942 34.17497985 -69.91772461 32.29882812 C-45.33004084 26.32092527 -22.89001109 18.02250893 -3 2 C-2.01 1.34 -1.02 0.68 0 0 Z " fill="#FFFFFF" transform="translate(114,62)"/>
<path d="M0 0 C5.91149484 8.86724227 4.44303288 23.88205588 4.4375 34.3125 C4.43810425 35.49161453 4.43810425 35.49161453 4.4387207 36.69454956 C4.39693753 50.94423136 2.78227731 64.22123964 -1 78 C-1.31598145 79.1545166 -1.63196289 80.3090332 -1.95751953 81.49853516 C-5.20448693 93.1604426 -8.74528473 104.66443443 -13 116 C-5.80643544 120.97800277 1.66758279 125.39396122 9.25 129.75 C10.4193838 130.42819066 11.58865528 131.10657505 12.7578125 131.78515625 C13.87414062 132.42839844 14.99046875 133.07164062 16.140625 133.734375 C17.14641602 134.31413086 18.15220703 134.89388672 19.18847656 135.49121094 C21.74911066 136.86536157 24.28002588 137.98545588 27 139 C32.07515796 133.39476999 37.10995345 127.76774721 42 122 C47.22654901 123.47642627 50.16826439 126.82231936 53.8125 130.625 C54.40998047 131.23601562 55.00746094 131.84703125 55.62304688 132.4765625 C57.08895106 133.97764839 58.54542993 135.48792862 60 137 C55.26761442 143.76055083 49.7829284 149.63906378 44.14453125 155.63671875 C41.07382488 158.90512187 38.09877269 162.24672181 35.171875 165.64453125 C34.47339638 166.45243819 33.75517746 167.24482254 33 168 C26.19137424 167.80807901 21.32502583 164.71057256 15.5625 161.3125 C14.56331543 160.7352417 13.56413086 160.1579834 12.53466797 159.56323242 C9.34998781 157.71969232 6.17488165 155.86035398 3 154 C0.91848707 152.79077401 -1.16353861 151.58243018 -3.24609375 150.375 C-7.28651807 148.03088817 -11.31603683 145.66937756 -15.33984375 143.296875 C-18.94501372 141.17798794 -22.57394732 139.12661235 -26.25390625 137.140625 C-27.44910889 136.48163208 -27.44910889 136.48163208 -28.66845703 135.80932617 C-30.13122741 135.00554219 -31.60440079 134.22027261 -33.08935547 133.45825195 C-35.02734375 132.37890625 -35.02734375 132.37890625 -38 130 C-39.16987614 125.08460056 -38.94039123 121.4626777 -37.59375 116.6328125 C-37.26536133 115.43027832 -36.93697266 114.22774414 -36.59863281 112.98876953 C-36.23246443 111.70083426 -35.86625243 110.41291138 -35.5 109.125 C-35.12987089 107.78144854 -34.76107332 106.4375296 -34.39355469 105.09326172 C-32.66916358 98.81597175 -30.87862004 92.55931712 -29.046875 86.3125 C-21.1614095 59.30641336 -18.45034925 34.04615823 -21 6 C-14.07 4.02 -7.14 2.04 0 0 Z " fill="#FFFFFF" transform="translate(79,122)"/>
<path d="M0 0 C11.88 0 23.76 0 36 0 C36 45.87 36 91.74 36 139 C24.12 139 12.24 139 0 139 C0 93.13 0 47.26 0 0 Z " fill="#FFFFFF" transform="translate(1198,90)"/>
<path d="M0 0 C5.39761531 4.29606117 10.58787039 9.2651746 11.3984375 16.390625 C11.49384246 24.44280339 10.98051419 30.10246945 5.484375 36.18359375 C0.54733527 40.82040809 -4.1273665 42.21447353 -10.875 42.75 C-17.80318327 42.48301799 -22.41218664 40.38204001 -27.3125 35.4375 C-31.9705686 29.78913335 -33.20182256 24.24972548 -32.8046875 17.01953125 C-31.73443272 10.40444583 -28.41089564 5.24628235 -23.22265625 1.05078125 C-16.67035734 -2.89722127 -6.86656465 -3.52483652 0 0 Z " fill="#FFFFFF" transform="translate(1226.9375,34.5625)"/>
</svg>
