<svg width="681" height="390" viewBox="0 0 681 390" fill="none" xmlns="http://www.w3.org/2000/svg">
<g clip-path="url(#clip0_214_2)">
<path d="M198.418 366.915C265.431 400.541 374.648 395.924 442.664 362.826C449.912 359.294 495.237 337.238 487.265 323.359C481.996 314.181 455.766 312.623 319.482 315.182C193.624 317.546 165.553 319.855 160.201 330.146C152.953 344.08 191.895 363.605 198.418 366.887V366.915Z" fill="#576B80"/>
<path d="M74.2883 108.139C74.2883 108.139 283.327 59.8823 323.747 34.7668C323.161 115.231 323.161 288.231 323.161 288.231L120.701 321.774C120.701 321.774 187.463 151.055 149.301 137.565C111.14 124.076 74.2883 108.166 74.2883 108.166V108.139Z" fill="#89AFDD"/>
<path d="M405.785 0L583.659 21.1938L564.564 248.986L377.658 267.009L405.785 0Z" fill="#426CB4"/>
<path d="M0.780552 198.644C9.14322 215.499 30.0499 219.698 47.2491 219.226C69.2708 218.614 91.3761 213.691 111.697 205.263C123.489 200.368 134.723 194.444 145.287 187.296C152.674 182.289 145.706 170.246 138.263 175.28C116.91 189.715 92.742 199.311 67.2916 203.427C56.6432 205.152 45.1306 206.376 34.3985 204.651C25.5619 203.233 16.9763 199.923 12.8507 191.607C8.72509 183.291 -3.1499 190.633 0.808427 198.616H0.780552V198.644Z" fill="#E7F2FD"/>
<path d="M176.787 197.309C177.986 173.445 179.909 143.044 203.77 130.223C211.659 125.967 204.635 113.952 196.746 118.207C168.118 133.616 164.327 168.327 162.849 197.309C162.403 206.264 176.341 206.237 176.787 197.309Z" fill="#E7F2FD"/>
<path d="M226.294 159.037C226.294 159.037 226.294 158.898 226.294 158.815L226.043 160.65C226.043 160.65 226.071 160.484 226.099 160.4L225.402 162.069C225.402 162.069 225.458 161.958 225.486 161.902L224.398 163.32C224.398 163.32 224.51 163.209 224.566 163.154L223.144 164.238C223.144 164.238 223.283 164.155 223.367 164.099L221.695 164.795C221.695 164.795 221.918 164.711 222.057 164.711L220.217 164.961C220.384 164.961 220.552 164.961 220.719 164.961L218.879 164.711C219.074 164.711 219.241 164.795 219.437 164.85L217.764 164.155C217.903 164.211 218.071 164.294 218.182 164.405L216.761 163.32C216.761 163.32 216.928 163.487 217.011 163.571L215.924 162.152C215.924 162.152 216.036 162.319 216.064 162.403L215.367 160.734C215.367 160.734 215.423 160.929 215.45 161.012L215.199 159.176C215.199 159.176 215.199 159.427 215.199 159.538L215.45 157.702C215.45 157.869 215.395 158.008 215.339 158.147L216.036 156.478C215.952 156.645 215.869 156.784 215.757 156.951L216.844 155.533C216.733 155.7 216.593 155.811 216.426 155.95L217.848 154.865C217.653 155.004 217.43 155.143 217.207 155.227L218.879 154.531C218.572 154.643 218.266 154.726 217.959 154.782L219.799 154.531C219.492 154.559 219.186 154.559 218.879 154.531L220.719 154.782C220.719 154.782 220.524 154.754 220.412 154.726C219.492 154.448 218.572 154.392 217.625 154.615C216.705 154.671 215.841 154.921 215.032 155.449C214.224 155.894 213.555 156.478 213.081 157.229C212.468 157.897 212.05 158.676 211.827 159.593L211.576 161.429C211.576 162.681 211.91 163.849 212.523 164.934L213.611 166.352C214.475 167.214 215.506 167.798 216.677 168.132C216.761 168.132 216.872 168.16 216.956 168.188C217.597 168.271 218.266 168.383 218.907 168.438C218.963 168.438 219.018 168.438 219.074 168.438C219.269 168.438 219.492 168.438 219.687 168.438C220.384 168.355 221.081 168.271 221.778 168.16C221.89 168.16 222.001 168.132 222.085 168.104C222.168 168.104 222.28 168.049 222.364 168.021C222.419 168.021 222.447 167.993 222.503 167.965C223.088 167.743 223.702 167.493 224.259 167.214C224.426 167.131 224.621 167.047 224.761 166.936C225.263 166.575 225.764 166.185 226.238 165.796C226.266 165.796 226.294 165.74 226.35 165.712C226.433 165.657 226.489 165.573 226.573 165.518C226.601 165.49 226.628 165.462 226.656 165.434C227.047 164.989 227.465 164.433 227.799 163.932C227.855 163.849 227.911 163.793 227.939 163.71C227.939 163.654 227.994 163.626 227.994 163.571C228.245 163.042 228.524 162.403 228.719 161.846C228.747 161.763 228.775 161.652 228.803 161.568C228.803 161.54 228.803 161.485 228.803 161.429C228.886 160.984 228.998 160.011 229.054 159.566V159.51C229.054 159.427 229.054 159.343 229.054 159.26C229.054 159.26 229.054 159.232 229.054 159.204C229.054 158.982 228.831 157.563 228.803 157.341C228.803 157.313 228.803 157.257 228.803 157.229C228.719 156.896 228.496 156.423 228.385 156.228C228.301 156.006 228.134 155.533 227.939 155.255C227.939 155.255 227.911 155.199 227.883 155.171C227.716 154.921 227.298 154.42 227.325 154.448C227.242 154.337 226.935 153.92 226.74 153.697C226.712 153.641 226.656 153.614 226.628 153.558C226.628 153.558 226.573 153.53 226.573 153.502C226.21 153.196 225.541 152.696 225.151 152.39C225.151 152.39 225.123 152.39 225.095 152.362C224.984 152.279 224.872 152.223 224.733 152.167C224.203 151.945 223.534 151.639 223.005 151.444C222.977 151.444 222.949 151.444 222.893 151.416C222.837 151.416 222.754 151.389 222.698 151.361C222.642 151.333 222.559 151.361 222.503 151.333C221.89 151.249 221.193 151.138 220.579 151.083C220.552 151.083 220.496 151.083 220.468 151.083C220.412 151.083 220.356 151.083 220.273 151.083C220.245 151.083 220.217 151.083 220.161 151.083C220.161 151.083 220.133 151.083 220.106 151.083C219.66 151.138 218.656 151.249 218.238 151.333C218.154 151.333 218.099 151.333 218.015 151.389C217.987 151.389 217.959 151.389 217.931 151.416C217.931 151.416 217.931 151.416 217.903 151.416L216.231 152.112C216.231 152.112 216.231 152.112 216.203 152.112C215.562 152.418 215.004 152.89 214.503 153.391C214.057 153.864 213.638 154.365 213.304 154.921C213.304 154.921 213.276 154.976 213.248 155.004C213.109 155.255 212.635 156.451 212.886 155.866C212.969 155.672 212.607 156.478 212.523 156.757C212.523 156.812 212.496 156.868 212.468 156.951C212.44 157.118 212.217 158.648 212.217 158.815C212.217 158.815 212.217 158.87 212.217 158.898C212.217 158.954 212.217 158.982 212.217 159.037C212.189 159.983 212.384 160.901 212.83 161.707C213.109 162.57 213.583 163.32 214.28 163.932C214.921 164.6 215.646 165.101 216.51 165.379C217.346 165.824 218.238 166.018 219.186 165.991L221.025 165.74C222.196 165.407 223.228 164.822 224.092 163.96L225.179 162.542C225.82 161.457 226.127 160.289 226.127 159.037H226.294Z" fill="#E7F2FD"/>
<path d="M297.6 121.934C320.43 115.982 345.155 117.679 366.815 127.191C370.243 128.693 374.285 128.192 376.348 124.688C378.076 121.739 377.324 116.705 373.839 115.175C348.64 104.106 320.597 101.575 293.892 108.528C285.223 110.781 288.903 124.215 297.6 121.934Z" fill="#E7F2FD"/>
<path d="M327.315 139.929L327.036 142.015C327.008 142.961 327.204 143.879 327.65 144.686C327.928 145.548 328.402 146.299 329.099 146.911C329.74 147.578 330.465 148.079 331.329 148.357C332.165 148.802 333.057 148.997 334.005 148.969L335.845 148.718C337.016 148.385 338.047 147.801 338.911 146.938L339.998 145.52C340.64 144.435 340.946 143.267 340.946 142.015L341.225 139.929C341.253 138.984 341.058 138.066 340.612 137.259C340.333 136.397 339.859 135.646 339.162 135.034C338.521 134.367 337.796 133.866 336.932 133.588C336.096 133.143 335.204 132.948 334.256 132.976L332.416 133.226C331.246 133.56 330.214 134.144 329.35 135.006L328.263 136.425C327.622 137.51 327.315 138.678 327.315 139.929Z" fill="#E7F2FD"/>
<path d="M142.89 114.758C198.502 100.657 253.054 82.5503 306.018 60.522C321.127 54.2362 336.124 47.6722 350.953 40.7745C354.354 39.1891 355.218 34.2939 353.462 31.2623C351.427 27.7578 347.357 27.1737 343.929 28.7591C292.638 52.5396 239.618 72.5374 185.428 88.6414C170.097 93.2028 154.682 97.4304 139.211 101.352C130.513 103.549 134.193 116.983 142.918 114.758H142.89Z" fill="#E7F2FD"/>
<path d="M346.688 25.7552C340.723 41.0804 338.465 57.8797 340.166 74.234C340.556 77.961 343.093 81.1874 347.134 81.1874C350.591 81.1874 354.494 77.9889 354.103 74.234C352.487 58.6585 354.466 44.0286 360.125 29.4544C361.49 25.9499 358.619 21.8335 355.246 20.8879C351.316 19.8031 348.054 22.2229 346.661 25.7552H346.688Z" fill="#E7F2FD"/>
<path d="M167.783 231.241C163.072 249.626 158.389 267.983 153.678 286.367C152.451 291.207 157.051 296.742 162.264 294.934C205.582 279.775 250.601 269.54 296.261 264.756C299.997 264.367 303.23 261.836 303.23 257.803C303.23 254.354 300.025 250.46 296.261 250.849C249.319 255.772 203.101 265.952 158.556 281.528L167.142 290.094L181.247 234.968C183.477 226.29 170.013 222.591 167.811 231.269L167.783 231.241Z" fill="#E7F2FD"/>
<path d="M217.82 269.651C211.631 285.143 207.143 301.247 204.523 317.713C203.854 321.968 203.269 326.224 202.823 330.507C202.405 334.373 201.736 338.378 202.488 342.244C203.938 349.837 210.656 356.04 218.461 351.951C226.266 347.863 219.353 335.764 211.436 339.936C213.471 339.296 215.144 339.519 216.482 340.603C216.482 340.993 216.398 340.742 216.203 339.852C216.259 338.935 216.092 338.211 216.175 336.96C216.398 333.928 216.705 330.924 217.067 327.92C217.792 321.885 218.851 315.877 220.106 309.925C222.754 297.437 226.517 285.199 231.256 273.35C232.65 269.874 229.723 265.702 226.378 264.784C222.419 263.699 219.214 266.147 217.792 269.651H217.82Z" fill="#E7F2FD"/>
<path d="M247.061 265.006C245.416 290.456 245.5 315.961 247.284 341.382C247.535 345.137 250.295 348.335 254.253 348.335C257.821 348.335 261.501 345.137 261.222 341.382C259.438 315.961 259.354 290.456 260.999 265.006C261.25 261.252 257.626 258.053 254.03 258.053C250.044 258.053 247.312 261.252 247.061 265.006Z" fill="#E7F2FD"/>
<path d="M257.682 225.873C274.602 236.164 299.021 232.353 311.454 216.75C313.795 213.802 314.325 209.797 311.454 206.904C309.029 204.484 303.955 203.956 301.586 206.904C300.387 208.434 299.049 209.824 297.6 211.104C297.209 211.438 296.819 211.771 296.429 212.077C297.209 211.465 296.568 211.966 296.122 212.272C295.37 212.801 294.589 213.301 293.809 213.746C292.917 214.247 292.025 214.72 291.105 215.165C290.937 215.248 289.432 215.888 290.268 215.554C291.105 215.22 289.348 215.86 289.376 215.86C287.537 216.5 285.669 217 283.746 217.362C283.355 217.445 282.937 217.501 282.547 217.557C281.711 217.696 283.634 217.501 282.268 217.557C281.237 217.612 280.233 217.696 279.202 217.724C278.282 217.724 277.362 217.724 276.442 217.64C275.94 217.612 275.439 217.557 274.909 217.501C273.543 217.39 275.466 217.64 274.658 217.445C272.763 217 270.895 216.639 269.055 215.999C268.888 215.943 267.355 215.332 268.191 215.693C269.027 216.055 267.327 215.276 267.355 215.304C266.435 214.859 265.543 214.358 264.679 213.83C261.473 211.883 257.013 213.134 255.145 216.333C253.278 219.531 254.42 223.898 257.654 225.845L257.682 225.873Z" fill="#E7F2FD"/>
<path d="M412.447 154.281C416.043 142.015 420.475 129.972 426.022 118.457C427.109 116.177 428.28 113.896 429.758 111.838C429.256 112.505 430.538 110.92 430.538 110.92C430.956 110.475 431.402 110.03 431.848 109.641C432.266 109.279 431.625 109.668 432.489 109.196C432.517 109.196 434.329 108.333 433.521 108.611C432.657 108.917 434.246 108.472 434.413 108.445C432.908 108.778 434.636 108.528 434.97 108.5C436.253 108.417 434.524 108.306 435.221 108.5C435.695 108.639 436.197 108.751 436.671 108.917C435.277 108.445 436.81 109.084 437.089 109.251C436.615 108.945 436.392 108.806 436.977 109.251C437.423 109.752 437.479 109.807 437.117 109.418C436.782 109.001 436.81 109.084 437.145 109.641L436.838 109.029C436.95 109.39 437.005 109.78 437.061 110.169C437.591 113.896 442.357 115.926 445.647 115.036C449.661 113.924 451.027 110.225 450.525 106.47C449.493 99.1271 441.828 94.816 434.97 94.6213C427.109 94.3988 420.865 99.8224 416.879 106.108C412.893 112.394 409.854 120.349 406.983 127.552C404.112 134.756 401.325 142.794 399.011 150.61C397.952 154.225 400.293 158.175 403.889 159.176C407.485 160.178 411.388 157.925 412.475 154.309L412.447 154.281Z" fill="#E7F2FD"/>
<path d="M437.005 127.497C436.727 127.636 436.476 127.775 436.225 127.97C435.556 128.47 434.803 128.971 434.218 129.583C433.632 130.195 433.103 130.918 432.601 131.641C432.434 131.891 432.294 132.142 432.155 132.392C431.653 133.393 431.124 134.506 430.956 135.646C430.817 136.508 430.65 137.398 430.65 138.288C430.65 139.178 430.817 140.124 430.984 141.014L431.681 142.683L432.768 144.101L434.19 145.186C434.998 145.687 435.862 145.965 436.782 146.021C437.396 146.187 438.009 146.187 438.622 146.021C439.263 146.021 439.849 145.854 440.378 145.548C440.964 145.381 441.493 145.075 441.911 144.658C442.664 144.157 443.277 143.517 443.695 142.711C444.615 140.847 445.535 138.956 446.483 137.092C446.985 136.286 447.263 135.424 447.319 134.506C447.514 133.588 447.486 132.67 447.208 131.724C446.985 130.807 446.567 130.028 445.953 129.36C445.452 128.609 444.81 127.997 444.002 127.58L442.329 126.885C441.103 126.551 439.849 126.551 438.622 126.885L436.95 127.58C435.89 128.192 435.082 129.027 434.441 130.083C433.521 131.947 432.601 133.838 431.653 135.702L444.392 137.371C444.392 137.371 444.364 137.148 444.337 137.065L444.587 138.9C444.532 138.483 444.532 138.066 444.587 137.621L444.337 139.457C444.392 138.984 444.532 138.511 444.699 138.066L444.002 139.735C444.197 139.29 444.42 138.873 444.727 138.483L443.64 139.902C443.918 139.568 444.197 139.262 444.532 138.984L443.11 140.068C443.389 139.846 443.668 139.679 444.002 139.512C444.81 139.067 445.479 138.483 445.953 137.732C446.567 137.065 446.985 136.286 447.208 135.368C447.486 134.45 447.542 133.532 447.319 132.587C447.263 131.669 447.013 130.807 446.483 130L445.396 128.582C444.532 127.719 443.5 127.135 442.329 126.801L440.49 126.551C439.235 126.551 438.065 126.885 436.977 127.497H437.005Z" fill="#E7F2FD"/>
<path d="M494.819 121.962C495.906 119.459 497.133 117.039 498.554 114.703C499.196 113.646 499.865 112.617 500.589 111.588C501.481 110.308 501.704 110.03 502.429 109.168C505.774 105.135 509.705 101.602 513.412 99.1271L503.879 96.6239C511.656 110.725 516.785 125.911 519.322 142.015C519.907 145.715 524.562 147.801 527.907 146.883C531.866 145.798 533.371 142.043 532.786 138.316C530.082 121.239 524.284 104.745 515.921 89.5871C514.193 86.4442 509.454 85.0257 506.387 87.0839C496.101 93.9816 487.711 103.549 482.777 114.925C481.272 118.374 481.745 122.379 485.286 124.437C488.24 126.162 493.314 125.411 494.819 121.934V121.962Z" fill="#E7F2FD"/>
<path d="M496.213 143.49L500.311 144.24C501.231 144.519 502.151 144.574 503.098 144.352C504.018 144.296 504.882 144.046 505.691 143.517C506.499 143.072 507.168 142.488 507.642 141.737C508.255 141.07 508.673 140.291 508.896 139.373L509.147 137.537C509.147 136.286 508.813 135.118 508.2 134.033L507.112 132.614C506.248 131.752 505.217 131.168 504.046 130.834L499.948 130.083C499.029 129.805 498.109 129.75 497.161 129.972C496.241 130.028 495.377 130.278 494.568 130.807C493.76 131.252 493.091 131.836 492.617 132.587C492.004 133.254 491.586 134.033 491.363 134.951L491.112 136.786C491.112 138.038 491.446 139.206 492.06 140.291L493.147 141.709C494.011 142.572 495.042 143.156 496.213 143.49Z" fill="#E7F2FD"/>
<path d="M404.893 222.285C423.151 237.61 452.727 233.577 465.857 213.496C467.919 210.353 466.498 205.819 463.348 203.984C459.947 202.009 455.877 203.316 453.814 206.487C453.48 207.015 453.117 207.544 452.727 208.044C453.145 207.488 453.006 207.711 452.644 208.128C451.863 208.99 451.11 209.825 450.274 210.631C449.884 210.993 449.494 211.326 449.103 211.688C448.183 212.55 449.41 211.521 448.797 211.966C447.877 212.634 446.901 213.273 445.926 213.857C445.006 214.386 444.086 214.831 443.138 215.332C441.995 215.916 443.5 215.22 442.776 215.498C442.274 215.693 441.8 215.888 441.298 216.055C439.208 216.778 437.033 217.306 434.859 217.668C433.716 217.863 436.504 217.584 434.497 217.696C433.967 217.724 433.437 217.779 432.908 217.807C431.848 217.863 430.789 217.863 429.73 217.835C429.2 217.835 428.671 217.779 428.141 217.751C427.974 217.751 425.911 217.501 427.5 217.724C426.468 217.584 425.437 217.362 424.406 217.139C423.374 216.917 422.399 216.611 421.395 216.249C421.423 216.249 419.695 215.61 420.475 215.943C421.256 216.277 419.75 215.61 419.583 215.526C418.552 215.026 417.548 214.469 416.573 213.857C416.127 213.579 415.708 213.273 415.262 212.967C414.064 212.133 415.904 213.524 414.677 212.495C411.806 210.075 407.652 209.685 404.809 212.495C402.328 214.97 401.91 219.893 404.809 222.341L404.893 222.285Z" fill="#E7F2FD"/>
<path d="M419.918 66.0013C417.743 52.5674 421.562 38.911 429.423 27.9525L421.562 31.151C464.128 40.8579 508.422 40.9692 551.044 31.5682C559.797 29.6491 556.09 16.2152 547.337 18.1622C507.196 27.0068 465.327 26.8678 425.242 17.745C421.98 16.994 419.249 18.3012 417.381 20.9435C407.234 35.1006 403.722 52.6508 406.482 69.7005C407.067 73.3996 411.722 75.4857 415.067 74.5678C419.026 73.4831 420.531 69.7283 419.945 66.0013H419.918Z" fill="#E7F2FD"/>
<path d="M553.581 23.0573C543.406 49.5914 541.539 78.4339 538.946 106.47C536.214 135.869 533.929 165.323 532.005 194.778C530.918 211.577 529.97 228.404 529.162 245.203L536.131 238.25C499.084 242.06 462.288 248.04 425.967 256.245C417.214 258.22 420.921 271.626 429.674 269.651C464.797 261.724 500.339 255.856 536.131 252.157C540.033 251.767 542.905 249.292 543.1 245.203C544.521 215.944 546.333 186.684 548.563 157.48C550.793 128.276 552.828 99.9337 556.48 71.3693C558.431 56.1831 561.526 41.0805 567.017 26.7565C568.355 23.252 565.54 19.1356 562.139 18.19C558.208 17.1053 554.919 19.525 553.553 23.0573H553.581Z" fill="#E7F2FD"/>
<path d="M447.654 257.107C440.016 281.528 436.95 307.338 438.734 332.871C438.985 336.626 441.744 339.825 445.703 339.825C449.271 339.825 452.95 336.626 452.671 332.871C450.943 308.451 453.759 284.17 461.09 260.807C463.766 252.24 450.33 248.569 447.654 257.107Z" fill="#E7F2FD"/>
<path d="M487.739 250.933C473.076 275.297 464.017 302.416 460.588 330.591C460.142 334.318 464.128 337.544 467.557 337.544C471.71 337.544 474.08 334.345 474.526 330.591C477.648 304.919 486.457 280.081 499.753 257.942C504.381 250.238 492.338 243.256 487.711 250.933H487.739Z" fill="#E7F2FD"/>
<path d="M542.208 110.002C546.723 129.666 559.881 145.715 575.212 158.258C592.746 172.61 612.789 183.847 632.441 195.028C645.068 202.204 657.78 209.185 670.519 216.138C678.38 220.449 685.432 208.434 677.543 204.123C656.051 192.358 634.559 180.593 613.653 167.854C597.401 157.98 581.15 147.383 568.885 132.642C562.501 124.966 557.874 116.038 555.644 106.303C553.637 97.5696 540.201 101.269 542.208 110.002Z" fill="#E7F2FD"/>
</g>
<defs>
<clipPath id="clip0_214_2">
<rect width="681" height="390" fill="white"/>
</clipPath>
</defs>
</svg>
