<svg width="377" height="216" viewBox="0 0 377 216" fill="none" xmlns="http://www.w3.org/2000/svg">
<g clip-path="url(#clip0_425_127)">
<path d="M109.844 203.214C146.942 221.838 207.404 219.281 245.058 200.95C249.07 198.994 274.162 186.778 269.749 179.091C266.832 174.008 252.311 173.145 176.865 174.562C107.19 175.872 91.6499 177.15 88.687 182.85C84.6748 190.567 106.233 201.381 109.844 203.199V203.214Z" fill="#576B80"/>
<path d="M41.126 59.8922C41.126 59.8922 156.849 33.1656 179.226 19.2555C178.901 63.8203 178.901 159.635 178.901 159.635L66.82 178.213C66.82 178.213 103.779 83.6611 82.6531 76.19C61.5269 68.7189 41.126 59.9076 41.126 59.9076V59.8922Z" fill="#89AFDD"/>
<path d="M224.642 0L323.112 11.7381L312.541 137.9L209.071 147.882L224.642 0Z" fill="#426CB4"/>
<path d="M0.43219 110.018C5.06174 119.353 16.6356 121.679 26.1571 121.417C38.3482 121.078 50.5857 118.352 61.8355 113.684C68.3632 110.973 74.5822 107.692 80.4309 103.733C84.5203 100.96 80.6623 94.2901 76.542 97.0783C64.7213 105.073 51.3418 110.388 37.2526 112.668C31.3576 113.623 24.9843 114.3 19.043 113.345C14.1511 112.56 9.39809 110.727 7.11418 106.121C4.83027 101.515 -1.7437 105.582 0.447621 110.003H0.43219V110.018Z" fill="#231F20"/>
<path d="M97.8687 109.279C98.5323 96.0616 99.5971 79.2246 112.807 72.1232C117.174 69.7664 113.285 63.1117 108.918 65.4686C93.0694 74.0026 90.9707 93.2272 90.1528 109.279C89.9059 114.239 97.6218 114.223 97.8687 109.279Z" fill="#231F20"/>
<path d="M125.276 88.0822C125.276 88.0822 125.276 88.0051 125.276 87.9589L125.137 88.9756C125.137 88.9756 125.152 88.8832 125.168 88.837L124.782 89.7612C124.782 89.7612 124.813 89.6996 124.828 89.6688L124.227 90.4544C124.227 90.4544 124.288 90.3928 124.319 90.362L123.532 90.9628C123.532 90.9628 123.609 90.9166 123.656 90.8858L122.73 91.2709C122.73 91.2709 122.853 91.2247 122.93 91.2247L121.912 91.3633C122.004 91.3633 122.097 91.3633 122.19 91.3633L121.171 91.2247C121.279 91.2247 121.372 91.2709 121.48 91.3017L120.554 90.9166C120.631 90.9474 120.724 90.9936 120.785 91.0552L119.998 90.4544C119.998 90.4544 120.091 90.5469 120.137 90.5931L119.535 89.8074C119.535 89.8074 119.597 89.8999 119.612 89.9461L119.227 89.0218C119.227 89.0218 119.258 89.1297 119.273 89.1759L119.134 88.1592C119.134 88.1592 119.134 88.2978 119.134 88.3594L119.273 87.3428C119.273 87.4352 119.242 87.5122 119.211 87.5892L119.597 86.665C119.551 86.7574 119.504 86.8344 119.443 86.9268L120.045 86.1412C119.983 86.2336 119.906 86.2953 119.813 86.3723L120.6 85.7715C120.492 85.8485 120.369 85.9256 120.245 85.9718L121.171 85.5867C121.001 85.6483 120.832 85.6945 120.662 85.7253L121.68 85.5867C121.511 85.6021 121.341 85.6021 121.171 85.5867L122.19 85.7253C122.19 85.7253 122.082 85.7099 122.02 85.6945C121.511 85.5404 121.001 85.5096 120.477 85.6329C119.967 85.6637 119.489 85.8023 119.041 86.095C118.594 86.3415 118.224 86.665 117.961 87.0809C117.622 87.4506 117.39 87.8819 117.267 88.3903L117.128 89.4069C117.128 90.1001 117.313 90.7471 117.653 91.3479L118.254 92.1335C118.733 92.611 119.304 92.9345 119.952 93.1194C119.998 93.1194 120.06 93.1348 120.106 93.1502C120.461 93.1964 120.832 93.258 121.187 93.2888C121.217 93.2888 121.248 93.2888 121.279 93.2888C121.387 93.2888 121.511 93.2888 121.619 93.2888C122.004 93.2426 122.39 93.1964 122.776 93.1348C122.838 93.1348 122.899 93.1194 122.946 93.104C122.992 93.104 123.054 93.0732 123.1 93.0578C123.131 93.0578 123.146 93.0424 123.177 93.027C123.501 92.9037 123.841 92.7651 124.149 92.611C124.242 92.5648 124.35 92.5186 124.427 92.457C124.705 92.2567 124.983 92.0411 125.245 91.8254C125.261 91.8254 125.276 91.7946 125.307 91.7792C125.353 91.7484 125.384 91.7022 125.43 91.6714C125.446 91.656 125.461 91.6406 125.477 91.6252C125.693 91.3787 125.924 91.0706 126.109 90.7933C126.14 90.7471 126.171 90.7163 126.186 90.6701C126.186 90.6393 126.217 90.6239 126.217 90.5931C126.356 90.3004 126.51 89.9461 126.619 89.638C126.634 89.5918 126.649 89.5302 126.665 89.484C126.665 89.4686 126.665 89.4377 126.665 89.4069C126.711 89.1605 126.773 88.6213 126.804 88.3748V88.344C126.804 88.2978 126.804 88.2516 126.804 88.2054C126.804 88.2054 126.804 88.19 126.804 88.1746C126.804 88.0514 126.68 87.2657 126.665 87.1425C126.665 87.1271 126.665 87.0963 126.665 87.0809C126.619 86.896 126.495 86.6341 126.433 86.5263C126.387 86.4031 126.294 86.1412 126.186 85.9872C126.186 85.9872 126.171 85.9564 126.156 85.941C126.063 85.8023 125.831 85.525 125.847 85.5404C125.801 85.4788 125.631 85.2478 125.523 85.1245C125.507 85.0937 125.477 85.0783 125.461 85.0475C125.461 85.0475 125.43 85.0321 125.43 85.0167C125.23 84.8472 124.859 84.57 124.643 84.4005C124.643 84.4005 124.628 84.4005 124.612 84.3851C124.551 84.3389 124.489 84.3081 124.412 84.2773C124.119 84.154 123.748 83.9846 123.455 83.8768C123.44 83.8768 123.424 83.8768 123.393 83.8614C123.362 83.8614 123.316 83.846 123.285 83.8306C123.254 83.8152 123.208 83.8306 123.177 83.8152C122.838 83.7689 122.452 83.7073 122.112 83.6765C122.097 83.6765 122.066 83.6765 122.051 83.6765C122.02 83.6765 121.989 83.6765 121.943 83.6765C121.927 83.6765 121.912 83.6765 121.881 83.6765C121.881 83.6765 121.866 83.6765 121.85 83.6765C121.603 83.7073 121.048 83.7689 120.816 83.8152C120.77 83.8152 120.739 83.8152 120.693 83.846C120.677 83.846 120.662 83.846 120.646 83.8614C120.646 83.8614 120.646 83.8614 120.631 83.8614L119.705 84.2465C119.705 84.2465 119.705 84.2465 119.69 84.2465C119.335 84.4159 119.026 84.6778 118.748 84.9551C118.501 85.217 118.27 85.4942 118.085 85.8023C118.085 85.8023 118.069 85.8331 118.054 85.8485C117.977 85.9872 117.714 86.6496 117.853 86.3261C117.9 86.2182 117.699 86.665 117.653 86.819C117.653 86.8498 117.637 86.8806 117.622 86.9268C117.606 87.0193 117.483 87.8665 117.483 87.9589C117.483 87.9589 117.483 87.9897 117.483 88.0051C117.483 88.036 117.483 88.0514 117.483 88.0822C117.467 88.6059 117.575 89.1143 117.822 89.561C117.977 90.0385 118.239 90.4544 118.625 90.7933C118.98 91.163 119.381 91.4403 119.859 91.5944C120.322 91.8408 120.816 91.9487 121.341 91.9333L122.359 91.7946C123.007 91.6098 123.578 91.2863 124.057 90.8087L124.659 90.0231C125.014 89.4223 125.183 88.7754 125.183 88.0822H125.276Z" fill="#231F20"/>
<path d="M164.75 67.5327C177.389 64.2362 191.077 65.1759 203.068 70.4442C204.966 71.276 207.203 70.9987 208.345 69.0578C209.302 67.4249 208.886 64.6367 206.957 63.7895C193.006 57.6585 177.482 56.2567 162.698 60.1078C157.899 61.3556 159.936 68.7959 164.75 67.5327Z" fill="#231F20"/>
<path d="M181.201 77.4994L181.046 78.6547C181.031 79.1784 181.139 79.6868 181.386 80.1335C181.54 80.611 181.803 81.0269 182.188 81.3658C182.543 81.7355 182.944 82.0128 183.423 82.1669C183.886 82.4133 184.38 82.5212 184.904 82.5058L185.923 82.3671C186.571 82.1823 187.142 81.8588 187.62 81.3813L188.222 80.5956C188.577 79.9949 188.747 79.3479 188.747 78.6547L188.901 77.4994C188.917 76.9756 188.809 76.4673 188.562 76.0205C188.407 75.543 188.145 75.1271 187.759 74.7882C187.404 74.4185 187.003 74.1412 186.525 73.9872C186.062 73.7407 185.568 73.6329 185.043 73.6483L184.025 73.7869C183.377 73.9718 182.806 74.2952 182.327 74.7728L181.725 75.5584C181.37 76.1592 181.201 76.8062 181.201 77.4994Z" fill="#231F20"/>
<path d="M79.104 63.5584C109.891 55.7484 140.091 45.7202 169.411 33.5199C177.775 30.0385 186.078 26.4031 194.287 22.5828C196.17 21.7048 196.648 18.9936 195.676 17.3145C194.55 15.3736 192.297 15.0501 190.398 15.9281C162.004 29.0988 132.653 40.1746 102.653 49.0937C94.1655 51.62 85.6317 53.9615 77.067 56.1335C72.2523 57.3505 74.2893 64.7908 79.1194 63.5584H79.104Z" fill="#231F20"/>
<path d="M191.926 14.2644C188.624 22.7522 187.374 32.0565 188.315 41.1142C188.531 43.1784 189.935 44.9653 192.173 44.9653C194.086 44.9653 196.247 43.1938 196.031 41.1142C195.136 32.4878 196.231 24.3851 199.364 16.3132C200.12 14.3723 198.531 12.0924 196.664 11.5687C194.488 10.9679 192.682 12.3081 191.911 14.2644H191.926Z" fill="#231F20"/>
<path d="M92.8842 128.072C90.2762 138.254 87.6837 148.421 85.0757 158.603C84.3967 161.284 86.9429 164.349 89.8287 163.348C113.81 154.953 138.732 149.284 164.01 146.634C166.077 146.418 167.868 145.017 167.868 142.783C167.868 140.873 166.093 138.716 164.01 138.932C138.022 141.659 112.436 147.297 87.7763 155.923L92.5293 160.668L100.338 130.136C101.572 125.33 94.1187 123.281 92.8996 128.087L92.8842 128.072Z" fill="#231F20"/>
<path d="M120.584 149.345C117.158 157.926 114.674 166.845 113.223 175.964C112.853 178.321 112.529 180.678 112.282 183.05C112.051 185.191 111.68 187.409 112.097 189.551C112.899 193.756 116.618 197.191 120.939 194.927C125.26 192.662 121.433 185.961 117.05 188.272C118.177 187.918 119.103 188.041 119.844 188.642C119.844 188.857 119.797 188.719 119.689 188.226C119.72 187.718 119.628 187.317 119.674 186.624C119.797 184.945 119.967 183.281 120.168 181.617C120.569 178.275 121.155 174.947 121.85 171.651C123.316 164.734 125.399 157.956 128.023 151.394C128.794 149.469 127.174 147.158 125.322 146.65C123.131 146.049 121.356 147.404 120.569 149.345H120.584Z" fill="#231F20"/>
<path d="M136.773 146.773C135.862 160.868 135.908 174.994 136.896 189.073C137.035 191.153 138.563 192.924 140.754 192.924C142.729 192.924 144.766 191.153 144.612 189.073C143.624 174.994 143.578 160.868 144.489 146.773C144.627 144.693 142.621 142.922 140.631 142.922C138.424 142.922 136.911 144.693 136.773 146.773Z" fill="#231F20"/>
<path d="M142.652 125.099C152.019 130.798 165.538 128.688 172.42 120.046C173.717 118.413 174.01 116.195 172.42 114.593C171.078 113.253 168.269 112.96 166.957 114.593C166.294 115.44 165.553 116.211 164.751 116.919C164.535 117.104 164.319 117.289 164.103 117.458C164.535 117.119 164.18 117.397 163.933 117.566C163.516 117.859 163.084 118.136 162.652 118.383C162.158 118.66 161.664 118.922 161.155 119.168C161.062 119.214 160.229 119.569 160.692 119.384C161.155 119.199 160.183 119.553 160.198 119.553C159.18 119.908 158.146 120.185 157.081 120.385C156.865 120.431 156.634 120.462 156.417 120.493C155.955 120.57 157.019 120.462 156.263 120.493C155.692 120.524 155.137 120.57 154.566 120.585C154.056 120.585 153.547 120.585 153.038 120.539C152.76 120.524 152.482 120.493 152.189 120.462C151.433 120.4 152.498 120.539 152.05 120.431C151.001 120.185 149.967 119.985 148.948 119.63C148.856 119.599 148.007 119.261 148.47 119.461C148.933 119.661 147.992 119.23 148.007 119.245C147.498 118.999 147.004 118.721 146.526 118.429C144.751 117.35 142.282 118.044 141.248 119.815C140.214 121.587 140.847 124.005 142.637 125.083L142.652 125.099Z" fill="#231F20"/>
<path d="M228.33 85.448C230.32 78.6547 232.774 71.9846 235.845 65.6072C236.447 64.344 237.095 63.0809 237.913 61.9409C237.635 62.3106 238.345 61.4326 238.345 61.4326C238.576 61.1861 238.823 60.9397 239.07 60.724C239.302 60.5237 238.947 60.7394 239.425 60.4775C239.44 60.4775 240.444 60 239.996 60.154C239.518 60.3235 240.397 60.077 240.49 60.0616C239.656 60.2465 240.613 60.1078 240.798 60.0924C241.508 60.0462 240.552 59.9846 240.937 60.0924C241.2 60.1694 241.477 60.2311 241.74 60.3235C240.968 60.0616 241.817 60.4159 241.971 60.5083C241.709 60.3389 241.585 60.2619 241.91 60.5083C242.156 60.7856 242.187 60.8164 241.987 60.6008C241.802 60.3697 241.817 60.4159 242.002 60.724L241.832 60.3851C241.894 60.5854 241.925 60.801 241.956 61.0167C242.249 63.0809 244.888 64.2054 246.709 63.7124C248.931 63.0963 249.687 61.0475 249.409 58.9679C248.838 54.9011 244.595 52.5135 240.798 52.4056C236.447 52.2824 232.99 55.2863 230.783 58.7676C228.576 62.249 226.894 66.6547 225.305 70.6444C223.715 74.6341 222.172 79.086 220.891 83.4146C220.305 85.4172 221.601 87.6046 223.592 88.1592C225.583 88.7137 227.743 87.466 228.345 85.4634L228.33 85.448Z" fill="#231F20"/>
<path d="M241.925 70.6136C241.771 70.6906 241.632 70.7676 241.493 70.8755C241.123 71.1528 240.706 71.43 240.382 71.7689C240.058 72.1078 239.765 72.5083 239.487 72.9089C239.394 73.0475 239.317 73.1861 239.24 73.3248C238.962 73.8793 238.669 74.4955 238.576 75.1271C238.499 75.6046 238.407 76.0976 238.407 76.5905C238.407 77.0834 238.499 77.6072 238.592 78.1001L238.978 79.0244L239.58 79.81L240.367 80.4108C240.814 80.6881 241.292 80.8421 241.802 80.8729C242.141 80.9653 242.481 80.9653 242.82 80.8729C243.175 80.8729 243.499 80.7805 243.792 80.611C244.117 80.5186 244.41 80.3492 244.641 80.1181C245.058 79.8408 245.397 79.4865 245.629 79.0398C246.138 78.0077 246.647 76.9602 247.172 75.9281C247.45 75.4814 247.604 75.0039 247.635 74.4955C247.743 73.9872 247.728 73.4788 247.573 72.9551C247.45 72.4467 247.218 72.0154 246.879 71.6457C246.601 71.2298 246.246 70.8909 245.799 70.6598L244.873 70.2747C244.194 70.0899 243.499 70.0899 242.82 70.2747L241.894 70.6598C241.308 70.9987 240.86 71.4608 240.505 72.0462C239.996 73.0783 239.487 74.1258 238.962 75.1579L246.015 76.0822C246.015 76.0822 245.999 75.9589 245.984 75.9127L246.123 76.9294C246.092 76.6983 246.092 76.4673 246.123 76.2208L245.984 77.2375C246.015 76.9756 246.092 76.7137 246.184 76.4673L245.799 77.3915C245.907 77.1451 246.03 76.914 246.2 76.6983L245.598 77.484C245.752 77.2991 245.907 77.1297 246.092 76.9756L245.305 77.5764C245.459 77.4531 245.613 77.3607 245.799 77.2683C246.246 77.0218 246.616 76.6983 246.879 76.2824C247.218 75.9127 247.45 75.4814 247.573 74.973C247.728 74.4647 247.758 73.9564 247.635 73.4326C247.604 72.9243 247.465 72.4467 247.172 72L246.57 71.2144C246.092 70.7368 245.521 70.4134 244.873 70.2285L243.854 70.0899C243.16 70.0899 242.512 70.2747 241.91 70.6136H241.925Z" fill="#231F20"/>
<path d="M273.931 67.5481C274.533 66.1617 275.212 64.8216 275.999 63.5276C276.354 62.9422 276.724 62.3723 277.125 61.8023C277.619 61.0937 277.743 60.9397 278.144 60.4621C279.996 58.2285 282.172 56.2721 284.224 54.9012L278.946 53.5148C283.252 61.3248 286.091 69.7356 287.496 78.6547C287.82 80.7035 290.397 81.8588 292.249 81.3505C294.44 80.7497 295.273 78.6701 294.949 76.6059C293.452 67.1476 290.242 58.0128 285.613 49.6175C284.656 47.8768 282.033 47.0911 280.335 48.2311C274.641 52.0513 269.996 57.3504 267.264 63.6508C266.431 65.561 266.693 67.7792 268.653 68.9191C270.289 69.8742 273.098 69.4583 273.931 67.5327V67.5481Z" fill="#231F20"/>
<path d="M274.702 79.4711L276.971 79.887C277.48 80.0411 277.989 80.0719 278.514 79.9487C279.023 79.9178 279.502 79.7792 279.949 79.4865C280.397 79.24 280.767 78.9166 281.03 78.5006C281.369 78.1309 281.6 77.6996 281.724 77.1913L281.863 76.1746C281.863 75.4814 281.678 74.8344 281.338 74.2336L280.736 73.448C280.258 72.9705 279.687 72.647 279.039 72.4621L276.77 72.0462C276.261 71.8922 275.752 71.8614 275.227 71.9846C274.718 72.0154 274.239 72.154 273.792 72.4467C273.344 72.6932 272.974 73.0167 272.712 73.4326C272.372 73.8023 272.141 74.2336 272.017 74.742L271.878 75.7587C271.878 76.4519 272.064 77.0988 272.403 77.6996L273.005 78.4852C273.483 78.9628 274.054 79.2863 274.702 79.4711Z" fill="#231F20"/>
<path d="M224.148 123.112C234.256 131.599 250.629 129.366 257.897 118.244C259.039 116.503 258.252 113.992 256.508 112.976C254.626 111.882 252.373 112.606 251.231 114.362C251.045 114.655 250.845 114.947 250.629 115.225C250.86 114.917 250.783 115.04 250.583 115.271C250.15 115.748 249.734 116.211 249.271 116.657C249.055 116.858 248.839 117.042 248.623 117.243C248.113 117.72 248.792 117.15 248.453 117.397C247.944 117.766 247.404 118.121 246.863 118.444C246.354 118.737 245.845 118.983 245.32 119.261C244.688 119.584 245.521 119.199 245.12 119.353C244.842 119.461 244.58 119.569 244.302 119.661C243.144 120.062 241.941 120.354 240.737 120.555C240.104 120.662 241.647 120.508 240.536 120.57C240.243 120.585 239.95 120.616 239.657 120.632C239.07 120.662 238.484 120.662 237.898 120.647C237.604 120.647 237.311 120.616 237.018 120.601C236.925 120.601 235.783 120.462 236.663 120.585C236.092 120.508 235.521 120.385 234.95 120.262C234.379 120.139 233.839 119.969 233.283 119.769C233.299 119.769 232.342 119.415 232.774 119.599C233.206 119.784 232.373 119.415 232.28 119.368C231.709 119.091 231.154 118.783 230.614 118.444C230.367 118.29 230.135 118.121 229.888 117.951C229.225 117.489 230.243 118.259 229.564 117.689C227.975 116.349 225.676 116.134 224.101 117.689C222.728 119.06 222.497 121.787 224.101 123.142L224.148 123.112Z" fill="#231F20"/>
<path d="M232.466 36.5546C231.262 29.1142 233.376 21.5507 237.728 15.4814L233.376 17.2529C256.94 22.629 281.462 22.6906 305.057 17.484C309.903 16.421 307.85 8.98074 303.005 10.059C280.783 14.9576 257.604 14.8806 235.413 9.82798C233.608 9.41206 232.095 10.1361 231.061 11.5995C225.444 19.4403 223.5 29.1605 225.027 38.6033C225.352 40.6521 227.929 41.8074 229.78 41.2991C231.972 40.6983 232.805 38.6187 232.481 36.5546H232.466Z" fill="#231F20"/>
<path d="M306.461 12.7702C300.829 27.466 299.795 43.4403 298.36 58.9679C296.847 75.2503 295.582 91.5635 294.517 107.877C293.915 117.181 293.39 126.501 292.943 135.805L296.801 131.954C276.292 134.064 255.922 137.376 235.814 141.92C230.969 143.014 233.021 150.439 237.867 149.345C257.311 144.955 276.986 141.705 296.801 139.656C298.961 139.44 300.551 138.069 300.659 135.805C301.446 119.599 302.449 103.394 303.684 87.2195C304.918 71.0449 306.045 55.3479 308.066 39.5276C309.146 31.1168 310.859 22.7522 313.899 14.819C314.64 12.878 313.082 10.5982 311.199 10.0745C309.023 9.47368 307.202 10.8139 306.446 12.7702H306.461Z" fill="#231F20"/>
<path d="M247.82 142.398C243.592 155.923 241.894 170.218 242.882 184.359C243.021 186.439 244.548 188.211 246.74 188.211C248.715 188.211 250.752 186.439 250.598 184.359C249.641 170.834 251.2 157.386 255.258 144.447C256.74 139.702 249.301 137.669 247.82 142.398Z" fill="#231F20"/>
<path d="M270.011 138.978C261.894 152.472 256.879 167.492 254.98 183.096C254.734 185.16 256.94 186.947 258.838 186.947C261.138 186.947 262.449 185.176 262.696 183.096C264.425 168.878 269.301 155.122 276.662 142.86C279.224 138.593 272.557 134.727 269.996 138.978H270.011Z" fill="#231F20"/>
<path d="M300.165 60.9243C302.665 71.8151 309.949 80.7035 318.436 87.6508C328.143 95.5995 339.238 101.823 350.118 108.015C357.109 111.99 364.145 115.856 371.198 119.707C375.55 122.095 379.454 115.44 375.087 113.053C363.189 106.537 351.291 100.021 339.717 92.9653C330.72 87.4968 321.723 81.6277 314.933 73.4634C311.399 69.2118 308.838 64.267 307.603 58.8755C306.492 54.0385 299.054 56.0873 300.165 60.9243Z" fill="#231F20"/>
</g>
<defs>
<clipPath id="clip0_425_127">
<rect width="377" height="216" fill="white"/>
</clipPath>
</defs>
</svg>
