<svg width="233" height="142" viewBox="0 0 233 142" fill="none" xmlns="http://www.w3.org/2000/svg">
<path d="M177.253 133.373C185.557 130.443 205.85 123.281 205.113 117.196C203.073 100.355 40.6307 99.1862 38.8512 113.601C37.9256 121.097 80.5604 132.097 104.457 136.069C125.02 139.484 149.33 143.232 177.253 133.373Z" fill="#516C82"/>
<path d="M0 42.7921C21.7757 45.2995 89.6553 32.9962 89.6553 32.9962C89.6553 32.9962 98.912 81.2749 103.936 91.1427C82.897 95.6183 26.9703 112.703 6.84817 112.253C7.95359 93.3715 0 42.7921 0 42.7921Z" fill="#4D6596"/>
<path d="M148.755 94.0366L196.341 106.87L214.423 51.7343L158.002 27.6578L148.755 94.0366Z" fill="#006FDC"/>
<path d="M16.5003 44.6345C16.3565 60.1642 17.408 75.667 19.5649 91.0439C19.7626 92.4908 21.605 93.2727 22.8811 92.9312C24.4359 92.4998 24.9662 91.0619 24.7684 89.6149C22.6834 74.7233 21.7578 59.6699 21.9015 44.6345C21.9375 41.1655 16.5452 41.1565 16.5093 44.6345H16.5003Z" fill="#E7F2FD"/>
<path d="M38.9141 57.1265C38.9411 57.5309 39.004 57.9354 39.0579 58.3398C39.0849 58.5105 39.1119 58.6723 39.1658 58.8341C39.2556 59.1216 39.3905 59.4002 39.5073 59.6788C39.5432 59.7597 39.5792 59.8406 39.6331 59.9125C39.7859 60.1552 39.9746 60.3888 40.1634 60.6135C40.3521 60.8382 40.6666 61.0449 40.8823 61.1977C40.9452 61.2426 40.9991 61.2785 41.071 61.3055C41.7271 61.6111 41.8529 61.647 42.5809 61.7099C42.8595 61.7369 43.2819 61.647 43.4616 61.6111C43.5245 61.6021 43.5784 61.5841 43.6414 61.5661C43.875 61.4762 44.1986 61.3684 44.4412 61.2157C44.4682 61.1977 44.4951 61.1797 44.5221 61.1617C44.7288 61.009 44.9355 60.8651 45.1242 60.6944C45.3219 60.5146 45.5466 60.1821 45.6635 60.0294C45.6994 59.9844 45.7264 59.9305 45.7623 59.8765C45.8881 59.6339 46.0319 59.3463 46.0858 59.0587C46.1218 58.897 46.1667 58.4925 46.1847 58.3308C46.1847 58.3128 46.1847 58.3038 46.1847 58.2859C46.1847 58.0252 46.1398 57.7466 46.0858 57.495C46.0499 57.3602 45.987 57.2344 45.9241 57.0995C45.8612 56.9647 45.8252 56.8299 45.7533 56.7131C45.4388 56.2098 45.1512 55.9492 44.6569 55.6256C44.3513 55.4279 44.0098 55.3201 43.6503 55.3021C43.2909 55.2212 42.9314 55.2392 42.5719 55.3471C42.2214 55.4279 41.9158 55.5897 41.6552 55.8323C41.3586 56.0211 41.134 56.2727 40.9632 56.5873L40.6936 57.2344C40.5678 57.7107 40.5678 58.187 40.6936 58.6723L40.9632 59.3193C41.2059 59.7238 41.5294 60.0473 41.9338 60.29C41.9518 60.2989 41.9608 60.3079 41.9787 60.3259L41.4305 59.9035C41.4305 59.9035 41.4844 59.9485 41.5024 59.9754L41.08 59.4272C41.08 59.4272 41.116 59.4811 41.125 59.5081L40.8553 58.861C40.8553 58.861 40.8733 58.9149 40.8823 58.9509L40.7835 58.2319C40.7835 58.2319 40.7835 58.3128 40.7835 58.3578L40.8823 57.6388C40.8823 57.6837 40.8643 57.7376 40.8464 57.7826L41.116 57.1355C41.089 57.1984 41.0531 57.2613 41.0081 57.3152L41.4305 56.767C41.3766 56.8299 41.3227 56.8839 41.2598 56.9378L41.808 56.5154C41.7451 56.5693 41.6732 56.6052 41.5923 56.6412L42.2394 56.3716C42.1765 56.3986 42.1136 56.4165 42.0417 56.4255L42.7606 56.3267C42.7067 56.3267 42.6528 56.3267 42.5988 56.3267L43.3178 56.4255C43.2639 56.4255 43.219 56.4076 43.174 56.3896L43.8211 56.6592C43.7402 56.6232 43.6773 56.5783 43.6054 56.5334L44.1536 56.9557C44.0817 56.8928 44.0188 56.8299 43.9559 56.758L44.3783 57.3062C44.2974 57.2074 44.2435 57.0905 44.1896 56.9737L44.4592 57.6208C44.3603 57.3871 44.3064 57.1355 44.2794 56.8839L44.3783 57.6028C44.3603 57.45 44.3424 57.2973 44.3334 57.1445C44.3513 56.776 44.2704 56.4255 44.0997 56.102C43.9918 55.7695 43.8031 55.4819 43.5425 55.2302C43.2998 54.9696 43.0123 54.7809 42.6707 54.673C42.3472 54.5023 42.0057 54.4304 41.6282 54.4393L40.9093 54.5382C40.4509 54.6641 40.0555 54.8977 39.723 55.2302L39.3006 55.7784C39.0579 56.2008 38.9321 56.6502 38.9321 57.1355L38.9141 57.1265Z" fill="#E7F2FD"/>
<path d="M28.8037 65.2509C30.2686 60.4428 31.7874 55.1584 35.6069 51.6354C37.1078 50.2514 39.031 49.3437 41.1969 48.9842C40.8015 49.0471 41.7181 48.9303 41.7002 48.9393C41.9518 48.9213 42.2034 48.9124 42.4551 48.9124C42.7516 48.9124 43.0572 48.9213 43.3538 48.9573C43.5964 48.9843 43.2639 48.9213 43.6683 49.0112C44.7198 49.2359 45.5556 49.5594 46.2117 50.0897C47.3441 51.0064 48.9168 51.1951 50.0222 50.0897C50.9659 49.146 51.1546 47.1958 50.0222 46.2792C44.9445 42.1631 37.8717 43.0617 32.8928 46.9172C27.6264 50.9973 25.4605 57.6927 23.6001 63.8219C22.5846 67.1472 27.7881 68.5672 28.8037 65.2599V65.2509Z" fill="#E7F2FD"/>
<path d="M89.6194 56.2278C89.4846 56.2008 89.3587 56.1559 89.2329 56.111L89.88 56.3806C89.7182 56.3087 89.5744 56.2188 89.4306 56.111L89.9788 56.5334C89.8171 56.4075 89.6823 56.2638 89.5564 56.102L89.9788 56.6502C89.844 56.4794 89.7362 56.2907 89.6553 56.084L89.9249 56.731C89.844 56.5333 89.7811 56.3177 89.7542 56.102L89.853 56.8209C89.8261 56.6232 89.8261 56.4165 89.853 56.2188L89.7542 56.9378C89.7811 56.767 89.8171 56.5963 89.889 56.4345L89.6194 57.0816C89.6553 57.0097 89.6823 56.9288 89.7272 56.8659C90.0687 56.2458 90.1855 55.4819 89.9968 54.7899C89.9159 54.4394 89.7542 54.1338 89.5115 53.8732C89.3228 53.5766 89.0711 53.3519 88.7566 53.1812C88.1275 52.8487 87.3726 52.6868 86.6806 52.9115C85.9886 53.1362 85.4134 53.5316 85.0719 54.1518C84.6675 54.8797 84.4428 55.6886 84.4428 56.5154C84.4428 56.6142 84.4428 56.7041 84.4608 56.794C84.4967 57.1085 84.5326 57.441 84.5956 57.7466C84.6854 58.133 84.8652 58.5195 85.0269 58.87C85.1078 59.0407 85.1977 59.1935 85.3055 59.3463C85.5302 59.6519 85.7819 60.0203 86.0874 60.281C86.6985 60.8112 87.3995 61.2696 88.2084 61.4403C88.5679 61.5572 88.9273 61.5661 89.2868 61.4853C89.6463 61.4673 89.9788 61.3595 90.2934 61.1617C90.6079 60.991 90.8596 60.7573 91.0483 60.4697C91.291 60.2091 91.4437 59.9035 91.5336 59.553C91.6864 58.861 91.6594 58.0881 91.264 57.477C90.8955 56.9108 90.3383 56.3806 89.6553 56.2368L89.6194 56.2278Z" fill="#E7F2FD"/>
<path d="M77.2352 55.2841C77.9721 50.9344 81.0457 47.2856 85.2607 46.1442C89.233 45.0748 94.1399 46.6386 96.6833 50.0447C97.555 51.213 99.0109 51.8061 100.368 51.0152C101.518 50.3412 102.21 48.4989 101.339 47.3306C97.3932 42.0371 90.6439 39.3051 84.1373 40.8778C78.071 42.3427 73.0741 47.717 72.0316 53.8642C71.789 55.3021 72.4091 56.767 73.9189 57.1804C75.2131 57.5399 76.9925 56.74 77.2352 55.2931V55.2841Z" fill="#E7F2FD"/>
<path d="M18.9808 36.4472C40.9902 39.1973 63.1344 35.0901 84.4158 29.626C90.4732 28.0712 96.4945 26.3996 102.516 24.7101C105.85 23.7754 104.439 18.5718 101.078 19.5065C80.2368 25.3391 59.0542 31.2527 37.2875 31.8908C31.1763 32.0705 25.056 31.8099 18.9808 31.055C17.5338 30.8752 16.2846 32.421 16.2846 33.7511C16.2846 35.3598 17.5248 36.2675 18.9808 36.4472Z" fill="#E7F2FD"/>
<path d="M58.2185 80.484C57.9938 81.0322 57.9219 81.6613 57.9129 82.2455C57.9039 82.8296 57.9938 83.4408 58.1825 83.998C58.3712 84.5552 58.6049 85.1034 58.9464 85.5707C59.1711 85.8763 59.4137 86.2088 59.6923 86.4784C59.9709 86.748 60.3214 87.0086 60.663 87.2333C61.1752 87.5568 61.7774 87.7905 62.3885 87.7905C63.2423 87.7905 63.9432 87.3861 64.5454 86.8289C65.0666 86.3526 65.4171 85.7055 65.6238 85.0404C65.9923 83.8541 65.7497 82.569 65.1924 81.4906C64.5184 80.1874 63.0266 79.2348 61.5437 79.3157C60.8337 79.3516 60.1507 79.5943 59.6384 80.1065C59.1711 80.5739 58.8206 81.3378 58.8476 82.0118C58.8745 82.6858 59.1082 83.4317 59.6384 83.917C60.1687 84.4023 60.8337 84.7439 61.5437 84.7079C61.6336 84.7079 61.7234 84.7079 61.8133 84.7169L61.0943 84.6181C61.1932 84.636 61.2831 84.663 61.3729 84.699L60.7259 84.4293C60.8337 84.4743 60.9415 84.5372 61.0314 84.6091L60.4832 84.1867C60.5911 84.2676 60.6809 84.3665 60.7618 84.4743L60.3394 83.926C60.4383 84.0608 60.5192 84.1957 60.5821 84.3485L60.3125 83.7014C60.3844 83.8811 60.4383 84.0608 60.4652 84.2586L60.3664 83.5396C60.3844 83.7193 60.3933 83.8901 60.3664 84.0699L60.4652 83.3509C60.4473 83.4857 60.4113 83.6115 60.3574 83.7373L60.627 83.0902C60.5821 83.1891 60.5281 83.279 60.4652 83.3688L60.8876 82.8206C60.8157 82.9105 60.7438 82.9824 60.654 83.0543L61.2022 82.6319C61.1393 82.6768 61.0764 82.7218 61.0045 82.7577H63.7275C63.5208 82.6679 63.3321 82.551 63.1524 82.4162L63.7006 82.8386C63.4939 82.6769 63.3231 82.4971 63.1614 82.2994L63.5838 82.8476C63.422 82.623 63.2782 82.3893 63.1704 82.1376L63.44 82.7847C63.3321 82.5151 63.2512 82.2365 63.2153 81.9399L63.3141 82.6589C63.2872 82.4072 63.2782 82.1466 63.3141 81.8949L63.2153 82.614C63.2512 82.3713 63.3052 82.1466 63.395 81.9219C63.5119 81.5625 63.5209 81.203 63.44 80.8435C63.422 80.484 63.3141 80.1515 63.1164 79.8369C62.7929 79.2797 62.1458 78.7405 61.5077 78.5967C60.8157 78.4439 60.0428 78.4709 59.4317 78.8663L58.8835 79.2887C58.551 79.6212 58.3173 80.0257 58.1915 80.475L58.2185 80.484Z" fill="#E7F2FD"/>
<path d="M101.806 23.0654C102.381 39.2512 104.727 55.383 108.816 71.0565C109.688 74.4087 114.891 72.9887 114.019 69.6186C110.047 54.3944 107.755 38.7928 107.198 23.0654C107.072 19.6054 101.68 19.5874 101.806 23.0654Z" fill="#E7F2FD"/>
<path d="M39.9836 103.374C57.4545 101.694 73.9728 94.9802 90.4013 89.2194C95.1465 87.5568 99.9006 85.8852 104.646 84.2226C106.021 83.7373 106.938 82.3803 106.533 80.9064C106.165 79.5763 104.601 78.5428 103.217 79.0191C94.9038 81.9399 86.5907 84.8517 78.2867 87.7725C70.2612 90.5855 62.2357 93.4434 53.9676 95.4924C49.3662 96.6338 44.7108 97.5325 39.9926 97.9819C38.5457 98.1167 37.2965 99.1232 37.2965 100.678C37.2965 102.026 38.5367 103.518 39.9926 103.374H39.9836Z" fill="#E7F2FD"/>
<path d="M50.1121 98.0717C47.8383 102.61 46.661 107.625 46.8138 112.703C46.8588 114.114 48.0271 115.462 49.51 115.399C50.9928 115.336 52.251 114.213 52.2061 112.703C52.1701 111.597 52.2061 110.492 52.296 109.387C52.3229 109.072 52.3589 108.757 52.3948 108.443C52.3409 108.928 52.3948 108.425 52.4308 108.218C52.5206 107.67 52.6195 107.131 52.7363 106.592C52.979 105.513 53.2756 104.444 53.644 103.401C53.7249 103.176 53.8058 102.952 53.8867 102.736C53.9226 102.637 54.3001 101.72 54.0574 102.287C54.2731 101.783 54.5158 101.28 54.7584 100.786C55.3875 99.5277 55.1359 97.8111 53.7878 97.1012C52.5656 96.4541 50.7771 96.7237 50.1031 98.0717H50.1121Z" fill="#E7F2FD"/>
<path d="M80.7401 94.9802C82.933 99.968 85.1348 104.956 87.3277 109.944C87.8939 111.238 89.889 111.642 91.0124 110.914C92.3514 110.052 92.5941 108.614 91.983 107.23C89.7901 102.242 87.5883 97.2539 85.3954 92.2661C84.8292 90.9719 82.8341 90.5675 81.7107 91.2955C80.3716 92.1582 80.129 93.5962 80.7401 94.9802Z" fill="#E7F2FD"/>
<path d="M17.7855 53.5496C13.0223 50.7726 10.2363 45.9196 8.80735 40.5903C7.3784 35.2609 7.0279 28.7632 8.16028 23.0205C8.83431 19.6054 10.0655 16.379 12.555 13.8896C15.0444 11.4001 11.2069 7.62556 8.74444 10.079C3.39712 15.4084 2.11196 23.3709 2.14791 30.6235C2.18386 37.3279 3.48699 44.3738 7.00993 50.1705C9.00507 53.4598 11.7371 56.2637 15.0714 58.205C18.0731 59.9574 20.7961 55.3021 17.7945 53.5496H17.7855Z" fill="#E7F2FD"/>
<path d="M109.337 52.7408C115.556 48.2383 117.057 40.4195 118.243 33.3017C119.672 24.7101 120.256 15.9926 119.924 7.29305C119.87 5.83714 118.72 4.59692 117.228 4.59692C115.808 4.59692 114.478 5.82816 114.532 7.29305C114.828 15.2197 114.424 23.1822 113.184 31.019C112.635 34.461 112.042 37.966 110.955 41.2912C110.119 43.8525 108.789 46.5307 106.614 48.0945C105.437 48.9482 104.861 50.4401 105.643 51.7792C106.326 52.9385 108.142 53.6035 109.328 52.7498L109.337 52.7408Z" fill="#E7F2FD"/>
<path d="M147.595 2.5928C147.029 17.5743 150.21 32.5109 156.663 46.0275C157.292 47.3396 159.171 47.6901 160.348 46.9981C161.696 46.2162 161.948 44.6255 161.318 43.3134C155.279 30.6595 152.457 16.6037 152.978 2.6018C153.104 -0.867225 147.712 -0.867225 147.586 2.6018L147.595 2.5928Z" fill="#E7F2FD"/>
<path d="M166.028 25.465C159.278 39.9522 155.98 55.9043 156.618 71.8834C156.672 73.3393 157.814 74.5795 159.314 74.5795C160.734 74.5795 162.064 73.3483 162.011 71.8834C161.417 56.8839 164.347 41.8036 170.683 28.1881C171.294 26.867 171.052 25.2852 169.712 24.5034C168.544 23.8203 166.639 24.1439 166.028 25.474V25.465Z" fill="#E7F2FD"/>
<path d="M175.033 42.4865L175.051 42.5135L174.628 41.9653C174.673 42.0282 174.709 42.0911 174.745 42.163L174.476 41.5159C174.512 41.5968 174.529 41.6777 174.538 41.7586L174.44 41.0396C174.449 41.1475 174.449 41.2463 174.44 41.3452L174.538 40.6262C174.521 40.752 174.485 40.8689 174.44 40.9857L174.709 40.3386C174.655 40.4644 174.583 40.5813 174.494 40.6891L174.916 40.1409C174.835 40.2398 174.745 40.3296 174.646 40.4105L175.195 39.9882C175.105 40.0601 175.006 40.114 174.898 40.1589L175.545 39.8893C175.455 39.9252 175.365 39.9522 175.275 39.9612L175.994 39.8623C175.914 39.8713 175.824 39.8713 175.743 39.8623L176.462 39.9612C176.381 39.9522 176.309 39.9342 176.237 39.9072L177.846 43.8705C177.954 43.6189 178.088 43.3853 178.259 43.1696L177.837 43.7178C178.007 43.5021 178.196 43.3133 178.412 43.1426L177.864 43.565C178.079 43.4032 178.313 43.2594 178.565 43.1516L177.918 43.4212C177.918 43.4212 177.99 43.3942 178.025 43.3763L174.61 40.779C174.628 40.9407 174.628 41.0935 174.61 41.2553L174.709 40.5364C174.682 40.7071 174.637 40.8779 174.574 41.0306L174.844 40.3836C174.772 40.5543 174.682 40.7161 174.565 40.8599L174.988 40.3117C174.889 40.4375 174.772 40.5453 174.646 40.6532L175.195 40.2308C175.096 40.3027 174.988 40.3656 174.88 40.4285L176.956 40.1589C176.857 40.132 176.767 40.096 176.677 40.06L177.324 40.3296C177.163 40.2577 177.019 40.1679 176.875 40.069L177.423 40.4914C177.28 40.3746 177.145 40.2488 177.028 40.096L177.45 40.6442C177.333 40.5004 177.244 40.3386 177.172 40.1679L177.441 40.815C177.396 40.7161 177.36 40.6082 177.333 40.5004C177.253 40.1499 177.091 39.8444 176.848 39.5837C176.659 39.2872 176.408 39.0625 176.093 38.8917C175.788 38.694 175.446 38.5862 175.087 38.5682C174.727 38.4873 174.368 38.5053 174.008 38.6131L173.361 38.8827C172.957 39.1254 172.633 39.4489 172.391 39.8533L172.121 40.5004C171.995 40.9767 171.995 41.453 172.121 41.9383C172.139 42.0192 172.166 42.0911 172.193 42.172C172.301 42.4596 172.418 42.7472 172.552 43.0168C172.723 43.3493 172.984 43.6549 173.217 43.9335C173.325 44.0683 173.442 44.1851 173.568 44.284C173.864 44.5176 174.161 44.7872 174.503 44.949C174.772 45.0838 175.051 45.2007 175.338 45.2995C175.374 45.3085 175.41 45.3265 175.446 45.3354C175.464 45.3354 175.482 45.3444 175.5 45.3534C175.626 45.3894 175.752 45.4074 175.878 45.4074C176.12 45.4703 176.354 45.4703 176.597 45.4074C177.064 45.3444 177.1 45.3355 177.612 45.0748C177.63 45.0748 177.648 45.0568 177.666 45.0478C177.702 45.0299 177.729 45.0119 177.765 44.9939C178.025 44.8322 178.259 44.6345 178.493 44.4457C178.789 44.2031 179.014 43.8706 179.239 43.574C179.338 43.4482 179.418 43.3044 179.481 43.1606C179.643 42.8101 179.841 42.4146 179.904 42.0192C179.967 41.6238 180.057 41.1834 180.003 40.77C180.003 40.2847 179.877 39.8264 179.634 39.413C179.463 39.0984 179.23 38.8468 178.942 38.658C178.682 38.4154 178.376 38.2626 178.025 38.1727C177.549 38.0469 177.073 38.0469 176.588 38.1727C176.183 38.3255 175.761 38.4873 175.392 38.7209C175.204 38.8378 175.042 38.9726 174.862 39.1074C174.682 39.2422 174.503 39.377 174.341 39.5298C174.026 39.8264 173.766 40.1949 173.514 40.5454C173.379 40.7341 173.271 40.9318 173.181 41.1385C172.939 41.5609 172.813 42.0102 172.813 42.4955C172.795 42.864 172.876 43.2145 173.047 43.538C173.154 43.8705 173.343 44.1582 173.604 44.4098C173.936 44.7423 174.341 44.976 174.79 45.1018C174.862 45.1288 174.943 45.1468 175.015 45.1557C175.204 45.1827 175.626 45.2726 175.905 45.2546C176.65 45.2096 176.956 45.1018 177.621 44.8052C177.684 44.7783 177.738 44.7513 177.801 44.7153C178.043 44.5625 178.268 44.3739 178.484 44.1941C178.762 43.9604 178.987 43.6279 179.185 43.3493C179.383 43.0707 179.526 42.6663 179.652 42.3428C179.679 42.2799 179.697 42.2169 179.715 42.145C179.778 41.8574 179.814 41.5519 179.841 41.2553C179.841 41.1834 179.841 41.1025 179.841 41.0306C179.814 40.743 179.796 40.4375 179.715 40.1499C179.634 39.8623 179.508 39.6017 179.383 39.3501C179.257 39.0984 179.023 38.8558 178.852 38.6311C178.61 38.3705 178.322 38.1817 177.981 38.0739C177.657 37.9031 177.315 37.8312 176.938 37.8402C176.57 37.8223 176.219 37.9031 175.896 38.0739C175.563 38.1817 175.275 38.3705 175.024 38.6311L174.601 39.1793C174.359 39.6017 174.233 40.0511 174.233 40.5364L174.332 41.2553C174.458 41.7137 174.691 42.1091 175.024 42.4416L175.033 42.4865Z" fill="#E7F2FD"/>
<path d="M180.03 32.6906C181.153 33.814 181.818 34.7127 182.609 36.2854C183.013 37.0943 183.049 37.1752 183.337 38.0829C183.597 38.8827 183.777 39.6916 183.93 40.5184C183.957 40.6622 183.993 40.9228 183.957 40.6262C183.984 40.806 184.002 40.9947 184.02 41.1834C184.056 41.5968 184.083 42.0192 184.083 42.4326C184.101 43.2235 184.065 44.0144 183.966 44.7963C184.011 44.4188 183.939 44.8951 183.921 45.0389C183.885 45.2187 183.849 45.3984 183.813 45.5871C183.723 45.9916 183.624 46.3959 183.499 46.8004C183.391 47.1599 183.265 47.5014 183.139 47.8519C182.995 48.2563 183.139 47.8698 183.04 48.1035C182.941 48.3192 182.843 48.5259 182.735 48.7326C182.088 50.0357 182.384 51.6534 183.705 52.4173C184.901 53.1183 186.743 52.7589 187.39 51.4467C191.084 44.0683 189.709 34.7487 183.84 28.8711C181.387 26.4086 177.567 30.2282 180.03 32.6817V32.6906Z" fill="#E7F2FD"/>
<path d="M198.642 45.2097C198.66 45.2816 198.669 45.3535 198.678 45.4254L198.579 44.7064C198.606 44.9221 198.606 45.1468 198.579 45.3625L198.678 44.6435C198.642 44.8772 198.588 45.1018 198.498 45.3175L198.768 44.6704C198.678 44.8771 198.57 45.0659 198.444 45.2456L198.867 44.6974C198.777 44.8143 198.678 44.9221 198.57 45.0209C198.309 45.2636 198.121 45.5512 198.013 45.8927C197.842 46.2162 197.77 46.5577 197.779 46.9352C197.761 47.3037 197.842 47.6541 198.013 47.9777C198.121 48.3102 198.309 48.5978 198.57 48.8495L199.118 49.2718C199.541 49.5145 199.99 49.6403 200.475 49.6403L201.194 49.5414C201.653 49.4156 202.048 49.182 202.381 48.8495C202.47 48.7686 202.542 48.6877 202.623 48.5978C202.83 48.3462 203.046 48.0856 203.225 47.798C203.288 47.6991 203.351 47.5822 203.396 47.4744C203.531 47.1688 203.675 46.8633 203.783 46.5398C203.818 46.4319 203.845 46.3151 203.863 46.1982C203.917 45.8567 203.98 45.5152 203.998 45.1737C203.998 45.0569 203.998 44.94 203.998 44.8232C203.971 44.4727 203.926 44.1222 203.845 43.7807C203.765 43.4302 203.603 43.1246 203.36 42.864C203.171 42.5674 202.92 42.3428 202.605 42.172C202.3 41.9743 201.958 41.8664 201.599 41.8485C201.239 41.7676 200.88 41.7856 200.52 41.8934L199.873 42.163C199.469 42.4057 199.145 42.7293 198.903 43.1337L198.633 43.7807C198.507 44.257 198.507 44.7333 198.633 45.2186L198.642 45.2097Z" fill="#E7F2FD"/>
<path d="M198.354 35.3778C199.046 35.6834 199.711 36.0248 200.358 36.4113C200.682 36.6 200.996 36.8067 201.311 37.0135C201.455 37.1123 201.59 37.2111 201.733 37.31C201.814 37.3729 202.398 37.7683 201.841 37.3819C203.028 38.2087 204.07 39.3591 204.978 40.4735C205.211 40.7611 205.238 40.6442 204.996 40.4915C205.104 40.5634 205.283 40.8779 205.355 40.9857C205.553 41.2643 205.742 41.5519 205.921 41.8395C206.326 42.4776 206.685 43.1336 207.009 43.8166C207.081 43.9694 207.153 44.1312 207.225 44.284C207.368 44.5806 207.045 43.8167 207.225 44.302C207.368 44.6884 207.521 45.0659 207.647 45.4613C207.881 46.1803 208.069 46.9082 208.213 47.6452C208.492 49.0292 210.217 49.9549 211.529 49.5325C213.003 49.0562 213.713 47.6991 213.417 46.2162C212.078 39.5298 207.296 33.4995 201.059 30.7314C199.774 30.1652 198.103 30.309 197.375 31.702C196.755 32.8704 196.961 34.7846 198.345 35.3867L198.354 35.3778Z" fill="#E7F2FD"/>
<path d="M176.624 71.5059C177.729 72.827 178.834 74.1391 179.931 75.4602C180.173 75.7209 180.461 75.9096 180.803 76.0174C181.126 76.1882 181.468 76.2601 181.845 76.2511C182.51 76.2511 183.292 75.9545 183.75 75.4602C184.209 74.9659 184.568 74.2739 184.541 73.555L184.442 72.836C184.316 72.3777 184.083 71.9822 183.75 71.6497C182.645 70.3286 181.539 69.0165 180.443 67.6954C180.2 67.4347 179.913 67.246 179.571 67.1382C179.248 66.9674 178.906 66.8955 178.529 66.9045C177.864 66.9045 177.082 67.2011 176.624 67.6954C176.165 68.1897 175.806 68.8817 175.833 69.6006L175.932 70.3196C176.057 70.778 176.291 71.1734 176.624 71.5059Z" fill="#E7F2FD"/>
<path d="M217.874 55.9043C213.417 64.442 209.426 73.2314 205.912 82.2006C204.169 86.6402 202.56 91.1337 201.068 95.6632C200.718 96.7327 200.394 97.8021 200.035 98.8716C199.99 99.0064 200.017 99.2491 199.999 99.0424L199.927 99.1682C199.631 99.6445 199.981 99.4917 200.979 98.6919C200.664 98.4582 199.765 98.3863 199.397 98.2964C196.934 97.7033 194.463 97.1101 192 96.517C186.419 95.1779 180.829 93.8299 175.248 92.4908C171.878 91.682 170.44 96.8765 173.811 97.6943C179.032 98.9525 184.254 100.202 189.475 101.46C192.081 102.089 194.697 102.718 197.303 103.338C198.543 103.635 199.882 104.102 201.167 104.057C202.686 104.003 203.935 103.069 204.645 101.765C205.185 100.768 205.454 99.5816 205.805 98.5032C206.218 97.236 206.631 95.9688 207.063 94.7106C207.854 92.3829 208.681 90.0733 209.534 87.7726C211.26 83.1262 213.12 78.5248 215.124 73.9863C217.425 68.7918 219.896 63.6692 222.53 58.6364C223.204 57.3423 222.862 55.7066 221.559 54.9517C220.346 54.2417 218.548 54.6281 217.874 55.9223V55.9043Z" fill="#E7F2FD"/>
<path d="M174.404 95.3037C171.402 104.156 169.506 113.323 168.643 122.624C168.508 124.08 169.982 125.321 171.339 125.321C172.912 125.321 173.9 124.08 174.035 122.624C174.853 113.808 176.758 105.118 179.607 96.7417C180.075 95.3666 179.068 93.7939 177.72 93.4254C176.246 93.021 174.871 93.9287 174.404 95.3127V95.3037Z" fill="#E7F2FD"/>
<path d="M182.663 96.9754C180.722 105.378 179.751 114.006 179.805 122.643C179.823 126.112 185.215 126.121 185.197 122.643C185.143 114.473 186.024 106.367 187.866 98.4133C188.19 96.9933 187.426 95.4925 185.979 95.097C184.613 94.7196 182.995 95.5554 182.663 96.9844V96.9754Z" fill="#E7F2FD"/>
<path d="M220.66 128.511C219.052 130.929 217.443 133.346 215.834 135.764C215.457 136.33 215.385 137.202 215.565 137.84C215.744 138.478 216.221 139.143 216.805 139.448C218.162 140.167 219.654 139.736 220.49 138.478L225.316 131.225C225.693 130.659 225.765 129.787 225.585 129.149C225.405 128.511 224.929 127.846 224.345 127.541C222.988 126.822 221.496 127.253 220.66 128.511Z" fill="#E7F2FD"/>
<path d="M227.985 132.582L225.549 137.408C225.226 138.055 225.082 138.765 225.28 139.484C225.45 140.113 225.936 140.787 226.52 141.093C227.149 141.426 227.904 141.587 228.596 141.363C229.243 141.156 229.89 140.752 230.205 140.122L232.64 135.296C232.964 134.649 233.107 133.939 232.91 133.22C232.739 132.591 232.254 131.917 231.67 131.612C231.04 131.279 230.286 131.117 229.593 131.342C228.946 131.549 228.299 131.953 227.985 132.582Z" fill="#E7F2FD"/>
<path d="M126.52 31.693C125.873 29.9226 125.415 28.1072 125.127 26.2468C125.02 25.5459 125.19 26.84 125.118 26.139C125.091 25.8964 125.065 25.6537 125.047 25.4111C125.011 24.9617 124.975 24.5123 124.957 24.054C124.921 23.0834 124.939 22.1038 125.002 21.1332C125.1 19.7222 123.689 18.3741 122.305 18.4371C120.76 18.509 119.708 19.6234 119.609 21.1332C119.34 25.1774 119.924 29.3205 121.317 33.131C121.802 34.4521 123.168 35.4856 124.633 35.0183C125.927 34.5959 127.033 33.122 126.52 31.702V31.693Z" fill="#E7F2FD"/>
<path d="M134.591 29.9765L135.418 23.5328C135.499 22.8947 135.058 22.0589 134.627 21.6275C134.159 21.1601 133.396 20.8097 132.721 20.8367C132.047 20.8636 131.302 21.0972 130.816 21.6275L130.394 22.1757C130.151 22.5981 130.025 23.0475 130.025 23.5328L129.199 29.9765C129.118 30.6146 129.558 31.4504 129.989 31.8818C130.457 32.3491 131.221 32.6996 131.895 32.6727C132.569 32.6457 133.315 32.412 133.8 31.8818L134.222 31.3336C134.465 30.9112 134.591 30.4618 134.591 29.9765Z" fill="#E7F2FD"/>
</svg>
