<svg width="39" height="80" viewBox="0 0 39 80" fill="none" xmlns="http://www.w3.org/2000/svg">
<path d="M4.11433 77.2657C2.87424 75.4787 10.1053 72.7927 16.9892 71.8611C18.8823 71.605 27.2626 70.4745 31.6029 72.4304C34.9539 73.9396 34.411 76.6201 31.6029 78.1183C25.3005 81.4799 5.87525 79.7991 4.11433 77.2657Z" fill="#725F2B"/>
<path d="M0 36.6577L24.2753 28.3301C24.2753 28.3301 30.1258 49.8232 31.793 51.5639C27.4141 55.8652 23.41 58.4395 9.97304 62.1361C7.07124 50.7385 0 36.6577 0 36.6577Z" fill="#FFCC3F"/>
<path d="M26 3.44867L35.9261 0C35.9261 0 38.3183 8.90089 39 9.62176C37.2095 11.4031 35.5722 12.4691 30.0779 14C28.8914 9.27993 26 3.44867 26 3.44867Z" fill="#FFCC3F"/>
<path d="M10.797 38.9268C10.8246 38.6708 10.7777 39.014 10.8053 38.8669C10.8163 38.8015 10.8301 38.7389 10.8466 38.6735C10.8714 38.5727 10.9017 38.4719 10.9348 38.3738C10.9293 38.3875 11.023 38.1505 10.9761 38.2567C10.9403 38.3439 11.0037 38.1968 11.0147 38.1804C11.0781 38.0551 11.147 37.9325 11.2242 37.8154C11.2517 37.7745 11.4088 37.5621 11.3234 37.671C11.4033 37.5702 11.4915 37.4749 11.5824 37.3823C11.6568 37.3087 11.7312 37.2379 11.8111 37.1698C11.8607 37.1262 11.9103 37.0853 11.9627 37.0445C12.0068 37.0091 12.004 37.0118 11.9517 37.0527C11.9848 37.0281 12.0151 37.0063 12.0481 36.9845C12.8749 36.4506 13.6933 36.1864 14.6275 36.1918C14.7515 36.1918 14.8728 36.1973 14.9968 36.2055C15.0519 36.2109 15.1043 36.2136 15.1594 36.2218C15.0106 36.2055 15.1869 36.2273 15.2228 36.2327C15.4763 36.2817 15.7271 36.3417 15.9696 36.4261C15.953 36.4207 16.1983 36.516 16.0991 36.4751C16.0164 36.4397 16.1707 36.5078 16.1873 36.516C16.3003 36.5732 16.4132 36.6304 16.5207 36.6958C16.8018 36.8647 16.9423 36.9655 17.1711 37.1698C17.9813 37.8944 18.4883 38.8124 18.7722 39.8421C19.1028 41.0353 19.1028 42.3047 18.7969 43.4951C18.5352 44.5139 20.128 44.9498 20.3925 43.931C21.076 41.2641 20.5276 38.1042 18.4745 36.1374C17.4962 35.203 16.2755 34.6473 14.9169 34.5628C13.6988 34.4893 12.4119 34.8162 11.3812 35.4618C10.1246 36.249 9.30066 37.4585 9.14358 38.9296C9.09674 39.3681 9.55695 39.7468 9.97031 39.7468C10.4553 39.7468 10.7502 39.3709 10.797 38.9296V38.9268Z" fill="black"/>
<path d="M16.0688 41.9996C16.1762 41.9206 16.2892 41.8416 16.3857 41.7463C16.4821 41.6509 16.562 41.542 16.6419 41.433C16.7632 41.2696 16.8459 41.0762 16.912 40.8855C16.9781 40.6948 17.0085 40.4796 17.0195 40.278C17.0222 40.2099 17.0195 40.1418 17.0112 40.0737C16.9947 39.9348 16.9809 39.7931 16.9396 39.6569C16.8817 39.458 16.7411 39.2728 16.5593 39.1693C16.3774 39.0658 16.1211 39.0222 15.9227 39.0876C15.7243 39.1529 15.5286 39.2728 15.4294 39.4635C15.3302 39.6542 15.2834 39.8776 15.3467 40.0928C15.3633 40.1527 15.3771 40.2126 15.3853 40.2726L15.355 40.0546C15.3688 40.169 15.3688 40.2862 15.355 40.4006L15.3853 40.1827C15.3688 40.3052 15.333 40.4224 15.2861 40.5368L15.3688 40.3407C15.3219 40.4469 15.2613 40.5477 15.1897 40.6403L15.3192 40.4741C15.253 40.5531 15.1814 40.6267 15.0987 40.6893L15.2668 40.5613C15.2668 40.5613 15.2448 40.5776 15.2338 40.5858C15.1373 40.6376 15.0602 40.7084 15.0023 40.7956C14.9279 40.8746 14.881 40.9672 14.8535 41.0734C14.7983 41.2696 14.8232 41.5284 14.9361 41.7027C15.0491 41.877 15.22 42.0296 15.4294 42.0786C15.6389 42.1277 15.8896 42.1249 16.066 41.9969L16.0688 41.9996Z" fill="black"/>
<path d="M19.8772 35.2765C21.4314 34.1488 23.6388 34.5192 25.1131 35.7069C26.9016 37.1534 27.7118 39.4253 28.2905 41.5583C28.5661 42.5744 30.1616 42.1412 29.8861 41.1224C29.3404 39.1121 28.5936 37.1153 27.2323 35.4972C25.9646 33.9908 24.0852 32.9965 22.0845 32.9583C21.0098 32.9393 19.913 33.2307 19.0422 33.8627C18.684 34.1242 18.5048 34.571 18.7446 34.9796C18.9513 35.331 19.5134 35.5353 19.8744 35.2738L19.8772 35.2765Z" fill="black"/>
<path d="M23.8482 37.7718C23.8482 37.7718 23.8234 37.7718 23.8124 37.7718C23.7407 37.7773 23.6415 37.78 23.5644 37.8072C23.399 37.8644 23.2805 37.9216 23.1565 38.0442C23.1014 38.0987 23.0573 38.1641 23.0105 38.2295C23.005 38.2376 22.9995 38.2458 22.9939 38.2567C22.9609 38.3248 22.9085 38.4229 22.8947 38.51C22.8809 38.589 22.8672 38.6735 22.8617 38.7579C22.8617 38.7688 22.8617 38.7825 22.8617 38.7934C22.8617 38.7988 22.8617 38.8042 22.8617 38.8097C22.8699 38.8832 22.881 38.965 22.892 39.0385C22.892 39.0494 22.8975 39.0603 22.9002 39.0712C22.925 39.1584 22.9609 39.2455 23.0077 39.3245C23.0463 39.3926 23.1069 39.458 23.1538 39.5125C23.1593 39.5207 23.1675 39.5289 23.1758 39.5343C23.2998 39.6405 23.4293 39.7359 23.5947 39.7713C23.7738 39.8094 23.9199 39.8176 24.1017 39.7686C24.2092 39.7441 24.3029 39.695 24.3828 39.6215C24.4738 39.5643 24.5427 39.488 24.595 39.3926C24.6557 39.3 24.6887 39.1965 24.6942 39.0876C24.719 38.9786 24.7135 38.8696 24.6805 38.7607L24.5978 38.5645C24.5234 38.4419 24.4242 38.3439 24.3002 38.2703L24.1017 38.1886C23.9557 38.1505 23.8096 38.1505 23.6608 38.1886C23.6526 38.1886 23.647 38.1913 23.6388 38.1941L23.8592 38.1641C23.8592 38.1641 23.8344 38.1641 23.8234 38.1641L24.0439 38.1941C24.0439 38.1941 24.0246 38.1886 24.0136 38.1859L24.212 38.2676C24.212 38.2676 24.1927 38.2567 24.1844 38.2513L24.3525 38.3793C24.3525 38.3793 24.3332 38.3629 24.325 38.352L24.4545 38.5182C24.4435 38.5046 24.4352 38.4882 24.4269 38.4719L24.5096 38.668C24.4986 38.6462 24.4931 38.6217 24.4903 38.5972L24.5206 38.8151C24.5179 38.7879 24.5179 38.7607 24.5206 38.7334L24.4903 38.9513C24.4931 38.9323 24.4986 38.9132 24.5068 38.8941L24.4242 39.0903C24.4297 39.0767 24.4379 39.063 24.4462 39.0521L24.3167 39.2183C24.3167 39.2183 24.3305 39.202 24.3387 39.1965L24.1706 39.3245C24.1706 39.3245 24.1872 39.3137 24.1954 39.3109L23.997 39.3926C23.997 39.3926 24.0163 39.3872 24.0273 39.3845L23.8069 39.4144C23.8069 39.4144 23.8317 39.4144 23.8455 39.4144C23.9584 39.4199 24.0659 39.3954 24.1651 39.3436C24.2671 39.3109 24.3553 39.2537 24.4324 39.1747C24.5124 39.1012 24.5702 39.014 24.6033 38.9105C24.6556 38.8124 24.6777 38.7089 24.6749 38.5945L24.6446 38.3766C24.6061 38.2376 24.5344 38.1178 24.4324 38.017L24.2643 37.889C24.1348 37.8154 23.997 37.7773 23.8482 37.7773V37.7718Z" fill="black"/>
<path d="M18.0749 51.1771C22.0983 51.1852 26.0859 50.1637 29.605 48.2378C30.5364 47.7284 29.7042 46.3146 28.77 46.8267C25.5017 48.6164 21.809 49.5508 18.0749 49.5426C17.0112 49.5426 17.0085 51.1743 18.0749 51.1771Z" fill="black"/>
<path d="M2.16326 33.9172C3.00376 38.8478 4.14188 43.7294 5.58589 48.5211C5.99374 49.8804 6.42915 51.2343 6.88385 52.58C7.02439 52.9995 7.45429 53.2719 7.90072 53.152C8.31408 53.0403 8.61996 52.5663 8.47942 52.1468C6.87282 47.4042 5.55559 42.5689 4.54423 37.6683C4.25763 36.2763 3.99583 34.8816 3.75883 33.4814C3.68443 33.0455 3.14156 32.8031 2.74198 32.9093C2.27626 33.0373 2.08886 33.4787 2.16326 33.9145V33.9172Z" fill="black"/>
<path d="M4.29069 31.0896C10.2651 29.4715 16.2424 27.8562 22.2168 26.238C23.8978 25.7831 25.5816 25.3282 27.2626 24.8733L26.2154 24.086C26.6343 29.6105 27.8551 35.0668 29.8778 40.2317C30.4565 41.7109 31.0986 43.1683 31.7958 44.5957C31.9914 44.9934 32.5619 45.0996 32.9256 44.8899C33.3362 44.6529 33.4161 44.1707 33.2232 43.773C30.8643 38.9568 29.2384 33.7947 28.3842 28.5099C28.1472 27.0444 27.9791 25.5679 27.8661 24.086C27.8275 23.563 27.37 23.1489 26.8189 23.2988C20.8444 24.9169 14.8672 26.5322 8.89277 28.1504C7.21177 28.6053 5.52801 29.0602 3.84701 29.5151C2.82187 29.793 3.25729 31.3702 4.28794 31.0924L4.29069 31.0896Z" fill="black"/>
<path d="M9.89588 58.7391C16.9919 58.2624 23.8207 55.5029 29.2798 51.0082C30.7872 49.766 32.1761 48.3876 33.4299 46.8948C33.7138 46.5543 33.7661 46.0721 33.4299 45.7398C33.1378 45.451 32.5481 45.3993 32.2615 45.7398C27.9515 50.872 22.0129 54.5577 15.479 56.2139C13.6409 56.6797 11.7836 56.9794 9.89588 57.1047C9.44945 57.1347 9.06916 57.4588 9.06916 57.9219C9.06916 58.3414 9.4467 58.7691 9.89588 58.7391Z" fill="black"/>
<path d="M19.3261 56.094C19.2957 61.4932 19.9681 66.8978 21.3102 72.1307C21.572 73.1495 23.1676 72.7192 22.9058 71.6949C21.5968 66.5954 20.9519 61.3542 20.9795 56.094C20.985 55.0425 19.3316 55.0398 19.3261 56.094Z" fill="black"/>
<path d="M24.9395 52.2776C24.9092 57.9301 25.6835 63.5962 27.2433 69.0362C27.6787 70.5535 28.1747 72.0518 28.7314 73.531C28.8857 73.945 29.2908 74.2256 29.7483 74.103C30.1506 73.994 30.4813 73.5146 30.327 73.0978C28.3869 67.9302 27.1661 62.5011 26.7583 57.0039C26.6398 55.4321 26.5874 53.8549 26.5957 52.2776C26.6012 51.2261 24.9478 51.2234 24.9423 52.2776H24.9395Z" fill="black"/>
<path d="M3.48327 41.008C1.13537 48.9351 0.330694 57.3199 1.14088 65.5412C1.37237 67.8948 1.73062 70.2375 2.21839 72.5503C2.30933 72.9834 2.82465 73.2313 3.23526 73.1223C3.68996 72.9997 3.9049 72.5503 3.81396 72.1171C2.16327 64.2445 2.04752 56.045 3.48327 48.1315C3.89387 45.876 4.42574 43.6422 5.07885 41.4439C5.37923 40.4332 3.78364 40.0001 3.48327 41.008Z" fill="black"/>
<path d="M31.2391 36.8756C33.9673 30.2179 35.4361 23.059 35.5711 15.8783C35.6097 13.8571 35.5381 11.8331 35.3645 9.81723C35.3259 9.37865 35.0117 9 34.5377 9C34.1189 9 33.6724 9.37592 33.711 9.81723C34.3228 16.859 33.6201 23.9798 31.6332 30.7709C31.071 32.6941 30.4041 34.5874 29.6436 36.4425C29.4755 36.8511 29.8254 37.3414 30.2223 37.4477C30.6962 37.5757 31.071 37.2869 31.2391 36.8756Z" fill="black"/>
<path d="M21.6519 71.2264C21.098 71.5723 20.624 72.0763 20.3539 72.6728C20.2189 72.9725 20.1059 73.2721 20.0563 73.5963C19.9957 74.0022 19.9984 74.3618 20.0591 74.7704C20.0866 74.9502 20.2795 75.1763 20.4394 75.258C20.6405 75.3643 20.85 75.3888 21.0759 75.3397C22.3022 75.0728 23.2309 73.8714 23.2006 72.6374C23.1896 72.2097 22.8286 71.8011 22.3739 71.8202C21.9192 71.8393 21.5361 72.1798 21.5472 72.6374C21.5472 72.7355 21.5444 72.8336 21.5306 72.9344L21.5609 72.7164C21.5361 72.8772 21.492 73.0297 21.4314 73.1795L21.5141 72.9834C21.4452 73.1441 21.357 73.2912 21.2495 73.4301L21.3791 73.264C21.2716 73.4002 21.1476 73.5228 21.0098 73.6317L21.1779 73.5037C21.0484 73.6018 20.9106 73.6808 20.759 73.7461L20.9574 73.6644C20.8527 73.708 20.7452 73.7407 20.635 73.7652L21.6519 74.3373L21.6464 74.2991L21.6767 74.5171C21.6464 74.291 21.6464 74.0621 21.6767 73.836L21.6464 74.054C21.6794 73.8142 21.7456 73.5827 21.8393 73.3593L21.7566 73.5555C21.8475 73.3457 21.9633 73.1468 22.1038 72.9643L21.9743 73.1305C22.1176 72.948 22.2774 72.7873 22.4621 72.6483L22.294 72.7764C22.3546 72.7301 22.418 72.6865 22.4841 72.6456C22.8479 72.4168 23.0297 71.9074 22.7817 71.5287C22.5337 71.1501 22.0404 70.9921 21.6519 71.2345V71.2264Z" fill="black"/>
<path d="M29.1613 72.5802C29.0979 72.7001 29.0373 72.8336 29.0125 72.9698C28.9739 73.2068 28.9739 73.3457 29.0125 73.5854C29.0455 73.7897 29.142 73.994 29.2688 74.1602C29.4396 74.3836 29.6243 74.5797 29.8778 74.7186C30.1313 74.8575 30.4014 74.9366 30.6852 74.9338C31.0076 74.9338 31.3053 74.8249 31.556 74.6342C31.6966 74.5252 31.7903 74.4271 31.895 74.2773C31.9694 74.1711 32.019 74.043 32.0603 73.9232C32.1017 73.8033 32.1154 73.6644 32.1265 73.5336C32.132 73.4655 32.1265 73.4002 32.121 73.3321C32.1044 73.1959 32.0906 73.0596 32.0466 72.9289C32.0025 72.7981 31.9501 72.6756 31.884 72.5584C31.7434 72.316 31.5395 72.1062 31.297 71.9618C31.2667 71.9428 31.2364 71.9292 31.2033 71.9155C31.1096 71.8747 31.0132 71.8256 30.9112 71.8038C30.7734 71.7711 30.6191 71.7466 30.473 71.763C30.36 71.7575 30.2526 71.7821 30.1534 71.8338C30.0514 71.8665 29.9632 71.9237 29.8861 72.0027C29.7428 72.1444 29.6353 72.3759 29.6436 72.5802C29.6518 72.7845 29.7235 73.0106 29.8861 73.1577C30.0376 73.2939 30.2581 73.422 30.4703 73.3974C30.5254 73.392 30.5777 73.392 30.6329 73.3974L30.4124 73.3675C30.4648 73.3757 30.5144 73.3893 30.5612 73.4083L30.3628 73.3266C30.4179 73.3511 30.4703 73.3811 30.5199 73.4165L30.3518 73.2885C30.4096 73.3321 30.4593 73.3838 30.5033 73.441L30.3738 73.2749C30.4234 73.3402 30.4675 73.4138 30.5006 73.49L30.4179 73.2939C30.4537 73.3756 30.4758 73.4601 30.4896 73.5473L30.4592 73.3293C30.4703 73.4111 30.4703 73.4901 30.4592 73.5718L30.4896 73.3538C30.4813 73.4138 30.4648 73.471 30.4427 73.5282L30.5254 73.3321C30.5033 73.3784 30.4785 73.422 30.4482 73.4628L30.5777 73.2966C30.5447 73.3375 30.5061 73.3756 30.4648 73.4083L30.6329 73.2803C30.5888 73.313 30.5447 73.3375 30.4951 73.3593L30.6935 73.2776C30.6439 73.2966 30.597 73.3103 30.5447 73.3184L30.7651 73.2885C30.7045 73.2966 30.6439 73.2966 30.5805 73.2885L30.801 73.3184C30.7293 73.3075 30.6577 73.2885 30.5915 73.2585L30.7899 73.3402C30.7155 73.3075 30.6466 73.2667 30.5833 73.2176L30.7514 73.3457C30.6825 73.2939 30.6218 73.2313 30.5667 73.1659L30.6962 73.3321C30.6466 73.2694 30.6053 73.2013 30.575 73.1278L30.6577 73.3239C30.6329 73.2612 30.6136 73.1986 30.6053 73.1332L30.6356 73.3511C30.6301 73.2967 30.6301 73.2394 30.6356 73.185L30.6053 73.4029C30.6136 73.3511 30.6273 73.3021 30.6494 73.2531L30.5667 73.4492C30.5722 73.4356 30.5805 73.4192 30.5888 73.4056C30.6907 73.2095 30.7321 72.9915 30.6714 72.7763C30.6191 72.5857 30.4703 72.3814 30.2911 72.2887C30.0982 72.1879 29.8668 72.1389 29.6546 72.207C29.4562 72.2697 29.2578 72.3923 29.1613 72.5829V72.5802Z" fill="black"/>
</svg>
