<svg width="346" height="224" viewBox="0 0 346 224" fill="none" xmlns="http://www.w3.org/2000/svg">
<g clip-path="url(#clip0_40_1011)">
<path d="M1.42143e-05 208.66C0.500014 201.57 47.05 197.67 49 197.51C98.83 193.49 156.77 201.35 157 209.22C157.23 217.05 100.4 227.02 50 222.04C28.97 219.96 -0.399986 214.35 1.42143e-05 208.66Z" fill="#516C82"/>
<path d="M65.03 120.84L92.32 30.37H171.91L127.85 143.54L65.03 120.84Z" fill="#7BB2E9"/>
<path d="M101.68 24.38C96.59 47.11 90.16 69.54 82.4 91.51C80.21 97.71 77.91 103.87 75.5 110C74.96 111.37 76.1 113.49 77.6 113.69C93.5 115.87 109.18 119.51 124.41 124.57C128.76 126.01 133.06 127.58 137.33 129.24C138.84 129.83 140.62 128.59 141.02 127.14C141.49 125.44 140.44 124.04 138.92 123.45C123.95 117.6 108.46 113.11 92.68 110.1C88.21 109.25 83.71 108.52 79.2 107.9L81.3 111.59C89.79 89.93 96.99 67.77 102.83 45.25C104.49 38.85 106.04 32.43 107.48 25.98C107.83 24.4 107 22.73 105.38 22.29C103.87 21.88 102.05 22.8 101.69 24.39L101.68 24.38Z" fill="#263238"/>
<path d="M112.44 65.89C111.32 60.45 112.67 54.55 115.74 49.68C118.81 44.81 123.16 41.55 128.65 40.55C130.25 40.26 131.15 38.32 130.75 36.86C130.29 35.18 128.66 34.48 127.06 34.76C112.61 37.38 103.84 53.73 106.66 67.47C106.99 69.06 108.86 69.97 110.35 69.57C112 69.12 112.77 67.4699 112.45 65.8799L112.44 65.89Z" fill="#263238"/>
<path d="M125.71 64.0299C125.67 63.8799 125.65 63.7399 125.62 63.5899L125.73 64.3899C125.69 64.0499 125.69 63.7099 125.73 63.3599L125.62 64.1599C125.67 63.7999 125.77 63.4499 125.91 63.1099L125.61 63.8299C125.76 63.4799 125.95 63.1499 126.19 62.8399L125.72 63.4499C125.92 63.2099 126.13 62.9799 126.38 62.7899L125.77 63.2599C126 63.0899 126.24 62.9399 126.5 62.8299L125.78 63.1299C125.89 63.0799 126.01 63.0399 126.12 63.0099L122.43 59.3199C122.1 60.2699 121.77 61.2199 121.45 62.1699C121.32 62.5699 121.31 62.9699 121.4 63.3699C121.42 63.7699 121.54 64.1399 121.76 64.4899C122.12 65.1099 122.84 65.7099 123.55 65.8699C124.32 66.0399 125.18 66.0099 125.86 65.5699L126.47 65.0999C126.84 64.7299 127.1 64.2799 127.24 63.7799C127.57 62.8299 127.9 61.8799 128.22 60.9299C128.54 59.9799 128.17 58.7299 127.45 58.0099C126.73 57.2899 125.55 56.9399 124.53 57.2399C122.87 57.7299 121.42 58.9099 120.6 60.4399C119.78 61.9699 119.46 63.8699 119.91 65.6499C120.09 66.3699 120.65 67.0699 121.29 67.4399C121.93 67.8099 122.88 67.9799 123.6 67.7399C124.32 67.4999 125.03 67.0599 125.39 66.3599C125.75 65.6599 125.89 64.8499 125.69 64.0499L125.71 64.0299Z" fill="#263238"/>
<path d="M142 76.37C141.4 74.81 140.94 73.21 140.65 71.56C140.5 70.73 140.49 70.64 140.41 69.65C140.34 68.8 140.32 67.94 140.33 67.09C140.37 63.91 140.89 61.18 142.02 57.95C142.56 56.4 143 55.39 143.86 53.8C144.64 52.35 145.53 50.94 146.52 49.63C146.66 49.45 147.33 48.63 147.75 48.16C148.31 47.54 148.89 46.93 149.5 46.36C150.74 45.18 151.4 44.64 152.76 43.76C153.48 43.29 154.23 42.85 155 42.45C155.4 42.24 155.81 42.04 156.23 41.86C156.29 41.83 156.76 41.64 156.35 41.81C156.54 41.73 156.73 41.66 156.91 41.59C157.76 41.28 158.63 41.01 159.52 40.81C159.91 40.72 160.31 40.64 160.71 40.57C160.91 40.54 161.11 40.5 161.31 40.47C160.79 40.54 161.65 40.44 161.73 40.44C163.34 40.29 164.73 39.17 164.73 37.44C164.73 35.93 163.35 34.29 161.73 34.44C146.25 35.88 135.4 50.7 134.39 65.5C134.1 69.71 134.7 74.04 136.21 77.98C136.79 79.49 138.23 80.53 139.9 80.08C141.35 79.68 142.58 77.91 142 76.39V76.37Z" fill="#263238"/>
<path d="M153.83 62.3899C153.75 62.5999 153.66 62.8199 153.57 63.0299L153.87 62.3099C153.56 63.0499 153.21 63.7799 152.72 64.4199L153.19 63.8099C152.97 64.0899 152.73 64.3399 152.45 64.5599L153.06 64.0899C152.84 64.2499 152.62 64.3899 152.37 64.4999L153.09 64.1999C152.94 64.2599 152.78 64.3099 152.62 64.3299L153.42 64.2199C153.23 64.2399 153.05 64.2399 152.86 64.2199L153.66 64.3299C153.42 64.2999 153.2 64.2299 152.97 64.1399L153.69 64.4399C153.49 64.3499 153.31 64.2399 153.14 64.1199L153.75 64.5899C153.58 64.4599 153.44 64.3199 153.31 64.1499L153.78 64.7599C153.69 64.6299 153.61 64.4999 153.54 64.3599L153.84 65.0799C153.78 64.9399 153.74 64.7899 153.72 64.6399L153.83 65.4399C153.82 65.2999 153.82 65.1699 153.83 65.0399L153.72 65.8399C153.74 65.7199 153.77 65.6099 153.81 65.4999C154.07 64.8099 153.87 63.8099 153.51 63.1899C153.15 62.5699 152.43 61.9699 151.72 61.8099C150.95 61.6399 150.09 61.6699 149.41 62.1099L148.8 62.5799C148.43 62.9499 148.17 63.3999 148.03 63.8999C147.89 64.2699 147.86 64.6899 147.83 65.0699C147.8 65.4499 147.87 65.8799 147.94 66.2699C147.97 66.4099 148 66.5499 148.06 66.6799C148.2 67.0399 148.34 67.4199 148.56 67.7499C149.33 68.8699 150.41 69.6999 151.73 70.0699C153.05 70.4399 154.49 70.2399 155.71 69.5599C156.76 68.9699 157.57 68.0499 158.22 67.0499C158.83 66.1099 159.24 65.0299 159.65 63.9899C159.92 63.3099 159.7 62.2799 159.35 61.6799C159 61.0799 158.27 60.4599 157.56 60.2999C156.79 60.1299 155.93 60.1599 155.25 60.5999L154.64 61.0699C154.27 61.4399 154.01 61.8899 153.87 62.3899H153.83Z" fill="#263238"/>
<path d="M105.06 18.78C124.61 21.95 144.45 23.22 164.25 22.41C169.78 22.18 175.3 21.8 180.81 21.26L179.3 15.67C178.6 16.13 177.89 16.59 177.19 17.05C175.84 17.94 175.27 19.71 176.11 21.15C176.9 22.5 178.85 23.12 180.21 22.23C180.91 21.77 181.62 21.31 182.32 20.85C183.44 20.12 184.06 18.79 183.7 17.46C183.37 16.28 182.1 15.13 180.81 15.26C161.53 17.14 142.08 17.12 122.81 15.14C117.4 14.58 112.02 13.87 106.66 13C105.06 12.74 103.43 13.41 102.97 15.1C102.58 16.53 103.46 18.53 105.07 18.79L105.06 18.78Z" fill="#263238"/>
<path d="M147.83 132.86C153.33 109.05 162.26 86.08 174.49 64.92C177.91 59 181.58 53.24 185.49 47.63C186.42 46.3 185.73 44.3 184.41 43.53C182.92 42.66 181.23 43.27 180.31 44.61C166.15 64.92 155.16 87.42 147.61 111C145.47 117.68 143.62 124.45 142.04 131.28C141.68 132.86 142.53 134.53 144.14 134.97C145.66 135.39 147.46 134.46 147.83 132.87V132.86Z" fill="#263238"/>
<path d="M98.07 113.19C90.39 136.19 84.23 159.68 79.63 183.48C78.33 190.23 77.15 197.01 76.1 203.8C75.85 205.4 76.51 207.03 78.2 207.49C79.62 207.88 81.64 207.01 81.89 205.39C85.61 181.4 90.89 157.67 97.72 134.37C99.65 127.8 101.7 121.27 103.87 114.77C104.38 113.23 103.28 111.49 101.77 111.08C100.13 110.63 98.59 111.63 98.08 113.18L98.07 113.19Z" fill="#263238"/>
<path d="M121.6 129.43C115.66 149.86 111.71 170.86 109.75 192.05C109.2 198.03 108.81 204.02 108.58 210.02C108.52 211.64 110 213.02 111.58 213.02C113.26 213.02 114.52 211.65 114.58 210.02C115.39 189.18 118.15 168.45 122.9 148.14C124.24 142.39 125.74 136.69 127.39 131.02C128.47 127.31 122.68 125.72 121.6 129.42V129.43Z" fill="#263238"/>
<path d="M156.45 105.52C170.71 96.9799 185.89 90.0599 201.73 85.0499C206.19 83.6399 210.7 82.3799 215.24 81.2599C218.99 80.3399 217.4 74.5499 213.64 75.4699C197.14 79.5299 181.12 85.5599 166 93.3299C161.73 95.5299 157.53 97.8699 153.4 100.34C150.09 102.32 153.1 107.51 156.43 105.52H156.45Z" fill="#263238"/>
<path d="M92.32 66.6299C68.04 65.3499 43.54 72.3899 23.29 85.7699C17.46 89.6199 11.96 93.9999 6.87999 98.7999C4.06999 101.46 8.31999 105.7 11.12 103.04C27.94 87.1199 49.66 76.4999 72.64 73.3899C79.15 72.5099 85.76 72.2799 92.31 72.6299C93.93 72.7199 95.31 71.1899 95.31 69.6299C95.31 67.9299 93.93 66.7199 92.31 66.6299H92.32Z" fill="#263238"/>
<path d="M123.21 99.31C126.78 106.4 135.97 109.47 143.02 105.79C144.41 105.06 144.95 103 144.1 101.69C143.18 100.27 141.49 99.84 140 100.61C139.95 100.64 139.51 100.91 139.45 100.88C139.57 100.93 140.06 100.66 139.51 100.85C139.19 100.96 138.87 101.07 138.55 101.16C138.47 101.18 137.47 101.41 137.47 101.39C137.47 101.37 138.25 101.32 137.57 101.37C137.4 101.38 137.24 101.4 137.07 101.4C136.73 101.41 136.4 101.41 136.06 101.4C135.86 101.4 135.66 101.37 135.46 101.36C134.9 101.33 135.93 101.46 135.56 101.38C134.86 101.23 134.17 101.1 133.49 100.86C133.33 100.8 133.17 100.73 133.01 100.68C132.66 100.57 133.57 100.95 133.07 100.7C132.76 100.55 132.46 100.4 132.16 100.24C131.83 100.06 131.51 99.86 131.2 99.64C131.07 99.55 130.89 99.46 130.78 99.34C131.21 99.84 130.98 99.5 130.82 99.36C130.54 99.11 130.25 98.86 129.99 98.58C129.81 98.39 129.38 98.06 129.3 97.8C129.53 98.11 129.58 98.17 129.45 97.99C129.39 97.91 129.33 97.82 129.27 97.73C129.19 97.61 129.11 97.5 129.04 97.38C128.81 97.02 128.61 96.65 128.41 96.27C127.7 94.87 125.61 94.35 124.31 95.19C122.87 96.12 122.48 97.79 123.23 99.29L123.21 99.31Z" fill="#263238"/>
<path d="M279.96 185.29C307.84 189.34 346.49 176.1 345.01 167.31C342.91 154.83 258.7 143.35 243.2 152.93C233.76 158.76 246.24 174.62 267.71 182.15C270.82 183.24 274.48 184.5 279.96 185.3V185.29Z" fill="#516C82"/>
<path d="M216.32 148.63C238 108.38 223.23 31.66 223.23 31.66L335.9 98.23C335.9 98.23 228.64 153.88 216.32 148.63Z" fill="#006FDC"/>
<path d="M232.08 136.71C230.89 105.89 233.95 74.96 241.25 44.99C243.3 36.55 245.69 28.2 248.39 19.95C248.89 18.41 247.8 16.67 246.29 16.26C244.66 15.81 243.1 16.81 242.6 18.36C232.9 48.02 227.35 79.03 226.1 110.21C225.75 119.04 225.75 127.89 226.09 136.72C226.15 138.34 227.42 139.72 229.09 139.72C230.67 139.72 232.15 138.35 232.09 136.72L232.08 136.71Z" fill="#263238"/>
<path d="M246.7 102.33C245.81 89.6 247.64 76.9 252.08 64.93L248.39 67.03C253.54 68.65 257.85 73.63 258.55 78.84C258.76 80.45 259.78 81.84 261.55 81.84C263 81.84 264.77 80.46 264.55 78.84C263.46 70.67 257.93 63.75 249.99 61.25C248.35 60.73 246.85 61.87 246.3 63.35C241.71 75.76 239.79 89.15 240.71 102.35C240.82 103.97 242.01 105.35 243.71 105.35C245.25 105.35 246.82 103.97 246.71 102.35L246.7 102.33Z" fill="#263238"/>
<path d="M255.36 92.8899C255.36 92.8899 255.38 92.8899 255.39 92.8899L254.59 92.9999C254.59 92.9999 254.68 92.9999 254.73 92.9999L253.93 92.8899C253.93 92.8899 254.01 92.9099 254.05 92.9199L253.33 92.6199C253.33 92.6199 253.4 92.6499 253.42 92.6799L252.81 92.2099C252.81 92.2099 252.88 92.2699 252.9 92.2999L252.43 91.6899C252.43 91.6899 252.49 91.7899 252.51 91.8399L252.21 91.1199C252.24 91.1999 252.26 91.2799 252.27 91.3599L252.16 90.5599C252.17 90.6599 252.17 90.7699 252.16 90.8699L252.27 90.0699C252.26 90.1599 252.23 90.2499 252.2 90.3399L252.5 89.6199C252.48 89.6799 252.45 89.7299 252.41 89.7799L252.88 89.1699C252.88 89.1699 252.82 89.2399 252.78 89.2699L253.39 88.7999C253.39 88.7999 253.33 88.8399 253.3 88.8599L254.02 88.5599C254.02 88.5599 253.94 88.5899 253.9 88.5899L254.7 88.4799C254.7 88.4799 254.62 88.4799 254.58 88.4799L255.38 88.5899C255.38 88.5899 255.33 88.5899 255.31 88.5799C254.91 88.4499 254.51 88.4399 254.11 88.5299C253.71 88.5499 253.34 88.6699 252.99 88.8899C252.64 89.0799 252.36 89.3399 252.15 89.6599C251.88 89.9499 251.71 90.2899 251.61 90.6799L251.5 91.4799C251.5 92.0199 251.64 92.5299 251.91 92.9899L252.38 93.5999C252.75 93.9699 253.2 94.2299 253.7 94.3699C253.72 94.3699 253.75 94.3699 253.77 94.3799C253.95 94.4099 254.4 94.4699 254.58 94.4899C254.59 94.4899 254.6 94.4899 254.61 94.4899C254.91 94.4999 255.22 94.4299 255.52 94.3699C255.79 94.3199 256.24 94.0799 256.33 94.0399C256.58 93.9199 256.92 93.6099 257.03 93.5199C257.06 93.4999 257.08 93.4799 257.1 93.4499C257.1 93.4499 257.11 93.4299 257.12 93.4299C257.24 93.2799 257.48 92.9699 257.6 92.8099C257.61 92.7899 257.63 92.7699 257.64 92.7499C257.82 92.4699 257.94 92.1399 258.03 91.8199C258.04 91.7799 258.05 91.7399 258.06 91.6999C258.11 91.3999 258.16 91.0899 258.18 90.7799C258.2 90.4499 258.11 89.9999 258.06 89.7399C258.01 89.4199 257.81 89.0499 257.7 88.7999C257.68 88.7599 257.67 88.7299 257.65 88.6999C257.49 88.4599 257.32 88.2199 257.12 88.0099C256.69 87.5499 256.19 87.3199 255.61 87.1199C255.32 87.0199 254.98 87.0099 254.7 86.9899C254.39 86.9699 254.06 87.0599 253.76 87.0999C253.37 87.1899 253.03 87.3699 252.74 87.6399C252.41 87.8499 252.16 88.1299 251.97 88.4799C251.75 88.8199 251.63 89.1999 251.61 89.5999C251.52 89.9999 251.54 90.3999 251.66 90.7999L251.96 91.5199C252.23 91.9699 252.59 92.3299 253.04 92.5999L253.76 92.8999C254.29 93.0399 254.82 93.0399 255.36 92.8999V92.8899Z" fill="#263238"/>
<path d="M275.6 84.25C275.6 79.78 275.6 75.31 275.59 70.84C275.59 68.74 275.53 66.63 275.59 64.53C275.59 64.23 275.59 63.91 275.65 63.61C275.62 63.9 275.64 63.87 275.71 63.51C275.82 63.16 275.83 63.13 275.72 63.42C275.55 63.5 275.45 63.67 275.24 63.73C274.53 63.66 274.43 63.69 274.95 63.81C274.75 63.79 274.83 63.85 275.18 64C276.56 65.04 277.72 66.87 278.86 68.23C280.24 69.86 281.61 71.5 282.99 73.13C285.84 76.52 288.7 79.9 291.55 83.29C292.59 84.53 294.72 84.37 295.79 83.29C297.02 82.06 296.84 80.29 295.79 79.05C290.72 73.04 285.68 67 280.59 61.01C279.43 59.65 278 58.38 276.22 57.93C274.09 57.39 271.85 58.33 270.68 60.16C269.79 61.54 269.6 63.23 269.59 64.83C269.57 66.76 269.59 68.69 269.59 70.61C269.59 75.16 269.59 79.71 269.6 84.26C269.6 88.12 275.6 88.13 275.6 84.26V84.25Z" fill="#263238"/>
<path d="M275.71 83.04C275.97 83.75 276.2 84.23 276.73 84.78C276.76 84.81 276.79 84.83 276.82 84.86C277.03 85.04 277.27 85.23 277.5 85.38C277.53 85.4 277.56 85.42 277.6 85.44C277.85 85.57 278.13 85.68 278.4 85.78C278.79 85.93 279.24 85.97 279.65 85.98C280.06 85.99 280.52 85.92 280.93 85.82C281.34 85.72 281.76 85.53 282.13 85.35C282.5 85.17 282.85 84.87 283.18 84.61C283.32 84.5 283.44 84.38 283.55 84.24C283.72 84.03 283.98 83.73 284.14 83.45C284.3 83.16 284.43 82.84 284.54 82.53C284.65 82.22 284.68 81.73 284.7 81.5C284.72 81.27 284.68 81.08 284.65 80.85C284.62 80.62 284.61 80.41 284.53 80.2C284.42 79.91 284.29 79.51 284.08 79.23C283.89 78.88 283.63 78.6 283.31 78.39C283.02 78.12 282.68 77.95 282.29 77.85C281.89 77.72 281.49 77.71 281.09 77.8C280.69 77.82 280.32 77.94 279.97 78.16L279.36 78.63C278.99 79 278.73 79.45 278.59 79.95L278.48 80.75C278.48 81.29 278.62 81.8 278.89 82.26C278.94 82.33 278.99 82.41 279.02 82.49L278.72 81.77C278.76 81.86 278.78 81.95 278.8 82.05L278.69 81.25C278.69 81.33 278.69 81.42 278.69 81.5L278.8 80.7C278.79 80.8 278.76 80.89 278.72 80.99L279.02 80.27C278.97 80.39 278.9 80.5 278.83 80.6L279.3 79.99C279.19 80.13 279.06 80.26 278.92 80.37L279.53 79.9C279.37 80.02 279.19 80.13 279 80.21L279.72 79.91C279.54 79.99 279.34 80.04 279.15 80.07L279.95 79.96C279.8 79.98 279.66 79.98 279.51 79.96L280.31 80.07C280.2 80.05 280.1 80.03 280 79.99L280.72 80.29C280.64 80.25 280.56 80.21 280.48 80.15L281.09 80.62C281.03 80.57 280.97 80.51 280.92 80.45L281.39 81.06C281.33 80.98 281.28 80.89 281.24 80.79L281.54 81.51C281.54 81.51 281.52 81.46 281.51 81.43C281.42 81.04 281.24 80.7 280.97 80.41C280.76 80.08 280.48 79.83 280.13 79.64C279.79 79.42 279.41 79.3 279.01 79.28C278.61 79.19 278.21 79.21 277.81 79.33L277.09 79.63C276.64 79.9 276.28 80.26 276.01 80.71L275.71 81.43C275.57 81.96 275.57 82.49 275.71 83.03V83.04Z" fill="#263238"/>
<path d="M243.47 17.52C262.64 37.48 283.77 55.54 306.46 71.4C312.81 75.84 319.29 80.1 325.87 84.18C329.16 86.22 332.18 81.03 328.9 79C305.81 64.68 284.14 48.13 264.27 29.6C258.6 24.31 253.09 18.87 247.72 13.28C245.04 10.49 240.8 14.74 243.48 17.52H243.47Z" fill="#263238"/>
<path d="M228.85 146.46C242 138.53 255.69 131.5 269.81 125.45C283.93 119.4 298.28 114.46 312.99 110.46C321.38 108.18 329.85 106.23 338.39 104.61C339.98 104.31 340.89 102.39 340.49 100.92C340.03 99.25 338.4 98.52 336.8 98.82C321.56 101.71 306.53 105.66 291.85 110.64C277.17 115.62 262.75 121.63 248.86 128.59C241.02 132.51 233.34 136.75 225.84 141.28C222.54 143.27 225.55 148.46 228.87 146.46H228.85Z" fill="#263238"/>
<path d="M273.2 116.81C275.13 133.74 281.25 150.04 291.23 163.89C292.18 165.2 293.84 165.84 295.33 164.97C296.63 164.21 297.36 162.19 296.41 160.87C287.09 147.93 281.01 132.69 279.2 116.82C279.02 115.21 277.95 113.82 276.2 113.82C274.72 113.82 273.01 115.2 273.2 116.82V116.81Z" fill="#263238"/>
<path d="M290.36 111.91C296.43 129.21 304 145.98 313.01 161.96C314.91 165.32 320.09 162.3 318.19 158.93C309.44 143.4 302.05 127.14 296.15 110.32C295.61 108.79 294.1 107.77 292.46 108.22C290.98 108.63 289.83 110.37 290.36 111.91Z" fill="#263238"/>
<path d="M231.74 77.83C220.57 90.23 212.53 105.3 208.56 121.52C207.64 125.27 213.43 126.87 214.35 123.12C218.07 107.91 225.5 93.72 235.99 82.08C237.07 80.88 237.18 79.03 235.99 77.84C234.89 76.74 232.84 76.63 231.75 77.84L231.74 77.83Z" fill="#263238"/>
<path d="M283.68 48.62C288.54 32.31 297.36 17.32 309.24 5.13998C311.94 2.36998 307.7 -1.87002 305 0.89998C292.4 13.82 283.05 29.73 277.89 47.03C276.78 50.74 282.57 52.32 283.68 48.63V48.62Z" fill="#263238"/>
<path d="M278.74 103.11C282.43 102.2 286.12 101.3 289.81 100.39C291.33 100.02 292.39 98.21 291.91 96.7C291.43 95.19 289.85 94.2 288.22 94.6C284.53 95.51 280.84 96.41 277.15 97.32C275.63 97.69 274.57 99.5 275.05 101.01C275.53 102.52 277.11 103.51 278.74 103.11Z" fill="#263238"/>
</g>
<defs>
<clipPath id="clip0_40_1011">
<path d="M0 0H345.05V183.37C345.05 205.461 327.141 223.37 305.05 223.37H40C17.9086 223.37 0 205.461 0 183.37V0Z" fill="white"/>
</clipPath>
</defs>
</svg>
