<svg width="339" height="321" viewBox="0 0 339 321" fill="none" xmlns="http://www.w3.org/2000/svg">
<path d="M282.219 285.704C301.986 289.265 323.254 281.987 322.668 278.014C321.754 271.835 266.94 265.954 260.553 271.788C256.959 275.073 267.589 283.073 282.219 285.704Z" fill="#516C82"/>
<path d="M260.051 187.539L315.528 183.964L335.204 238.338L265.118 250.331L260.051 187.539Z" fill="#4D6596"/>
<path d="M275.546 199.249C276.844 197.914 278.443 197.482 280.432 197.61C282.052 197.718 284.146 198.514 285.444 199.546C289.234 202.568 290.595 207.58 291.865 211.951C292.591 214.453 296.633 213.387 295.907 210.871C294.315 205.408 292.41 199.425 287.426 195.944C283.133 192.942 276.44 192.416 272.587 196.383C270.744 198.278 273.697 201.145 275.546 199.243V199.249Z" fill="#E7F2FD"/>
<path d="M281.982 206.972C281.982 206.972 281.982 206.986 281.982 206.993L281.905 206.453C281.905 206.453 281.905 206.514 281.905 206.547L281.982 206.008C281.982 206.008 281.968 206.062 281.961 206.089L282.17 205.603C282.17 205.603 282.149 205.644 282.128 205.664L282.456 205.252C282.456 205.252 282.415 205.293 282.394 205.313L282.819 204.996C282.819 204.996 282.757 205.036 282.715 205.05L283.217 204.848C283.161 204.868 283.105 204.881 283.05 204.888L283.608 204.814C283.538 204.821 283.461 204.821 283.392 204.814L283.95 204.888C283.887 204.881 283.824 204.861 283.762 204.841L284.264 205.043C284.222 205.03 284.187 205.009 284.152 204.982L284.578 205.299C284.578 205.299 284.529 205.259 284.508 205.232L284.836 205.644C284.836 205.644 284.809 205.603 284.795 205.583L285.004 206.068C285.004 206.068 284.983 206.015 284.983 205.988L285.06 206.527C285.06 206.527 285.06 206.473 285.06 206.446L284.983 206.986C284.983 206.986 284.983 206.952 284.99 206.939C285.081 206.669 285.088 206.399 285.025 206.129C285.011 205.859 284.927 205.61 284.774 205.374C284.641 205.138 284.459 204.949 284.236 204.807C284.034 204.625 283.797 204.51 283.524 204.443L282.966 204.369C282.589 204.369 282.233 204.463 281.912 204.645L281.486 204.962C281.228 205.212 281.047 205.515 280.949 205.853C280.949 205.866 280.949 205.886 280.942 205.9C280.921 206.021 280.879 206.325 280.865 206.446C280.865 206.453 280.865 206.46 280.865 206.466C280.858 206.669 280.907 206.878 280.949 207.08C280.984 207.262 281.151 207.566 281.179 207.627C281.263 207.795 281.479 208.025 281.542 208.099C281.556 208.119 281.57 208.133 281.591 208.146C281.591 208.146 281.605 208.153 281.605 208.16C281.703 208.24 281.926 208.402 282.038 208.483C282.052 208.49 282.066 208.504 282.079 208.51C282.275 208.632 282.505 208.713 282.729 208.773C282.757 208.78 282.784 208.787 282.812 208.794C283.022 208.827 283.238 208.861 283.454 208.875C283.685 208.888 283.999 208.827 284.18 208.794C284.404 208.76 284.662 208.625 284.836 208.551C284.864 208.537 284.885 208.53 284.906 208.517C285.074 208.409 285.241 208.294 285.388 208.16C285.709 207.869 285.869 207.532 286.009 207.141C286.079 206.945 286.086 206.716 286.1 206.527C286.114 206.318 286.051 206.095 286.023 205.893C285.96 205.63 285.834 205.401 285.646 205.205C285.499 204.982 285.304 204.814 285.06 204.686C284.822 204.537 284.557 204.456 284.278 204.443C283.999 204.382 283.72 204.396 283.441 204.477L282.938 204.679C282.624 204.861 282.373 205.104 282.184 205.407L281.975 205.893C281.877 206.251 281.877 206.608 281.975 206.972H281.982Z" fill="#E7F2FD"/>
<path d="M295.558 195.708C303.948 195.903 311.975 201.677 314.501 209.495C315.304 211.97 319.346 210.918 318.543 208.416C315.451 198.864 305.923 191.903 295.565 191.66C292.871 191.6 292.871 195.647 295.565 195.708H295.558Z" fill="#E7F2FD"/>
<path d="M304.303 206.028C304.136 206.095 303.968 206.163 303.801 206.23C303.836 206.217 303.878 206.203 303.913 206.197L303.354 206.271C303.354 206.271 303.403 206.271 303.424 206.271L302.866 206.197C302.866 206.197 302.901 206.203 302.922 206.21L302.419 206.008C302.419 206.008 302.454 206.021 302.468 206.035L302.042 205.718C302.042 205.718 302.077 205.745 302.091 205.765L301.763 205.353C301.763 205.353 301.798 205.401 301.805 205.428L301.595 204.942C301.616 204.989 301.63 205.036 301.637 205.084L301.561 204.544C301.568 204.625 301.568 204.699 301.561 204.78L301.637 204.24C301.623 204.321 301.602 204.396 301.575 204.47L301.784 203.984C301.763 204.031 301.742 204.079 301.707 204.119L302.035 203.708C302.035 203.708 301.993 203.755 301.972 203.775L302.398 203.458C302.398 203.458 302.363 203.485 302.342 203.492L302.845 203.289C302.845 203.289 302.81 203.303 302.789 203.303L303.347 203.229C303.347 203.229 303.305 203.229 303.291 203.229L303.85 203.303C303.85 203.303 303.801 203.296 303.78 203.283L304.283 203.485C304.283 203.485 304.22 203.451 304.192 203.431L304.618 203.748C304.618 203.748 304.604 203.735 304.597 203.728C304.408 203.532 304.185 203.391 303.92 203.31C303.668 203.181 303.403 203.127 303.11 203.134C302.824 203.121 302.552 203.181 302.3 203.31C302.042 203.391 301.819 203.532 301.623 203.728L301.295 204.139C301.107 204.456 301.009 204.794 301.009 205.158L301.086 205.697C301.184 206.041 301.365 206.338 301.623 206.588C301.63 206.588 301.637 206.601 301.644 206.608C301.784 206.716 301.937 206.837 302.084 206.939C302.098 206.945 302.112 206.959 302.126 206.966C302.133 206.966 302.14 206.972 302.147 206.979C302.231 207.02 302.447 207.1 302.405 207.08C302.384 207.073 302.58 207.154 302.663 207.188C302.677 207.188 302.691 207.195 302.705 207.202C302.796 207.222 302.977 207.235 302.998 207.242C303.005 207.242 303.194 207.276 303.291 207.283C303.305 207.283 303.319 207.283 303.333 207.283C303.494 207.276 303.731 207.256 303.92 207.202C303.92 207.202 303.934 207.202 303.941 207.202C303.941 207.202 303.941 207.202 303.948 207.202C304.01 207.181 304.394 207.026 304.45 206.993C304.625 206.912 304.848 206.709 304.939 206.642C304.96 206.622 304.981 206.608 304.995 206.588C305.085 206.48 305.267 206.278 305.364 206.116C305.371 206.102 305.378 206.089 305.385 206.075C305.385 206.068 305.385 206.062 305.392 206.055C305.469 205.893 305.546 205.718 305.609 205.549C305.637 205.488 305.651 205.428 305.665 205.36C305.699 205.151 305.734 204.942 305.748 204.726C305.748 204.692 305.748 204.659 305.748 204.632C305.741 204.423 305.699 204.207 305.665 204.004C305.665 203.977 305.651 203.95 305.644 203.917C305.644 203.903 305.637 203.89 305.63 203.876C305.574 203.741 305.476 203.512 305.413 203.384C305.413 203.377 305.413 203.37 305.406 203.364C305.406 203.35 305.392 203.343 305.385 203.33C305.336 203.256 305.232 203.134 305.211 203.114C305.176 203.074 305.099 202.966 305.036 202.891C305.029 202.885 305.015 202.871 305.008 202.864C304.946 202.81 304.68 202.622 304.792 202.703C304.82 202.723 304.645 202.588 304.576 202.541C304.576 202.541 304.562 202.534 304.555 202.527C304.373 202.433 304.185 202.338 303.982 202.298C303.927 202.284 303.48 202.23 303.424 202.224C303.424 202.224 303.417 202.224 303.41 202.224C303.403 202.224 303.396 202.224 303.389 202.224C303.187 202.224 302.984 202.264 302.789 202.298C302.768 202.298 302.754 202.305 302.733 202.311C302.545 202.365 302.349 202.46 302.175 202.534C301.93 202.662 301.735 202.837 301.589 203.053C301.4 203.249 301.281 203.478 301.212 203.741C301.121 204.011 301.114 204.281 301.177 204.551C301.191 204.821 301.274 205.07 301.428 205.306L301.756 205.718C302.014 205.967 302.328 206.143 302.677 206.237L303.236 206.311C303.613 206.311 303.969 206.217 304.29 206.035L304.303 206.028Z" fill="#E7F2FD"/>
<path d="M265.314 182.393C277.724 182.959 290.169 182.737 302.552 181.711C306.105 181.414 309.65 181.05 313.189 180.625C314.313 180.49 315.283 179.789 315.283 178.602C315.283 177.61 314.32 176.443 313.189 176.578C300.863 178.055 288.431 178.757 276.007 178.642C272.44 178.608 268.873 178.507 265.314 178.345C264.183 178.291 263.22 179.31 263.22 180.369C263.22 181.509 264.183 182.339 265.314 182.393Z" fill="#E7F2FD"/>
<path d="M308.164 177.907C312.324 189.617 318.04 200.794 325.202 211.067C325.83 211.971 327.044 212.369 328.063 211.795C328.992 211.269 329.452 209.94 328.817 209.03C321.858 199.047 316.246 188.221 312.205 176.835C311.835 175.803 310.767 175.121 309.629 175.418C308.589 175.695 307.801 176.868 308.164 177.907Z" fill="#E7F2FD"/>
<path d="M300.332 223.377C305.832 226.959 313.964 225.947 318.354 221.151C319.101 220.335 319.192 219.094 318.354 218.291C317.593 217.556 316.149 217.468 315.395 218.291C314.438 219.337 313.817 219.809 312.533 220.443C312.379 220.517 312.219 220.591 312.065 220.666C311.751 220.807 312.31 220.578 311.989 220.699C311.667 220.821 311.332 220.935 310.997 221.03C310.697 221.118 310.39 221.199 310.083 221.259C309.909 221.293 309.741 221.327 309.566 221.36C309.504 221.374 309.043 221.435 309.392 221.394C308.764 221.468 308.136 221.495 307.5 221.475C307.151 221.462 306.802 221.441 306.453 221.401C306.684 221.428 306.523 221.414 306.391 221.387C306.216 221.354 306.049 221.327 305.874 221.293C305.232 221.158 304.59 220.976 303.976 220.733C304.241 220.841 303.906 220.693 303.808 220.652C303.654 220.578 303.494 220.504 303.34 220.423C303.033 220.261 302.733 220.079 302.447 219.89C301.512 219.276 300.13 219.715 299.585 220.618C298.985 221.617 299.397 222.777 300.339 223.384L300.332 223.377Z" fill="#E7F2FD"/>
<path d="M261.112 184.996C264.008 199.566 266.898 214.143 269.794 228.712C270.604 232.8 271.414 236.881 272.23 240.969C272.447 242.041 273.78 242.655 274.806 242.385C275.971 242.075 276.481 240.975 276.271 239.896C273.375 225.326 270.485 210.75 267.589 196.18C266.779 192.092 265.969 188.011 265.153 183.924C264.937 182.851 263.603 182.237 262.577 182.507C261.412 182.818 260.902 183.917 261.112 184.996Z" fill="#E7F2FD"/>
<path d="M276.677 244.996C290.148 245.144 303.536 246.966 316.533 250.406C319.136 251.094 320.246 247.195 317.649 246.5C304.318 242.966 290.511 241.097 276.684 240.942C273.99 240.915 273.99 244.962 276.684 244.989L276.677 244.996Z" fill="#E7F2FD"/>
<path d="M290.658 243.471C287.733 254.783 286.91 266.574 288.299 278.155C288.431 279.241 289.164 280.179 290.392 280.179C291.425 280.179 292.619 279.248 292.486 278.155C291.132 266.918 291.858 255.525 294.692 244.544C295.348 242.014 291.307 240.935 290.651 243.464L290.658 243.471Z" fill="#E7F2FD"/>
<path d="M303.738 246.014C301.644 255.775 301.086 265.805 302.189 275.714C302.307 276.8 303.068 277.737 304.283 277.737C305.323 277.737 306.495 276.807 306.377 275.714C305.316 266.163 305.755 256.497 307.772 247.087C308.003 246.021 307.451 244.901 306.307 244.598C305.267 244.321 303.962 244.935 303.731 246.014H303.738Z" fill="#E7F2FD"/>
<path d="M327.449 202.021C328.866 193.839 333.256 186.44 339.866 181.138C340.738 180.436 340.612 179 339.866 178.278C339.007 177.448 337.779 177.576 336.906 178.278C329.822 183.957 324.929 192.173 323.415 200.942C323.226 202.021 323.708 203.121 324.881 203.431C325.886 203.694 327.268 203.1 327.456 202.014L327.449 202.021Z" fill="#E7F2FD"/>
<path d="M265.557 212.389C258.619 223.836 254.501 236.78 253.482 250.007C253.196 253.704 253.168 257.407 253.392 261.11C253.454 262.203 254.306 263.134 255.485 263.134C256.567 263.134 257.642 262.21 257.579 261.11C256.826 248.449 259.087 235.674 264.196 223.984C265.634 220.699 267.316 217.515 269.179 214.44C270.547 212.187 266.925 210.15 265.564 212.396L265.557 212.389Z" fill="#E7F2FD"/>
<path d="M63.0958 183.342C42.001 186.94 19.3047 179.587 19.9304 175.573C20.9062 169.33 79.4011 163.387 86.2167 169.282C90.0528 172.601 78.7084 180.684 63.0958 183.342Z" fill="#516C82"/>
<path d="M86.7531 84.1609L27.5504 80.5488L6.55247 135.486L81.3453 147.603L86.7531 84.1609Z" fill="#4D6596"/>
<path d="M70.2169 95.9919C68.8314 94.6425 67.1256 94.2064 65.0028 94.3359C63.2747 94.4449 61.04 95.2491 59.6545 96.2918C55.6099 99.345 54.1574 104.409 52.8017 108.825C52.0271 111.353 47.7142 110.277 48.4889 107.734C50.1872 102.214 52.2207 96.1691 57.5391 92.6525C62.1201 89.6198 69.2634 89.0882 73.3751 93.0955C75.3416 95.0106 72.1908 97.907 70.2169 95.9851V95.9919Z" fill="#E7F2FD"/>
<path d="M63.3492 103.796C63.3492 103.796 63.3492 103.809 63.3492 103.816L63.4311 103.271C63.4311 103.271 63.4311 103.332 63.4311 103.366L63.3492 102.821C63.3492 102.821 63.3641 102.876 63.3715 102.903L63.1481 102.412C63.1481 102.412 63.1704 102.453 63.1928 102.474L62.8427 102.058C62.8427 102.058 62.8873 102.099 62.9097 102.119L62.4553 101.799C62.4553 101.799 62.5224 101.84 62.5671 101.853L62.0308 101.649C62.0904 101.669 62.15 101.683 62.2096 101.69L61.6137 101.615C61.6882 101.622 61.7701 101.622 61.8446 101.615L61.2487 101.69C61.3158 101.683 61.3828 101.663 61.4498 101.642L60.9136 101.847C60.9583 101.833 60.9955 101.812 61.0328 101.785L60.5784 102.106C60.5784 102.106 60.6306 102.065 60.6529 102.037L60.3028 102.453C60.3028 102.453 60.3326 102.412 60.3475 102.392L60.124 102.882C60.124 102.882 60.1464 102.828 60.1464 102.801L60.0645 103.346C60.0645 103.346 60.0645 103.291 60.0645 103.264L60.1464 103.809C60.1464 103.809 60.1464 103.775 60.1389 103.762C60.0421 103.489 60.0347 103.216 60.1017 102.944C60.1166 102.671 60.206 102.419 60.3699 102.18C60.5114 101.942 60.7051 101.751 60.9434 101.608C61.1594 101.424 61.4126 101.308 61.7031 101.24L62.299 101.165C62.7012 101.165 63.081 101.26 63.4237 101.444L63.878 101.765C64.1536 102.017 64.3473 102.324 64.4515 102.664C64.4515 102.678 64.4515 102.698 64.459 102.712C64.4813 102.835 64.526 103.141 64.5409 103.264C64.5409 103.271 64.5409 103.278 64.5409 103.285C64.5484 103.489 64.4962 103.7 64.4515 103.905C64.4143 104.089 64.2355 104.395 64.2057 104.457C64.1163 104.627 63.8854 104.859 63.8184 104.934C63.8035 104.954 63.7886 104.968 63.7663 104.982C63.7663 104.982 63.7514 104.988 63.7514 104.995C63.6471 105.077 63.4088 105.24 63.2896 105.322C63.2747 105.329 63.2598 105.343 63.2449 105.35C63.0364 105.472 62.7905 105.554 62.5522 105.615C62.5224 105.622 62.4926 105.629 62.4628 105.636C62.2394 105.67 62.0085 105.704 61.7776 105.718C61.5318 105.731 61.1966 105.67 61.003 105.636C60.7646 105.602 60.489 105.465 60.3028 105.39C60.273 105.377 60.2506 105.37 60.2283 105.356C60.0495 105.247 59.8708 105.131 59.7144 104.995C59.3718 104.702 59.2005 104.361 59.0515 103.966C58.977 103.768 58.9696 103.537 58.9547 103.346C58.9398 103.135 59.0068 102.91 59.0366 102.705C59.1036 102.439 59.2377 102.208 59.4388 102.01C59.5952 101.785 59.8038 101.615 60.0645 101.485C60.3177 101.335 60.6007 101.254 60.8987 101.24C61.1966 101.179 61.4945 101.192 61.7924 101.274L62.3288 101.479C62.664 101.663 62.9321 101.908 63.1332 102.215L63.3566 102.705C63.4609 103.066 63.4609 103.428 63.3566 103.796H63.3492Z" fill="#E7F2FD"/>
<path d="M48.8612 92.414C39.9078 92.6116 31.3417 98.4454 28.6453 106.344C27.7887 108.845 23.4759 107.782 24.3325 105.254C27.6323 95.6035 37.7998 88.5702 48.8537 88.3249C51.7289 88.2636 51.7289 92.3527 48.8537 92.414H48.8612Z" fill="#E7F2FD"/>
<path d="M39.5284 102.841C39.7071 102.909 39.8859 102.978 40.0646 103.046C40.0274 103.032 39.9827 103.018 39.9454 103.012L40.5413 103.087C40.5413 103.087 40.4891 103.087 40.4668 103.087L41.0627 103.012C41.0627 103.012 41.0255 103.018 41.0031 103.025L41.5394 102.821C41.5394 102.821 41.5021 102.834 41.4872 102.848L41.9416 102.528C41.9416 102.528 41.9043 102.555 41.8894 102.576L42.2395 102.16C42.2395 102.16 42.2023 102.207 42.1948 102.235L42.4182 101.744C42.3959 101.792 42.381 101.839 42.3736 101.887L42.4555 101.342C42.4481 101.424 42.4481 101.499 42.4555 101.581L42.3736 101.035C42.3885 101.117 42.4108 101.192 42.4406 101.267L42.2172 100.776C42.2395 100.824 42.2619 100.872 42.2991 100.913L41.9491 100.497C41.9491 100.497 41.9937 100.545 42.0161 100.565L41.5617 100.245C41.5617 100.245 41.5989 100.272 41.6213 100.279L41.085 100.074C41.085 100.074 41.1222 100.088 41.1446 100.088L40.5488 100.013C40.5488 100.013 40.5934 100.013 40.6083 100.013L40.0124 100.088C40.0124 100.088 40.0646 100.081 40.087 100.068L39.5506 100.272C39.5506 100.272 39.6177 100.238 39.6475 100.217L39.1931 100.538C39.1931 100.538 39.208 100.524 39.2155 100.517C39.4166 100.32 39.6549 100.177 39.938 100.095C40.2061 99.9653 40.4892 99.9108 40.802 99.9176C41.1074 99.904 41.3979 99.9653 41.666 100.095C41.9416 100.177 42.1799 100.32 42.3885 100.517L42.7385 100.933C42.9396 101.253 43.0439 101.594 43.0439 101.962L42.962 102.507C42.8577 102.855 42.6641 103.155 42.3885 103.407C42.381 103.407 42.3736 103.421 42.3661 103.427C42.2172 103.536 42.0533 103.659 41.8969 103.761C41.882 103.768 41.8671 103.782 41.8522 103.789C41.8448 103.789 41.8373 103.795 41.8299 103.802C41.7405 103.843 41.5096 103.925 41.5543 103.904C41.5766 103.898 41.3681 103.979 41.2787 104.014C41.2638 104.014 41.2489 104.02 41.234 104.027C41.1371 104.048 40.9435 104.061 40.9212 104.068C40.9137 104.068 40.7126 104.102 40.6083 104.109C40.5934 104.109 40.5785 104.109 40.5636 104.109C40.3923 104.102 40.1391 104.082 39.938 104.027C39.938 104.027 39.923 104.027 39.9156 104.027C39.9156 104.027 39.9156 104.027 39.9081 104.027C39.8411 104.007 39.4315 103.85 39.3719 103.816C39.1857 103.734 38.9474 103.53 38.8505 103.461C38.8282 103.441 38.8058 103.427 38.7909 103.407C38.6941 103.298 38.5005 103.093 38.3962 102.93C38.3888 102.916 38.3813 102.903 38.3738 102.889C38.3738 102.882 38.3738 102.875 38.3664 102.869C38.2844 102.705 38.2025 102.528 38.1354 102.357C38.1056 102.296 38.0908 102.235 38.0759 102.167C38.0386 101.955 38.0014 101.744 37.9865 101.526C37.9865 101.492 37.9865 101.458 37.9865 101.431C37.994 101.219 38.0386 101.001 38.0759 100.797C38.0759 100.769 38.0908 100.742 38.0982 100.708C38.0982 100.695 38.1057 100.681 38.1132 100.667C38.1727 100.531 38.277 100.299 38.344 100.17C38.344 100.163 38.344 100.156 38.3515 100.149C38.3515 100.136 38.3664 100.129 38.3738 100.115C38.426 100.04 38.5377 99.9176 38.56 99.8972C38.5973 99.8563 38.6792 99.7472 38.7463 99.6723C38.7537 99.6654 38.7686 99.6518 38.7761 99.645C38.8431 99.5905 39.1261 99.3997 39.0069 99.4814C38.9771 99.5019 39.1634 99.3656 39.2379 99.3179C39.2379 99.3179 39.2527 99.3111 39.2601 99.3042C39.4538 99.2088 39.655 99.1134 39.871 99.0725C39.9305 99.0589 40.4072 99.0044 40.4668 98.9976C40.4668 98.9976 40.4742 98.9976 40.4817 98.9976C40.4891 98.9976 40.4966 98.9976 40.504 98.9976C40.72 98.9976 40.936 99.0384 41.1446 99.0725C41.1669 99.0725 41.1819 99.0793 41.2042 99.0862C41.4053 99.1407 41.6138 99.2361 41.8 99.3111C42.0607 99.4405 42.2693 99.6177 42.4257 99.8358C42.6268 100.033 42.7534 100.265 42.8279 100.531C42.9247 100.804 42.9322 101.076 42.8652 101.349C42.8503 101.621 42.7609 101.874 42.5971 102.112L42.2469 102.528C41.9713 102.78 41.6362 102.957 41.2638 103.053L40.6679 103.128C40.2657 103.128 39.8858 103.032 39.5432 102.848L39.5284 102.841Z" fill="#E7F2FD"/>
<path d="M81.1367 78.9612C67.8929 79.5336 54.6117 79.3087 41.3977 78.2728C37.6063 77.973 33.8223 77.6049 30.0458 77.1756C28.8465 77.0393 27.8112 76.3305 27.8112 75.131C27.8112 74.1292 28.8391 72.9502 30.0458 73.0865C43.2003 74.579 56.4665 75.2878 69.7252 75.1719C73.5315 75.1379 77.3379 75.0356 81.1367 74.8721C82.3434 74.8175 83.3713 75.8466 83.3713 76.9166C83.3713 78.0684 82.3434 78.9066 81.1367 78.9612Z" fill="#E7F2FD"/>
<path d="M35.4088 74.4292C30.9694 86.2603 24.8688 97.553 17.2264 107.932C16.556 108.846 15.26 109.248 14.1724 108.668C13.1818 108.137 12.6901 106.794 13.3679 105.874C20.7943 95.7879 26.7831 84.8495 31.096 73.3456C31.4907 72.3029 32.6304 71.6145 33.8446 71.9144C34.9545 72.1938 35.7961 73.3796 35.4088 74.4292Z" fill="#E7F2FD"/>
<path d="M43.7664 120.37C37.8968 123.989 29.2191 122.967 24.5338 118.121C23.7368 117.296 23.64 116.042 24.5338 115.231C25.3457 114.489 26.8876 114.4 27.6921 115.231C28.7125 116.288 29.3755 116.765 30.746 117.405C30.9099 117.48 31.0812 117.555 31.245 117.63C31.5802 117.774 30.9844 117.542 31.327 117.664C31.6697 117.787 32.0272 117.903 32.3847 117.998C32.705 118.087 33.0328 118.169 33.3605 118.23C33.5468 118.264 33.7255 118.298 33.9117 118.332C33.9788 118.346 34.4704 118.407 34.098 118.366C34.7683 118.441 35.4387 118.469 36.1165 118.448C36.489 118.435 36.8614 118.414 37.2338 118.373C36.988 118.4 37.1593 118.387 37.3009 118.36C37.4871 118.326 37.6659 118.298 37.8521 118.264C38.5374 118.128 39.2227 117.944 39.8782 117.699C39.5951 117.808 39.9527 117.658 40.0569 117.617C40.2208 117.542 40.3921 117.467 40.556 117.385C40.8837 117.221 41.204 117.037 41.5094 116.847C42.5075 116.226 43.9824 116.669 44.5634 117.583C45.204 118.591 44.7645 119.764 43.7589 120.377L43.7664 120.37Z" fill="#E7F2FD"/>
<path d="M85.6208 81.5915C82.5297 96.3123 79.4461 111.04 76.3551 125.761C75.4911 129.891 74.6271 134.014 73.7556 138.144C73.5247 139.227 72.1021 139.847 71.0072 139.575C69.7633 139.261 69.2196 138.15 69.443 137.06C72.5341 122.339 75.6177 107.612 78.7087 92.8911C79.5727 88.7611 80.4368 84.6379 81.3082 80.5079C81.5391 79.4243 82.9617 78.8041 84.0566 79.0767C85.3005 79.3902 85.8442 80.5011 85.6208 81.5915Z" fill="#E7F2FD"/>
<path d="M69.0101 142.212C54.634 142.362 40.3474 144.202 26.4778 147.678C23.6995 148.373 22.515 144.434 25.286 143.732C39.5131 140.161 54.2467 138.273 69.0026 138.116C71.8779 138.089 71.8779 142.178 69.0026 142.205L69.0101 142.212Z" fill="#E7F2FD"/>
<path d="M54.0904 140.672C57.2113 152.101 58.0902 164.014 56.608 175.716C56.4665 176.813 55.6844 177.76 54.3735 177.76C53.2711 177.76 51.9975 176.82 52.139 175.716C53.584 164.362 52.8093 152.851 49.7853 141.756C49.0852 139.2 53.3978 138.11 54.0979 140.665L54.0904 140.672Z" fill="#E7F2FD"/>
<path d="M40.1315 143.242C42.366 153.104 42.9619 163.238 41.785 173.249C41.6584 174.346 40.8465 175.294 39.5505 175.294C38.4407 175.294 37.1894 174.353 37.316 173.249C38.4482 163.599 37.9789 153.833 35.8264 144.326C35.5806 143.249 36.169 142.118 37.3905 141.811C38.5003 141.532 39.8932 142.152 40.139 143.242H40.1315Z" fill="#E7F2FD"/>
<path d="M14.8279 98.7936C13.3159 90.5268 8.63088 83.0506 1.57732 77.6939C0.646278 76.9851 0.780348 75.5335 1.57732 74.8043C2.49346 73.966 3.80436 74.0955 4.7354 74.8043C12.2954 80.5427 17.5168 88.8435 19.1331 97.7032C19.3342 98.7936 18.8202 99.9045 17.5688 100.218C16.4963 100.484 15.0216 99.8841 14.8205 98.7868L14.8279 98.7936Z" fill="#E7F2FD"/>
<path d="M80.8767 109.268C88.2803 120.833 92.6748 133.912 93.7623 147.276C94.0676 151.011 94.0974 154.752 93.8591 158.494C93.7921 159.598 92.8834 160.539 91.6246 160.539C90.4701 160.539 89.3231 159.605 89.3901 158.494C90.1945 145.702 87.7813 132.794 82.3291 120.983C80.7948 117.664 78.9997 114.448 77.011 111.34C75.5511 109.064 79.4168 107.006 80.8692 109.275L80.8767 109.268Z" fill="#E7F2FD"/>
<path d="M125.529 320.213C148.787 318.838 181.165 314.165 179.696 310.106C177.623 304.383 107.465 298.032 82.975 306.949C75.2401 309.766 70.6267 314.623 76.2041 317.684C85.1555 322.601 116.478 320.745 125.536 320.213H125.529Z" fill="#516C82"/>
<path d="M103.578 217.539L161.426 191.107C164.433 259.549 156.591 273.382 156.591 273.382L106.769 290.683L103.578 217.531V217.539Z" fill="#006FDC"/>
<path d="M130.004 236.747C126.982 233.036 126.187 227.801 127.487 223.343C128.788 218.885 132.529 215.254 137.028 213.724C139.675 212.822 142.444 212.548 145.061 213.036C146.277 213.265 147.54 212.704 147.884 211.484C148.19 210.397 147.502 208.985 146.278 208.755C139.966 207.572 133.432 209.384 128.635 213.509C123.838 217.635 121.657 223.993 122.484 230.086C122.973 233.716 124.412 237.006 126.76 239.882C127.526 240.821 129.201 240.659 130.004 239.882C130.968 238.951 130.777 237.686 130.004 236.747Z" fill="#E7F2FD"/>
<path d="M136.025 228.112C136.186 228.245 136.354 228.363 136.523 228.481C136.546 228.496 136.561 228.511 136.584 228.518C136.599 228.526 136.622 228.54 136.637 228.548C136.829 228.644 137.043 228.725 137.242 228.799C137.28 228.814 137.326 228.829 137.364 228.836C137.387 228.836 137.402 228.836 137.425 228.844C137.647 228.881 137.869 228.917 138.091 228.932C138.129 228.932 138.167 228.932 138.213 228.932C138.336 228.925 138.466 228.903 138.581 228.888C138.695 228.873 138.825 228.858 138.948 228.836C138.994 228.829 139.032 228.814 139.078 228.807C139.307 228.733 139.529 228.637 139.743 228.54C139.828 228.503 139.912 228.452 139.988 228.4C140.202 228.245 140.455 228.089 140.631 227.89C140.784 227.72 140.929 227.542 141.059 227.357C141.082 227.32 141.113 227.284 141.128 227.239C141.182 227.143 141.22 227.025 141.266 226.929C141.312 226.833 141.365 226.714 141.403 226.611C141.419 226.566 141.426 226.522 141.442 226.485C141.48 226.285 141.511 226.056 141.526 225.857C141.526 225.834 141.526 225.82 141.526 225.797C141.526 225.775 141.526 225.753 141.526 225.731C141.511 225.516 141.472 225.302 141.442 225.095C141.442 225.051 141.426 225.014 141.411 224.969C141.411 224.947 141.396 224.925 141.388 224.91C141.312 224.718 141.235 224.526 141.136 224.341C141.12 224.311 141.097 224.274 141.075 224.245C140.967 224.09 140.822 223.912 140.692 223.772C140.677 223.757 140.661 223.735 140.646 223.72C140.554 223.631 140.432 223.55 140.34 223.483C140.248 223.417 140.134 223.313 140.019 223.247C139.491 222.951 139.047 222.877 138.45 222.825C138.366 222.825 138.29 222.825 138.206 222.825C137.968 222.847 137.731 222.877 137.494 222.921C137.456 222.921 137.418 222.936 137.379 222.951C137.334 222.966 137.295 222.98 137.249 222.995C137.035 223.077 136.806 223.158 136.599 223.269C136.561 223.291 136.523 223.313 136.492 223.335C136.324 223.454 136.14 223.579 135.987 223.712C135.972 223.727 135.956 223.735 135.941 223.749C135.926 223.764 135.911 223.779 135.895 223.801C135.758 223.949 135.627 224.119 135.513 224.282C135.49 224.319 135.467 224.348 135.444 224.385C135.39 224.489 135.344 224.607 135.298 224.703C135.26 224.792 135.199 224.91 135.161 225.014C135.146 225.058 135.138 225.102 135.13 225.147C135.031 225.443 135.023 225.738 135.092 226.034C135.107 226.33 135.199 226.603 135.367 226.862C135.513 227.121 135.712 227.328 135.956 227.483C136.178 227.683 136.438 227.808 136.737 227.882L137.349 227.964C137.762 227.964 138.152 227.86 138.504 227.661L138.971 227.313C139.254 227.04 139.453 226.707 139.56 226.337C139.567 226.271 139.583 226.211 139.613 226.152L139.384 226.685C139.407 226.625 139.437 226.574 139.476 226.529L139.116 226.98C139.162 226.929 139.208 226.884 139.261 226.84L138.795 227.187C138.864 227.136 138.94 227.091 139.024 227.062L138.473 227.284C138.573 227.247 138.68 227.217 138.787 227.202L138.175 227.284C138.282 227.269 138.389 227.269 138.504 227.284L137.892 227.202C137.984 227.217 138.068 227.239 138.144 227.269L137.594 227.047C137.662 227.076 137.724 227.113 137.785 227.158L137.318 226.81C137.372 226.847 137.41 226.892 137.448 226.936L137.089 226.485C137.127 226.529 137.158 226.581 137.181 226.633L136.951 226.101C136.974 226.16 136.997 226.226 137.004 226.293L136.92 225.701C136.928 225.768 136.928 225.827 136.92 225.894L137.004 225.302C136.997 225.369 136.974 225.435 136.943 225.502L137.173 224.969C137.142 225.043 137.096 225.11 137.05 225.169L137.41 224.718C137.349 224.799 137.272 224.866 137.188 224.932L137.655 224.585C137.571 224.644 137.479 224.696 137.387 224.74L137.938 224.518C137.846 224.555 137.754 224.577 137.663 224.592L138.274 224.511C138.198 224.518 138.114 224.518 138.037 224.511L138.649 224.592C138.58 224.585 138.519 224.563 138.458 224.541L139.009 224.762C138.955 224.74 138.902 224.711 138.848 224.674L139.315 225.021C139.315 225.021 139.292 225.006 139.284 224.992C139.078 224.777 138.833 224.622 138.542 224.533C138.267 224.393 137.976 224.333 137.655 224.341C137.341 224.326 137.043 224.393 136.767 224.533C136.484 224.622 136.24 224.777 136.025 224.992L135.666 225.443C135.459 225.79 135.352 226.16 135.352 226.559L135.436 227.15C135.543 227.527 135.742 227.853 136.025 228.126V228.112Z" fill="#E7F2FD"/>
<path d="M158.052 231.247C158.151 228.755 157.447 226.315 156.667 223.971C156.285 222.833 155.887 221.702 155.565 220.541C155.244 219.38 155.076 218.678 155.076 217.569C155.076 216.741 155.267 215.868 155.734 215.099C155.818 214.966 156.116 214.545 156.063 214.611C155.986 214.707 156.315 214.345 156.392 214.271C156.545 214.116 156.705 213.968 156.874 213.827C156.958 213.761 157.455 213.376 157.195 213.561C158.855 212.386 160.791 211.624 162.588 210.678C164.7 209.561 166.743 208.083 167.791 205.924C168.319 204.837 168.104 203.528 166.964 202.892C165.97 202.331 164.356 202.597 163.828 203.691C163.736 203.883 163.637 204.083 163.522 204.268C163.468 204.356 163.124 204.837 163.208 204.741C163.3 204.63 162.963 205 162.894 205.074C162.696 205.273 162.474 205.465 162.259 205.65C162.061 205.813 162.259 205.665 162.29 205.635C162.206 205.702 162.114 205.761 162.022 205.828C161.808 205.976 161.586 206.116 161.364 206.249C160.913 206.523 160.439 206.781 159.964 207.018C158.006 208.024 155.994 208.889 154.234 210.219C152.383 211.624 151.014 213.613 150.654 215.89C150.241 218.471 150.86 220.992 151.664 223.446C152.521 226.056 153.569 228.622 153.462 231.269C153.416 232.467 154.548 233.487 155.757 233.487C157.042 233.487 158.006 232.474 158.052 231.269V231.247Z" fill="#E7F2FD"/>
<path d="M163.897 223.535L164.15 222.189C164.249 221.894 164.257 221.598 164.188 221.302C164.173 221.007 164.081 220.733 163.913 220.474C163.767 220.215 163.568 220.008 163.323 219.853C163.102 219.654 162.841 219.528 162.543 219.454L161.931 219.373C161.518 219.373 161.128 219.476 160.776 219.676L160.309 220.023C160.026 220.297 159.827 220.629 159.72 220.999L159.468 222.345C159.368 222.64 159.361 222.936 159.429 223.232C159.445 223.528 159.537 223.801 159.705 224.06C159.85 224.319 160.049 224.526 160.294 224.681C160.516 224.881 160.776 225.006 161.074 225.08L161.686 225.162C162.099 225.162 162.49 225.058 162.841 224.859L163.308 224.511C163.591 224.237 163.79 223.905 163.897 223.535Z" fill="#E7F2FD"/>
<path d="M106.042 206.256C106.669 219.912 106.294 233.597 104.91 247.202C104.527 250.972 104.068 254.743 103.517 258.499C103.349 259.682 103.816 260.88 105.124 261.227C106.195 261.516 107.771 260.872 107.947 259.675C109.951 245.878 110.984 231.971 110.931 218.041C110.915 214.108 110.816 210.182 110.632 206.256C110.579 205.058 109.615 204.038 108.337 204.038C107.136 204.038 105.988 205.051 106.042 206.256Z" fill="#E7F2FD"/>
<path d="M111.811 205.428C127.151 200.741 142.161 195.025 156.69 188.334C160.791 186.449 164.846 184.482 168.87 182.442C169.964 181.887 170.301 180.408 169.697 179.41C169.046 178.338 167.654 178.057 166.56 178.612C152.612 185.695 138.168 191.853 123.34 196.999C119.125 198.463 114.879 199.846 110.602 201.155C109.424 201.517 108.659 202.7 108.995 203.883C109.317 205.007 110.633 205.798 111.818 205.435L111.811 205.428Z" fill="#E7F2FD"/>
<path d="M166.812 182.619C167.134 198.146 168.863 213.65 171.961 228.895C172.826 233.169 173.813 237.42 174.891 241.649C175.603 244.422 180.032 243.246 179.321 240.466C175.542 225.709 173.07 210.656 171.992 195.491C171.686 191.203 171.495 186.915 171.403 182.619C171.341 179.765 166.751 179.758 166.812 182.619Z" fill="#E7F2FD"/>
<path d="M140.126 259.142C140.356 258.958 140.593 258.773 140.83 258.588C141.044 258.425 141.067 258.41 140.899 258.529C141.021 258.44 141.136 258.351 141.258 258.263C141.74 257.915 142.23 257.575 142.735 257.25C143.737 256.599 144.77 255.993 145.826 255.438C148.075 254.263 149.681 253.619 152.145 252.887C153.292 252.547 154.134 251.32 153.751 250.159C153.369 248.998 152.16 248.244 150.928 248.607C145.764 250.137 141.029 252.651 136.882 255.985C135.957 256.732 136.025 258.359 136.882 259.12C137.869 259.993 139.139 259.919 140.126 259.12V259.142Z" fill="#E7F2FD"/>
<path d="M116.883 284.783C128.696 276.384 141.848 269.789 155.795 265.39C159.766 264.14 163.79 263.068 167.853 262.159C169.061 261.893 169.773 260.547 169.459 259.431C169.115 258.233 167.845 257.612 166.636 257.878C152.031 261.124 137.938 266.639 125.108 274.136C121.489 276.251 117.977 278.528 114.565 280.946C113.57 281.656 113.066 282.868 113.739 283.977C114.313 284.931 115.873 285.485 116.876 284.776L116.883 284.783Z" fill="#E7F2FD"/>
<path d="M137.747 267.393C137.089 279.704 138.045 292.058 140.509 304.147C140.746 305.322 142.199 305.995 143.332 305.699C144.602 305.359 145.175 304.147 144.938 302.971C142.551 291.267 141.702 279.312 142.337 267.401C142.398 266.203 141.236 265.183 140.042 265.183C138.749 265.183 137.808 266.203 137.747 267.401V267.393Z" fill="#E7F2FD"/>
<path d="M149.246 263.223C148.32 277.042 150.302 291.045 155.037 304.117C155.451 305.248 156.606 306.002 157.86 305.67C158.993 305.367 159.873 304.08 159.467 302.942C154.846 290.202 152.934 276.702 153.836 263.231C153.92 262.033 152.727 261.013 151.541 261.013C150.233 261.013 149.33 262.033 149.246 263.231V263.223Z" fill="#E7F2FD"/>
<path d="M109.706 222.796C101.497 232.489 95.9272 244.2 93.8692 256.584C93.2724 260.163 92.9357 263.771 92.8975 267.386C92.8669 270.24 97.4573 270.248 97.488 267.386C97.6027 255.675 100.977 244.089 107.136 234.012C108.865 231.187 110.8 228.474 112.95 225.931C113.738 225.006 113.891 223.698 112.95 222.796C112.139 222.012 110.494 221.864 109.706 222.796Z" fill="#E7F2FD"/>
<path d="M168.511 205.132C178.533 213.339 187.293 222.914 194.447 233.568C195.12 234.573 196.482 234.987 197.584 234.366C198.617 233.782 199.083 232.341 198.41 231.335C191.058 220.37 182.076 210.448 171.762 202.005C170.814 201.229 169.444 201.11 168.519 202.005C167.7 202.796 167.57 204.363 168.519 205.14L168.511 205.132Z" fill="#E7F2FD"/>
<path d="M141.702 300.945C140.195 301.892 138.68 302.838 137.173 303.785C136.676 304.095 136.278 304.546 136.117 305.108C135.964 305.64 136.033 306.343 136.347 306.816C136.66 307.289 137.135 307.703 137.716 307.836L138.328 307.918C138.741 307.918 139.132 307.814 139.483 307.614C140.983 306.971 142.475 306.335 143.974 305.692C144.464 305.485 144.892 304.842 145.03 304.369C145.183 303.836 145.114 303.134 144.8 302.661C144.487 302.188 144.012 301.774 143.431 301.64L142.819 301.559C142.406 301.559 142.016 301.663 141.664 301.862C140.164 302.506 138.673 303.141 137.173 303.785L139.491 307.614C140.998 306.668 142.513 305.722 144.02 304.775C144.517 304.465 144.915 304.014 145.076 303.452C145.229 302.92 145.16 302.217 144.846 301.744C144.533 301.271 144.058 300.857 143.477 300.724C142.895 300.591 142.23 300.62 141.71 300.945H141.702Z" fill="#E7F2FD"/>
<path d="M157.463 304.841C158.634 305.115 159.774 305.477 160.875 305.928L160.324 305.706C161.166 306.054 161.992 306.453 162.78 306.897C163.629 307.37 164.876 307.274 165.565 306.549C166.253 305.825 166.468 304.73 165.924 303.858C165.435 303.082 164.616 302.498 163.683 302.35C163.293 302.291 162.903 302.239 162.505 302.239C162.275 302.239 162.053 302.246 161.824 302.224L162.436 302.305C162.26 302.283 162.099 302.246 161.931 302.187L162.482 302.409C162.375 302.365 162.275 302.313 162.183 302.246L162.65 302.594C162.596 302.549 162.558 302.512 162.512 302.461L162.872 302.912C162.834 302.86 162.803 302.808 162.772 302.749L163.002 303.281C162.987 303.237 162.971 303.2 162.964 303.156L163.048 303.747C163.048 303.703 163.048 303.666 163.048 303.621L162.964 304.213C162.964 304.213 162.979 304.161 162.987 304.139L162.757 304.671C162.757 304.671 162.78 304.627 162.795 304.605L162.436 305.056C162.436 305.056 162.474 305.019 162.489 305.004L162.023 305.352C162.069 305.322 162.114 305.292 162.168 305.27L161.617 305.492C161.671 305.47 161.732 305.462 161.786 305.448L161.174 305.529C161.242 305.522 161.319 305.522 161.388 305.529L160.776 305.448C160.829 305.455 160.875 305.47 160.921 305.485L160.37 305.263C160.37 305.263 160.409 305.285 160.431 305.292L159.965 304.945C159.965 304.945 159.995 304.967 160.011 304.989L159.651 304.538L159.666 304.56L159.437 304.028C159.437 304.028 159.452 304.065 159.452 304.08L159.368 303.488V303.518C159.399 303.318 159.422 303.126 159.452 302.926C159.452 302.949 159.452 302.971 159.437 302.993L159.666 302.461C159.666 302.461 159.643 302.512 159.628 302.535C159.008 303.525 159.368 305.019 160.454 305.566C161.541 306.113 162.933 305.832 163.591 304.767C164.058 304.021 164.088 303.03 163.614 302.283C163.193 301.61 162.482 301.211 161.694 301.108C160.309 300.93 158.97 301.64 158.534 302.971C158.297 303.681 158.496 304.487 158.871 305.115C159.276 305.795 159.957 306.194 160.699 306.461C161.441 306.727 162.268 306.608 163.063 306.705L162.451 306.623C162.604 306.645 162.75 306.682 162.895 306.742L162.344 306.52C162.413 306.549 162.474 306.586 162.535 306.623L162.069 306.276C162.13 306.32 162.176 306.364 162.222 306.416L161.862 305.965C161.893 306.002 161.923 306.047 161.946 306.084L165.083 303.052C163.086 301.936 160.906 301.078 158.664 300.546C158.075 300.405 157.425 300.472 156.897 300.768C156.423 301.034 155.964 301.566 155.841 302.091C155.574 303.237 156.193 304.523 157.448 304.819L157.463 304.841Z" fill="#E7F2FD"/>
<path d="M192.31 160.23C216.377 164.132 238.341 157.689 260.508 151.177C268.785 148.748 269.601 147.882 269.659 147.191C270.309 139.22 172.072 126.028 157.381 135.605C148.873 141.154 165.926 155.944 192.31 160.223V160.23Z" fill="#516C82"/>
<path d="M178.219 52.09L243.339 33.2373L253.487 109.898L185.933 124.395L178.219 52.09Z" fill="#3B6E9B"/>
<path d="M185.175 43.1211C185.326 61.234 187.543 79.3468 191.776 96.992C192.975 101.983 194.332 106.938 195.849 111.845C196.644 114.421 200.825 113.325 200.031 110.728C194.744 93.6138 191.393 75.9546 190.107 58.1349C189.746 53.1373 189.551 48.1257 189.508 43.1141C189.486 40.4199 185.153 40.4129 185.175 43.1141V43.1211Z" fill="#E7F2FD"/>
<path d="M201.216 73.7418C200.682 68.2207 201.39 62.7065 203.376 57.5065C203.802 56.3897 204.264 55.238 204.965 54.2469C205.557 53.4093 206.287 52.9556 207.153 52.7602C208.793 52.3903 210.924 53.1511 212.303 54.4144C214.39 56.3269 215.532 59.0072 216.651 61.513C217.113 62.553 218.695 62.7833 219.613 62.2668C220.725 61.6386 220.855 60.4451 220.393 59.4051C219.172 56.6689 217.865 53.9119 215.683 51.7551C213.632 49.7239 210.671 48.3559 207.688 48.5024C204.394 48.663 201.917 50.5685 200.501 53.3814C199.086 56.1943 198.038 59.4679 197.432 62.6437C196.731 66.3082 196.529 70.0355 196.89 73.7488C196.998 74.8725 197.807 75.8428 199.057 75.8428C200.147 75.8428 201.332 74.8795 201.223 73.7488L201.216 73.7418Z" fill="#E7F2FD"/>
<path d="M208.41 71.3271C211.198 71.3271 211.205 67.1392 208.41 67.1392C205.615 67.1392 205.615 71.3271 208.41 71.3271Z" fill="#E7F2FD"/>
<path d="M229.06 67.9277C228.901 64.4866 228.713 61.0455 228.583 57.6044C228.489 55.1754 228.431 52.4672 229.486 50.4291C230.006 49.417 230.634 48.733 231.371 48.377C230.959 48.5724 231.667 48.3142 231.761 48.2862C232.014 48.2444 232.014 48.2374 231.761 48.2723C231.891 48.2583 232.021 48.2513 232.151 48.2444C232.411 48.2374 232.678 48.2444 232.938 48.2723C232.447 48.2234 233.241 48.3491 233.335 48.377C233.415 48.3979 234.166 48.6632 233.74 48.4817C233.913 48.5585 234.086 48.6422 234.26 48.733C234.346 48.7818 234.968 49.2146 234.592 48.9144C234.78 49.061 234.939 49.2355 235.112 49.396C235.271 49.5775 235.264 49.5705 235.09 49.3681C235.155 49.4589 235.213 49.5496 235.264 49.6473C235.372 49.8567 235.365 49.8358 235.242 49.5845C235.278 49.6822 235.307 49.7869 235.329 49.8916C235.48 49.1029 235.184 50.5128 235.343 49.7381C235.321 49.8497 235.061 50.464 235.256 50.0731C234.744 51.0922 234.968 52.3346 236.036 52.9349C236.99 53.4723 238.485 53.2071 238.998 52.181C241.497 47.2253 235.646 43.4352 230.995 44.1751C228.236 44.6148 226.33 46.8763 225.319 49.2564C224.307 51.6366 224.163 54.3867 224.235 56.9692C224.329 60.6267 224.567 64.2842 224.734 67.9347C224.784 69.0654 225.694 70.0287 226.9 70.0287C228.034 70.0287 229.118 69.0724 229.067 67.9347L229.06 67.9277Z" fill="#E7F2FD"/>
<path d="M234.723 63.4328C234.723 63.4328 234.723 63.37 234.73 63.3421L234.65 63.9005C234.658 63.8377 234.672 63.7818 234.694 63.726L234.477 64.2285C234.492 64.1936 234.513 64.1588 234.542 64.1239L234.203 64.5496C234.203 64.5496 234.246 64.5077 234.268 64.4868L233.827 64.8149C233.827 64.8149 233.878 64.7869 233.906 64.773L233.386 64.9824C233.386 64.9824 233.459 64.9614 233.495 64.9545L232.917 65.0312C232.968 65.0312 233.018 65.0312 233.069 65.0312L232.491 64.9545C232.578 64.9684 232.664 64.9894 232.751 65.0243L232.231 64.8149C232.368 64.8707 232.491 64.9475 232.606 65.0312L232.166 64.7032C232.289 64.7939 232.404 64.9056 232.505 65.0243L232.166 64.5985C232.231 64.6753 232.281 64.759 232.325 64.8498L232.108 64.3472C232.13 64.403 232.151 64.4589 232.159 64.5147L232.079 63.9563C232.079 63.9912 232.079 64.0331 232.079 64.068L232.159 63.5096C232.159 63.5096 232.144 63.5724 232.13 63.6004L232.346 63.0978C232.346 63.0978 232.318 63.1467 232.303 63.1746L232.643 62.7488C232.643 62.7488 232.592 62.7977 232.57 62.8186L233.011 62.4905C232.968 62.5185 232.924 62.5464 232.874 62.5673L233.394 62.3579C233.343 62.3789 233.293 62.3928 233.242 62.4068C232.96 62.4696 232.715 62.5953 232.505 62.7837C232.267 62.9303 232.086 63.1257 231.949 63.37C231.79 63.6073 231.704 63.8726 231.689 64.1518C231.624 64.431 231.639 64.7102 231.725 64.9894L231.942 65.4919C232.137 65.806 232.397 66.0573 232.722 66.2457L233.242 66.4551C233.625 66.5529 234.008 66.5529 234.398 66.4551C234.643 66.3993 234.882 66.2806 235.098 66.1829C235.12 66.169 235.149 66.155 235.17 66.141C235.344 66.0294 235.517 65.9037 235.669 65.7711C235.965 65.5059 236.275 65.0173 236.348 64.6334C236.377 64.4938 236.427 64.2216 236.427 64.0191C236.427 64.0052 236.427 63.9982 236.427 63.9842C236.413 63.7958 236.377 63.5864 236.348 63.3979C236.34 63.3491 236.326 63.3072 236.311 63.2583C236.21 62.9931 236.109 62.7069 235.929 62.4766C235.748 62.2463 235.568 61.988 235.336 61.7995C235.149 61.646 234.954 61.4994 234.759 61.3668C234.708 61.3319 234.65 61.297 234.6 61.2691C234.39 61.1574 234.13 61.0667 233.928 60.9829C233.878 60.962 233.82 60.941 233.769 60.9271C233.538 60.8712 233.293 60.8433 233.047 60.8293C232.801 60.8154 232.556 60.8712 232.339 60.9131C232.31 60.9131 232.289 60.927 232.267 60.934C232.18 60.9619 232.014 61.0387 232 61.0457C231.993 61.0457 231.805 61.1155 231.725 61.1574C231.718 61.1574 231.704 61.1644 231.696 61.1713C231.277 61.4226 231.097 61.625 230.815 62.0159C230.801 62.0369 230.786 62.0578 230.772 62.0857C230.678 62.2742 230.584 62.4626 230.526 62.665C230.519 62.6999 230.512 62.7348 230.505 62.7697C230.469 62.9861 230.425 63.2095 230.418 63.4328C230.404 63.719 230.469 63.9912 230.606 64.2425C230.693 64.5008 230.844 64.7241 231.054 64.9196C231.249 65.122 231.48 65.2686 231.754 65.3523C232.014 65.4849 232.289 65.5408 232.592 65.5338L233.17 65.457C233.538 65.3593 233.856 65.1778 234.123 64.9196L234.463 64.4938C234.658 64.1657 234.759 63.8167 234.759 63.4398L234.723 63.4328Z" fill="#E7F2FD"/>
<path d="M212.238 99.4422C223.657 101.055 235.661 96.8526 243.043 88.1836C243.787 87.3111 243.924 86.0756 243.043 85.2241C242.277 84.4842 240.725 84.3446 239.981 85.2241C233.617 92.7066 223.217 96.7898 213.394 95.4078C212.238 95.2473 211.068 95.687 210.729 96.8736C210.447 97.8577 211.075 99.2886 212.245 99.4492L212.238 99.4422Z" fill="#E7F2FD"/>
<path d="M193.965 43.6795C207.175 39.9452 220.198 35.5898 232.967 30.6061C236.68 29.1543 240.371 27.6536 244.04 26.111C245.116 25.6573 245.362 24.1427 244.82 23.2493C244.17 22.1814 242.935 22.0418 241.859 22.4955C229.464 27.7164 216.796 32.3371 203.932 36.3506C200.241 37.5023 196.536 38.5981 192.816 39.6521C190.144 40.4059 191.285 44.4473 193.972 43.6934L193.965 43.6795Z" fill="#E7F2FD"/>
<path d="M243.729 22.8166C245.123 41.1877 247.579 59.4891 251.096 77.595C252.1 82.7461 253.184 87.8834 254.361 93.0066C254.614 94.1094 255.942 94.7585 257.026 94.4724C258.203 94.1583 258.795 93.0066 258.543 91.8968C254.484 74.1609 251.443 56.2155 249.479 38.1445C248.922 33.0422 248.46 27.9329 248.07 22.8166C247.983 21.6859 247.138 20.7227 245.903 20.7227C244.798 20.7227 243.65 21.6859 243.737 22.8166H243.729Z" fill="#E7F2FD"/>
<path d="M195.409 117.485C212.224 112.355 229.038 107.218 245.853 102.088C250.613 100.636 255.38 99.1771 260.139 97.7253C261.252 97.3833 261.974 96.2665 261.656 95.1497C261.353 94.0888 260.11 93.3419 258.991 93.684C242.176 98.8142 225.362 103.951 208.547 109.082C203.788 110.533 199.021 111.992 194.261 113.444C193.148 113.786 192.426 114.903 192.744 116.02C193.047 117.081 194.29 117.827 195.409 117.485Z" fill="#E7F2FD"/>
<path d="M213.755 106.387C211.696 118.951 209.645 131.515 207.587 144.078C207.406 145.195 207.883 146.333 209.103 146.654C210.136 146.926 211.588 146.312 211.768 145.188C213.827 132.624 215.878 120.06 217.936 107.497C218.117 106.38 217.64 105.242 216.42 104.921C215.387 104.649 213.935 105.263 213.755 106.387Z" fill="#E7F2FD"/>
<path d="M242.292 102.597C243.007 115.182 243.722 127.773 244.445 140.358C244.51 141.489 245.398 142.452 246.611 142.452C247.738 142.452 248.843 141.496 248.778 140.358C248.063 127.773 247.348 115.182 246.626 102.597C246.561 101.466 245.672 100.503 244.459 100.503C243.332 100.503 242.227 101.459 242.292 102.597Z" fill="#E7F2FD"/>
<path d="M192.448 71.7105C180.126 69.812 167.645 69.8329 155.323 71.7663C154.167 71.9478 153.524 73.3368 153.806 74.3419C154.145 75.5285 155.316 75.9892 156.471 75.8077C167.955 73.9999 179.793 73.979 191.292 75.7519C192.448 75.9264 193.625 75.4657 193.957 74.2861C194.239 73.2879 193.603 71.892 192.44 71.7105H192.448Z" fill="#E7F2FD"/>
<path d="M251.472 60.0959C260.104 51.3431 270.815 44.5238 282.588 40.3986C285.975 39.2121 289.442 38.2418 292.96 37.495C294.101 37.2507 294.773 35.9664 294.477 34.9194C294.152 33.7817 292.96 33.2093 291.811 33.4536C278.89 36.2177 266.763 41.9552 256.463 49.9681C253.618 52.1807 250.931 54.5818 248.41 57.1365C246.489 59.0908 249.544 62.0503 251.472 60.0959Z" fill="#E7F2FD"/>
<path d="M294.52 15.2153C292.584 27.8838 291.689 40.678 291.92 53.4861C291.97 56.1804 296.304 56.1873 296.253 53.4861C296.029 41.0619 296.817 28.6237 298.694 16.3321C298.868 15.2153 298.405 14.0845 297.178 13.7565C296.159 13.4843 294.686 14.0915 294.513 15.2223L294.52 15.2153Z" fill="#E7F2FD"/>
<path d="M295.654 13.0306C295.574 13.0655 295.495 13.1004 295.415 13.1143C295.293 13.1423 295.307 13.1423 295.459 13.1143C295.603 13.1423 296.022 13.0794 295.675 13.0934L295.885 13.1772C295.712 13.0725 295.69 13.0655 295.813 13.1562C296.036 13.2819 295.675 13.0166 295.639 12.9817C295.921 13.2679 295.582 12.87 295.704 13.0794C295.827 13.2888 295.661 12.9189 295.646 12.8491C295.69 13.1143 295.647 12.9817 295.69 12.8282C295.56 13.24 295.762 12.6118 295.769 12.5909C295.805 12.4652 295.899 12.3326 295.798 12.5211C295.885 12.3675 295.971 12.2139 296.073 12.0674C296.13 11.9836 296.362 11.6835 296.188 11.8998C296.304 11.7602 296.427 11.6346 296.549 11.509C297.04 11.0064 297.589 10.5527 298.109 10.0711C299.258 8.98922 300.211 7.69096 300.565 6.15538C300.962 4.43832 300.717 2.79106 299.987 1.19964C299.547 0.250371 298.182 -0.0218422 297.279 0.341113C296.275 0.752928 295.762 1.78595 296.022 2.812C296.318 3.9916 296.622 5.17121 296.817 6.36478C296.939 7.11163 296.795 6.01578 296.867 6.76263C296.896 7.0837 296.925 7.40478 296.939 7.72586C296.961 8.25633 296.939 8.7868 296.896 9.31728C296.867 9.56855 296.867 9.57553 296.896 9.33821C296.881 9.43593 296.86 9.53366 296.845 9.62439C296.802 9.84775 296.744 10.0711 296.687 10.2875C296.614 10.5388 296.528 10.7831 296.441 11.0274C296.296 11.4392 296.578 10.8249 296.347 11.2437C296.217 11.4671 296.102 11.6974 295.964 11.9208C295.914 12.0045 295.618 12.4094 295.849 12.1232C295.69 12.3256 295.509 12.5141 295.322 12.6886C295.228 12.7793 295.126 12.8631 295.025 12.9468C295.206 12.8212 295.191 12.8282 294.989 12.9678C294.072 13.6029 293.538 14.8244 294.209 15.8295C294.801 16.709 296.188 17.2604 297.17 16.5834C299.344 15.0827 300.724 12.8072 301.114 10.2596C301.554 7.34895 300.933 4.5151 300.218 1.69522L296.26 3.30757C296.101 2.95858 296.325 3.53093 296.333 3.55885C296.39 3.75429 296.441 3.94972 296.47 4.14516C296.427 3.83805 296.455 4.14517 296.455 4.29174C296.455 4.45926 296.455 4.62678 296.448 4.7943C296.419 5.37363 296.557 4.47322 296.405 5.03161C296.354 5.22705 296.297 5.41551 296.232 5.61095C296.116 5.95994 296.275 5.56906 296.166 5.75752C296.08 5.9041 296 6.05068 295.906 6.19028C295.589 6.69283 296.13 5.98786 295.726 6.42062C295.581 6.57418 295.437 6.72773 295.293 6.87431C295.04 7.1186 294.78 7.35592 294.513 7.59324C293.812 8.22143 293.169 8.84962 292.599 9.59647C291.421 11.146 290.945 13.247 291.905 15.0129C292.786 16.6252 294.968 17.8048 296.831 17.058C297.871 16.6392 298.738 15.648 298.348 14.4824C298.023 13.5122 296.802 12.5699 295.683 13.0166L295.654 13.0306Z" fill="#E7F2FD"/>
</svg>
