<svg xmlns="http://www.w3.org/2000/svg" xmlns:xlink="http://www.w3.org/1999/xlink" width="384" zoomAndPan="magnify" viewBox="0 0 450 449.999984" height="384" preserveAspectRatio="xMidYMid meet" version="1.0"><defs><clipPath id="4d215c0269"><path d="M 61.289062 11 L 310.871094 11 L 310.871094 158 L 61.289062 158 Z M 61.289062 11 " clip-rule="nonzero"/></clipPath><clipPath id="58ce6922fb"><path d="M 267.742188 104.296875 C 253.328125 95.121094 243.277344 86.214844 234.671875 78.523438 C 221.6875 66.910156 217.265625 61.117188 199.617188 42.914062 C 192.621094 35.691406 182.675781 25.625 170.261719 13.695312 C 168.019531 11.542969 163.972656 11.046875 161.28125 12.59375 L 65.589844 67.753906 C 62.6875 69.421875 61.152344 73.410156 62.191406 76.613281 L 79.945312 130.945312 C 86.625 129.320312 92.445312 127.738281 100.464844 125.105469 L 111.796875 121.253906 C 107.882812 109.367188 103.957031 97.46875 100.046875 85.582031 L 161.988281 50.316406 C 169.34375 59.265625 179.769531 71.347656 193.011719 84.980469 C 194.5 86.515625 211.125 103.574219 223.75 114.320312 C 236.839844 125.453125 261.332031 143.144531 302.0625 157.152344 C 304.09375 147.691406 306.621094 138.78125 309.78125 127.722656 L 310.277344 125.980469 C 292.28125 118.605469 278.019531 110.8125 267.742188 104.28125 " clip-rule="nonzero"/></clipPath><clipPath id="44b11789e3"><path d="M 8.667969 101.1875 L 205 101.1875 L 205 304 L 8.667969 304 Z M 8.667969 101.1875 " clip-rule="nonzero"/></clipPath><clipPath id="36d55c382d"><path d="M 141.390625 127.378906 C 126.238281 135.277344 113.496094 139.519531 102.527344 143.117188 C 85.976562 148.546875 78.753906 149.496094 54.15625 155.679688 C 44.40625 158.132812 30.714844 161.695312 14.179688 166.496094 C 11.199219 167.355469 8.75 170.617188 8.75 173.71875 L 8.671875 284.167969 C 8.671875 287.523438 11.351562 290.847656 14.644531 291.539062 L 70.585938 303.320312 C 72.511719 296.714844 74.0625 290.878906 75.792969 282.617188 L 78.125 270.882812 C 65.863281 268.324219 53.613281 265.765625 41.351562 263.222656 L 41.773438 191.984375 C 53.207031 190.074219 68.886719 187.109375 87.300781 182.445312 C 89.363281 181.917969 112.457031 176.050781 128.074219 170.484375 C 144.265625 164.722656 171.828125 152.339844 204.324219 124.082031 C 197.148438 117.582031 190.695312 110.949219 182.707031 102.6875 L 181.441406 101.378906 C 166.066406 113.28125 152.179688 121.734375 141.375 127.363281 " clip-rule="nonzero"/></clipPath><clipPath id="927abcd6e9"><path d="M 68 192 L 216 192 L 216 443 L 68 443 Z M 68 192 " clip-rule="nonzero"/></clipPath><clipPath id="abba1e4154"><path d="M 98.628906 248.207031 C 97.894531 265.285156 95.199219 278.433594 92.839844 289.734375 C 89.273438 306.78125 86.472656 313.507812 79.523438 337.910156 C 76.769531 347.570312 73.023438 361.214844 68.902344 377.945312 C 68.164062 380.957031 69.742188 384.71875 72.4375 386.265625 L 168.050781 441.558594 C 170.953125 443.246094 175.167969 442.566406 177.425781 440.070312 L 215.59375 397.519531 C 210.839844 392.554688 206.566406 388.28125 200.277344 382.671875 L 191.28125 374.789062 C 182.945312 384.128906 174.597656 393.457031 166.261719 402.800781 L 104.769531 366.78125 C 108.832031 355.933594 114.097656 340.859375 119.273438 322.578125 C 119.859375 320.53125 126.316406 297.605469 129.308594 281.292969 C 132.40625 264.382812 135.476562 234.335938 127.261719 192.058594 C 118.054688 195.023438 109.085938 197.292969 97.921875 200.078125 L 96.164062 200.515625 C 98.78125 219.789062 99.171875 236.035156 98.644531 248.207031 " clip-rule="nonzero"/></clipPath><clipPath id="f6a130602e"><path d="M 138 293 L 387.550781 293 L 387.550781 439 L 138 439 Z M 138 293 " clip-rule="nonzero"/></clipPath><clipPath id="4ed8f74916"><path d="M 181.320312 346.367188 C 195.734375 355.542969 205.785156 364.449219 214.390625 372.140625 C 227.375 383.753906 231.800781 389.546875 249.449219 407.753906 C 256.445312 414.972656 266.386719 425.039062 278.800781 436.96875 C 281.042969 439.121094 285.089844 439.617188 287.785156 438.070312 L 383.472656 382.910156 C 386.375 381.226562 387.910156 377.253906 386.875 374.050781 L 369.121094 319.71875 C 362.441406 321.34375 356.617188 322.925781 348.597656 325.558594 L 337.269531 329.410156 C 341.179688 341.3125 345.105469 353.195312 349.019531 365.082031 L 287.105469 400.335938 C 279.75 391.382812 269.324219 379.300781 256.082031 365.667969 C 254.59375 364.136719 237.96875 347.074219 225.34375 336.332031 C 212.253906 325.195312 187.761719 307.503906 147.03125 293.496094 C 145 302.960938 142.472656 311.867188 139.3125 322.925781 L 138.816406 324.671875 C 156.8125 332.042969 171.074219 339.835938 181.367188 346.367188 " clip-rule="nonzero"/></clipPath><clipPath id="df3b53c4ee"><path d="M 233 7.972656 L 381 7.972656 L 381 259 L 233 259 Z M 233 7.972656 " clip-rule="nonzero"/></clipPath><clipPath id="5943e5615b"><path d="M 350.417969 202.246094 C 351.15625 185.167969 353.847656 172.019531 356.210938 160.71875 C 359.777344 143.671875 362.574219 136.945312 369.527344 112.542969 C 372.277344 102.867188 376.027344 89.238281 380.148438 72.507812 C 380.886719 69.496094 379.304688 65.738281 376.613281 64.1875 L 280.984375 8.910156 C 278.078125 7.222656 273.867188 7.902344 271.625 10.398438 L 233.453125 52.933594 C 238.207031 57.898438 242.480469 62.15625 248.769531 67.78125 L 257.765625 75.679688 C 266.101562 66.339844 274.453125 57.011719 282.789062 47.667969 L 344.28125 83.671875 C 340.21875 94.519531 334.953125 109.59375 329.777344 127.875 C 329.1875 129.921875 322.734375 152.851562 319.738281 169.175781 C 316.640625 186.085938 313.570312 216.132812 321.800781 258.410156 C 331.007812 255.445312 339.992188 253.175781 351.140625 250.390625 L 352.902344 249.953125 C 350.28125 230.679688 349.890625 214.433594 350.417969 202.261719 " clip-rule="nonzero"/></clipPath><clipPath id="75dfaba91e"><path d="M 244.71875 148 L 441 148 L 441 350.769531 L 244.71875 350.769531 Z M 244.71875 148 " clip-rule="nonzero"/></clipPath><clipPath id="23a30804c0"><path d="M 307.734375 324.234375 C 322.882812 316.335938 335.628906 312.09375 346.597656 308.496094 C 363.148438 303.050781 370.367188 302.117188 394.96875 295.933594 C 404.71875 293.480469 418.410156 289.898438 434.945312 285.117188 C 437.921875 284.257812 440.375 280.992188 440.375 277.894531 L 440.449219 167.445312 C 440.449219 164.089844 437.773438 160.765625 434.476562 160.070312 L 378.539062 148.292969 C 376.613281 154.882812 375.0625 160.734375 373.332031 168.992188 L 371 180.730469 C 383.261719 183.289062 395.507812 185.84375 407.773438 188.386719 L 407.335938 259.628906 C 395.902344 261.539062 380.222656 264.503906 361.808594 269.167969 C 359.746094 269.695312 336.652344 275.5625 321.035156 281.128906 C 304.84375 286.890625 277.28125 299.273438 244.785156 327.527344 C 251.960938 334.027344 258.414062 340.648438 266.402344 348.925781 L 267.667969 350.234375 C 283.042969 338.332031 296.929688 329.875 307.734375 324.234375 " clip-rule="nonzero"/></clipPath></defs><g clip-path="url(#4d215c0269)"><g clip-path="url(#58ce6922fb)"><path fill="#0078e8" d="M 1.152344 0.453125 L 447.691406 0.453125 L 447.691406 450 L 1.152344 450 Z M 1.152344 0.453125 " fill-opacity="1" fill-rule="nonzero"/></g></g><g clip-path="url(#44b11789e3)"><g clip-path="url(#36d55c382d)"><path fill="#0078e8" d="M 1.152344 0.453125 L 447.691406 0.453125 L 447.691406 450 L 1.152344 450 Z M 1.152344 0.453125 " fill-opacity="1" fill-rule="nonzero"/></g></g><g clip-path="url(#927abcd6e9)"><g clip-path="url(#abba1e4154)"><path fill="#0078e8" d="M 1.152344 0.453125 L 447.691406 0.453125 L 447.691406 450 L 1.152344 450 Z M 1.152344 0.453125 " fill-opacity="1" fill-rule="nonzero"/></g></g><g clip-path="url(#f6a130602e)"><g clip-path="url(#4ed8f74916)"><path fill="#0078e8" d="M 1.152344 0.453125 L 447.691406 0.453125 L 447.691406 450 L 1.152344 450 Z M 1.152344 0.453125 " fill-opacity="1" fill-rule="nonzero"/></g></g><g clip-path="url(#df3b53c4ee)"><g clip-path="url(#5943e5615b)"><path fill="#0078e8" d="M 1.152344 0.453125 L 447.691406 0.453125 L 447.691406 450 L 1.152344 450 Z M 1.152344 0.453125 " fill-opacity="1" fill-rule="nonzero"/></g></g><g clip-path="url(#75dfaba91e)"><g clip-path="url(#23a30804c0)"><path fill="#0078e8" d="M 1.152344 0.453125 L 447.691406 0.453125 L 447.691406 450 L 1.152344 450 Z M 1.152344 0.453125 " fill-opacity="1" fill-rule="nonzero"/></g></g></svg>