<?xml version="1.0" encoding="UTF-8"?>
<svg version="1.1" xmlns="http://www.w3.org/2000/svg" width="377" height="390">
<path d="M0 0 C124.41 0 248.82 0 377 0 C377 128.7 377 257.4 377 390 C252.59 390 128.18 390 0 390 C0 261.3 0 132.6 0 0 Z " fill="#418AC9" transform="translate(0,0)"/>
<path d="M0 0 C16.27634609 14.69879255 28.64367543 31.89642405 34.5390625 53.29296875 C35.83199219 53.33035156 37.12492188 53.36773437 38.45703125 53.40625 C57.90228795 54.08653413 75.04496678 57.15587046 89.5390625 71.29296875 C95.88693605 78.55649991 100.79839232 86.40887708 104.5390625 95.29296875 C104.879375 96.09347656 105.2196875 96.89398438 105.5703125 97.71875 C111.21129283 114.09326235 107.83072353 131.88660492 101.2578125 147.296875 C93.96527535 162.19993783 81.15804514 172.58722327 65.8125 178.25 C59.0186212 180.4146368 53.1175618 181.58936824 46.02030945 181.55366516 C45.20044125 181.55749071 44.38057305 181.56131626 43.53586036 181.56525773 C40.80858965 181.57551638 38.08153229 181.57160921 35.35424805 181.56762695 C33.39064338 181.57197742 31.42704041 181.57716168 29.46343994 181.58311462 C24.14307763 181.59648085 18.82278647 181.59708586 13.50241065 181.59455132 C9.05430273 181.59347986 4.6062091 181.59836956 0.15810424 181.60315675 C-10.34016473 181.61424403 -20.83839793 181.61469392 -31.33666992 181.60864258 C-42.15096159 181.6026047 -52.96512308 181.61491091 -63.77939254 181.63621265 C-73.07817102 181.65385273 -82.37690816 181.65982615 -91.67570275 181.6565749 C-97.22318734 181.65476552 -102.7705791 181.65736373 -108.31804848 181.67128944 C-113.53757068 181.68390207 -118.75689067 181.68189119 -123.97640991 181.66887856 C-125.88590248 181.66652059 -127.79540942 181.66921935 -129.70488548 181.67750168 C-139.37910882 181.71641927 -148.25522055 181.68953705 -157.4609375 178.29296875 C-158.56566406 177.9165625 -159.67039063 177.54015625 -160.80859375 177.15234375 C-167.73070183 174.32374131 -173.59829976 170.93226314 -179.4609375 166.29296875 C-180.71197266 165.32423828 -180.71197266 165.32423828 -181.98828125 164.3359375 C-195.59321036 153.03692857 -204.05884229 135.68044254 -206.4609375 118.29296875 C-208.1975692 97.7244499 -202.85427563 78.65452062 -190.0859375 62.29296875 C-182.65834152 53.81154291 -173.59639196 47.22956757 -163.4609375 42.29296875 C-162.4709375 42.29296875 -161.4809375 42.29296875 -160.4609375 42.29296875 C-160.46617432 43.00839844 -160.47141113 43.72382813 -160.47680664 44.4609375 C-160.49774046 47.73827213 -160.51064952 51.01559262 -160.5234375 54.29296875 C-160.53600586 55.98099609 -160.53600586 55.98099609 -160.54882812 57.703125 C-160.56627166 63.66881272 -160.37874973 69.39584448 -159.4609375 75.29296875 C-158.8009375 74.96296875 -158.1409375 74.63296875 -157.4609375 74.29296875 C-157.42226562 72.71322266 -157.42226562 72.71322266 -157.3828125 71.1015625 C-156.62115605 49.14944392 -149.51416137 30.1774282 -135.4609375 13.29296875 C-134.92210937 12.59171875 -134.38328125 11.89046875 -133.828125 11.16796875 C-120.8662533 -4.9855196 -98.92303754 -17.47042225 -78.55078125 -20.23828125 C-50.25743679 -23.23101191 -22.37826282 -18.84293466 0 0 Z " fill="#FDFEFE" transform="translate(239.4609375,90.70703125)"/>
<path d="M0 0 C57.09 0 114.18 0 173 0 C173 128.7 173 257.4 173 390 C48.59 390 -75.82 390 -204 390 C-204 331.26 -204 272.52 -204 212 C-203.67 212 -203.34 212 -203 212 C-202.88027832 212.72848145 -202.76055664 213.45696289 -202.63720703 214.20751953 C-193.39163982 270.11948309 -169.87853995 319.28695019 -123.02734375 353.1875 C-111.09257078 361.62213007 -98.33322256 368.07039335 -85 374 C-83.38931641 374.72509766 -83.38931641 374.72509766 -81.74609375 375.46484375 C-40.36663412 392.71087686 9.26192634 391.23809573 50.58935547 374.98144531 C55.80677052 372.8194936 60.91419869 370.4529106 66 368 C66.97195313 367.54753906 67.94390625 367.09507812 68.9453125 366.62890625 C86.11276846 358.42189361 101.36611021 346.14183963 115 333 C115.70253906 332.34902344 116.40507812 331.69804687 117.12890625 331.02734375 C147.09355682 302.51552473 169.11863777 256.12627161 170.29052734 214.70092773 C170.31678512 212.52858903 170.33152217 210.35608666 170.3359375 208.18359375 C170.3425943 207.00644302 170.3492511 205.8292923 170.35610962 204.61647034 C170.36616243 202.14170882 170.37092895 199.66692059 170.37060547 197.19213867 C170.37496112 193.47071958 170.41131504 189.75050573 170.44921875 186.02929688 C170.54218578 166.78736861 168.09868737 149.6479437 161.8125 131.4375 C161.42376709 130.29692139 161.03503418 129.15634277 160.63452148 127.98120117 C143.54138119 79.02124407 107.91027666 40.41460928 61.5378418 17.78100586 C41.96653632 8.45155298 21.50837754 3.49750658 0 1 C0 0.67 0 0.34 0 0 Z " fill="#FEFEFE" transform="translate(204,0)"/>
<path d="M0 0 C7.57989309 6.28969852 14.50648692 13.09257484 20.828125 20.6484375 C22.66657773 22.63899244 24.53511535 24.41848568 26.546875 26.2265625 C27.18471924 26.81606689 27.82256348 27.40557129 28.47973633 28.01293945 C29.75699004 29.18698074 31.05582924 30.33808374 32.37768555 31.46166992 C35.0996471 33.99816863 36.788066 35.81891772 37.45727539 39.54833984 C37.50139932 42.41513477 37.32007938 45.15141712 37 48 C36.91564697 48.82733643 36.83129395 49.65467285 36.74438477 50.50708008 C31.52302011 92.3915967 10.70362011 129.82661621 -18 160 C-18.6909375 160.75539063 -19.381875 161.51078125 -20.09375 162.2890625 C-44.63966751 188.25109064 -80.31562422 205.22933609 -115 212 C-115.71043457 212.14808105 -116.42086914 212.29616211 -117.15283203 212.44873047 C-147.01071368 218.61958076 -147.01071368 218.61958076 -156.23828125 213.04296875 C-158.81393805 210.4985794 -160.86597808 207.92226425 -163 205 C-169.37649785 197.10416669 -176.79607088 190.12590823 -184 183 C-197.84734471 169.30262653 -197.84734471 169.30262653 -203.05859375 163.1640625 C-208.10885617 157.53459494 -213.62501559 152.31677158 -219 147 C-232.87680185 133.27348843 -232.87680185 133.27348843 -238.08984375 127.1328125 C-242.96868107 121.68527636 -248.30154442 116.63990499 -253.5 111.5 C-268.2741211 96.89228091 -268.2741211 96.89228091 -274 90 C-274.50072021 89.40445313 -275.00144043 88.80890625 -275.51733398 88.1953125 C-276.68445419 86.80207154 -277.84337683 85.40196747 -279 84 C-275.48992426 85.30462992 -272.46572711 86.86318898 -269.3125 88.875 C-259.01199776 95.14088415 -248.44025648 98.31320579 -236.39463806 98.27415466 C-235.16884587 98.28200968 -235.16884587 98.28200968 -233.9182902 98.29002339 C-231.20581122 98.30491155 -228.49352274 98.30572606 -225.78100586 98.30639648 C-223.82536505 98.31402564 -221.86972723 98.32245443 -219.91409302 98.33161926 C-214.61826015 98.35349983 -209.322485 98.3623548 -204.02661204 98.36744571 C-200.71124708 98.37109771 -197.39589704 98.37734222 -194.0805378 98.3844471 C-182.49484727 98.40892179 -170.90920137 98.42198866 -159.32348633 98.42553711 C-148.55634682 98.42916809 -137.7894931 98.45903734 -127.02244085 98.50094169 C-117.75328638 98.53574025 -108.48422617 98.55108722 -99.21500689 98.55178314 C-93.69020952 98.55257286 -88.1657034 98.56117041 -82.64097404 98.58978081 C-77.43774271 98.61612488 -72.2350407 98.61807612 -67.03177261 98.60212517 C-65.13404362 98.60032346 -63.23628303 98.60688425 -61.33862114 98.62294388 C-40.27525118 98.79017187 -23.8592771 93.5838835 -8.08984375 79.265625 C4.1464961 66.6669334 8.48950784 49.26153083 8.42675781 32.28051758 C8.15782751 21.46712494 5.74819953 12.23817782 0 3 C0 2.01 0 1.02 0 0 Z " fill="#3276B2" transform="translate(338,173)"/>
<path d="M0 0 C58.74 0 117.48 0 178 0 C178 0.33 178 0.66 178 1 C177.43829102 1.03440186 176.87658203 1.06880371 176.29785156 1.10424805 C162.38778733 2.01418633 149.35495612 3.98846554 136 8 C135.19385254 8.2381543 134.38770508 8.47630859 133.55712891 8.72167969 C85.46730346 23.26873178 46.188991 58.63041912 22.66748047 102.484375 C10.12390881 126.54736498 3.61723119 152.10450575 1 179 C0.67 179 0.34 179 0 179 C0 119.93 0 60.86 0 0 Z " fill="#FEFEFE" transform="translate(0,0)"/>
<path d="M0 0 C1.56877144 -0.0129007 1.56877144 -0.0129007 3.16923523 -0.02606201 C4.32146072 -0.03032196 5.47368622 -0.03458191 6.66082764 -0.03897095 C8.47560356 -0.05123718 8.47560356 -0.05123718 10.32704163 -0.06375122 C14.3455268 -0.0886388 18.3639743 -0.10528049 22.38250732 -0.11953735 C23.76609046 -0.12489723 25.14967353 -0.13027474 26.53325653 -0.13566971 C32.28939537 -0.15730007 38.0455314 -0.176036 43.80170059 -0.1872921 C52.04904623 -0.20352587 60.29592033 -0.23668713 68.5430882 -0.29369295 C74.34274973 -0.33241288 80.14228525 -0.35192726 85.94207263 -0.35721266 C89.40547678 -0.36086384 92.86837804 -0.37285842 96.33164215 -0.4053154 C100.19802121 -0.44103024 104.06381031 -0.43701989 107.93035889 -0.42959595 C109.64655174 -0.45420395 109.64655174 -0.45420395 111.39741516 -0.47930908 C120.0537182 -0.41119305 120.0537182 -0.41119305 123.74963379 2.56536865 C128.04049548 7.38456279 127.2726549 11.75179147 127.30438232 17.96640015 C127.33531982 19.46396851 127.33531982 19.46396851 127.36688232 20.99179077 C127.41713279 30.42003532 127.41713279 30.42003532 124.05438232 34.15390015 C120.91084597 36.10062326 118.49193442 36.4094911 114.82356262 36.42805481 C113.76510635 36.43802994 112.70665009 36.44800507 111.61611938 36.45828247 C110.46016266 36.45894714 109.30420593 36.45961182 108.11322021 36.46029663 C106.28096642 36.47278191 106.28096642 36.47278191 104.41169739 36.48551941 C101.0645277 36.50548739 97.71760674 36.51625988 94.37039876 36.52134585 C92.27846588 36.52499141 90.18655687 36.53123242 88.0946331 36.53834724 C80.79450302 36.56283158 73.49444394 36.57589192 66.1942749 36.57943726 C59.39241692 36.5830742 52.5910097 36.61298297 45.78928953 36.65484184 C39.94627591 36.68953855 34.10341176 36.70498556 28.26029581 36.70568329 C24.77182778 36.70647618 21.2838193 36.71521969 17.79545784 36.74368095 C13.90510729 36.77471362 10.01540503 36.76580489 6.12493896 36.75326538 C4.39404022 36.77551682 4.39404022 36.77551682 2.62817383 36.79821777 C-5.16787233 36.72649487 -5.16787233 36.72649487 -9.13752747 33.80393982 C-12.61273344 28.71048063 -12.23168705 23.79570952 -12.32061768 17.84140015 C-12.35800049 16.90360718 -12.3953833 15.96581421 -12.43389893 14.99960327 C-12.49169874 10.44305139 -12.49960035 7.18092778 -9.54718018 3.5484314 C-6.07644629 0.35389705 -4.58944013 0.02803657 0 0 Z " fill="#4089C8" transform="translate(123.94561767578125,117.84609985351563)"/>
<path d="M0 0 C14.51659693 -0.07010698 29.03316758 -0.12279693 43.5498991 -0.15543652 C50.29040374 -0.17089995 57.03080314 -0.19197931 63.77124023 -0.22631836 C70.27456582 -0.25943363 76.77782308 -0.27684723 83.28122902 -0.28463173 C85.76397232 -0.29018025 88.24670955 -0.30101494 90.72940636 -0.31719017 C94.20344415 -0.33892659 97.67702833 -0.34196844 101.15112305 -0.34057617 C102.18042938 -0.351362 103.20973572 -0.36214783 104.27023315 -0.3732605 C112.95825997 -0.33551592 112.95825997 -0.33551592 117 3 C119.8245065 5.95990691 120.38266038 7.97600556 120.3984375 12.02734375 C120.40230469 12.98447266 120.40617187 13.94160156 120.41015625 14.92773438 C120.39855469 15.92095703 120.38695312 16.91417969 120.375 17.9375 C120.38660156 18.92685547 120.39820313 19.91621094 120.41015625 20.93554688 C120.37325716 30.0803702 120.37325716 30.0803702 117 34 C113.07576446 36.61615703 109.76461941 36.26556915 105.21411133 36.22705078 C104.31634476 36.22734283 103.41857819 36.22763489 102.49360657 36.22793579 C99.52298351 36.22654125 96.55261055 36.21097415 93.58203125 36.1953125 C91.5236576 36.19158281 89.46528218 36.18873563 87.40690613 36.18673706 C81.98665473 36.17909712 76.56651035 36.15944549 71.14630127 36.1373291 C65.61642912 36.11687847 60.08653969 36.10773702 54.55664062 36.09765625 C43.70438004 36.07619998 32.85219892 36.04205964 22 36 C21.41774658 34.37191406 21.41774658 34.37191406 20.82373047 32.7109375 C20.29693757 31.2654835 19.76973473 29.82017886 19.2421875 28.375 C18.98848389 27.66214844 18.73478027 26.94929688 18.47338867 26.21484375 C14.94697896 16.62036866 8.84827943 9.41472485 1.46875 2.4609375 C0.9840625 1.97882813 0.499375 1.49671875 0 1 C0 0.67 0 0.34 0 0 Z " fill="#4089C8" transform="translate(131,161)"/>
<path d="M0 0 C11.50042597 -0.11590522 23.00071275 -0.20472143 34.50160408 -0.25906086 C39.84209973 -0.28514262 45.18219545 -0.32051522 50.52246094 -0.37719727 C55.67719319 -0.43156698 60.83154105 -0.46143123 65.98653793 -0.47438622 C67.95214768 -0.48361714 69.91773664 -0.50164325 71.88318253 -0.52865028 C74.63889089 -0.56500661 77.39301575 -0.56994262 80.14892578 -0.56762695 C80.95956985 -0.58560333 81.77021393 -0.60357971 82.60542297 -0.62210083 C86.71334797 -0.58480747 89.24099074 -0.21451215 92.49069214 2.41047668 C96.97980743 7.04309626 96.21689504 11.13428685 96.25 17.3125 C96.270625 18.26318359 96.29125 19.21386719 96.3125 20.19335938 C96.36220866 29.08499577 96.36220866 29.08499577 93 33 C89.62474599 36.16263934 87.23308102 36.36751819 82.67089844 36.34057617 C81.38987244 36.34034958 80.10884644 36.34012299 78.78900146 36.33988953 C77.39578907 36.32457074 76.00258026 36.30892278 74.609375 36.29296875 C73.18020066 36.28737097 71.75102054 36.28310173 70.32183838 36.28010559 C66.5668539 36.26867101 62.81221954 36.2392162 59.05737305 36.20599365 C55.22319271 36.1752626 51.38895559 36.1615938 47.5546875 36.14648438 C40.03629901 36.1143448 32.51819863 36.0631657 25 36 C24.60603027 34.86220093 24.60603027 34.86220093 24.20410156 33.70141602 C23.8531543 32.70811279 23.50220703 31.71480957 23.140625 30.69140625 C22.79547852 29.70599854 22.45033203 28.72059082 22.09472656 27.70532227 C20.85647208 24.64530934 19.2049178 22.44115899 17 20 C17 19.34 17 18.68 17 18 C14.03814367 16.46753141 11.03682861 15.1669471 7.9375 13.9375 C7.08027344 13.59589844 6.22304687 13.25429687 5.33984375 12.90234375 C3.57686869 12.22246522 1.79256361 11.5975212 0 11 C0 7.37 0 3.74 0 0 Z " fill="#4189C8" transform="translate(155,204)"/>
<path d="M0 0 C3.16115776 1.36983503 3.9927092 1.9890638 6 5 C6.49013484 8.9421682 6.41651039 12.90563194 6.4375 16.875 C6.47037109 17.96425781 6.50324219 19.05351562 6.53710938 20.17578125 C6.59055389 28.11472108 6.59055389 28.11472108 3.91015625 32.1328125 C-2.78061038 36.42568022 -9.50473942 36.30145139 -17.22436523 36.30639648 C-18.88911392 36.31888176 -18.88911392 36.31888176 -20.5874939 36.33161926 C-24.24456318 36.35565223 -27.90145396 36.36448227 -31.55859375 36.37109375 C-34.10775301 36.38006347 -36.65691175 36.38918538 -39.20606995 36.39845276 C-44.54470426 36.4149259 -49.88327202 36.42267295 -55.22192383 36.42553711 C-61.377947 36.42917348 -67.533472 36.45908777 -73.68934292 36.50094169 C-79.63044035 36.53990754 -85.57138899 36.55113135 -91.51262093 36.55226326 C-94.0319699 36.55646474 -96.55131934 36.56889599 -99.07058525 36.58978081 C-102.59624367 36.61668844 -106.12053096 36.61187069 -109.64624023 36.59936523 C-110.68181564 36.61419952 -111.71739105 36.62903381 -112.78434753 36.64431763 C-120.38118385 36.56773311 -125.25370331 34.63342875 -130.71736813 29.33437252 C-131.14063664 28.89402959 -131.56390516 28.45368666 -132 28 C-131.35947063 27.99576806 -130.71894127 27.99153612 -130.05900192 27.98717594 C-114.47706553 27.8838935 -98.89517704 27.77525933 -83.31332016 27.66066074 C-75.77806898 27.60537106 -68.24281307 27.55189607 -60.70751953 27.50268555 C-54.14014173 27.45979157 -47.57279818 27.41350045 -41.00547338 27.36312145 C-37.52779681 27.3365625 -34.05012685 27.31171053 -30.57241058 27.29092598 C-26.69113129 27.26766591 -22.80993254 27.23682181 -18.92871094 27.20532227 C-17.77424973 27.1995668 -16.61978851 27.19381134 -15.43034363 27.18788147 C-14.37307571 27.17809265 -13.3158078 27.16830383 -12.22650146 27.15821838 C-11.30839565 27.15176583 -10.39028984 27.14531328 -9.44436264 27.1386652 C-7.12473934 27.00707628 -5.18565523 26.78742228 -3 26 C-1.18268758 22.66729404 -0.72419198 19.67388205 -0.5859375 15.91796875 C-0.52792969 14.52094727 -0.52792969 14.52094727 -0.46875 13.09570312 C-0.4378125 12.13599609 -0.406875 11.17628906 -0.375 10.1875 C-0.31699219 8.71893555 -0.31699219 8.71893555 -0.2578125 7.22070312 C-0.16389184 4.81398626 -0.07821799 2.40726988 0 0 Z " fill="#C7CACC" transform="translate(251,126)"/>
<path d="M0 0 C3.16115776 1.36983503 3.9927092 1.9890638 6 5 C6.49013484 8.9421682 6.41651039 12.90563194 6.4375 16.875 C6.47037109 17.96425781 6.50324219 19.05351562 6.53710938 20.17578125 C6.59037205 28.08771024 6.59037205 28.08771024 3.97265625 32.1328125 C-2.30409172 36.07536904 -8.88581784 36.28332724 -16.078125 36.13525391 C-16.94736099 36.12579239 -17.81659698 36.11633087 -18.71217346 36.10658264 C-21.55834159 36.07315821 -24.40405079 36.02497521 -27.25 35.9765625 C-29.23395624 35.9503692 -31.21792493 35.92510432 -33.2019043 35.90072632 C-38.40354271 35.83433186 -43.6049166 35.75538422 -48.80633545 35.67376709 C-54.12208973 35.5925958 -59.43799837 35.52337236 -64.75390625 35.453125 C-75.16945577 35.31373618 -85.58476488 35.16107709 -96 35 C-96 38.63 -96 42.26 -96 46 C-96.33 46 -96.66 46 -97 46 C-97.33 40.06 -97.66 34.12 -98 28 C-95.23399414 27.9906543 -92.46798828 27.98130859 -89.61816406 27.97167969 C-80.4857459 27.93793312 -71.35355427 27.88239722 -62.22131729 27.81609726 C-56.6836655 27.77656509 -51.14617409 27.74440475 -45.60839844 27.72900391 C-40.26547126 27.71387518 -34.92298485 27.67949693 -29.5802536 27.63169098 C-27.54052305 27.61683809 -25.50072958 27.60895676 -23.46094513 27.60811615 C-20.60662173 27.6057565 -17.75352641 27.57875786 -14.89941406 27.54589844 C-14.05352722 27.5509288 -13.20764038 27.55595917 -12.33612061 27.56114197 C-7.56162429 27.4853665 -7.56162429 27.4853665 -3.50628662 25.09088135 C-1.23639125 21.94003221 -0.84552319 20.05097848 -0.68359375 16.2109375 C-0.64169922 15.26992187 -0.59980469 14.32890625 -0.55664062 13.359375 C-0.51732422 12.37453125 -0.47800781 11.3896875 -0.4375 10.375 C-0.37272461 8.88613281 -0.37272461 8.88613281 -0.30664062 7.3671875 C-0.20038931 4.91160162 -0.09835036 2.45591297 0 0 Z " fill="#C5C9CC" transform="translate(251,169)"/>
<path d="M0 0 C4.875 3.75 4.875 3.75 6 6 C6.32248898 9.93069158 6.32442843 13.87021619 6.375 17.8125 C6.43107422 19.4531543 6.43107422 19.4531543 6.48828125 21.12695312 C6.57694181 29.20984057 6.57694181 29.20984057 3.6640625 33.19921875 C-0.56384677 36.05708704 -3.67385892 36.12263414 -8.67456055 36.11352539 C-9.347995 36.11367142 -10.02142944 36.11381744 -10.715271 36.1139679 C-12.93911979 36.11327175 -15.16288461 36.10549332 -17.38671875 36.09765625 C-18.92942764 36.09579101 -20.47213711 36.09436761 -22.0148468 36.09336853 C-26.07383868 36.08955169 -30.13279473 36.07972851 -34.19177246 36.06866455 C-38.33422359 36.05843252 -42.4766805 36.05386707 -46.61914062 36.04882812 C-54.74611018 36.03810551 -62.87305063 36.02103907 -71 36 C-71 33.69 -71 31.38 -71 29 C-70.20930618 28.99635437 -69.41861237 28.99270874 -68.60395813 28.98895264 C-61.14415553 28.95105044 -53.68485112 28.89417323 -46.22536945 28.81609726 C-42.39054491 28.77662558 -38.55594987 28.7444359 -34.72094727 28.72900391 C-31.01833903 28.71383479 -27.31636175 28.67938612 -23.61403465 28.63169098 C-22.20314208 28.61687955 -20.79215941 28.60895911 -19.38118935 28.60811615 C-17.40156133 28.60574443 -15.42202188 28.57636874 -13.44262695 28.54589844 C-12.31677689 28.53701599 -11.19092682 28.52813354 -10.03096008 28.51898193 C-6.31837855 27.88328806 -4.64650356 26.63859474 -2 24 C-1.04831317 21.14493951 -0.8099054 19.09062718 -0.68359375 16.11328125 C-0.64169922 15.17548828 -0.59980469 14.23769531 -0.55664062 13.27148438 C-0.51732422 12.29501953 -0.47800781 11.31855469 -0.4375 10.3125 C-0.37272461 8.83040039 -0.37272461 8.83040039 -0.30664062 7.31835938 C-0.20058346 4.87904454 -0.09852286 2.43962887 0 0 Z " fill="#C8CACD" transform="translate(251,211)"/>
<path d="M0 0 C1.48306641 0.02126953 1.48306641 0.02126953 2.99609375 0.04296875 C3.98738281 0.04941406 4.97867188 0.05585938 6 0.0625 C8.43359375 0.23046875 8.43359375 0.23046875 9.43359375 1.23046875 C9.55874303 3.20666322 9.60932135 5.18785048 9.62109375 7.16796875 C9.63527344 8.24949219 9.64945313 9.33101562 9.6640625 10.4453125 C9.43359375 13.23046875 9.43359375 13.23046875 7.43359375 15.23046875 C5.12109375 15.49609375 5.12109375 15.49609375 2.43359375 15.48046875 C1.10328125 15.48820313 1.10328125 15.48820313 -0.25390625 15.49609375 C-2.56640625 15.23046875 -2.56640625 15.23046875 -4.56640625 13.23046875 C-4.83203125 10.69921875 -4.83203125 10.69921875 -4.81640625 7.73046875 C-4.8215625 6.75078125 -4.82671875 5.77109375 -4.83203125 4.76171875 C-4.45908637 1.20777339 -3.55869839 0.3195787 0 0 Z " fill="#F7FAFC" transform="translate(225.56640625,215.76953125)"/>
<path d="M0 0 C1.3303125 0.00773437 1.3303125 0.00773437 2.6875 0.015625 C3.574375 0.01046875 4.46125 0.0053125 5.375 0 C7.6875 0.265625 7.6875 0.265625 9.6875 2.265625 C9.91796875 5.05078125 9.91796875 5.05078125 9.875 8.328125 C9.86533203 9.95427734 9.86533203 9.95427734 9.85546875 11.61328125 C9.6875 14.265625 9.6875 14.265625 8.6875 15.265625 C6.87822719 15.39050258 5.06353893 15.44133346 3.25 15.453125 C2.26128906 15.46730469 1.27257812 15.48148438 0.25390625 15.49609375 C-2.3125 15.265625 -2.3125 15.265625 -4.3125 13.265625 C-4.578125 10.734375 -4.578125 10.734375 -4.5625 7.765625 C-4.56765625 6.7859375 -4.5728125 5.80625 -4.578125 4.796875 C-4.22423978 1.42455707 -3.40784714 0.3914419 0 0 Z " fill="#F8FAFD" transform="translate(225.3125,127.734375)"/>
<path d="M0 0 C1.3303125 0.00773438 1.3303125 0.00773438 2.6875 0.015625 C3.574375 0.01046875 4.46125 0.0053125 5.375 0 C7.6875 0.265625 7.6875 0.265625 9.6875 2.265625 C9.8828125 5.0859375 9.8828125 5.0859375 9.8125 8.390625 C9.79445312 9.48632812 9.77640625 10.58203125 9.7578125 11.7109375 C9.73460937 12.55398437 9.71140625 13.39703125 9.6875 14.265625 C7.20974905 15.50450048 5.45096293 15.43304169 2.6875 15.453125 C1.3571875 15.47439453 1.3571875 15.47439453 0 15.49609375 C-2.3125 15.265625 -2.3125 15.265625 -4.3125 13.265625 C-4.578125 10.734375 -4.578125 10.734375 -4.5625 7.765625 C-4.56765625 6.7859375 -4.5728125 5.80625 -4.578125 4.796875 C-4.22423978 1.42455707 -3.40784714 0.3914419 0 0 Z " fill="#F9FBFD" transform="translate(225.3125,171.734375)"/>
</svg>
